<?xml version="1.0" encoding="UTF-8"?>
<svg fill="none" version="1.1" viewBox="0 0 256 256" xmlns="http://www.w3.org/2000/svg">
 <g transform="matrix(.7098 0 0 .7098 12.658 12.658)">
  <g fill="#2977ff">
   <path d="m254.56 253.44-5.996-5.597 5.597-5.996 5.996 5.597zm-12.072-11.193-5.997-5.597 5.597-5.996 5.996 5.597zm-12.073-11.193-5.996-5.597 5.596-5.996 5.997 5.596zm-12.072-11.193-5.997-5.597 5.597-5.996 5.996 5.596zm-12.073-11.193-5.996-5.597 5.596-5.996 5.997 5.596zm-12.073-11.194-5.996-5.596 5.597-5.996 5.996 5.596zm-12.072-11.113-5.996-5.596 5.596-5.997 5.996 5.597zm-12.073-11.193-5.996-5.596 5.597-5.997 5.996 5.597zm-12.072-11.193-5.997-5.596 5.597-5.997 5.996 5.597zm-11.993-11.193-5.996-5.597 5.596-5.996 5.997 5.597zm-12.072-11.193-5.997-5.597 5.597-5.996 5.996 5.597zm-12.073-11.193-5.996-5.597 5.596-5.996 5.997 5.596zm-12.073-11.193-5.996-5.597 5.597-5.996 5.996 5.596zm-12.072-11.193-5.9963-5.597 5.5965-5.9964 5.9959 5.5964zm-12.073-11.194-5.9963-5.5966 5.5965-5.9963 5.9964 5.5966zm-12.073-11.193-5.9963-5.5966 5.5966-5.9963 5.9963 5.5966zm-12.072-11.193-5.9963-5.5966 5.5965-5.9963 5.9963 5.5966z"/>
   <path d="m296.22 166.62h-8.235v-8.235h8.235zm-16.47 0h-8.235v-8.235h8.235zm-16.47 0h-8.235v-8.235h8.235zm-16.47 0h-8.235v-8.235h8.235zm-16.47 0h-8.235v-8.235h8.235zm-16.47 0h-8.235v-8.235h8.235zm-16.39 0h-8.234v-8.235h8.234zm-16.469 0h-8.235v-8.235h8.235zm-16.47 0h-8.235v-8.235h8.235zm-16.47 0h-8.235v-8.235h8.235zm-16.47 0h-8.235v-8.235h8.235zm-16.39 0h-8.235v-8.235h8.235zm-16.47 0h-8.2349v-8.235h8.2349zm-16.47 0h-8.235v-8.235h8.235zm-16.47 0h-8.2349v-8.235h8.2349zm-16.47 0h-8.155v-8.235h8.2349v8.235zm-16.39 0h-8.2349v-8.235h8.2349z"/>
   <path d="m61.082 256.48-5.5965-5.996 5.9963-5.597 5.5965 5.997zm12.073-11.193-5.5966-5.996 5.9963-5.597 5.5966 5.997zm12.073-11.193-5.5966-5.996 5.9963-5.597 5.5966 5.996zm12.072-11.193-5.5965-5.996 5.9963-5.597 5.5961 5.996zm11.993-11.193-5.597-5.997 5.996-5.596 5.597 5.996zm12.072-11.193-5.596-5.997 5.996-5.596 5.597 5.996zm12.073-11.193-5.597-5.997 5.997-5.596 5.596 5.996zm12.072-11.194-5.596-5.996 5.996-5.596 5.597 5.996zm12.073-11.193-5.597-5.996 5.997-5.597 5.596 5.997zm12.073-11.193-5.597-5.996 5.996-5.597 5.597 5.997zm12.072-11.193-5.596-5.996 5.996-5.597 5.596 5.997zm12.073-11.193-5.597-5.996 5.997-5.597 5.596 5.996zm12.072-11.193-5.596-5.996 5.996-5.597 5.597 5.996zm11.993-11.193-5.597-5.997 5.997-5.5961 5.596 5.9961zm12.073-11.193-5.597-5.9963 5.996-5.5965 5.597 5.9963zm12.072-11.193-5.596-5.9963 5.996-5.5965 5.596 5.9963zm12.073-11.193-5.597-5.9963 5.996-5.5965 5.597 5.9963z"/>
   <path d="m166.62 296.22h-8.234v-8.235h8.234zm0-16.47h-8.234v-8.235h8.234zm0-16.47h-8.234v-8.235h8.234zm0-16.47h-8.234v-8.235h8.234zm0-16.47h-8.234v-8.235h8.234zm0-16.47h-8.234v-8.234h8.234zm0-16.389h-8.234v-8.235h8.234zm0-16.47h-8.234v-8.235h8.234zm0-16.47h-8.234v-8.235h8.234zm0-16.47h-8.234v-8.235h8.234zm0-16.47h-8.234v-8.235h8.234zm0-16.39h-8.234v-8.235h8.234zm0-16.47h-8.234v-8.235h8.234zm0-16.47h-8.234v-8.2349h8.234zm0-16.47h-8.234v-8.2349h8.234zm0-16.47h-8.234v-8.155h8.234zm0-16.39h-8.234v-8.235h8.234z"/>
  </g>
  <path d="m107.53 117.37v87.546c0 11.513 24.625 20.787 55.006 20.787s55.006-9.354 55.006-20.787v-87.546" fill="#65c8cf"/>
  <g fill="#007ad9">
   <path d="m162.46 138.16c30.379 0 55.006-9.307 55.006-20.787 0-11.481-24.627-20.787-55.006-20.787s-55.006 9.3064-55.006 20.787c0 11.48 24.627 20.787 55.006 20.787z"/>
   <path d="m107.53 175.17c0 11.513 24.625 20.788 55.006 20.788s55.006-9.355 55.006-20.788v-29.741c0 11.513-24.625 20.787-55.006 20.787s-55.006-9.354-55.006-20.787z"/>
   <path d="m184.77 154.46c1.943 0 3.518-1.575 3.518-3.518s-1.575-3.518-3.518-3.518-3.518 1.575-3.518 3.518 1.575 3.518 3.518 3.518z"/>
  </g>
  <path d="m185.57 182.77c1.943 0 3.518-1.575 3.518-3.518s-1.575-3.518-3.518-3.518-3.518 1.575-3.518 3.518 1.575 3.518 3.518 3.518z" fill="#65c8d0"/>
  <path d="m185.57 213.07c1.943 0 3.518-1.575 3.518-3.518s-1.575-3.518-3.518-3.518-3.518 1.575-3.518 3.518 1.575 3.518 3.518 3.518z" fill="#007ad9"/>
  <path d="m58.284 90.504c-13.592 0-24.705-11.033-24.705-24.705s11.033-24.705 24.705-24.705 24.705 11.033 24.705 24.705-11.113 24.705-24.705 24.705z" fill="#2977ff"/>
  <path d="m58.284 82.989c9.4935 0 17.19-7.6959 17.19-17.189 0-9.4934-7.696-17.189-17.19-17.189-9.4934 0-17.189 7.696-17.189 17.189 0 9.4935 7.696 17.189 17.189 17.189z" fill="#fff" opacity=".2"/>
  <path d="m24.705 187.16c-13.592 0-24.705-11.033-24.705-24.705 0-13.671 11.033-24.705 24.705-24.705s24.705 11.034 24.705 24.705c0 13.672-11.113 24.705-24.705 24.705z" fill="#2977ff"/>
  <path d="m24.705 179.65c9.4935 0 17.189-7.696 17.189-17.189 0-9.494-7.6959-17.189-17.189-17.189s-17.189 7.695-17.189 17.189c0 9.493 7.6959 17.189 17.189 17.189z" fill="#fff" opacity=".2"/>
  <path d="m162.46 49.33c-13.592 0-24.705-11.033-24.705-24.705 0-13.672 11.113-24.625 24.705-24.625s24.705 11.033 24.705 24.705-11.033 24.625-24.705 24.625z" fill="#2977ff"/>
  <path d="m162.46 41.894c9.494 0 17.189-7.6959 17.189-17.189s-7.695-17.189-17.189-17.189c-9.493 0-17.189 7.6959-17.189 17.189s7.696 17.189 17.189 17.189z" fill="#fff" opacity=".2"/>
  <path d="m260.56 90.504c-13.592 0-24.705-11.033-24.705-24.705s11.033-24.705 24.705-24.705c13.671 0 24.704 11.033 24.704 24.705s-11.113 24.705-24.704 24.705z" fill="#2977ff"/>
  <path d="m260.56 82.989c9.493 0 17.189-7.6959 17.189-17.189 0-9.4934-7.696-17.189-17.189-17.189-9.494 0-17.19 7.696-17.19 17.189 0 9.4935 7.696 17.189 17.19 17.189z" fill="#fff" opacity=".2"/>
  <path d="m300.3 187.16c-13.591 0-24.705-11.033-24.705-24.705 0-13.671 11.034-24.705 24.705-24.705 13.672 0 24.705 11.034 24.705 24.705 0 13.672-11.113 24.705-24.705 24.705z" fill="#2977ff"/>
  <path d="m300.3 179.65c9.494 0 17.19-7.696 17.19-17.189 0-9.494-7.696-17.189-17.19-17.189-9.493 0-17.189 7.695-17.189 17.189 0 9.493 7.696 17.189 17.189 17.189z" fill="#fff" opacity=".2"/>
  <path d="m260.56 278.15c-13.592 0-24.705-11.033-24.705-24.705s11.033-24.705 24.705-24.705c13.671 0 24.704 11.033 24.704 24.705s-11.113 24.705-24.704 24.705z" fill="#2977ff"/>
  <path d="m260.56 270.63c9.493 0 17.189-7.696 17.189-17.19 0-9.493-7.696-17.189-17.189-17.189-9.494 0-17.19 7.696-17.19 17.189 0 9.494 7.696 17.19 17.19 17.19z" fill="#fff" opacity=".2"/>
  <path d="m162.46 325c-13.592 0-24.705-11.033-24.705-24.705 0-13.671 11.033-24.705 24.705-24.705s24.705 11.034 24.705 24.705c0 13.672-11.033 24.705-24.705 24.705z" fill="#2977ff"/>
  <path d="m162.46 317.48c9.494 0 17.189-7.696 17.189-17.189 0-9.494-7.695-17.19-17.189-17.19-9.493 0-17.189 7.696-17.189 17.19 0 9.493 7.696 17.189 17.189 17.189z" fill="#fff" opacity=".2"/>
  <path d="m58.284 278.15c-13.592 0-24.705-11.113-24.705-24.705s11.033-24.705 24.705-24.705 24.705 11.033 24.705 24.705-11.113 24.705-24.705 24.705z" fill="#2977ff"/>
  <path d="m58.284 270.63c9.4935 0 17.19-7.696 17.19-17.19 0-9.493-7.696-17.189-17.19-17.189-9.4934 0-17.189 7.696-17.189 17.189 0 9.494 7.696 17.19 17.189 17.19z" fill="#fff" opacity=".2"/>
 </g>
</svg>
