<svg width="509" height="509" viewBox="0 0 509 509" fill="none" xmlns="http://www.w3.org/2000/svg">
<g clip-path="url(#clip0)">
<g opacity="0.2" filter="url(#filter0_d)">
<path d="M254.546 509.092C395.128 509.092 509.092 395.128 509.092 254.546C509.092 113.964 395.128 0 254.546 0C113.964 0 0 113.964 0 254.546C0 395.128 113.964 509.092 254.546 509.092Z" fill="white"/>
</g>
<path d="M276.797 347.889L70.9996 346.966L50.5953 298.956L122.888 293.693L110.239 241.159L253.254 222.601L116.332 174.96L128.427 172.098L348.628 208.013L336.533 290.092L319.175 335.24L276.797 347.889Z" fill="#6C63FF"/>
<path d="M394.237 309.758C394.237 309.758 380.573 326.377 391.467 351.582L282.614 398.761L272.181 400.977L267.38 379.927L270.611 353.336V338.841L394.237 309.758Z" fill="#D5D6DB"/>
<path d="M50.5953 298.955L201.181 271.534L400.792 303.295L276.797 347.889L50.5953 298.955Z" fill="#6C63FF"/>
<path d="M50.5953 298.955L201.181 271.534L400.792 303.295L276.797 347.889L50.5953 298.955Z" fill="#007AD9"/>
<path d="M50.5953 298.956C50.5953 298.956 36.4693 325.638 52.7188 350.29L276.151 398.669C276.151 398.669 262.302 377.434 276.889 347.889L50.5953 298.956Z" fill="#6C63FF"/>
<path d="M50.5953 298.956C50.5953 298.956 36.4693 325.638 52.7188 350.29L276.151 398.669C276.151 398.669 262.302 377.434 276.889 347.889L50.5953 298.956Z" fill="#007AD9"/>
<path opacity="0.2" d="M57.2429 308.188C57.2429 308.188 49.2104 327.762 57.2429 340.318V308.188Z" fill="white"/>
<path d="M276.058 398.669L400.792 345.488C400.792 345.488 407.809 346.966 403.285 352.136C398.761 357.214 278.551 403.839 278.551 403.839L52.7188 350.289L276.058 398.669Z" fill="#6C63FF"/>
<path d="M276.058 398.669L400.792 345.488C400.792 345.488 407.809 346.966 403.285 352.136C398.761 357.214 278.551 403.839 278.551 403.839L52.7188 350.289L276.058 398.669Z" fill="#007AD9"/>
<path opacity="0.2" d="M265.902 353.336C265.902 353.336 253.9 367.739 265.902 389.436V353.336Z" fill="white"/>
<path opacity="0.1" d="M324.08 353.029L270.13 371.029L270.334 371.642L324.284 353.642L324.08 353.029Z" fill="black"/>
<path opacity="0.1" d="M334.809 351.33L270.085 375.939L270.315 376.544L335.038 351.934L334.809 351.33Z" fill="black"/>
<path opacity="0.1" d="M344.867 351.158L270.527 381.585L270.772 382.183L345.112 351.756L344.867 351.158Z" fill="black"/>
<path opacity="0.1" d="M355.566 348.546L271.344 386.595L271.61 387.184L355.832 349.135L355.566 348.546Z" fill="black"/>
<path opacity="0.1" d="M364.69 348.625L272.054 389.115L272.313 389.707L364.949 349.217L364.69 348.625Z" fill="black"/>
<path opacity="0.1" d="M384.535 345.226L273.419 393.218L273.675 393.812L384.791 345.819L384.535 345.226Z" fill="black"/>
<path opacity="0.2" d="M106.546 301.91L212.353 279.659L276.797 291.939L190.102 319.914L106.546 301.91Z" fill="white"/>
<path d="M400.793 303.295C400.793 303.295 406.24 305.511 403.008 308.927C399.777 312.343 276.705 347.981 276.705 347.981L400.793 303.295Z" fill="#007AD9"/>
<path d="M453.973 251.869C453.973 251.869 440.309 268.488 451.203 293.693L342.349 340.872L331.916 343.088L327.115 322.037L330.347 295.447V280.952L453.973 251.869Z" fill="#D5D6DB"/>
<path d="M110.239 241.159L260.917 213.645L460.528 245.498L336.533 290.092L110.239 241.159Z" fill="#65C8CF"/>
<path d="M110.239 241.159C110.239 241.159 96.1126 267.841 112.362 292.493L335.794 340.872C335.794 340.872 321.945 319.637 336.533 290.092L110.239 241.159Z" fill="#3A3768"/>
<path d="M110.239 241.159C110.239 241.159 96.1126 267.841 112.362 292.493L335.794 340.872C335.794 340.872 321.945 319.637 336.533 290.092L265.902 274.766L110.239 241.159Z" fill="#65C8CF"/>
<path opacity="0.2" d="M116.886 250.391C116.886 250.391 108.854 269.872 116.886 282.521V250.391Z" fill="white"/>
<path d="M335.794 340.872L460.528 287.692C460.528 287.692 467.453 289.169 463.021 294.339C458.497 299.417 338.287 346.042 338.287 346.042L112.455 292.493L335.794 340.872Z" fill="#3A3768"/>
<path d="M335.794 340.872L460.528 287.692C460.528 287.692 467.453 289.169 463.021 294.339C458.497 299.417 338.287 346.042 338.287 346.042L112.455 292.493L335.794 340.872Z" fill="#65C8CF"/>
<path opacity="0.2" d="M325.546 295.447C325.546 295.447 313.543 309.85 325.546 331.547V295.447Z" fill="white"/>
<path opacity="0.1" d="M383.823 295.22L329.873 313.221L330.077 313.834L384.028 295.834L383.823 295.22Z" fill="black"/>
<path opacity="0.1" d="M394.525 293.44L329.801 318.05L330.031 318.654L394.754 294.044L394.525 293.44Z" fill="black"/>
<path opacity="0.1" d="M404.534 293.382L330.193 323.809L330.438 324.407L404.779 293.98L404.534 293.382Z" fill="black"/>
<path opacity="0.1" d="M415.314 290.738L331.092 328.787L331.358 329.376L415.58 291.327L415.314 290.738Z" fill="black"/>
<path opacity="0.1" d="M424.323 290.765L331.686 331.255L331.945 331.847L424.582 291.357L424.323 290.765Z" fill="black"/>
<path opacity="0.1" d="M444.25 287.332L333.134 335.325L333.391 335.918L444.506 287.926L444.25 287.332Z" fill="black"/>
<path opacity="0.2" d="M166.189 244.021L272.088 221.77L336.533 234.142L249.837 262.117L166.189 244.021Z" fill="white"/>
<path d="M460.528 245.498C460.528 245.498 465.976 247.714 462.744 251.13C459.513 254.546 336.533 290.184 336.533 290.184L460.528 245.498Z" fill="#65C8CF"/>
<path d="M459.605 185.67C459.605 185.67 445.941 215.492 456.835 240.697L347.981 274.673L337.548 276.889L332.747 255.839L335.979 229.248V214.753L459.605 185.67Z" fill="#D5D6DB"/>
<path d="M115.963 174.96L266.549 147.539L466.16 179.299L342.165 223.893L115.963 174.96Z" fill="#007AD9"/>
<path d="M115.963 174.96C115.963 174.96 101.837 201.643 118.087 226.294L341.518 274.673C341.518 274.673 327.669 253.438 342.257 223.893L115.963 174.96Z" fill="#6C63FF"/>
<path d="M115.963 174.96C115.963 174.96 101.837 201.643 118.087 226.294L341.518 274.673C341.518 274.673 327.669 253.438 342.257 223.893L115.963 174.96Z" fill="#007AD9"/>
<path opacity="0.2" d="M122.611 184.193C122.611 184.193 114.578 203.766 122.611 216.322V184.193Z" fill="white"/>
<path d="M341.426 274.673L466.16 234.696C466.16 234.696 473.177 236.173 468.653 241.343C464.129 246.421 343.919 279.844 343.919 279.844L118.087 226.294L341.426 274.673Z" fill="#6C63FF"/>
<path d="M341.426 274.673L466.16 234.696C466.16 234.696 473.177 236.173 468.653 241.343C464.129 246.421 343.919 279.844 343.919 279.844L118.087 226.294L341.426 274.673Z" fill="#007AD9"/>
<path opacity="0.2" d="M331.27 229.341C331.27 229.341 319.268 243.744 331.27 265.441V229.341Z" fill="white"/>
<path opacity="0.1" d="M389.445 229.038L335.495 247.039L335.699 247.652L389.65 229.651L389.445 229.038Z" fill="black"/>
<path opacity="0.1" d="M400.267 227.312L335.544 251.922L335.773 252.526L400.497 227.916L400.267 227.312Z" fill="black"/>
<path opacity="0.1" d="M410.24 227.163L335.899 257.59L336.144 258.188L410.485 227.761L410.24 227.163Z" fill="black"/>
<path opacity="0.1" d="M420.933 224.563L336.711 262.612L336.977 263.201L421.199 225.152L420.933 224.563Z" fill="black"/>
<path opacity="0.1" d="M430.065 224.636L337.428 265.126L337.687 265.718L430.324 225.228L430.065 224.636Z" fill="black"/>
<path opacity="0.1" d="M449.905 221.243L338.789 269.236L339.046 269.829L450.161 221.836L449.905 221.243Z" fill="black"/>
<path opacity="0.2" d="M171.913 177.914L277.72 155.664L342.165 167.943L255.469 195.918L171.913 177.914Z" fill="white"/>
<path d="M466.16 179.299C466.16 179.299 471.607 181.515 468.376 184.931C465.145 188.347 342.165 223.986 342.165 223.986L466.16 179.299Z" fill="#007AD9"/>
<path d="M393.776 214.107C394.337 214.107 394.791 213.652 394.791 213.091C394.791 212.53 394.337 212.076 393.776 212.076C393.215 212.076 392.76 212.53 392.76 213.091C392.76 213.652 393.215 214.107 393.776 214.107Z" fill="#4B4B5B"/>
<path opacity="0.2" d="M115.963 174.96C115.963 174.96 101.837 201.643 118.087 226.294L341.518 274.673C341.518 274.673 327.669 253.438 342.257 223.893L115.963 174.96Z" fill="white"/>
<path opacity="0.2" d="M50.5953 298.956C50.5953 298.956 36.4693 325.638 52.7188 350.29L276.151 398.669C276.151 398.669 262.302 377.434 276.889 347.889L50.5953 298.956Z" fill="white"/>
<path opacity="0.2" d="M110.239 241.159C110.239 241.159 96.1126 267.841 112.362 292.493L335.794 340.872C335.794 340.872 321.945 319.637 336.533 290.092L110.239 241.159Z" fill="white"/>
<path opacity="0.2" d="M102.68 334.431C104.033 323.192 96.0204 312.984 84.7819 311.63C73.5434 310.277 63.3353 318.29 61.9814 329.528C60.6276 340.767 68.6406 350.975 79.8791 352.329C91.1176 353.682 101.326 345.669 102.68 334.431Z" fill="#65C8CF"/>
<path fill-rule="evenodd" clip-rule="evenodd" d="M88.7265 322.13L89.0958 319.267C89.1881 318.713 89.6497 318.344 90.2037 318.437L96.0203 319.175C96.5743 319.267 96.9436 319.729 96.9436 320.283L96.5743 323.145C96.482 323.699 96.0203 324.068 95.4664 323.976L89.6497 323.238C89.0035 323.145 88.6341 322.684 88.7265 322.13Z" fill="#2F3031"/>
<path fill-rule="evenodd" clip-rule="evenodd" d="M85.8643 345.95L86.2336 343.088C86.326 342.534 86.7876 342.164 87.3416 342.257L93.1582 342.995C93.7121 343.088 94.0815 343.549 94.0815 344.103L93.7121 346.965C93.6198 347.519 93.1582 347.889 92.6042 347.796L86.7876 347.058C86.1413 346.873 85.772 346.412 85.8643 345.95Z" fill="#2F3031"/>
<path fill-rule="evenodd" clip-rule="evenodd" d="M71.1843 338.656C71.9229 341.149 76.2623 342.626 78.0165 343.088C78.3858 335.333 79.4014 327.762 80.7863 320.191C79.0321 320.191 74.3234 320.653 73.1232 322.868C72.5692 323.792 71.9229 327.208 71.4613 330.716C71.092 334.132 70.9073 337.548 71.1843 338.656Z" fill="#999999"/>
<path opacity="0.2" fill-rule="evenodd" clip-rule="evenodd" d="M72.1999 335.979L73.5848 324.807C73.7695 323.607 74.7851 322.684 75.893 322.776L77.3702 322.961C78.4781 323.053 79.2168 324.161 79.1244 325.453L77.5549 336.717C77.3702 337.918 76.3546 338.841 75.2467 338.749L73.7695 338.564C72.7539 338.379 72.0152 337.271 72.1999 335.979Z" fill="#65C8CF"/>
<path fill-rule="evenodd" clip-rule="evenodd" d="M76.3546 327.669L76.6316 325.084C76.8163 323.33 78.2935 322.038 79.9554 322.222L80.417 322.314C79.8631 325.269 79.4014 328.316 79.0321 331.363H78.8475C77.2779 330.993 76.17 329.424 76.3546 327.669Z" fill="#E4DDD7"/>
<path fill-rule="evenodd" clip-rule="evenodd" d="M75.062 338.472L75.339 336.164C75.5237 334.594 77.0009 333.486 78.5705 333.671H78.8475C78.5705 336.348 78.2935 339.026 78.2012 341.796L77.6472 341.703C75.9853 341.519 74.7851 340.041 75.062 338.472Z" fill="#E4DDD7"/>
<path fill-rule="evenodd" clip-rule="evenodd" d="M72.0152 332.655L72.4769 328.962C72.4769 328.777 72.6615 328.593 72.8462 328.685L73.4001 328.777C73.5848 328.777 73.6771 328.962 73.6771 329.147L73.2155 332.84C73.2155 333.024 73.0308 333.209 72.8462 333.117L72.2922 333.024C72.1076 333.024 71.9229 332.84 72.0152 332.655Z" fill="#E4DDD7"/>
<path d="M71.5614 330.609L71.5062 331.068L72.4228 331.178L72.478 330.72L71.5614 330.609Z" fill="#E4DDD7"/>
<path d="M73.9541 326.469C76.17 327.208 77.0932 327.854 77.0932 327.854C77.0932 327.854 77.1856 326.746 77.2779 325.823C77.3702 324.899 77.6472 323.699 77.6472 323.699C77.6472 323.699 74.785 323.884 74.4157 323.792C74.0464 323.699 73.9541 326.469 73.9541 326.469Z" fill="#2F3031"/>
<path d="M77.5549 325.546C77.3702 326.192 76.9086 326.007 76.9086 326.007C76.9086 326.007 76.6316 325.915 76.3546 325.915C76.2623 325.915 76.17 325.915 76.0776 325.915C75.9853 325.915 75.8007 325.915 75.7083 325.915C75.1544 325.915 75.616 324.715 75.616 324.715C75.616 324.715 76.7239 324.899 77.0009 324.807C77.3702 324.53 77.8319 324.899 77.5549 325.546Z" fill="#E48868"/>
<path d="M77.0009 326.654C77.0009 326.654 78.6628 325.546 79.0321 325.084C79.0321 325.084 78.5705 324.438 77.2779 324.623C77.2779 324.715 76.8163 325.269 77.0009 326.654Z" fill="#E48868"/>
<path d="M73.3078 326.284C73.3078 326.284 74.5081 327.115 75.8007 326.561C77.0932 326.007 75.5237 324.53 75.339 324.438C75.1544 324.346 74.0464 323.699 73.5848 324.623C73.1232 325.454 73.0308 326.007 73.3078 326.284Z" fill="#E48868"/>
<path d="M73.8618 326.1C73.8618 326.1 74.4157 326.654 74.8774 326.746C74.8774 326.746 73.9541 327.023 73.2155 326.377C72.4769 325.731 72.6615 324.9 73.4001 324.161C73.8618 323.792 74.5081 323.607 75.8007 324.623C75.7083 324.623 74.4157 326.1 73.8618 326.1Z" fill="#2F3031"/>
<path d="M76.17 325.269C76.17 325.269 76.4469 325.453 76.6316 325.915C76.5393 325.915 76.5393 325.915 76.4469 325.915C76.3546 325.915 76.3546 325.546 76.17 325.269Z" fill="#A77860"/>
<path d="M80.8787 323.976C80.971 324.069 81.1556 324.161 81.248 324.253C81.6173 324.623 84.1101 324.715 84.8487 324.715C84.9411 324.715 85.0334 324.807 85.0334 324.807L85.1257 325.084C85.1257 325.269 85.0334 325.361 84.8487 325.361C82.4482 324.9 78.6628 324.069 77.1856 324.807C77.4625 324.346 77.8319 323.884 78.0165 323.607C78.1088 323.515 78.2935 323.422 78.3858 323.33C78.6628 323.238 79.3091 323.145 79.8631 322.961C80.0477 322.868 82.8175 322.684 80.8787 323.976Z" fill="#007AD9"/>
<path d="M78.9398 328.223C78.9398 328.223 79.4937 328.039 80.3247 327.854C80.8786 327.762 81.4326 327.854 82.0789 328.039C82.5405 328.131 83.2792 328.593 83.6485 328.87C83.6485 328.87 83.7408 328.87 83.8331 328.87C83.8331 328.87 83.9254 328.87 83.9254 328.777L84.2948 328.039L84.3871 327.854C84.4794 327.762 84.4794 327.577 84.3871 327.485C84.2948 327.392 84.2024 327.3 84.1101 327.3C82.7252 326.931 81.3403 326.562 80.8786 326.285C78.6628 325.177 76.8162 326.1 76.8162 326.1C76.8162 326.1 76.8163 327.392 76.9086 327.669C76.9086 327.946 77.5549 328.777 78.2012 329.239C78.2012 329.239 79.9554 330.07 80.417 329.424C80.8786 328.777 80.8786 328.408 80.694 328.223" fill="#007AD9"/>
<path d="M80.7943 328.309C80.8492 327.854 80.5243 327.44 80.0687 327.385C79.6131 327.33 79.1993 327.655 79.1444 328.11C79.0895 328.566 79.4143 328.98 79.87 329.035C80.3256 329.09 80.7394 328.765 80.7943 328.309Z" fill="#072643"/>
<path d="M81.4463 323.855C81.5012 323.399 81.1764 322.985 80.7208 322.93C80.2652 322.876 79.8513 323.2 79.7964 323.656C79.7415 324.112 80.0664 324.525 80.522 324.58C80.9776 324.635 81.3915 324.31 81.4463 323.855Z" fill="#072643"/>
<path d="M80.7863 323.515C82.0789 323.699 83.0945 324.9 82.9098 326.192C82.7252 327.485 81.5249 328.5 80.2324 328.316C78.9398 328.131 77.9242 326.931 78.1088 325.638C78.2935 324.253 79.4937 323.33 80.7863 323.515ZM78.6628 325.638C78.5705 326.654 79.3091 327.577 80.3247 327.669C81.3403 327.762 82.2636 327.023 82.3559 326.008C82.4482 324.992 81.7096 324.069 80.694 323.976C79.6784 323.976 78.7551 324.623 78.6628 325.638Z" fill="#999999"/>
<path d="M79.9554 327.3L79.4937 328.223C79.4937 328.316 79.4014 328.316 79.4014 328.316C79.3091 328.316 79.3091 328.223 79.3091 328.223L79.7707 327.3C79.7707 327.208 79.8631 327.208 79.8631 327.208C79.9554 327.208 79.9554 327.3 79.9554 327.3Z" fill="#E48868"/>
<path d="M80.14 327.485L79.6784 328.408C79.6784 328.5 79.5861 328.5 79.5861 328.5C79.4937 328.5 79.4937 328.408 79.4937 328.408L79.9554 327.485C79.9554 327.392 80.0477 327.392 80.0477 327.392C80.14 327.3 80.14 327.392 80.14 327.485Z" fill="#E48868"/>
<path d="M80.3247 327.577L79.8631 328.5C79.8631 328.593 79.7707 328.593 79.7707 328.593C79.6784 328.593 79.6784 328.5 79.6784 328.5L80.14 327.577C80.14 327.485 80.2324 327.485 80.2324 327.485C80.3247 327.392 80.417 327.485 80.3247 327.577Z" fill="#E48868"/>
<path d="M80.6017 327.669L80.14 328.593C80.14 328.685 80.0477 328.685 80.0477 328.685C79.9554 328.685 79.9554 328.593 79.9554 328.593L80.417 327.669C80.417 327.577 80.5093 327.577 80.5093 327.577C80.6017 327.577 80.6017 327.577 80.6017 327.669Z" fill="#E48868"/>
<path d="M80.7863 327.762L80.3247 328.685C80.3247 328.777 80.2324 328.777 80.2324 328.777C80.14 328.777 80.14 328.685 80.14 328.685L80.6017 327.762C80.6017 327.669 80.694 327.669 80.694 327.669C80.7863 327.669 80.7863 327.669 80.7863 327.762Z" fill="#E48868"/>
<path d="M80.3247 324.438L80.14 323.422C80.14 323.33 80.0477 323.33 80.0477 323.33C79.9554 323.33 79.9554 323.422 79.9554 323.422L80.14 324.438C80.14 324.53 80.2324 324.53 80.2324 324.53C80.3247 324.53 80.3247 324.53 80.3247 324.438Z" fill="#E48868"/>
<path d="M80.6017 324.345L80.417 323.33C80.417 323.238 80.3247 323.238 80.3247 323.238C80.2324 323.238 80.2324 323.33 80.2324 323.33L80.417 324.345C80.417 324.438 80.5093 324.438 80.5093 324.438C80.5093 324.53 80.6017 324.438 80.6017 324.345Z" fill="#E48868"/>
<path d="M80.7863 324.345L80.6017 323.33C80.6017 323.238 80.5093 323.238 80.5093 323.238C80.417 323.238 80.417 323.33 80.417 323.33L80.6017 324.345C80.6017 324.438 80.694 324.438 80.694 324.438C80.7863 324.438 80.7863 324.438 80.7863 324.345Z" fill="#E48868"/>
<path d="M81.0633 324.253L80.8787 323.238C80.8787 323.145 80.7863 323.145 80.7863 323.145C80.694 323.145 80.694 323.238 80.694 323.238L80.8787 324.253C80.8787 324.346 80.971 324.346 80.971 324.346C80.971 324.346 81.0633 324.346 81.0633 324.253Z" fill="#E48868"/>
<path d="M81.248 324.253L81.0633 323.238C81.0633 323.145 80.971 323.145 80.971 323.145C80.8786 323.145 80.8786 323.238 80.8786 323.238L81.0633 324.253C81.0633 324.346 81.1556 324.346 81.1556 324.346C81.248 324.346 81.248 324.253 81.248 324.253Z" fill="#E48868"/>
<path opacity="0.2" d="M80.971 320.191C80.971 320.283 79.6784 327.762 79.2168 331.732C78.7551 335.794 78.2012 342.996 78.2012 342.996H78.0165C78.0165 342.903 78.4781 335.702 79.0321 331.64C79.5861 327.577 80.7863 320.099 80.7863 320.099L80.971 320.191Z" fill="white"/>
<path d="M78.6628 334.963C78.6628 334.963 81.7096 333.394 81.9866 333.578C82.3559 333.948 83.0022 336.441 83.0022 336.441L83.9254 336.164C83.9254 336.164 83.3715 331.732 82.0789 331.917C80.7863 332.101 77.8319 333.394 77.8319 333.394L78.6628 334.963Z" fill="#E48868"/>
<path d="M84.1101 336.348C84.1101 336.348 83.8331 335.794 83.5561 335.794C83.3715 335.702 83.0022 336.256 83.0022 336.256L83.0945 336.718L84.1101 336.348Z" fill="#E48868"/>
<path d="M83.1868 336.44C83.1868 336.44 82.9099 336.994 82.9099 337.087C82.9099 337.179 82.9098 337.456 83.0945 337.641C83.1868 337.918 83.3715 338.195 83.4638 338.195C83.4638 338.195 83.5561 338.287 83.6485 338.195C83.7408 338.195 83.8331 338.01 83.8331 338.01C83.8331 338.01 84.0178 338.01 84.1101 337.918C84.1101 337.918 84.2948 337.918 84.3871 337.733C84.3871 337.733 84.5717 337.733 84.6641 337.641C84.6641 337.641 84.5717 337.364 84.6641 337.271C84.6641 337.179 84.5717 336.717 84.2948 336.256C84.2024 336.348 83.8331 335.979 83.1868 336.44Z" fill="#E48868"/>
<path d="M82.9099 337.087C82.9099 337.087 83.2792 337.456 83.5561 337.548C83.6485 337.548 83.6485 337.548 83.7408 337.548C83.8331 337.456 83.7408 337.364 83.6485 337.179C83.5561 336.994 83.3715 336.717 83.3715 336.717C83.3715 336.717 83.1868 336.625 82.9099 337.087Z" fill="#E48868"/>
<path d="M83.7408 338.195C83.7408 338.195 83.4638 337.456 83.4638 337.364C83.4638 337.271 83.1868 337.364 83.1868 337.456C83.1868 337.548 83.3715 338.195 83.4638 338.195C83.4638 338.287 83.6485 338.379 83.7408 338.195Z" fill="#E48868"/>
<path d="M83.2792 337.918C83.2792 337.918 83.8331 339.21 83.9254 339.118C84.1101 339.026 84.1101 338.749 83.6485 337.733C83.1868 336.902 83.2792 337.918 83.2792 337.918Z" fill="#E48868"/>
<path d="M85.9567 341.98L87.2492 335.794C87.2492 335.794 84.1101 335.425 83.6485 335.425C83.0945 335.425 81.0633 335.24 79.6784 334.871C79.4014 334.779 79.6784 334.409 79.6784 334.409L79.1244 334.04L78.1088 333.301C77.6472 333.578 76.4469 335.24 76.17 336.163C75.893 336.994 75.893 337.179 75.8006 337.733C75.7083 339.118 76.9086 341.426 77.2779 341.518C77.2779 341.518 77.5549 341.703 77.6472 341.611C77.7395 341.611 78.5705 340.595 78.5705 340.318C78.5705 340.318 78.6628 340.318 78.8475 340.318C79.0321 340.318 84.7564 341.98 85.9567 341.98Z" fill="#FAB348"/>
<g opacity="0.2">
<g opacity="0.2">
<path opacity="0.2" d="M84.8487 340.78C84.7564 340.78 84.7564 340.78 84.8487 340.78C84.4794 340.041 83.9254 339.303 83.2792 338.749C83.2792 338.749 83.2792 338.749 83.2792 338.656C83.2792 338.656 83.2792 338.656 83.3715 338.656C83.9255 339.303 84.4794 339.949 84.8487 340.78Z" fill="white"/>
</g>
</g>
<g opacity="0.2">
<g opacity="0.2">
<path opacity="0.2" d="M86.2336 338.933C86.1413 338.933 86.1413 338.933 86.2336 338.933C85.495 338.379 84.8487 337.918 84.1101 337.641C84.1101 337.641 84.1101 337.641 84.1101 337.548C84.1101 337.548 84.1101 337.548 84.2024 337.548C84.941 337.918 85.495 338.287 86.2336 338.933Z" fill="white"/>
</g>
</g>
<g opacity="0.2">
<g opacity="0.2">
<path opacity="0.2" d="M85.772 337.179C85.772 337.271 85.772 337.271 85.772 337.179C84.8487 337.087 84.0178 336.902 83.2792 336.717C82.7252 336.625 82.0789 336.44 81.4326 336.348C80.694 336.163 79.2168 335.979 78.5705 336.256H78.4781V336.163C79.1244 335.886 80.6017 336.071 81.4326 336.256C82.0789 336.348 82.6329 336.533 83.2792 336.625C84.0178 336.81 84.8487 336.994 85.772 337.179Z" fill="white"/>
</g>
</g>
<g opacity="0.2">
<g opacity="0.2">
<path opacity="0.2" d="M76.6316 337.271C76.6316 337.364 76.6316 337.364 76.6316 337.271C76.5393 337.733 76.3546 338.102 75.9853 338.379H75.893V338.287C76.17 338.102 76.3546 337.733 76.4469 337.364C76.5393 336.994 76.4469 336.625 76.2623 336.348V336.256H76.3546C76.6316 336.533 76.7239 336.902 76.6316 337.271Z" fill="white"/>
</g>
</g>
<path d="M74.5081 338.01L75.7083 338.195C75.7083 338.195 76.8163 337.364 75.9853 336.348L74.7851 336.256L74.5081 338.01Z" fill="#E48868"/>
<path d="M71.8306 336.995C71.8306 338.01 72.9385 338.195 73.9541 338.287C74.9697 338.287 75.616 337.918 75.7083 337.272C75.8007 336.625 75.1544 336.071 74.2311 335.887C73.3078 335.61 71.8306 335.333 71.8306 336.995Z" fill="#E48868"/>
<path d="M73.6771 338.01C73.6771 338.01 73.3078 338.01 73.4001 338.287C73.4925 338.656 74.4157 338.379 74.4157 338.01C74.3234 337.733 73.6771 338.01 73.6771 338.01Z" fill="#E48868"/>
<path d="M74.0464 335.979C74.0464 335.979 73.6771 335.887 73.7695 335.61C73.9541 335.333 74.785 335.794 74.6927 336.071C74.6004 336.441 74.0464 335.979 74.0464 335.979Z" fill="#E48868"/>
<path d="M80.3247 338.195L79.0321 337.733L79.4014 336.44L81.8019 337.548L81.3403 338.564L80.3247 338.195Z" fill="#004A90"/>
<path d="M81.8943 338.195C81.8943 338.195 81.9866 338.933 81.8019 339.026C81.6173 339.118 80.971 338.933 80.971 338.933C80.971 338.933 80.6017 338.564 80.417 338.472C80.2324 338.472 79.8631 338.102 79.9554 338.01C80.0477 337.918 80.417 338.102 80.417 338.102V336.717C80.417 336.44 80.6017 336.533 80.694 336.625C80.7863 336.625 80.8787 336.994 80.8787 336.994C80.8787 336.994 81.1556 336.902 81.248 336.902C81.3403 336.902 81.4326 337.087 81.4326 337.087L81.8019 336.994C81.8943 337.087 81.8943 337.179 81.8943 337.179L82.0789 337.271C81.8943 337.456 81.8943 338.195 81.8943 338.195Z" fill="#E48868"/>
<path d="M74.2311 337.549C74.2311 337.826 74.0464 338.01 73.7695 338.01C73.4925 338.01 73.3078 337.826 73.3078 337.549C73.3078 337.272 73.4925 337.087 73.7695 337.087C74.0464 337.087 74.2311 337.364 74.2311 337.549ZM73.4001 337.549C73.4001 337.733 73.5848 337.918 73.7695 337.918C73.9541 337.918 74.1388 337.733 74.1388 337.549C74.1388 337.364 73.9541 337.179 73.7695 337.179C73.5848 337.179 73.4001 337.364 73.4001 337.549Z" fill="#007AD9"/>
<path d="M74.3234 336.441C74.3234 336.718 74.1388 336.902 73.8618 336.902C73.5848 336.902 73.4001 336.718 73.4001 336.441C73.4001 336.164 73.5848 335.979 73.8618 335.979C74.1388 335.979 74.3234 336.256 74.3234 336.441ZM73.5848 336.441C73.5848 336.625 73.7695 336.81 73.9541 336.81C74.1388 336.81 74.3234 336.625 74.3234 336.441C74.3234 336.256 74.1388 336.071 73.9541 336.071C73.7695 336.071 73.5848 336.256 73.5848 336.441Z" fill="#007AD9"/>
<path d="M73.8618 336.902C73.7695 336.902 73.7695 336.994 73.7695 336.994C73.7695 337.087 73.7695 337.087 73.8618 337.179L73.7695 337.271C73.7695 337.271 73.6771 337.179 73.6771 337.087C73.6771 336.994 73.7695 336.994 73.8618 336.902Z" fill="#007AD9"/>
<path d="M75.7083 337.271C75.616 337.641 75.4313 337.918 75.2467 338.01H75.1544V337.918C75.4313 337.733 75.5237 337.548 75.616 337.271C75.7083 336.994 75.616 336.717 75.339 336.44V336.348H75.4313C75.616 336.717 75.7083 336.994 75.7083 337.271Z" fill="#BA745D"/>
<path d="M73.3078 338.379L73.6771 338.195V338.01L73.1232 337.918C73.1232 337.918 72.8462 337.641 72.5692 337.549L72.8462 335.979C72.8462 335.979 73.2155 336.071 73.4001 335.979L74.0464 336.071V335.887L73.8618 335.702C73.8618 335.702 72.4769 335.148 72.1076 335.24C71.7383 335.333 71.8306 335.702 71.8306 335.702C71.8306 335.702 71.1843 336.164 71.2766 336.902C71.3689 337.641 71.7383 338.287 72.1076 338.472C72.4769 338.564 73.3078 338.379 73.3078 338.379Z" fill="#FAB348"/>
<path d="M77.4625 341.611C77.4625 341.611 80.971 342.534 81.3403 342.534C82.0789 342.626 82.4482 341.796 82.4482 341.242C82.4482 340.78 82.1712 338.933 81.8943 338.564C81.6173 338.102 80.7863 338.564 80.7863 338.564C80.7863 338.564 81.3403 340.503 81.1556 340.78C81.0633 341.149 78.2935 340.318 78.2935 340.318C78.2935 340.318 77.9242 341.242 77.4625 341.611Z" fill="#E48868"/>
<path fill-rule="evenodd" clip-rule="evenodd" d="M71.092 330.531C72.3846 320.006 72.3845 321.022 81.3403 319.175C84.3871 315.482 87.3416 317.606 91.4963 317.79C91.404 325.638 90.6653 333.394 89.2804 341.149C88.9111 343.365 88.4495 345.581 87.8955 347.704C83.7408 346.873 80.417 348.258 78.3858 343.919C70.0764 340.041 69.7994 341.057 71.092 330.531ZM71.1843 338.656C71.9229 341.149 76.2623 342.626 78.0165 343.088C78.3858 335.332 79.4014 327.762 80.7863 320.191C79.0321 320.191 74.3234 320.652 73.1232 322.868C72.5692 323.792 71.9229 327.208 71.4613 330.716C71.092 334.132 70.9073 337.548 71.1843 338.656Z" fill="#65C8CF"/>
<path fill-rule="evenodd" clip-rule="evenodd" d="M79.6784 318.437L79.8631 317.236C79.9554 316.682 80.417 316.221 80.8787 316.313H81.1556C81.6173 316.405 81.9866 316.867 81.8943 317.513L81.7096 318.714C81.6173 319.268 81.1556 319.729 80.694 319.637H80.417C79.9554 319.545 79.6784 319.083 79.6784 318.437Z" fill="#007AD9"/>
<path fill-rule="evenodd" clip-rule="evenodd" d="M76.447 345.581L76.6316 344.381C76.7239 343.827 77.1856 343.365 77.6472 343.457H77.9242C78.3858 343.55 78.7551 344.011 78.6628 344.658L78.4781 345.858C78.3858 346.412 77.9242 346.873 77.4625 346.781H77.1856C76.7239 346.689 76.3546 346.227 76.447 345.581Z" fill="#007AD9"/>
<path opacity="0.2" fill-rule="evenodd" clip-rule="evenodd" d="M78.6628 344.104C78.7551 344.196 78.8475 344.196 79.0321 344.288C79.0321 344.288 78.7551 343.18 79.7707 341.611C80.7863 340.041 83.2792 339.303 84.8487 339.118C86.4183 338.933 87.8032 338.933 87.8032 338.933L88.5418 332.932L89.2804 326.931C89.2804 326.931 87.9878 326.562 86.5106 326.008C85.0334 325.454 82.8175 324.161 82.1712 322.407C81.5249 320.653 82.0789 319.637 82.0789 319.637C81.9866 319.637 81.8019 319.729 81.7096 319.729C81.7096 320.006 81.6173 320.283 81.5249 320.56C81.4326 320.93 80.7863 326.469 80.14 332.009C79.4937 337.548 78.8475 342.996 78.7551 343.457C78.7551 343.55 78.6628 343.827 78.6628 344.104Z" fill="white"/>
<path fill-rule="evenodd" clip-rule="evenodd" d="M86.6953 347.243L90.1114 318.529C90.2037 317.975 90.6653 317.513 91.127 317.606L92.5119 317.79C92.9735 317.883 93.3428 318.344 93.2505 318.99L89.8344 347.704C89.7421 348.258 89.2804 348.72 88.8188 348.628L87.4339 348.443C86.9723 348.351 86.6029 347.797 86.6953 347.243Z" fill="#999999"/>
<path d="M84.9435 343.789C85.1386 342.169 84.1477 340.718 82.7303 340.547C81.3128 340.376 80.0055 341.551 79.8104 343.171C79.6152 344.791 80.6061 346.242 82.0236 346.413C83.441 346.584 84.7483 345.409 84.9435 343.789Z" fill="#007AD9"/>
<path d="M87.7007 321.19C87.8958 319.57 86.9049 318.119 85.4875 317.948C84.07 317.777 82.7627 318.952 82.5676 320.572C82.3724 322.192 83.3633 323.644 84.7808 323.814C86.1982 323.985 87.5055 322.81 87.7007 321.19Z" fill="#007AD9"/>
<path opacity="0.2" d="M84.2102 343.701C84.3504 342.537 83.6434 341.494 82.6309 341.372C81.6184 341.25 80.6839 342.095 80.5437 343.259C80.4034 344.424 81.1105 345.466 82.1229 345.588C83.1354 345.71 84.0699 344.865 84.2102 343.701Z" fill="white"/>
<path opacity="0.2" d="M86.9674 321.102C87.1076 319.937 86.4006 318.895 85.3881 318.773C84.3756 318.651 83.4411 319.496 83.3009 320.66C83.1606 321.824 83.8677 322.867 84.8802 322.989C85.8926 323.111 86.8271 322.266 86.9674 321.102Z" fill="white"/>
<path fill-rule="evenodd" clip-rule="evenodd" d="M88.2648 346.043L88.5418 343.734C88.5418 343.642 88.6341 343.55 88.7265 343.55L89.3728 343.642C89.4651 343.642 89.5574 343.734 89.5574 343.827L89.2804 346.135C89.2804 346.227 89.1881 346.32 89.0958 346.32L88.4495 346.227C88.2648 346.227 88.1725 346.135 88.2648 346.043Z" fill="#FAB348"/>
<path fill-rule="evenodd" clip-rule="evenodd" d="M91.127 322.222L91.404 319.914C91.404 319.822 91.4963 319.729 91.5886 319.729L92.2349 319.822C92.3272 319.822 92.4195 319.914 92.4195 320.006L92.1426 322.314C92.1426 322.407 92.0502 322.499 91.9579 322.499L91.3116 322.407C91.127 322.407 91.127 322.314 91.127 322.222Z" fill="#FAB348"/>
<path opacity="0.2" d="M87.6185 330.809L87.0646 335.148C87.0646 335.517 86.6953 335.794 86.326 335.702C85.9567 335.702 85.6797 335.333 85.6797 334.963L86.2336 330.624C86.2336 330.255 86.6029 329.978 86.9722 330.07C87.4339 330.162 87.7109 330.439 87.6185 330.809ZM86.1413 335.056C86.1413 335.24 86.2336 335.333 86.4183 335.333C86.6029 335.333 86.6953 335.24 86.6953 335.056L87.2492 330.716C87.2492 330.532 87.1569 330.439 86.9722 330.439C86.7876 330.439 86.6953 330.532 86.6029 330.716L86.1413 335.056Z" fill="white"/>
<path opacity="0.2" d="M164.547 275.219C165.9 263.981 157.887 253.773 146.649 252.419C135.41 251.065 125.202 259.078 123.848 270.316C122.495 281.555 130.508 291.763 141.746 293.117C152.985 294.471 163.193 286.458 164.547 275.219Z" fill="#65C8CF"/>
<path fill-rule="evenodd" clip-rule="evenodd" d="M150.493 262.948L150.863 260.086C150.955 259.532 151.417 259.162 151.971 259.255L157.787 259.993C158.341 260.086 158.71 260.547 158.71 261.101L158.341 263.963C158.249 264.517 157.787 264.887 157.233 264.794L151.417 264.056C150.863 263.963 150.493 263.502 150.493 262.948Z" fill="#2F3031"/>
<path fill-rule="evenodd" clip-rule="evenodd" d="M147.631 286.676L148.001 283.814C148.093 283.26 148.555 282.891 149.108 282.983L154.925 283.721C155.479 283.814 155.848 284.275 155.848 284.829L155.479 287.692C155.387 288.246 154.925 288.615 154.371 288.522L148.554 287.784C148.001 287.692 147.631 287.23 147.631 286.676Z" fill="#2F3031"/>
<path fill-rule="evenodd" clip-rule="evenodd" d="M133.044 279.382C133.782 281.875 138.122 283.352 139.876 283.814C140.245 276.058 141.261 268.488 142.646 260.917C140.891 260.917 136.183 261.378 134.982 263.594C134.428 264.518 133.782 267.934 133.321 271.442C132.951 274.858 132.767 278.367 133.044 279.382Z" fill="#999999"/>
<path opacity="0.2" fill-rule="evenodd" clip-rule="evenodd" d="M133.967 276.797L135.352 265.625C135.536 264.425 136.552 263.502 137.66 263.594L139.137 263.779C140.245 263.871 140.984 264.979 140.891 266.272L139.506 277.443C139.322 278.644 138.306 279.567 137.198 279.475L135.721 279.29C134.613 279.198 133.874 278.09 133.967 276.797Z" fill="#65C8CF"/>
<path fill-rule="evenodd" clip-rule="evenodd" d="M138.214 268.395L138.491 265.81C138.675 264.056 140.153 262.763 141.815 262.948L142.276 263.04C141.722 265.995 141.261 269.041 140.891 272.088H140.707C139.137 271.811 138.029 270.149 138.214 268.395Z" fill="#E4DDD7"/>
<path fill-rule="evenodd" clip-rule="evenodd" d="M136.829 279.29L137.106 276.982C137.291 275.412 138.768 274.304 140.337 274.489H140.614C140.337 277.166 140.06 279.844 139.968 282.614L139.414 282.521C137.845 282.244 136.644 280.859 136.829 279.29Z" fill="#E4DDD7"/>
<path fill-rule="evenodd" clip-rule="evenodd" d="M133.874 273.473L134.336 269.78C134.336 269.595 134.521 269.411 134.705 269.503L135.259 269.595C135.444 269.595 135.536 269.78 135.536 269.965L135.075 273.658C135.075 273.842 134.89 274.027 134.705 273.935L134.151 273.842C133.967 273.842 133.782 273.658 133.874 273.473Z" fill="#E4DDD7"/>
<path d="M133.337 271.386L133.282 271.845L134.198 271.955L134.253 271.497L133.337 271.386Z" fill="#E4DDD7"/>
<path d="M135.813 267.287C138.029 268.026 138.952 268.672 138.952 268.672C138.952 268.672 139.045 267.564 139.137 266.641C139.229 265.718 139.506 264.517 139.506 264.517C139.506 264.517 136.644 264.702 136.275 264.61C135.906 264.517 135.813 267.287 135.813 267.287Z" fill="#2F3031"/>
<path d="M139.414 266.364C139.229 267.01 138.768 266.826 138.768 266.826C138.768 266.826 138.491 266.733 138.214 266.733C138.122 266.733 138.029 266.733 137.937 266.733C137.845 266.733 137.66 266.733 137.568 266.733C137.014 266.733 137.475 265.533 137.475 265.533C137.475 265.533 138.583 265.718 138.86 265.625C139.229 265.348 139.691 265.718 139.414 266.364Z" fill="#E48868"/>
<path d="M138.768 267.472C138.768 267.472 140.43 266.364 140.799 265.902C140.799 265.902 140.337 265.256 139.045 265.441C139.045 265.441 138.675 266.087 138.768 267.472Z" fill="#E48868"/>
<path d="M135.167 267.103C135.167 267.103 136.367 267.934 137.66 267.38C138.952 266.826 137.383 265.348 137.198 265.256C137.014 265.164 135.906 264.517 135.444 265.441C134.982 266.179 134.89 266.826 135.167 267.103Z" fill="#E48868"/>
<path d="M135.629 266.918C135.629 266.918 136.183 267.472 136.644 267.564C136.644 267.564 135.721 267.841 134.982 267.195C134.244 266.549 134.428 265.718 135.167 264.979C135.629 264.61 136.275 264.425 137.568 265.441C137.568 265.441 136.275 266.918 135.629 266.918Z" fill="#2F3031"/>
<path d="M138.029 266.087C138.029 266.087 138.306 266.272 138.491 266.733C138.399 266.733 138.399 266.733 138.306 266.733C138.214 266.733 138.214 266.364 138.029 266.087Z" fill="#A77860"/>
<path d="M142.738 264.702C142.83 264.794 143.015 264.887 143.107 264.979C143.477 265.348 145.969 265.441 146.708 265.441C146.8 265.441 146.893 265.533 146.893 265.533L146.985 265.81C146.985 265.995 146.893 266.087 146.708 266.087C144.307 265.625 140.522 264.794 139.045 265.533C139.322 265.071 139.691 264.61 139.876 264.333C139.968 264.24 140.153 264.148 140.245 264.056C140.522 263.964 141.168 263.871 141.722 263.687C141.815 263.687 144.677 263.41 142.738 264.702Z" fill="#007AD9"/>
<path d="M140.799 268.949C140.799 268.949 141.353 268.765 142.184 268.58C142.738 268.488 143.292 268.58 143.938 268.765C144.4 268.857 145.138 269.319 145.508 269.596C145.508 269.596 145.6 269.596 145.692 269.596C145.692 269.596 145.785 269.596 145.785 269.503L146.154 268.765L146.246 268.58C146.339 268.488 146.339 268.303 146.246 268.211C146.154 268.118 146.062 268.026 145.969 268.026C144.584 267.657 143.2 267.287 142.738 267.01C140.522 265.902 138.675 266.826 138.675 266.826C138.675 266.826 138.675 268.118 138.768 268.395C138.768 268.672 139.414 269.503 140.06 269.965C140.06 269.965 141.815 270.796 142.276 270.149C142.738 269.503 142.738 269.134 142.553 268.949" fill="#007AD9"/>
<path d="M142.65 269.189C142.705 268.733 142.38 268.32 141.925 268.265C141.469 268.21 141.055 268.535 141 268.99C140.945 269.446 141.27 269.86 141.726 269.915C142.182 269.969 142.595 269.645 142.65 269.189Z" fill="#072643"/>
<path d="M143.222 264.632C143.277 264.176 142.952 263.763 142.496 263.708C142.04 263.653 141.627 263.978 141.572 264.433C141.517 264.889 141.842 265.303 142.297 265.358C142.753 265.413 143.167 265.088 143.222 264.632Z" fill="#072643"/>
<path d="M142.646 264.333C143.938 264.517 144.954 265.718 144.769 267.01C144.584 268.303 143.384 269.318 142.092 269.134C140.799 268.949 139.783 267.749 139.968 266.456C140.153 265.071 141.353 264.148 142.646 264.333ZM140.522 266.456C140.43 267.472 141.168 268.395 142.184 268.488C143.2 268.58 144.123 267.841 144.215 266.826C144.307 265.81 143.569 264.887 142.553 264.794C141.538 264.702 140.614 265.441 140.522 266.456Z" fill="#999999"/>
<path d="M141.815 268.118L141.353 269.041C141.353 269.134 141.261 269.134 141.261 269.134C141.168 269.134 141.168 269.041 141.168 269.041L141.63 268.118C141.63 268.026 141.722 268.026 141.722 268.026C141.815 268.026 141.815 268.118 141.815 268.118Z" fill="#E48868"/>
<path d="M141.999 268.21L141.538 269.134C141.538 269.226 141.445 269.226 141.445 269.226C141.353 269.226 141.353 269.134 141.353 269.134L141.815 268.21C141.815 268.118 141.907 268.118 141.907 268.118C141.999 268.118 141.999 268.21 141.999 268.21Z" fill="#E48868"/>
<path d="M142.184 268.303L141.722 269.226C141.722 269.318 141.63 269.318 141.63 269.318C141.538 269.318 141.538 269.226 141.538 269.226L141.999 268.303C141.999 268.21 142.092 268.21 142.092 268.21C142.184 268.21 142.276 268.303 142.184 268.303Z" fill="#E48868"/>
<path d="M142.461 268.488L141.999 269.411C141.999 269.503 141.907 269.503 141.907 269.503C141.815 269.503 141.815 269.411 141.815 269.411L142.276 268.488C142.276 268.395 142.369 268.395 142.369 268.395C142.461 268.395 142.461 268.395 142.461 268.488Z" fill="#E48868"/>
<path d="M142.646 268.58L142.184 269.503C142.184 269.595 142.092 269.595 142.092 269.595C141.999 269.595 141.999 269.503 141.999 269.503L142.461 268.58C142.461 268.488 142.553 268.488 142.553 268.488C142.646 268.488 142.646 268.488 142.646 268.58Z" fill="#E48868"/>
<path d="M142.184 265.256L141.999 264.24C141.999 264.148 141.907 264.148 141.907 264.148C141.815 264.148 141.815 264.24 141.815 264.24L141.999 265.256C141.999 265.348 142.092 265.348 142.092 265.348C142.184 265.348 142.184 265.256 142.184 265.256Z" fill="#E48868"/>
<path d="M142.369 265.164L142.184 264.148C142.184 264.056 142.092 264.056 142.092 264.056C141.999 264.056 141.999 264.148 141.999 264.148L142.184 265.164C142.184 265.256 142.276 265.256 142.276 265.256C142.369 265.256 142.461 265.256 142.369 265.164Z" fill="#E48868"/>
<path d="M142.646 265.164L142.461 264.148C142.461 264.056 142.369 264.056 142.369 264.056C142.276 264.056 142.276 264.148 142.276 264.148L142.461 265.164C142.461 265.256 142.553 265.256 142.553 265.256C142.646 265.256 142.646 265.164 142.646 265.164Z" fill="#E48868"/>
<path d="M142.923 265.071L142.738 264.056C142.738 263.963 142.646 263.963 142.646 263.963C142.553 263.963 142.553 264.056 142.553 264.056L142.738 265.071C142.738 265.164 142.83 265.164 142.83 265.164C142.83 265.164 142.923 265.164 142.923 265.071Z" fill="#E48868"/>
<path d="M143.107 265.071L142.923 264.056C142.923 263.963 142.83 263.963 142.83 263.963C142.738 263.963 142.738 264.056 142.738 264.056L142.923 265.071C142.923 265.164 143.015 265.164 143.015 265.164C143.107 265.164 143.107 265.071 143.107 265.071Z" fill="#E48868"/>
<path opacity="0.2" d="M142.738 260.917C142.738 261.009 141.445 268.487 140.984 272.457C140.522 276.52 139.968 283.721 139.968 283.721H139.783C139.783 283.629 140.245 276.428 140.799 272.365C141.353 268.303 142.553 260.824 142.553 260.824L142.738 260.917Z" fill="white"/>
<path d="M140.522 275.689C140.522 275.689 143.569 274.12 143.846 274.304C144.215 274.674 144.861 277.166 144.861 277.166L145.785 276.889C145.785 276.889 145.231 272.458 143.938 272.642C142.646 272.827 139.691 274.12 139.691 274.12L140.522 275.689Z" fill="#E48868"/>
<path d="M145.969 277.166C145.969 277.166 145.692 276.612 145.415 276.612C145.231 276.52 144.861 277.074 144.861 277.074L144.954 277.536L145.969 277.166Z" fill="#E48868"/>
<path d="M145.046 277.166C145.046 277.166 144.769 277.72 144.769 277.813C144.769 277.905 144.769 278.182 144.954 278.367C145.046 278.644 145.231 278.921 145.323 278.921C145.323 278.921 145.415 279.013 145.508 278.921C145.6 278.921 145.692 278.736 145.692 278.736C145.692 278.736 145.877 278.736 145.969 278.644C145.969 278.644 146.154 278.644 146.246 278.459C146.246 278.459 146.431 278.459 146.523 278.367C146.523 278.367 146.431 278.09 146.523 277.997C146.523 277.905 146.431 277.443 146.154 276.982C146.062 277.074 145.692 276.705 145.046 277.166Z" fill="#E48868"/>
<path d="M144.769 277.813C144.769 277.813 145.138 278.182 145.415 278.274C145.508 278.274 145.508 278.274 145.6 278.274C145.692 278.182 145.6 278.09 145.508 277.905C145.415 277.72 145.231 277.443 145.231 277.443C145.231 277.443 145.046 277.443 144.769 277.813Z" fill="#E48868"/>
<path d="M145.6 278.92C145.6 278.92 145.323 278.182 145.323 278.09C145.323 277.997 145.046 278.089 145.046 278.182C145.046 278.274 145.231 278.92 145.323 278.92C145.323 279.105 145.508 279.105 145.6 278.92Z" fill="#E48868"/>
<path d="M145.138 278.736C145.138 278.736 145.692 280.028 145.785 279.936C145.969 279.844 145.969 279.567 145.508 278.551C145.046 277.72 145.138 278.736 145.138 278.736Z" fill="#E48868"/>
<path d="M147.816 282.798L149.108 276.612C149.108 276.612 145.969 276.243 145.508 276.243C144.954 276.243 142.923 276.059 141.538 275.689C141.261 275.597 141.538 275.228 141.538 275.228L140.984 274.858L139.968 274.12C139.506 274.397 138.306 276.059 138.029 276.982C137.752 277.813 137.752 277.997 137.66 278.551C137.568 279.936 138.768 282.244 139.137 282.337C139.137 282.337 139.414 282.521 139.506 282.429C139.599 282.429 140.43 281.414 140.43 281.137C140.43 281.137 140.522 281.137 140.707 281.137C140.614 281.229 146.523 282.798 147.816 282.798Z" fill="#FAB348"/>
<g opacity="0.2">
<g opacity="0.2">
<path opacity="0.2" d="M146.708 281.598C146.616 281.598 146.616 281.598 146.708 281.598C146.339 280.859 145.785 280.121 145.138 279.567C145.138 279.567 145.138 279.567 145.138 279.475C145.138 279.475 145.138 279.475 145.231 279.475C145.785 280.029 146.339 280.767 146.708 281.598Z" fill="white"/>
</g>
</g>
<g opacity="0.2">
<g opacity="0.2">
<path opacity="0.2" d="M148.001 279.752C147.262 279.198 146.616 278.736 145.877 278.459C145.877 278.459 145.877 278.459 145.877 278.367C145.877 278.367 145.877 278.367 145.969 278.367C146.708 278.736 147.354 279.105 148.001 279.752Z" fill="white"/>
</g>
</g>
<g opacity="0.2">
<g opacity="0.2">
<path opacity="0.2" d="M147.631 277.997C147.631 277.997 147.539 278.09 147.631 277.997C146.708 277.905 145.877 277.72 145.138 277.536C144.584 277.443 143.938 277.259 143.292 277.166C142.553 276.982 141.076 276.797 140.43 277.074H140.337V276.982C140.984 276.705 142.461 276.889 143.292 277.074C143.938 277.166 144.492 277.351 145.138 277.443C145.877 277.628 146.708 277.813 147.631 277.997Z" fill="white"/>
</g>
</g>
<g opacity="0.2">
<g opacity="0.2">
<path opacity="0.2" d="M138.491 278.09C138.491 278.09 138.491 278.182 138.491 278.09C138.399 278.551 138.214 278.92 137.845 279.197H137.752V279.105C138.029 278.92 138.214 278.551 138.306 278.182C138.399 277.813 138.306 277.443 138.122 277.166V277.074H138.214C138.491 277.351 138.583 277.72 138.491 278.09Z" fill="white"/>
</g>
</g>
<path d="M136.367 278.828L137.568 279.013C137.568 279.013 138.675 278.182 137.845 277.166L136.644 277.074L136.367 278.828Z" fill="#E48868"/>
<path d="M133.69 277.813C133.69 278.828 134.798 279.013 135.813 279.105C136.829 279.105 137.475 278.736 137.568 278.09C137.66 277.443 137.014 276.889 136.09 276.705C135.167 276.335 133.69 276.151 133.69 277.813Z" fill="#E48868"/>
<path d="M135.536 278.828C135.536 278.828 135.167 278.828 135.259 279.105C135.352 279.474 136.275 279.198 136.275 278.828C136.183 278.459 135.536 278.828 135.536 278.828Z" fill="#E48868"/>
<path d="M135.906 276.797C135.906 276.797 135.536 276.705 135.629 276.428C135.813 276.151 136.644 276.612 136.552 276.889C136.46 277.259 135.906 276.797 135.906 276.797Z" fill="#E48868"/>
<path d="M142.184 279.013L140.891 278.551L141.261 277.259L143.661 278.274L143.107 279.382L142.184 279.013Z" fill="#004A90"/>
<path d="M143.753 279.013C143.753 279.013 143.846 279.752 143.661 279.844C143.477 279.936 142.83 279.752 142.83 279.752C142.83 279.752 142.461 279.382 142.276 279.29C142.092 279.198 141.722 278.921 141.815 278.828C141.907 278.736 142.276 278.921 142.276 278.921V277.536C142.276 277.259 142.461 277.351 142.553 277.443C142.646 277.443 142.738 277.813 142.738 277.813C142.738 277.813 143.015 277.72 143.107 277.72C143.2 277.72 143.292 277.905 143.292 277.905L143.661 277.813L143.753 277.997L143.938 278.09L143.753 279.013Z" fill="#E48868"/>
<path d="M136.09 278.367C136.09 278.644 135.906 278.828 135.629 278.828C135.352 278.828 135.167 278.644 135.167 278.367C135.167 278.09 135.352 277.905 135.629 277.905C135.906 277.905 136.09 278.09 136.09 278.367ZM135.259 278.367C135.259 278.551 135.444 278.736 135.629 278.736C135.813 278.736 135.998 278.551 135.998 278.367C135.998 278.182 135.813 277.997 135.629 277.997C135.444 277.997 135.259 278.182 135.259 278.367Z" fill="#007AD9"/>
<path d="M136.183 277.259C136.183 277.536 135.998 277.72 135.721 277.72C135.444 277.72 135.259 277.536 135.259 277.259C135.259 276.982 135.444 276.797 135.721 276.797C135.998 276.797 136.183 277.074 136.183 277.259ZM135.444 277.259C135.444 277.443 135.629 277.628 135.813 277.628C135.998 277.628 136.183 277.443 136.183 277.259C136.183 277.074 135.998 276.889 135.813 276.889C135.536 276.889 135.444 277.074 135.444 277.259Z" fill="#007AD9"/>
<path d="M135.721 277.72C135.629 277.72 135.629 277.813 135.629 277.813C135.629 277.905 135.629 277.905 135.721 277.997L135.629 278.09C135.629 278.09 135.536 277.997 135.536 277.905C135.536 277.813 135.629 277.813 135.721 277.72Z" fill="#007AD9"/>
<path d="M137.568 277.997C137.568 278.09 137.568 278.09 137.568 277.997C137.475 278.367 137.291 278.644 137.106 278.736H137.014V278.644C137.291 278.459 137.383 278.274 137.475 277.997C137.568 277.72 137.475 277.443 137.198 277.166V277.074H137.291C137.475 277.443 137.568 277.72 137.568 277.997Z" fill="#BA745D"/>
<path d="M135.167 279.198L135.536 279.013V278.828L134.982 278.736C134.982 278.736 134.705 278.459 134.428 278.367L134.705 276.797C134.705 276.797 135.075 276.889 135.259 276.797L135.906 276.889V276.705L135.721 276.52C135.721 276.52 134.336 275.966 133.967 276.058C133.598 276.151 133.69 276.52 133.69 276.52C133.69 276.52 133.044 276.982 133.136 277.72C133.228 278.459 133.598 279.105 133.967 279.29C134.336 279.382 135.167 279.198 135.167 279.198Z" fill="#FAB348"/>
<path d="M139.322 282.429C139.322 282.429 142.83 283.352 143.2 283.352C143.938 283.445 144.307 282.614 144.307 282.06C144.307 281.598 144.03 279.751 143.753 279.382C143.476 279.013 142.646 279.382 142.646 279.382C142.646 279.382 143.2 281.321 143.015 281.598C142.923 281.967 140.153 281.136 140.153 281.136C140.153 281.136 139.783 282.06 139.322 282.429Z" fill="#E48868"/>
<path fill-rule="evenodd" clip-rule="evenodd" d="M132.859 271.35C134.151 260.824 134.151 261.84 143.107 259.993C146.154 256.3 149.108 258.424 153.263 258.608C153.171 266.456 152.432 274.212 151.047 281.967C150.678 284.183 150.216 286.399 149.662 288.522C145.508 287.691 142.184 289.076 140.153 284.737C131.936 280.859 131.659 281.875 132.859 271.35ZM133.044 279.382C133.782 281.875 138.122 283.352 139.876 283.814C140.245 276.058 141.261 268.487 142.646 260.917C140.891 260.917 136.183 261.378 134.982 263.594C134.428 264.517 133.782 267.933 133.321 271.442C132.951 274.858 132.767 278.366 133.044 279.382Z" fill="#65C8CF"/>
<path fill-rule="evenodd" clip-rule="evenodd" d="M141.538 259.255L141.722 258.054C141.815 257.501 142.276 257.039 142.738 257.131H143.015C143.477 257.224 143.846 257.685 143.754 258.331L143.569 259.532C143.477 260.086 143.015 260.547 142.553 260.455H142.276C141.815 260.363 141.445 259.901 141.538 259.255Z" fill="#007AD9"/>
<path fill-rule="evenodd" clip-rule="evenodd" d="M138.306 286.399L138.491 285.199C138.583 284.645 139.045 284.183 139.506 284.275H139.783C140.245 284.368 140.614 284.829 140.522 285.476L140.337 286.676C140.245 287.23 139.783 287.692 139.322 287.599H139.045C138.583 287.507 138.214 286.953 138.306 286.399Z" fill="#007AD9"/>
<path opacity="0.2" fill-rule="evenodd" clip-rule="evenodd" d="M140.522 284.922C140.614 285.014 140.707 285.014 140.891 285.106C140.891 285.106 140.614 283.999 141.63 282.429C142.646 280.859 145.138 280.121 146.708 279.936C148.278 279.751 149.662 279.751 149.662 279.751L150.401 273.75L151.14 267.749C151.14 267.749 149.847 267.38 148.37 266.826C146.893 266.272 144.677 264.979 144.03 263.225C143.384 261.471 143.938 260.455 143.938 260.455C143.846 260.455 143.661 260.547 143.569 260.547C143.569 260.824 143.477 261.101 143.384 261.378C143.292 261.748 142.646 267.287 141.999 272.827C141.353 278.367 140.707 283.814 140.614 284.276C140.522 284.276 140.522 284.645 140.522 284.922Z" fill="white"/>
<path fill-rule="evenodd" clip-rule="evenodd" d="M148.554 287.968L151.971 259.255C152.063 258.701 152.525 258.239 152.986 258.331L154.371 258.516C154.833 258.608 155.202 259.07 155.11 259.716L151.694 288.43C151.601 288.984 151.14 289.446 150.678 289.353L149.293 289.169C148.831 289.076 148.462 288.615 148.554 287.968Z" fill="#999999"/>
<path d="M146.81 284.578C147.006 282.958 146.015 281.506 144.597 281.335C143.18 281.165 141.873 282.339 141.677 283.959C141.482 285.579 142.473 287.031 143.891 287.202C145.308 287.373 146.615 286.198 146.81 284.578Z" fill="#007AD9"/>
<path d="M149.568 261.979C149.763 260.359 148.772 258.907 147.354 258.736C145.937 258.566 144.63 259.74 144.435 261.36C144.239 262.98 145.23 264.432 146.648 264.603C148.065 264.773 149.373 263.599 149.568 261.979Z" fill="#007AD9"/>
<path opacity="0.2" d="M146.077 284.489C146.217 283.325 145.51 282.282 144.498 282.16C143.485 282.038 142.551 282.883 142.411 284.048C142.27 285.212 142.977 286.255 143.99 286.377C145.002 286.499 145.937 285.654 146.077 284.489Z" fill="white"/>
<path opacity="0.2" d="M148.834 261.89C148.975 260.726 148.268 259.683 147.255 259.561C146.243 259.439 145.308 260.284 145.168 261.448C145.028 262.613 145.735 263.656 146.747 263.777C147.76 263.899 148.694 263.054 148.834 261.89Z" fill="white"/>
<path fill-rule="evenodd" clip-rule="evenodd" d="M150.032 286.861L150.309 284.552C150.309 284.46 150.401 284.368 150.493 284.368L151.14 284.46C151.232 284.46 151.324 284.552 151.324 284.645L151.047 286.953C151.047 287.045 150.955 287.137 150.863 287.137L150.216 287.045C150.124 287.045 150.032 286.953 150.032 286.861Z" fill="#FAB348"/>
<path fill-rule="evenodd" clip-rule="evenodd" d="M152.986 263.04L153.263 260.732C153.263 260.64 153.356 260.547 153.448 260.547L154.094 260.64C154.186 260.64 154.279 260.732 154.279 260.824L154.002 263.133C154.002 263.225 153.909 263.317 153.817 263.317L153.171 263.225C152.986 263.225 152.894 263.133 152.986 263.04Z" fill="#FAB348"/>
<path opacity="0.2" d="M149.478 271.627L148.924 275.966C148.924 276.335 148.555 276.612 148.185 276.52C147.816 276.52 147.539 276.151 147.539 275.781L148.093 271.442C148.093 271.073 148.462 270.796 148.831 270.888C149.293 270.888 149.57 271.257 149.478 271.627ZM148.001 275.874C148.001 276.058 148.093 276.151 148.278 276.151C148.462 276.151 148.555 276.058 148.555 275.874L149.108 271.534C149.108 271.35 149.016 271.257 148.831 271.257C148.647 271.257 148.555 271.35 148.462 271.534L148.001 275.874Z" fill="white"/>
<path opacity="0.2" d="M167.202 208.713C168.556 197.474 160.543 187.266 149.304 185.912C138.066 184.559 127.858 192.572 126.504 203.81C125.15 215.049 133.163 225.257 144.402 226.611C155.64 227.964 165.848 219.951 167.202 208.713Z" fill="#65C8CF"/>
<path fill-rule="evenodd" clip-rule="evenodd" d="M153.171 196.472L153.54 193.61C153.632 193.056 154.094 192.687 154.648 192.779L160.465 193.518C161.019 193.61 161.388 194.072 161.388 194.626L161.019 197.488C160.926 198.042 160.465 198.411 159.911 198.319L154.094 197.58C153.448 197.396 153.079 196.934 153.171 196.472Z" fill="#2F3031"/>
<path fill-rule="evenodd" clip-rule="evenodd" d="M150.309 220.2L150.678 217.338C150.77 216.784 151.232 216.415 151.786 216.507L157.603 217.246C158.157 217.338 158.526 217.8 158.526 218.354L158.157 221.216C158.064 221.77 157.603 222.139 157.049 222.047L151.232 221.308C150.586 221.216 150.216 220.662 150.309 220.2Z" fill="#2F3031"/>
<path fill-rule="evenodd" clip-rule="evenodd" d="M135.629 212.906C136.367 215.399 140.707 216.876 142.461 217.338C142.83 209.583 143.846 202.012 145.231 194.441C143.477 194.441 138.768 194.903 137.568 197.118C137.014 198.042 136.367 201.458 135.906 204.966C135.536 208.382 135.352 211.891 135.629 212.906Z" fill="#999999"/>
<path opacity="0.2" fill-rule="evenodd" clip-rule="evenodd" d="M136.644 210.321L138.029 199.15C138.214 197.949 139.229 197.026 140.337 197.118L141.815 197.303C142.923 197.395 143.661 198.503 143.569 199.796L142.184 210.968C141.999 212.168 140.984 213.091 139.876 212.999L138.399 212.814C137.198 212.629 136.46 211.521 136.644 210.321Z" fill="#65C8CF"/>
<path fill-rule="evenodd" clip-rule="evenodd" d="M140.799 201.919L141.076 199.334C141.261 197.58 142.738 196.288 144.4 196.472L144.861 196.564C144.307 199.519 143.846 202.566 143.476 205.613H143.292C141.722 205.243 140.614 203.674 140.799 201.919Z" fill="#E4DDD7"/>
<path fill-rule="evenodd" clip-rule="evenodd" d="M139.506 212.722L139.783 210.414C139.968 208.844 141.445 207.736 143.015 207.921H143.292C143.015 210.598 142.738 213.276 142.646 216.046L142.092 215.953C140.43 215.769 139.322 214.291 139.506 212.722Z" fill="#E4DDD7"/>
<path fill-rule="evenodd" clip-rule="evenodd" d="M136.46 206.998L136.921 203.304C136.921 203.12 137.106 202.935 137.291 203.027L137.845 203.12C138.029 203.12 138.122 203.304 138.122 203.489L137.66 207.182C137.66 207.367 137.475 207.552 137.291 207.459L136.737 207.367C136.552 207.275 136.367 207.182 136.46 206.998Z" fill="#E4DDD7"/>
<path d="M135.992 204.88L135.937 205.338L136.854 205.449L136.909 204.99L135.992 204.88Z" fill="#E4DDD7"/>
<path d="M138.399 200.812C140.614 201.55 141.538 202.197 141.538 202.197C141.538 202.197 141.63 201.089 141.722 200.166C141.815 199.242 142.092 198.042 142.092 198.042C142.092 198.042 139.229 198.227 138.86 198.134C138.399 198.134 138.399 200.812 138.399 200.812Z" fill="#2F3031"/>
<path d="M141.999 199.796C141.815 200.442 141.353 200.258 141.353 200.258C141.353 200.258 141.076 200.165 140.799 200.165C140.707 200.165 140.614 200.165 140.522 200.165C140.43 200.165 140.245 200.165 140.153 200.165C139.599 200.165 140.06 198.965 140.06 198.965C140.06 198.965 141.168 199.15 141.445 199.057C141.815 198.873 142.276 199.242 141.999 199.796Z" fill="#E48868"/>
<path d="M141.445 200.904C141.445 200.904 143.107 199.796 143.477 199.334C143.477 199.334 143.015 198.688 141.722 198.873C141.722 198.965 141.261 199.519 141.445 200.904Z" fill="#E48868"/>
<path d="M137.752 200.535C137.752 200.535 138.952 201.366 140.245 200.812C141.538 200.258 139.968 198.78 139.783 198.688C139.599 198.596 138.491 197.95 138.029 198.873C137.568 199.704 137.475 200.258 137.752 200.535Z" fill="#E48868"/>
<path d="M138.306 200.35C138.306 200.35 138.86 200.904 139.322 200.996C139.322 200.996 138.399 201.273 137.66 200.627C136.921 199.981 137.106 199.15 137.845 198.411C138.306 198.042 138.952 197.857 140.245 198.873C140.153 198.873 138.86 200.35 138.306 200.35Z" fill="#2F3031"/>
<path d="M140.614 199.519C140.614 199.519 140.891 199.704 141.076 200.165C140.984 200.165 140.984 200.165 140.891 200.165C140.799 200.165 140.799 199.888 140.614 199.519Z" fill="#A77860"/>
<path d="M145.323 198.227C145.415 198.319 145.6 198.411 145.692 198.504C146.062 198.873 148.555 198.965 149.293 198.965C149.385 198.965 149.478 199.058 149.478 199.058L149.57 199.334C149.57 199.519 149.478 199.611 149.293 199.611C146.893 199.15 143.107 198.319 141.63 199.058C141.907 198.596 142.276 198.134 142.461 197.857C142.553 197.765 142.738 197.673 142.83 197.58C143.107 197.488 143.754 197.396 144.307 197.211C144.492 197.211 147.262 196.934 145.323 198.227Z" fill="#007AD9"/>
<path d="M143.384 202.474C143.384 202.474 143.938 202.289 144.769 202.104C145.323 202.012 145.877 202.104 146.523 202.289C146.985 202.381 147.724 202.843 148.093 203.12C148.093 203.12 148.185 203.12 148.278 203.12C148.278 203.12 148.37 203.12 148.37 203.028L148.739 202.289L148.831 202.104C148.924 202.012 148.924 201.827 148.831 201.735C148.739 201.643 148.647 201.55 148.554 201.55C147.17 201.181 145.785 200.812 145.323 200.535C143.107 199.427 141.261 200.35 141.261 200.35C141.261 200.35 141.261 201.643 141.353 201.92C141.353 202.197 141.999 203.028 142.646 203.489C142.646 203.489 144.4 204.32 144.861 203.674C145.323 203.028 145.323 202.658 145.138 202.474" fill="#007AD9"/>
<path d="M145.317 202.591C145.372 202.135 145.047 201.722 144.591 201.667C144.136 201.612 143.722 201.937 143.667 202.392C143.612 202.848 143.937 203.262 144.392 203.317C144.848 203.372 145.262 203.047 145.317 202.591Z" fill="#072643"/>
<path d="M145.877 198.126C145.932 197.67 145.607 197.256 145.152 197.201C144.696 197.147 144.282 197.471 144.227 197.927C144.172 198.383 144.497 198.796 144.953 198.851C145.409 198.906 145.822 198.581 145.877 198.126Z" fill="#072643"/>
<path d="M145.231 197.765C146.523 197.95 147.539 199.15 147.354 200.442C147.17 201.735 145.969 202.751 144.677 202.566C143.384 202.381 142.369 201.181 142.553 199.888C142.738 198.596 143.938 197.58 145.231 197.765ZM143.107 199.981C143.015 200.996 143.753 201.92 144.769 202.012C145.785 202.104 146.708 201.366 146.8 200.35C146.893 199.334 146.154 198.411 145.138 198.319C144.123 198.227 143.2 198.965 143.107 199.981Z" fill="#999999"/>
<path d="M144.4 201.643L143.938 202.566C143.938 202.658 143.846 202.658 143.846 202.658C143.753 202.658 143.753 202.566 143.753 202.566L144.215 201.643C144.215 201.55 144.307 201.55 144.307 201.55C144.4 201.458 144.4 201.55 144.4 201.643Z" fill="#E48868"/>
<path d="M144.584 201.735L144.123 202.658C144.123 202.751 144.03 202.751 144.03 202.751C143.938 202.751 143.938 202.658 143.938 202.658L144.4 201.735C144.4 201.643 144.492 201.643 144.492 201.643C144.584 201.643 144.584 201.643 144.584 201.735Z" fill="#E48868"/>
<path d="M144.769 201.827L144.307 202.75C144.307 202.843 144.215 202.843 144.215 202.843C144.123 202.843 144.123 202.75 144.123 202.75L144.584 201.827C144.584 201.735 144.677 201.735 144.677 201.735C144.861 201.735 144.861 201.735 144.769 201.827Z" fill="#E48868"/>
<path d="M145.046 201.919L144.584 202.843C144.584 202.935 144.492 202.935 144.492 202.935C144.4 202.935 144.4 202.843 144.4 202.843L144.861 201.919C144.861 201.827 144.954 201.827 144.954 201.827C145.046 201.827 145.046 201.919 145.046 201.919Z" fill="#E48868"/>
<path d="M145.231 202.012L144.769 202.935C144.769 203.027 144.677 203.027 144.677 203.027C144.584 203.027 144.584 202.935 144.584 202.935L145.046 202.012C145.046 201.919 145.138 201.919 145.138 201.919C145.231 201.919 145.231 202.012 145.231 202.012Z" fill="#E48868"/>
<path d="M144.769 198.688L144.584 197.672C144.584 197.58 144.492 197.58 144.492 197.58C144.4 197.58 144.4 197.672 144.4 197.672L144.584 198.688C144.584 198.78 144.677 198.78 144.677 198.78C144.769 198.78 144.769 198.78 144.769 198.688Z" fill="#E48868"/>
<path d="M145.046 198.688L144.861 197.672C144.861 197.58 144.769 197.58 144.769 197.58C144.677 197.58 144.677 197.672 144.677 197.672L144.861 198.688C144.861 198.78 144.954 198.78 144.954 198.78L145.046 198.688Z" fill="#E48868"/>
<path d="M145.231 198.596L145.046 197.58C145.046 197.488 144.954 197.488 144.954 197.488C144.861 197.488 144.861 197.58 144.861 197.58L145.046 198.596C145.046 198.688 145.138 198.688 145.138 198.688C145.231 198.688 145.231 198.688 145.231 198.596Z" fill="#E48868"/>
<path d="M145.508 198.503L145.323 197.488C145.323 197.395 145.231 197.396 145.231 197.396C145.138 197.396 145.138 197.488 145.138 197.488L145.323 198.503C145.323 198.596 145.415 198.596 145.415 198.596C145.415 198.688 145.508 198.596 145.508 198.503Z" fill="#E48868"/>
<path d="M145.692 198.503L145.508 197.488C145.508 197.395 145.415 197.396 145.415 197.396C145.323 197.396 145.323 197.488 145.323 197.488L145.508 198.503C145.508 198.596 145.6 198.596 145.6 198.596C145.692 198.596 145.692 198.596 145.692 198.503Z" fill="#E48868"/>
<path opacity="0.2" d="M145.415 194.441C145.415 194.533 144.123 202.012 143.661 205.982C143.2 210.044 142.646 217.246 142.646 217.246H142.461C142.461 217.153 142.923 209.952 143.477 205.89C144.03 201.827 145.231 194.349 145.231 194.349L145.415 194.441Z" fill="white"/>
<path d="M143.107 209.213C143.107 209.213 146.154 207.644 146.431 207.828C146.8 208.198 147.447 210.691 147.447 210.691L148.37 210.414C148.37 210.414 147.816 205.982 146.523 206.167C145.231 206.351 142.276 207.644 142.276 207.644L143.107 209.213Z" fill="#E48868"/>
<path d="M148.555 210.598C148.555 210.598 148.278 210.044 148.001 210.044C147.816 209.952 147.447 210.506 147.447 210.506L147.539 210.968L148.555 210.598Z" fill="#E48868"/>
<path d="M147.631 210.691C147.631 210.691 147.354 211.244 147.354 211.337C147.354 211.429 147.354 211.706 147.539 211.891C147.631 212.168 147.816 212.445 147.908 212.445C147.908 212.445 148.001 212.537 148.093 212.445C148.185 212.445 148.278 212.26 148.278 212.26C148.278 212.26 148.462 212.26 148.555 212.168C148.555 212.168 148.739 212.168 148.831 211.983C148.831 211.983 149.016 211.983 149.108 211.891C149.108 211.891 149.016 211.614 149.108 211.521C149.108 211.429 149.016 210.967 148.739 210.506C148.647 210.598 148.278 210.229 147.631 210.691Z" fill="#E48868"/>
<path d="M147.354 211.337C147.354 211.337 147.724 211.706 148.001 211.798C148.093 211.798 148.093 211.798 148.185 211.798C148.278 211.706 148.185 211.614 148.093 211.429C148.001 211.244 147.816 210.967 147.816 210.967C147.816 210.967 147.631 210.875 147.354 211.337Z" fill="#E48868"/>
<path d="M148.185 212.445C148.185 212.445 147.908 211.706 147.908 211.614C147.908 211.521 147.631 211.614 147.631 211.706C147.631 211.798 147.816 212.445 147.908 212.445C147.908 212.537 148.093 212.629 148.185 212.445Z" fill="#E48868"/>
<path d="M147.724 212.168C147.724 212.168 148.278 213.46 148.37 213.368C148.555 213.276 148.555 212.999 148.093 211.983C147.631 211.152 147.724 212.168 147.724 212.168Z" fill="#E48868"/>
<path d="M150.401 216.23L151.694 210.044C151.694 210.044 148.555 209.675 148.093 209.675C147.539 209.675 145.508 209.49 144.123 209.121C143.846 209.029 144.123 208.659 144.123 208.659L143.569 208.29L142.553 207.552C142.092 207.828 140.891 209.49 140.614 210.414C140.337 211.245 140.337 211.429 140.245 211.983C140.153 213.368 141.353 215.676 141.722 215.769C141.722 215.769 141.999 215.953 142.092 215.861C142.184 215.861 143.015 214.845 143.015 214.568C143.015 214.568 143.107 214.568 143.292 214.568C143.477 214.568 149.201 216.23 150.401 216.23Z" fill="#FAB348"/>
<g opacity="0.2">
<g opacity="0.2">
<path opacity="0.2" d="M149.293 215.03C149.201 215.122 149.201 215.03 149.293 215.03C148.924 214.291 148.37 213.553 147.724 212.999C147.724 212.999 147.724 212.999 147.724 212.906C147.724 212.906 147.724 212.906 147.816 212.906C148.462 213.553 148.924 214.291 149.293 215.03Z" fill="white"/>
</g>
</g>
<g opacity="0.2">
<g opacity="0.2">
<path opacity="0.2" d="M150.678 213.183C150.586 213.276 150.586 213.276 150.678 213.183C149.939 212.629 149.293 212.168 148.555 211.891C148.555 211.891 148.555 211.891 148.555 211.798C148.555 211.798 148.555 211.798 148.647 211.798C149.385 212.168 149.939 212.629 150.678 213.183Z" fill="white"/>
</g>
</g>
<g opacity="0.2">
<g opacity="0.2">
<path opacity="0.2" d="M150.216 211.429C150.216 211.521 150.216 211.521 150.216 211.429C149.293 211.337 148.462 211.152 147.724 210.967C147.17 210.875 146.523 210.69 145.877 210.598C145.138 210.413 143.661 210.229 143.015 210.506H142.923V210.413C143.569 210.136 145.046 210.321 145.877 210.506C146.523 210.598 147.077 210.783 147.724 210.875C148.462 211.06 149.293 211.244 150.216 211.429Z" fill="white"/>
</g>
</g>
<g opacity="0.2">
<g opacity="0.2">
<path opacity="0.2" d="M141.076 211.521C141.076 211.614 141.076 211.614 141.076 211.521C140.984 211.983 140.799 212.352 140.43 212.629H140.337V212.537C140.614 212.352 140.799 211.983 140.891 211.614C140.984 211.244 140.891 210.875 140.707 210.598V210.506H140.799C141.076 210.875 141.168 211.244 141.076 211.521Z" fill="white"/>
</g>
</g>
<path d="M138.952 212.26L140.153 212.445C140.153 212.445 141.261 211.614 140.43 210.598L139.229 210.506L138.952 212.26Z" fill="#E48868"/>
<path d="M136.275 211.245C136.275 212.26 137.383 212.445 138.399 212.537C139.414 212.537 140.06 212.168 140.153 211.522C140.245 210.875 139.599 210.321 138.675 210.137C137.752 209.86 136.275 209.583 136.275 211.245Z" fill="#E48868"/>
<path d="M138.122 212.26C138.122 212.26 137.752 212.26 137.845 212.537C137.937 212.906 138.86 212.629 138.86 212.26C138.768 211.983 138.122 212.26 138.122 212.26Z" fill="#E48868"/>
<path d="M138.491 210.321C138.491 210.321 138.122 210.229 138.214 209.952C138.399 209.675 139.229 210.137 139.137 210.414C139.045 210.783 138.491 210.321 138.491 210.321Z" fill="#E48868"/>
<path d="M144.769 212.445L143.477 211.983L143.846 210.783L146.246 211.799L145.785 212.814L144.769 212.445Z" fill="#004A90"/>
<path d="M146.339 212.537C146.339 212.537 146.431 213.276 146.246 213.368C146.062 213.46 145.415 213.276 145.415 213.276C145.415 213.276 145.046 212.906 144.861 212.814C144.677 212.814 144.307 212.445 144.4 212.352C144.492 212.26 144.861 212.445 144.861 212.445V211.06C144.861 210.783 145.046 210.875 145.138 210.968C145.231 210.968 145.323 211.337 145.323 211.337C145.323 211.337 145.6 211.245 145.692 211.245C145.785 211.245 145.877 211.429 145.877 211.429L146.246 211.337C146.339 211.429 146.339 211.522 146.339 211.522L146.523 211.614C146.339 211.706 146.339 212.537 146.339 212.537Z" fill="#E48868"/>
<path d="M138.675 211.799C138.675 212.076 138.491 212.26 138.214 212.26C137.937 212.26 137.752 212.076 137.752 211.799C137.752 211.522 137.937 211.337 138.214 211.337C138.491 211.429 138.675 211.614 138.675 211.799ZM137.845 211.799C137.845 211.983 138.029 212.168 138.214 212.168C138.399 212.168 138.583 211.983 138.583 211.799C138.583 211.614 138.399 211.429 138.214 211.429C138.029 211.522 137.845 211.614 137.845 211.799Z" fill="#007AD9"/>
<path d="M138.768 210.783C138.768 211.06 138.583 211.245 138.306 211.245C138.029 211.245 137.845 211.06 137.845 210.783C137.845 210.506 138.029 210.321 138.306 210.321C138.583 210.321 138.768 210.506 138.768 210.783ZM138.029 210.691C138.029 210.875 138.214 211.06 138.399 211.06C138.583 211.06 138.768 210.875 138.768 210.691C138.768 210.506 138.583 210.321 138.399 210.321C138.214 210.414 138.029 210.506 138.029 210.691Z" fill="#007AD9"/>
<path d="M138.306 211.152C138.214 211.152 138.214 211.244 138.214 211.244C138.214 211.337 138.214 211.337 138.306 211.429L138.214 211.521C138.214 211.521 138.122 211.429 138.122 211.337C138.122 211.244 138.214 211.244 138.306 211.152Z" fill="#007AD9"/>
<path d="M140.153 211.521C140.06 211.891 139.876 212.168 139.691 212.26H139.599V212.168C139.876 211.983 139.968 211.798 140.06 211.521C140.153 211.244 140.06 210.967 139.783 210.69V210.598H139.876C140.06 210.967 140.153 211.244 140.153 211.521Z" fill="#BA745D"/>
<path d="M137.752 212.629L138.122 212.445V212.26L137.568 212.168C137.568 212.168 137.291 211.891 137.014 211.799L137.291 210.229C137.291 210.229 137.66 210.321 137.845 210.229L138.491 210.321V210.137L138.306 209.952C138.306 209.952 136.921 209.398 136.552 209.49C136.183 209.583 136.275 209.952 136.275 209.952C136.275 209.952 135.629 210.414 135.721 211.152C135.813 211.891 136.183 212.537 136.552 212.722C136.921 212.814 137.752 212.629 137.752 212.629Z" fill="#FAB348"/>
<path d="M141.907 215.953C141.907 215.953 145.415 216.876 145.785 216.876C146.523 216.969 146.893 216.138 146.893 215.584C146.893 215.122 146.616 213.276 146.339 212.906C146.062 212.445 145.231 212.906 145.231 212.906C145.231 212.906 145.785 214.845 145.6 215.122C145.508 215.492 142.738 214.661 142.738 214.661C142.738 214.661 142.369 215.584 141.907 215.953Z" fill="#E48868"/>
<path fill-rule="evenodd" clip-rule="evenodd" d="M135.536 204.874C136.829 194.349 136.829 195.364 145.785 193.518C148.831 189.825 151.786 191.948 155.941 192.133C155.848 199.981 155.11 207.736 153.725 215.492C153.356 217.707 152.894 219.923 152.34 222.047C148.185 221.216 144.861 222.601 142.83 218.261C134.521 214.384 134.244 215.307 135.536 204.874ZM135.629 212.906C136.367 215.399 140.707 216.876 142.461 217.338C142.83 209.583 143.846 202.012 145.231 194.441C143.477 194.441 138.768 194.903 137.568 197.118C137.014 198.042 136.367 201.458 135.906 204.966C135.536 208.382 135.352 211.891 135.629 212.906Z" fill="#65C8CF"/>
<path fill-rule="evenodd" clip-rule="evenodd" d="M144.123 192.779L144.307 191.579C144.4 191.025 144.861 190.563 145.323 190.656H145.6C146.062 190.748 146.431 191.21 146.339 191.856L146.154 193.056C146.062 193.61 145.6 194.072 145.138 193.979H144.861C144.4 193.887 144.123 193.333 144.123 192.779Z" fill="#007AD9"/>
<path fill-rule="evenodd" clip-rule="evenodd" d="M140.891 219.923L141.076 218.723C141.168 218.169 141.63 217.708 142.092 217.8H142.369C142.83 217.892 143.2 218.354 143.107 219L142.923 220.2C142.83 220.754 142.369 221.216 141.907 221.124H141.63C141.168 220.939 140.799 220.477 140.891 219.923Z" fill="#007AD9"/>
<path opacity="0.2" fill-rule="evenodd" clip-rule="evenodd" d="M143.107 218.354C143.2 218.446 143.292 218.446 143.477 218.539C143.477 218.539 143.2 217.431 144.215 215.861C145.231 214.292 147.724 213.553 149.293 213.368C150.863 213.184 152.248 213.184 152.248 213.184L152.986 207.182L153.725 201.181C153.725 201.181 152.432 200.812 150.955 200.258C149.478 199.704 147.262 198.411 146.616 196.657C145.969 194.903 146.523 193.887 146.523 193.887C146.431 193.887 146.246 193.98 146.154 193.98C146.154 194.257 146.062 194.533 145.969 194.81C145.877 195.18 145.231 200.719 144.584 206.259C143.938 211.799 143.292 217.246 143.2 217.708C143.2 217.8 143.107 218.077 143.107 218.354Z" fill="white"/>
<path fill-rule="evenodd" clip-rule="evenodd" d="M151.14 221.493L154.556 192.779C154.648 192.225 155.11 191.763 155.571 191.856L156.956 192.04C157.418 192.133 157.787 192.594 157.695 193.241L154.279 221.954C154.186 222.508 153.725 222.97 153.263 222.878L151.878 222.693C151.417 222.601 151.047 222.047 151.14 221.493Z" fill="#999999"/>
<path d="M149.466 218.071C149.661 216.451 148.67 215 147.253 214.829C145.835 214.658 144.528 215.833 144.333 217.453C144.138 219.073 145.129 220.525 146.546 220.695C147.964 220.866 149.271 219.691 149.466 218.071Z" fill="#007AD9"/>
<path d="M152.132 195.461C152.327 193.841 151.336 192.39 149.918 192.219C148.501 192.048 147.194 193.223 146.999 194.843C146.803 196.463 147.794 197.915 149.212 198.085C150.629 198.256 151.936 197.081 152.132 195.461Z" fill="#007AD9"/>
<path opacity="0.2" d="M148.733 217.983C148.873 216.819 148.166 215.776 147.154 215.654C146.141 215.532 145.207 216.377 145.066 217.541C144.926 218.706 145.633 219.749 146.646 219.871C147.658 219.992 148.593 219.147 148.733 217.983Z" fill="white"/>
<path opacity="0.2" d="M151.398 195.373C151.539 194.209 150.832 193.166 149.819 193.044C148.807 192.922 147.872 193.767 147.732 194.931C147.592 196.096 148.299 197.138 149.311 197.26C150.324 197.382 151.258 196.537 151.398 195.373Z" fill="white"/>
<path fill-rule="evenodd" clip-rule="evenodd" d="M152.709 220.293L152.986 217.984C152.986 217.892 153.079 217.8 153.171 217.8L153.817 217.892C153.91 217.892 154.002 217.984 154.002 218.077L153.725 220.385C153.725 220.477 153.633 220.57 153.54 220.57L152.894 220.477C152.709 220.57 152.617 220.477 152.709 220.293Z" fill="#FAB348"/>
<path fill-rule="evenodd" clip-rule="evenodd" d="M155.571 196.472L155.848 194.164C155.848 194.072 155.941 193.979 156.033 193.979L156.679 194.072C156.772 194.072 156.864 194.164 156.864 194.256L156.587 196.565C156.587 196.657 156.495 196.749 156.402 196.749L155.756 196.657C155.571 196.657 155.571 196.565 155.571 196.472Z" fill="#FAB348"/>
<path opacity="0.2" d="M152.063 205.059L151.509 209.398C151.509 209.767 151.14 210.044 150.77 209.952C150.401 209.952 150.124 209.583 150.124 209.213L150.678 204.874C150.678 204.505 151.047 204.228 151.417 204.32C151.878 204.412 152.155 204.782 152.063 205.059ZM150.586 209.306C150.586 209.49 150.678 209.583 150.863 209.583C151.047 209.583 151.14 209.49 151.14 209.306L151.694 204.966C151.694 204.782 151.601 204.689 151.417 204.689C151.232 204.689 151.14 204.782 151.047 204.966L150.586 209.306Z" fill="white"/>
</g>
<defs>
<filter id="filter0_d" x="-4" y="0" width="517.092" height="517.092" filterUnits="userSpaceOnUse" color-interpolation-filters="sRGB">
<feFlood flood-opacity="0" result="BackgroundImageFix"/>
<feColorMatrix in="SourceAlpha" type="matrix" values="0 0 0 0 0 0 0 0 0 0 0 0 0 0 0 0 0 0 127 0"/>
<feOffset dy="4"/>
<feGaussianBlur stdDeviation="2"/>
<feColorMatrix type="matrix" values="0 0 0 0 0 0 0 0 0 0 0 0 0 0 0 0 0 0 0.25 0"/>
<feBlend mode="normal" in2="BackgroundImageFix" result="effect1_dropShadow"/>
<feBlend mode="normal" in="SourceGraphic" in2="effect1_dropShadow" result="shape"/>
</filter>
<clipPath id="clip0">
<rect width="509" height="509" fill="white"/>
</clipPath>
</defs>
</svg>
