<?xml version="1.0" encoding="UTF-8"?>
<svg fill="none" version="1.1" viewBox="0 0 256 256" xmlns="http://www.w3.org/2000/svg">
 <g transform="matrix(1.8984 0 0 1.8984 1.7578 3.3297)" clip-path="url(#clip0)">
  <path d="m66.5 131.34c36.727 0 66.5-29.402 66.5-65.672 0-36.27-29.773-65.672-66.5-65.672-36.727 0-66.5 29.402-66.5 65.672 0 36.27 29.773 65.672 66.5 65.672z" fill="#65c8cf" opacity=".2"/>
  <path d="m106.62 111.12h-80.316c-2.4969 0-4.4944-2.055-4.4944-4.521v-9.8628c0-2.548 1.9975-4.5207 4.4944-4.5207h6.2422v-42.494c0-2.6301 2.2471-4.7672 4.9937-4.7672h5.4931c2.9963-9.0412 11.153-15.617 20.807-16.685v-14.548c0-1.8904 1.4981-3.2877 3.3291-3.2877h11.735c1.9143 0 3.4957 1.4795 3.4957 3.2877v7.1508c0 1.8082-1.5814 3.2877-3.4957 3.2877h-10.57v4.0275c10.071 0.7397 18.56 7.3152 21.64 16.767h5.4931c2.6633 0 4.8274 2.1371 4.8274 4.7672v42.412h6.242c2.497 0 4.578 2.0548 4.578 4.5206v9.863c0.083 2.548-1.998 4.603-4.495 4.603z" fill="#2977ff"/>
  <g fill="#fff">
   <path d="m103.62 101.18h-74.24v3.041h74.24z" opacity=".2"/>
   <path d="m89.221 45.288h-45.443v2.7124h45.443z" opacity=".2"/>
   <path d="m75.738 11.097h-5.826v12.164h5.826z"/>
  </g>
  <path d="m70.245 11.097h-5.8261v12.164h5.8261z" fill="#2f528f"/>
  <path d="m81.065 11.097h-5.826v12.164h5.826z" fill="#d1335b"/>
  <path d="m100.29 51.864h-67.582v40.932h67.582z" fill="#65c8d0"/>
  <path d="m100.29 92.549h-10.32v-31.562c0-0.411-0.2497-0.6576-0.6658-0.6576h-7.241c-0.3329 0-0.6658 0.2466-0.6658 0.6576v31.562h-10.57v-31.562c0-0.411-0.2497-0.6576-0.6658-0.6576h-7.1577c-0.4161 0-0.7491 0.3288-0.7491 0.6576v31.562h-10.404v-31.562c0-0.3288-0.3329-0.6576-0.7491-0.6576h-7.1577c-0.3329 0-0.6658 0.2466-0.6658 0.6576v31.562h-10.57v-41.096l67.582 0.4109zm-7.5736-2.6302h4.9105v-35.343l-62.172-0.4109v35.754h5.1602v-28.932c0-1.8905 1.4981-3.2878 3.3291-3.2878h7.1577c1.9143 0 3.4957 1.4795 3.4957 3.2878v28.932h5.0769v-28.932c0-1.8083 1.5814-3.2878 3.4957-3.2878h7.1577c1.9142 0 3.3291 1.4795 3.3291 3.2878v28.932h5.1602v-28.932c0-1.8905 1.4981-3.2878 3.3292-3.2878h7.2409c1.9143 0 3.3292 1.4795 3.3292 3.2878z" fill="#fff" opacity=".2"/>
 </g>
 <defs>
  <clipPath id="clip0">
   <rect width="133" height="131.34" fill="#fff"/>
  </clipPath>
 </defs>
</svg>
