<?xml version="1.0" encoding="UTF-8"?>
<svg fill="none" version="1.1" viewBox="0 0 256 256" xmlns="http://www.w3.org/2000/svg">
 <g transform="matrix(.71643 0 0 .71643 10.147 12.655)" clip-path="url(#clip0)">
  <path d="m328.91 20.469-149.38-20.418-29.999 219.56 149.38 20.418z" fill="#f2f2f2"/>
  <path d="m298.96 240.1-149.54-20.462 30.042-219.64 149.54 20.461zm-149.37-20.518 149.26 20.405 29.986-219.41-149.26-20.405z" fill="#000"/>
  <path d="m315.16 40.306-71.517-9.7542c-0.672-0.1121-1.065-1.4015-0.84-2.9711 0.224-1.5696 0.952-2.6908 1.625-2.6347l71.461 9.8102c0.672 0.1121 1.065 1.4015 0.841 2.9711-0.225 1.5696-0.897 2.6908-1.57 2.5787z" fill="#2977ff"/>
  <path d="m310.34 85.601-128.74-17.602c-0.673-0.1121-1.065-1.4575-0.841-3.0272 0.224-1.5696 0.953-2.8029 1.625-2.6908l128.74 17.602c0.672 0.1121 1.065 1.4575 0.84 3.0271-0.168 1.5697-0.896 2.803-1.625 2.6908z" fill="#65c8cf"/>
  <path d="m313.64 51.069-71.461-9.8103c-0.672-0.1121-1.065-1.4014-0.841-2.9711 0.225-1.5135 0.953-2.6908 1.626-2.6347l71.461 9.8102c0.672 0.1121 1.065 1.4015 0.84 2.9711-0.224 1.5697-0.896 2.6908-1.625 2.6348z" fill="#2977ff"/>
  <g fill="#65c8cf">
   <path d="m308.49 99.504-128.74-17.602c-0.673-0.1121-1.065-1.4575-0.841-3.0271 0.224-1.5697 0.953-2.803 1.626-2.6908l128.74 17.602c0.673 0.1121 1.065 1.4575 0.841 3.0272-0.224 1.5696-0.953 2.8029-1.625 2.6908z"/>
   <path d="m306.36 115.09-128.74-17.602c-0.672-0.1121-1.065-1.4575-0.841-3.0272 0.225-1.5696 0.953-2.8029 1.626-2.6908l128.74 17.546c0.673 0.112 1.065 1.458 0.841 3.027-0.224 1.626-0.953 2.803-1.625 2.747z"/>
   <path d="m304.45 128.99-128.74-17.602c-0.673-0.112-1.065-1.457-0.841-3.027s0.953-2.803 1.625-2.691l128.74 17.603c0.672 0.112 1.065 1.457 0.84 3.027-0.224 1.569-0.952 2.747-1.625 2.69z"/>
   <path d="m302.26 144.86-128.74-17.602c-0.673-0.112-1.065-1.458-0.841-3.027 0.224-1.57 0.953-2.803 1.625-2.691l128.74 17.602c0.672 0.112 1.065 1.458 0.841 3.027-0.225 1.57-0.953 2.747-1.626 2.691z"/>
   <path d="m300.36 158.76-128.74-17.603c-0.672-0.112-1.065-1.457-0.841-3.027 0.225-1.57 0.953-2.803 1.626-2.691l128.74 17.603c0.673 0.112 1.065 1.457 0.841 3.027-0.224 1.569-0.953 2.747-1.625 2.691z"/>
  </g>
  <path d="m213.65 175.07-46.296-6.335c-0.448-0.056-0.616-1.345-0.392-2.915 0.224-1.569 0.729-2.747 1.177-2.691l46.239 6.335c0.449 0.056 0.617 1.345 0.393 2.915s-0.673 2.747-1.121 2.691z" fill="#2977ff"/>
  <path d="m225.32 34.113c1.522-11.135-6.27-21.396-17.403-22.917-11.133-1.5217-21.392 6.2716-22.913 17.407-1.522 11.135 6.27 21.396 17.403 22.917s21.392-6.2715 22.913-17.407z" fill="#65c8cf" opacity=".2"/>
  <g clip-rule="evenodd" fill-rule="evenodd">
   <path d="m214.78 37.784 2.858 0.3925c0.505 0.056 0.897 0.5605 0.785 1.1211l-0.785 5.718c-0.056 0.5606-0.56 0.953-1.065 0.8969l-2.858-0.3924c-0.505-0.056-0.897-0.5606-0.785-1.1212l0.785-5.7179c0.056-0.5606 0.56-0.953 1.065-0.897z" fill="#2f3031"/>
   <path d="m191.24 34.588 2.858 0.3924c0.505 0.0561 0.897 0.5606 0.785 1.1212l-0.785 5.718c-0.056 0.5606-0.56 0.953-1.065 0.8969l-2.858-0.3924c-0.505-0.0561-0.897-0.5606-0.785-1.1212l0.785-5.7179c0.056-0.5606 0.56-0.953 1.065-0.897z" fill="#2f3031"/>
   <path d="m198.74 20.181c-2.466 0.6727-4.035 4.9892-4.484 6.727 7.679 0.5045 15.245 1.5696 22.7 3.0832 0.056-1.7939-0.337-6.3907-2.522-7.68-0.897-0.5606-4.316-1.2333-7.735-1.7378-3.475-0.3924-6.95-0.6167-7.959-0.3924z" fill="#999"/>
   <path d="m201.27 21.19 11.098 1.5136c1.233 0.1682 2.074 1.1772 1.961 2.2984l-0.168 1.4014c-0.168 1.0651-1.289 1.85-2.466 1.6818l-11.097-1.5136c-1.233-0.1682-2.074-1.1772-1.962-2.2984l0.168-1.4014c0.168-1.1212 1.289-1.85 2.466-1.6818z" fill="#65c8cf" opacity=".2"/>
   <g fill="#e4ddd7">
    <path d="m209.56 25.507 2.579 0.3363c1.737 0.2243 3.026 1.7379 2.802 3.3075l-0.056 0.5045c-2.971-0.5606-5.941-1.0651-8.912-1.4575l0.056-0.2242c0.169-1.6257 1.794-2.6908 3.531-2.4666z"/>
    <path d="m198.8 23.993 2.298 0.3363c1.569 0.2243 2.69 1.6818 2.466 3.2514l-0.056 0.2803c-2.634-0.3363-5.324-0.6166-8.015-0.7848l0.056-0.5606c0.281-1.6257 1.738-2.7468 3.251-2.5226z"/>
    <path d="m204.63 21.078 3.699 0.5045c0.168 0 0.337 0.1682 0.281 0.3363l-0.057 0.6167c0 0.1681-0.224 0.2803-0.392 0.2803l-3.699-0.5046c-0.168 0-0.336-0.1681-0.28-0.3363l0.056-0.6167c0-0.2242 0.168-0.3363 0.392-0.2802z"/>
   </g>
  </g>
  <path d="m206.24 20.572-0.129 0.9442 0.389 0.0531 0.129-0.9442z" fill="#e4ddd7"/>
  <path d="m210.68 23.152c-0.784 2.1862-1.457 3.1392-1.457 3.1392s1.121 0.0561 2.018 0.1682 2.074 0.3924 2.074 0.3924-0.169-2.8029-0.056-3.2514c0.112-0.4484-2.579-0.4484-2.579-0.4484z" fill="#2f3031"/>
  <g fill="#e48868">
   <path d="m211.58 26.74c-0.616-0.2243-0.448-0.6727-0.448-0.6727s0.056-0.2243 0.112-0.5606c0-0.0561 0-0.1682 0.056-0.2242 0-0.1122 0.056-0.2803 0.056-0.3924 0-0.5606 1.177-0.0561 1.177-0.0561s-0.224 1.0651-0.112 1.4015c0.168 0.3363-0.224 0.7287-0.841 0.5045z"/>
   <path d="m210.52 26.067s1.065 1.6818 1.513 2.0742c0 0 0.617-0.3924 0.449-1.7939 0 0.0561-0.561-0.3363-1.962-0.2803z"/>
   <path d="m210.96 22.48s-0.841 1.1772-0.337 2.5226c0.505 1.2894 2.018-0.2803 2.13-0.4485 0.112-0.1681 0.729-1.2893-0.112-1.7938-0.841-0.4485-1.457-0.5606-1.681-0.2803z"/>
  </g>
  <path d="m211.13 22.984s-0.561 0.5606-0.673 1.0091c0 0-0.224-0.897 0.392-1.6257 0.617-0.7288 1.514-0.5606 2.186 0.2242 0.393 0.4485 0.561 1.0651-0.504 2.3545 0-0.0561-1.401-1.3454-1.401-1.9621z" fill="#2f3031"/>
  <path d="m211.86 25.338s-0.168 0.2242-0.616 0.3924c0-0.0561 0-0.1121 0.056-0.2242 0 0 0.28 0 0.56-0.1682z" fill="#a77860"/>
  <path d="m213.15 30.048c-0.056 0.1121-0.168 0.2242-0.28 0.3924-0.392 0.3924-0.504 2.859-0.504 3.5317 0 0.0561-0.056 0.1682-0.112 0.1682l-0.281 0.056c-0.168 0.0561-0.28-0.1121-0.28-0.2242 0.505-2.4105 1.345-6.1104 0.673-7.5679h0.056c0.448 0.2803 0.897 0.6727 1.177 0.8969 0.112 0.1122 0.224 0.2243 0.224 0.3925 0.056 0.2802 0.168 0.8969 0.28 1.5135 0.056 0 0.28 2.7469-0.953 0.8409z" fill="#007ad9"/>
  <path d="m208.95 28.029c0 0.056 0.168 0.6166 0.28 1.4014v0.0561c0.112 0.5606 0 1.1212-0.168 1.7378-0.112 0.5045-0.617 1.2333-0.897 1.5697-0.056 0.056-0.056 0.1121 0 0.2242 0 0.056 0.056 0.056 0.056 0.1121l0.729 0.3924 0.168 0.1121c0.112 0.0561 0.28 0.0561 0.392 0 0.112-0.056 0.168-0.1121 0.225-0.2803 0.336-1.3454 0.784-2.6908 1.008-3.1953 1.121-2.1863 0.225-4.0362 0.225-4.0362s-1.29-0.0561-1.57 0.056c-0.28 0-1.065 0.6167-1.569 1.2333 0 0-0.841 1.7378-0.224 2.1863 0.616 0.4485 1.065 0.4485 1.121 0.3364" fill="#007ad9"/>
  <path d="m209.71 29.182c0.063-0.4602-0.259-0.8841-0.719-0.947s-0.884 0.2591-0.947 0.7193c-0.063 0.4601 0.259 0.8841 0.719 0.947 0.46 0.0628 0.884-0.2592 0.947-0.7193z" fill="#072643"/>
  <path d="m214.18 29.87c0.062-0.4602-0.26-0.8842-0.72-0.947-0.46-0.0629-0.884 0.2591-0.946 0.7192-0.063 0.4602 0.259 0.8842 0.719 0.947 0.46 0.0629 0.884-0.2591 0.947-0.7192z" fill="#072643"/>
  <path d="m213.6 29.935c-0.168 1.2893-1.401 2.2423-2.69 2.0741-1.29-0.1681-2.242-1.4014-2.074-2.6908 0.168-1.2893 1.401-2.2423 2.69-2.0741 1.289 0.1681 2.242 1.4014 2.074 2.6908zm-2.13-2.1303c-1.009-0.1121-1.962 0.5606-2.074 1.5697-0.112 1.009 0.561 1.962 1.57 2.0742 1.008 0.1121 1.961-0.5606 2.073-1.5697 0.112-1.009-0.56-1.962-1.569-2.0742z" fill="#999"/>
  <g fill="#e48868">
   <path d="m209.79 29.038-0.953-0.4484c-0.056 0-0.056-0.0561-0.056-0.1122v-0.056c0-0.0561 0.056-0.0561 0.112-0.0561l0.953 0.4485c0.056 0 0.056 0.0561 0.056 0.1121v0.0561c0 0.056-0.056 0.056-0.112 0.056z"/>
   <path d="m209.67 29.262-0.952-0.4484c-0.056 0-0.056-0.0561-0.056-0.1121v-0.0561c0-0.0561 0.056-0.0561 0.112-0.0561l0.953 0.4485c0.056 0 0.056 0.0561 0.056 0.1121v0.0561c0 0.056-0.056 0.056-0.113 0.056z"/>
   <path d="m209.56 29.487-0.952-0.4485c-0.056 0-0.057-0.0561-0.057-0.1121v-0.0561c0-0.056 0.057-0.056 0.113-0.056l0.952 0.4484c0.056 0 0.056 0.0561 0.056 0.1121v0.0561c0 0.0561-0.056 0.0561-0.112 0.0561z"/>
   <path d="m209.45 29.655-0.953-0.4484c-0.056 0-0.056-0.0561-0.056-0.1122v-0.056c0-0.0561 0.056-0.0561 0.113-0.0561l0.952 0.4485c0.056 0 0.056 0.056 0.056 0.1121v0.0561c0 0.056-0.056 0.1121-0.112 0.056z"/>
   <path d="m209.34 29.879-0.953-0.4484c-0.056 0-0.056-0.0561-0.056-0.1121v-0.0561c0-0.0561 0.056-0.0561 0.112-0.0561l0.953 0.4485c0.056 0 0.056 0.0561 0.056 0.1121v0.0561c0 0.056-0.056 0.1121-0.112 0.056z"/>
   <path d="m212.64 29.486 1.065-0.1681c0.056 0 0.112-0.0561 0.056-0.1122v-0.056c0-0.0561-0.056-0.1121-0.112-0.0561l-1.065 0.1682c-0.056 0-0.112 0.0561-0.056 0.1121v0.0561s0.056 0.056 0.112 0.056z"/>
   <path d="m212.7 29.712 1.065-0.1681c0.056 0 0.112-0.0561 0.056-0.1122v-0.056c0-0.0561-0.056-0.1121-0.112-0.0561l-1.065 0.1682c-0.056 0-0.112 0.0561-0.056 0.1121v0.0561s0.056 0.056 0.112 0.056z"/>
   <path d="m212.76 29.935 1.065-0.1682c0.056 0 0.112-0.0561 0.056-0.1121v-0.0561c0-0.056-0.056-0.1121-0.112-0.056l-1.065 0.1681c-0.056 0-0.112 0.0561-0.056 0.1121v0.0561c0 0.0561 0.056 0.0561 0.112 0.0561z"/>
   <path d="m212.81 30.159 1.065-0.1682c0.056 0 0.112-0.0561 0.056-0.1121v-0.0561c0-0.056-0.056-0.1121-0.112-0.056l-1.065 0.1681c-0.056 0-0.112 0.0561-0.056 0.1122v0.056c0 0.0561 0.056 0.0561 0.112 0.0561z"/>
   <path d="m212.87 30.383 1.065-0.1682c0.056 0 0.112-0.056 0.056-0.1121v-0.056c0-0.0561-0.056-0.1122-0.112-0.0561l-1.065 0.1682c-0.056 0-0.112 0.056-0.056 0.1121v0.056c0 0.0561 0.056 0.1122 0.112 0.0561z"/>
  </g>
  <path d="m216.9 30.16c-0.056 0-7.455-1.3454-11.434-1.906s-11.154-1.1772-11.21-1.1772v-0.2242c0.056 0 7.174 0.6166 11.21 1.1772 4.035 0.5606 11.378 1.906 11.49 1.906z" fill="#fff" opacity=".2"/>
  <g fill="#e48868">
   <path d="m202.28 27.693s1.569 3.0832 1.289 3.3075c-0.336 0.3363-2.858 1.009-2.858 1.009l0.28 0.897s4.372-0.4485 4.26-1.7379c-0.168-1.2893-1.458-4.2604-1.458-4.2604z"/>
   <path d="m200.76 33.018s0.504-0.2803 0.616-0.5045c0.056-0.2242-0.504-0.5045-0.504-0.5045l-0.448 0.056z"/>
   <path d="m200.76 32.122s-0.561-0.2803-0.617-0.3363c-0.056-0.0561-0.336 0-0.616 0.1682-0.224 0.1121-0.505 0.2802-0.617 0.3924-0.056 0.056-0.056 0.056-0.056 0.1681 0.056 0.1122 0.168 0.2243 0.168 0.2243s0 0.1682 0.112 0.2803c0 0 0 0.1681 0.169 0.2803 0 0 0 0.1681 0.112 0.2242 0 0 0.224-0.0561 0.336-0.0561s0.617-0.1121 1.065-0.3363c0 0 0.336-0.3924-0.056-1.0091z"/>
   <path d="m200.09 31.841s-0.392 0.3364-0.504 0.6167c0 0.056-0.056 0.1121 0 0.1681 0.056 0.0561 0.168 0.0561 0.336-0.1121 0.168-0.1121 0.448-0.2242 0.448-0.2242s0.169-0.2243-0.28-0.4485z"/>
   <path d="m198.97 32.626s0.729-0.2803 0.785-0.2803 0-0.2803-0.112-0.2803-0.673 0.1682-0.729 0.2243c-0.056 0.056-0.112 0.2803 0.056 0.3363z"/>
   <path d="m199.25 32.178s-1.29 0.5045-1.234 0.5606c0.057 0.1682 0.393 0.1682 1.346-0.2803 0.896-0.3363-0.112-0.2803-0.112-0.2803z"/>
  </g>
  <path d="m195.16 34.757 6.165 1.3454s0.393-3.0832 0.393-3.5877c0-0.5046 0.28-2.5787 0.616-3.9802 0.056-0.3364 0.449-0.0561 0.449-0.0561l0.392-0.5605 0.729-1.0091c-0.281-0.4485-1.906-1.6818-2.803-2.0181-0.785-0.2803-1.009-0.2803-1.569-0.3364-1.345-0.1681-3.643 1.0091-3.755 1.3454 0 0-0.169 0.2243-0.112 0.3925 0.056 0.1121 1.008 0.953 1.233 0.953 0 0 0 0.1121-0.056 0.2802-0.057 0.1682-1.682 5.9983-1.682 7.2316z" fill="#fab348"/>
  <g opacity=".2">
   <g opacity=".2">
    <path d="m196.39 33.691c-0.056 0-0.056 0 0 0-0.056-0.056 0-0.056 0-0.056 0.785-0.3364 1.457-0.8409 2.074-1.4576h0.056v0.0561c-0.617 0.6166-1.345 1.1212-2.13 1.4575z" fill="#fff" opacity=".2"/>
   </g>
  </g>
  <g opacity=".2">
   <g opacity=".2">
    <path d="m198.18 35.037c-0.056-0.0561-0.056-0.0561 0-0.0561 0.56-0.6727 1.009-1.2333 1.345-2.0181 0 0 0.056-0.056 0.056 0v0.0561c-0.392 0.7848-0.785 1.3454-1.401 2.0181z" fill="#fff" opacity=".2"/>
   </g>
  </g>
  <g opacity=".2">
   <g opacity=".2">
    <path d="m199.92 34.644c-0.056 0-0.056-0.056-0.056-0.056 0.168-0.8409 0.392-1.6257 0.561-2.4105 0.112-0.5606 0.28-1.1773 0.392-1.7939 0.168-0.7288 0.392-2.1863 0.112-2.859v-0.056h0.056c0.28 0.6727 0.056 2.1302-0.112 2.915-0.112 0.6166-0.28 1.2333-0.392 1.7939-0.169 0.7848-0.337 1.6257-0.561 2.4665 0.056 0 0 0 0 0z" fill="#fff" opacity=".2"/>
   </g>
  </g>
  <g opacity=".2">
   <g opacity=".2">
    <path d="m199.98 25.619h-0.112c-0.392-0.0561-0.729-0.2803-0.953-0.6167v-0.056h0.056c0.225 0.2803 0.561 0.5045 0.897 0.5606 0.336 0.056 0.729 0 1.065-0.1682h0.056v0.0561c-0.28 0.2242-0.673 0.2802-1.009 0.2242z" fill="#fff" opacity=".2"/>
   </g>
  </g>
  <g fill="#e48868">
   <path d="m199.25 23.433-0.169 1.1772s0.841 1.1212 1.85 0.2803l0.112-1.2332z"/>
   <path d="m200.31 20.798c-1.064 0-1.233 1.1211-1.289 2.0741s0.337 1.6257 1.009 1.7378c0.673 0.1121 1.177-0.5606 1.401-1.4014 0.281-0.897 0.561-2.3545-1.121-2.4105z"/>
   <path d="m199.25 22.648s0-0.3924-0.337-0.3364c-0.336 0.0561-0.112 1.0091 0.281 0.953 0.392 0 0.056-0.6166 0.056-0.6166z"/>
   <path d="m201.27 23.04s0.056-0.3925 0.393-0.2243c0.28 0.1682-0.169 1.0091-0.505 0.897-0.336-0.1682 0.112-0.6727 0.112-0.6727z"/>
  </g>
  <path d="m199.02 29.206 0.449-1.2333 1.233 0.3925-1.065 2.3544-1.009-0.5045z" fill="#004a90"/>
  <path d="m198.91 30.832s-0.728 0.0561-0.84-0.1121c-0.113-0.1682 0.056-0.8409 0.056-0.8409s0.392-0.3924 0.448-0.5605c0.056-0.1682 0.392-0.5606 0.448-0.5046 0.112 0.0561-0.056 0.4485-0.056 0.4485h1.402c0.28 0 0.168 0.1682 0.112 0.2803s-0.393 0.1682-0.393 0.1682 0.112 0.2802 0.056 0.3363-0.168 0.1682-0.168 0.1682 0.112 0.3363 0.056 0.3924-0.224 0.0561-0.224 0.0561-0.056 0.2242-0.112 0.2242-0.785-0.0561-0.785-0.0561z" fill="#e48868"/>
  <g fill="#007ad9">
   <path d="m199.7 23.208c-0.224 0-0.448-0.2243-0.392-0.4485 0-0.2242 0.224-0.4485 0.448-0.3924 0.224 0 0.448 0.2242 0.392 0.4485 0 0.2242-0.168 0.3924-0.448 0.3924zm0.056-0.7848c-0.168 0-0.336 0.1121-0.336 0.3363 0 0.1682 0.112 0.3364 0.336 0.3364 0.168 0 0.336-0.1122 0.336-0.3364 0-0.1682-0.168-0.3363-0.336-0.3363z"/>
   <path d="m200.82 23.321c-0.224 0-0.448-0.2243-0.392-0.4485 0-0.2242 0.224-0.4485 0.448-0.3924 0.224 0 0.448 0.2242 0.392 0.4485 0 0.2242-0.224 0.4484-0.448 0.3924zm0.056-0.7288c-0.168 0-0.336 0.1121-0.336 0.3364 0 0.1681 0.112 0.3363 0.336 0.3363 0.168 0 0.336-0.1121 0.336-0.3363-0.056-0.1682-0.168-0.3364-0.336-0.3364z"/>
   <path d="m200.37 22.872c0-0.0561-0.057-0.1122-0.113-0.1122s-0.112 0.0561-0.112 0.0561l-0.056-0.0561s0.112-0.1121 0.224-0.056c0.057 0 0.113 0.056 0.169 0.1682z"/>
  </g>
  <path d="m200.03 24.666h-0.056c-0.28-0.0561-0.504-0.2243-0.672-0.5046v-0.056h0.056c0.168 0.2242 0.336 0.3924 0.616 0.4484 0.28 0.0561 0.561 0 0.785-0.2242h0.056v0.0561c-0.224 0.2242-0.505 0.3363-0.785 0.2803z" fill="#ba745d"/>
  <path d="m198.97 22.255 0.168 0.3364 0.225 0.056 0.056-0.5606s0.28-0.2242 0.392-0.5605l1.569 0.3363s-0.112 0.3924 0 0.5606l-0.112 0.6166h0.224l0.225-0.1681s0.56-1.3454 0.448-1.7379c-0.112-0.3924-0.448-0.2802-0.448-0.2802s-0.449-0.6728-1.233-0.5606c-0.785 0.1121-1.402 0.5045-1.57 0.7848-0.168 0.3363 0.056 1.1772 0.056 1.1772z" fill="#fab348"/>
  <path d="m195.61 26.348s-0.952 3.4756-1.008 3.868c-0.112 0.7288 0.728 1.1212 1.233 1.1212 0.448 0 2.242-0.2243 2.69-0.5046s0-1.1211 0-1.1211-1.906 0.5045-2.242 0.3924 0.561-2.8029 0.561-2.8029-0.841-0.5046-1.234-0.953z" fill="#e48868"/>
  <g clip-rule="evenodd" fill-rule="evenodd">
   <path d="m206.7 20.181c10.425 1.4015 9.36 1.4576 11.097 10.371 3.644 3.0832 1.514 5.9422 1.233 10.147-7.79-0.2243-15.525-1.1212-23.147-2.6348-2.186-0.4485-4.372-0.8969-6.502-1.4575 0.841-4.0923-0.448-7.3997 3.924-9.4178 3.979-8.1285 3.026-8.4649 13.395-7.0074zm-7.959 0c-2.466 0.6727-4.035 4.9893-4.484 6.7271 7.679 0.5045 15.245 1.5696 22.7 3.0832 0.056-1.7939-0.337-6.3907-2.522-7.68-0.897-0.5606-4.316-1.2333-7.735-1.7378-3.475-0.3925-6.95-0.6167-7.959-0.3925z" fill="#65c8cf"/>
   <path d="m218.59 28.926 1.233 0.1682c0.561 0.0561 1.009 0.5606 0.897 1.0091l-0.056 0.2803c-0.056 0.5045-0.561 0.8408-1.177 0.7287l-1.233-0.1682c-0.561-0.056-1.009-0.5605-0.897-1.009l0.056-0.2803c0.112-0.4485 0.617-0.7848 1.177-0.7288z" fill="#007ad9"/>
   <path d="m191.68 25.282 1.233 0.1682c0.561 0.0561 1.009 0.5606 0.897 1.0091l-0.056 0.2803c-0.056 0.5045-0.561 0.8408-1.177 0.7287l-1.233-0.1681c-0.561-0.0561-1.009-0.5606-0.897-1.0091l0.056-0.2803c0.112-0.5045 0.617-0.8409 1.177-0.7288z" fill="#007ad9"/>
   <path d="m193.14 27.525c-0.056 0.1121-0.112 0.2242-0.168 0.3364 0 0 1.121-0.2803 2.634 0.7287 1.57 1.0651 2.242 3.5317 2.411 5.1013 0.168 1.5136 0.168 2.9151 0.168 2.9151l11.882 1.6817s0.392-1.3454 0.953-2.7468c0.56-1.4015 1.905-3.6438 3.699-4.2605 1.793-0.6166 2.746 0 2.746 0 0-0.1121-0.056-0.2242-0.056-0.3363-0.28-0.0561-0.56-0.1121-0.841-0.1682-0.392-0.1121-5.885-0.8409-11.321-1.5696-5.437-0.7849-10.93-1.5136-11.322-1.5136-0.168-0.1121-0.448-0.1682-0.785-0.1682z" fill="#fff" opacity=".2"/>
   <path d="m189.95 35.429 28.472 3.8681c0.56 0.056 1.009 0.5606 0.953 1.0651l-0.168 1.4014c-0.056 0.5046-0.617 0.8409-1.177 0.7288l-28.473-3.868c-0.56-0.0561-1.009-0.5606-0.952-1.0651l0.168-1.4015c0.056-0.5045 0.616-0.8409 1.177-0.7288z" fill="#999"/>
   <path d="m193.36 33.747c1.625 0.2242 3.082-0.7288 3.306-2.1302 0.169-1.4015-0.952-2.6908-2.578-2.9151-1.625-0.2242-3.082 0.7288-3.307 2.1302-0.224 1.4015 0.953 2.6909 2.579 2.9151z" fill="#007ad9"/>
   <path d="m215.78 36.83c1.625 0.2242 3.082-0.7288 3.306-2.1302 0.169-1.4015-0.952-2.6908-2.578-2.9151-1.625-0.2242-3.082 0.7288-3.307 2.1303-0.168 1.4014 0.953 2.6908 2.579 2.915z" fill="#007ad9"/>
  </g>
  <path d="m195.78 31.53c0.134-0.9817-0.702-1.9065-1.868-2.0658-1.165-0.1593-2.219 0.5073-2.353 1.4889s0.702 1.9065 1.868 2.0658c1.165 0.1593 2.219-0.5073 2.353-1.4889z" fill="#fff" opacity=".2"/>
  <path d="m218.24 34.574c0.134-0.9816-0.702-1.9065-1.868-2.0658-1.165-0.1593-2.218 0.5073-2.353 1.4889-0.134 0.9816 0.702 1.9065 1.868 2.0658 1.165 0.1593 2.219-0.5073 2.353-1.4889z" fill="#fff" opacity=".2"/>
  <path d="m191.07 36.942 2.242 0.2803c0.112 0 0.168 0.1121 0.168 0.1681l-0.112 0.6167c0 0.1121-0.113 0.1682-0.225 0.1121l-2.242-0.2803c-0.112 0-0.168-0.1121-0.168-0.1682l0.112-0.6166c0-0.0561 0.113-0.1121 0.225-0.1121z" clip-rule="evenodd" fill="#fab348" fill-rule="evenodd"/>
  <path d="m214.66 40.194 2.242 0.2803c0.112 0 0.168 0.1122 0.168 0.1682l-0.112 0.6167c0 0.1121-0.112 0.1681-0.225 0.1121l-2.241-0.2803c-0.113 0-0.169-0.1121-0.169-0.1682l0.113-0.6166c0.056-0.0561 0.168-0.1122 0.224-0.1122z" clip-rule="evenodd" fill="#fab348" fill-rule="evenodd"/>
  <path d="m206.2 36.606-4.315-0.5606c-0.336-0.056-0.617-0.3924-0.561-0.7287 0.056-0.3925 0.393-0.6167 0.729-0.5606l4.316 0.5606c0.336 0.056 0.616 0.3924 0.56 0.7848-0.056 0.3363-0.392 0.5606-0.729 0.5045zm-4.147-1.5136c-0.168 0-0.28 0.1121-0.336 0.2803 0 0.1121 0.112 0.2803 0.224 0.3364l4.316 0.5606c0.168 0 0.28-0.1122 0.336-0.2243 0-0.1682-0.056-0.3363-0.224-0.3363z" fill="#fff" opacity=".2"/>
  <g fill="#000" opacity=".2">
   <path d="m328.91 20.582-149.38-20.418-29.998 219.56 149.38 20.418z" opacity=".2"/>
   <path d="m298.96 240.21-149.54-20.462 30.042-219.69 149.54 20.461zm-149.37-20.574 149.26 20.406 29.986-219.41-149.26-20.405z" opacity=".2"/>
  </g>
  <path d="m146.75 20.716-146.68 34.879 51.246 215.59 146.68-34.88z" fill="#f2f2f2"/>
  <path d="m198.07 236.34-146.79 34.925-51.284-215.71 146.79-34.924zm-146.68 34.757 146.51-34.869-51.227-215.43-146.51 34.868z" fill="#000"/>
  <path d="m141.07 44.23-70.172 16.705c-0.6725 0.1682-1.5132-0.953-1.8495-2.4666-0.3363-1.5135-0.1121-2.859 0.5604-3.0271l70.172-16.706c0.673-0.1681 1.513 0.953 1.85 2.4666 0.336 1.5136 0.112 2.859-0.561 3.0272z" fill="#2977ff"/>
  <path d="m152.95 88.124-126.44 30.103c-0.6726 0.168-1.5133-0.953-1.9056-2.523-0.3924-1.569-0.1121-2.971 0.5604-3.083l126.44-30.047c0.673-0.1682 1.513 0.953 1.906 2.5227 0.336 1.5135 0.112 2.915-0.561 3.0271z" fill="#65c8cf"/>
  <path d="m143.54 54.713-70.172 16.705c-0.6725 0.1682-1.5132-0.953-1.8495-2.4666-0.3363-1.5135-0.1121-2.8589 0.5604-3.0271l70.172-16.706c0.673-0.1681 1.513 0.953 1.85 2.4666 0.392 1.5136 0.112 2.859-0.561 3.0272z" fill="#2977ff"/>
  <g fill="#65c8cf">
   <path d="m156.2 101.8-126.44 30.048c-0.6726 0.168-1.5133-0.953-1.9056-2.523s-0.1121-2.971 0.5605-3.083l126.44-30.048c0.672-0.1682 1.513 0.953 1.905 2.5226 0.337 1.514 0.113 2.915-0.56 3.083z"/>
   <path d="m159.85 117.05-126.44 30.103c-0.6725 0.168-1.5133-0.953-1.9056-2.522-0.3923-1.57-0.1121-2.971 0.5605-3.084l126.44-30.047c0.672-0.168 1.513 0.953 1.906 2.523 0.336 1.513 0.112 2.915-0.561 3.027z"/>
   <path d="m163.1 130.73-126.44 30.048c-0.6726 0.168-1.5133-0.953-1.9056-2.523-0.3924-1.569-0.1121-2.971 0.5605-3.083l126.44-30.047c0.672-0.169 1.513 0.953 1.905 2.522 0.337 1.514 0.112 2.915-0.56 3.083z"/>
   <path d="m166.8 146.31-126.44 30.048c-0.6725 0.168-1.5132-0.953-1.9056-2.523-0.3923-1.569-0.1121-2.971 0.5605-3.083l126.44-30.047c0.672-0.169 1.513 0.953 1.905 2.522 0.337 1.514 0.113 2.915-0.56 3.083z"/>
   <path d="m170.05 159.94-126.44 30.103c-0.6726 0.168-1.5133-0.953-1.9056-2.523-0.3923-1.569-0.1121-2.971 0.5605-3.083l126.44-30.103c0.672-0.168 1.513 0.953 1.905 2.522 0.337 1.57 0.112 2.915-0.56 3.084z"/>
  </g>
  <path d="m95.057 206.52-45.455 10.82c-0.4484 0.112-1.0649-1.066-1.4572-2.523-0.3363-1.514-0.2803-2.803 0.1121-2.915l45.455-10.819c0.4483-0.113 1.0649 1.065 1.4572 2.522 0.3363 1.458 0.2802 2.803-0.1121 2.915z" fill="#2977ff"/>
  <path d="m39.962 95.372c10.932-2.5995 17.687-13.571 15.088-24.505s-13.568-17.69-24.5-15.091-17.687 13.571-15.088 24.505 13.568 17.69 24.5 15.091z" fill="#65c8cf" opacity=".2"/>
  <g clip-rule="evenodd" fill-rule="evenodd">
   <path d="m46.576 78.089 2.8024-0.6727c0.5045-0.1121 1.0089 0.2242 1.177 0.7848l1.3452 5.6059c0.1121 0.5605-0.1682 1.0651-0.6726 1.1772l-2.8024 0.6727c-0.5044 0.1121-1.0088-0.2242-1.177-0.7848l-1.3451-5.6059c-0.1682-0.5045 0.1681-1.0651 0.6725-1.1772z" fill="#2f3031"/>
   <path d="m23.484 83.583 2.8024-0.6727c0.5044-0.1122 1.0088 0.2242 1.177 0.7848l1.3451 5.6058c0.1121 0.5606-0.1681 1.0651-0.6725 1.1772l-2.8024 0.6728c-0.5045 0.1121-1.0089-0.2243-1.177-0.7849l-1.3452-5.6058c-0.1681-0.5045 0.1682-1.0651 0.6726-1.1772z" fill="#2f3031"/>
   <path d="m25.222 67.438c-2.0177 1.5136-1.9617 6.1103-1.7375 7.9042 7.3422-2.2984 14.797-3.9801 22.251-5.2695-0.6165-1.6817-2.6342-5.8301-5.1003-6.2785-1.0649-0.1682-4.4838 0.3924-7.8467 1.1772-3.3628 0.8409-6.6697 1.8499-7.5664 2.4666z" fill="#999"/>
   <path d="m27.968 67.438 10.873-2.5787c1.177-0.2803 2.354 0.3363 2.6342 1.4575l0.3363 1.4015c0.2802 1.0651-0.5044 2.1862-1.6814 2.4665l-10.873 2.5787c-1.177 0.2803-2.354-0.3363-2.6342-1.4575l-0.3363-1.4015c-0.2803-1.0651 0.5044-2.1862 1.6814-2.4665z" fill="#65c8cf" opacity=".2"/>
   <g fill="#e4ddd7">
    <path d="m37.272 68.503 2.5222-0.6166c1.7375-0.3924 3.4189 0.5045 3.8112 2.0742l0.1121 0.4484c-2.9705 0.5606-5.941 1.1773-8.8555 1.85l-0.0561-0.2243c-0.3923-1.5136 0.7286-3.1393 2.4661-3.5317z"/>
    <path d="m26.679 70.914 2.298-0.5606c1.5133-0.3924 3.0826 0.6167 3.4749 2.1302l0.0561 0.2803c-2.6343 0.6167-5.2125 1.3454-7.7907 2.1303l-0.112-0.5606c-0.3924-1.4576 0.5604-3.0272 2.0737-3.4196z"/>
    <path d="m31.05 66.149 3.5871-0.8409c0.1681-0.056 0.3923 0.0561 0.3923 0.2243l0.1121 0.5606c0.0561 0.1681-0.056 0.3363-0.2802 0.3924l-3.5871 0.8408c-0.1681 0.0561-0.3923-0.056-0.3923-0.2242l-0.1121-0.5606c-0.056-0.2242 0.0561-0.3924 0.2802-0.3924z"/>
   </g>
  </g>
  <path d="m32.787 64.998-0.3817 0.0908 0.2204 0.9271 0.3817-0.0907z" fill="#e4ddd7"/>
  <path d="m37.496 65.868c0.0561 2.2984-0.2242 3.4756-0.2242 3.4756s1.0649-0.3363 1.9057-0.5606c0.8407-0.2242 2.0737-0.3924 2.0737-0.3924s-1.177-2.5787-1.233-2.9711c-0.0561-0.5045-2.5222 0.4485-2.5222 0.4485z" fill="#2f3031"/>
  <g fill="#e48868">
   <path d="m39.57 68.896c-0.6726 0-0.6165-0.4484-0.6165-0.4484s-0.0561-0.2243-0.1121-0.5606c0-0.0561-0.0561-0.1682-0.0561-0.2242-0.056-0.1122-0.056-0.2803-0.1121-0.3924-0.1681-0.5046 1.0649-0.5046 1.0649-0.5046s0.1682 1.0651 0.3924 1.3454c0.3362 0.2803 0.1121 0.7848-0.5605 0.7848z"/>
   <path d="m38.337 68.671s1.6254 1.1773 2.1859 1.4015c0 0 0.4484-0.6167-0.2242-1.7939 0 0-0.6726-0.1682-1.9617 0.3924z"/>
   <path d="m37.496 65.196s-0.3363 1.4015 0.5605 2.4666c0.9528 1.0651 1.7935-1.0091 1.8496-1.1772 0.056-0.2243 0.2242-1.4576-0.7286-1.6257-1.0089-0.1682-1.6254-0.0561-1.6815 0.3363z"/>
  </g>
  <path d="m37.776 65.588s-0.3363 0.7288-0.2803 1.1772c0 0-0.5044-0.7848-0.2242-1.6817 0.3363-0.897 1.177-1.0651 2.0738-0.5606 0.5044 0.2803 0.8968 0.7848 0.3923 2.3544 0.1121-0.056-1.6814-0.7287-1.9616-1.2893z" fill="#2f3031"/>
  <path d="m39.346 67.494s-0.0561 0.2803-0.4484 0.6167c0-0.0561 0-0.1121-0.056-0.2243 0.056 0 0.3362-0.1121 0.5044-0.3924z" fill="#a77860"/>
  <path d="m42.26 71.418c0 0.1121-0.0561 0.2803-0.1121 0.4484-0.2242 0.5046 0.5604 2.859 0.8407 3.4757 0.056 0.056 0 0.1681-0.0561 0.2242l-0.2242 0.1682c-0.1121 0.1121-0.2802 0-0.3362-0.1121-0.3924-2.4106-0.9529-6.1665-2.1299-7.2876h0.0561c0.5044 0.1121 1.0649 0.2803 1.4012 0.3924 0.1681 0.056 0.2802 0.1681 0.3923 0.2803 0.1682 0.2803 0.5044 0.7287 0.8407 1.2893-0.056-0.0561 1.177 2.4666-0.6725 1.1212z" fill="#007ad9"/>
  <path d="m37.608 71.026c0 0.056 0.3923 0.5045 0.7847 1.1772v0.056c0.2802 0.5046 0.3923 1.0652 0.4484 1.6818 0.056 0.5045-0.1121 1.3454-0.2242 1.7939 0 0.056 0 0.1121 0.056 0.2242 0 0.0561 0.0561 0.0561 0.1121 0.0561l0.8407 0.1121h0.2242c0.1682 0 0.2803-0.0561 0.3363-0.1682 0.0561-0.0561 0.1121-0.1682 0.1121-0.3363-0.1681-1.4015-0.2242-2.803-0.1681-3.3636 0.2242-2.4105-1.2331-3.868-1.2331-3.868s-1.233 0.4485-1.4572 0.6167c-0.2803 0.1121-0.7847 0.9529-1.0089 1.6817 0 0-0.1681 1.906 0.5605 2.1302 0.7286 0.1682 1.1209 0.0561 1.177-0.1121" fill="#007ad9"/>
  <path d="m38.088 72.916c0.4517-0.1074 0.7309-0.5608 0.6235-1.0126s-0.5607-0.731-1.0124-0.6236-0.7309 0.5608-0.6235 1.0126 0.5607 0.731 1.0124 0.6236z" fill="#072643"/>
  <path d="m42.512 71.899c0.4518-0.1074 0.7309-0.5608 0.6235-1.0126s-0.5607-0.731-1.0124-0.6236-0.7309 0.5608-0.6235 1.0126 0.5607 0.731 1.0124 0.6236z" fill="#072643"/>
  <path d="m42.596 71.194c0.2802 1.2894-0.5045 2.5787-1.7936 2.859s-2.5782-0.5045-2.8584-1.7939c-0.2802-1.2893 0.5044-2.5787 1.7935-2.859s2.5782 0.5046 2.8585 1.7939zm-2.7464-1.2333c-1.0088 0.2243-1.6254 1.2333-1.3451 2.2424 0.2802 1.009 1.233 1.6257 2.2419 1.3454 1.0088-0.2243 1.6254-1.2333 1.3451-2.2424-0.2802-1.009-1.233-1.6257-2.2419-1.3454z" fill="#999"/>
  <g fill="#e48868">
   <path d="m38.73 71.699-1.0649-0.056c-0.0561 0-0.1121-0.0561-0.1121-0.1121v-0.0561c0-0.056 0.056-0.1121 0.1121-0.1121l1.0649 0.0561c0.056 0 0.1121 0.056 0.1121 0.1121v0.056c0 0.0561-0.0561 0.1121-0.1121 0.1121z"/>
   <path d="m38.729 71.924-1.0649-0.0561c-0.056 0-0.1121-0.0561-0.1121-0.1121v-0.0561c0-0.056 0.0561-0.1121 0.1121-0.1121l1.0649 0.0561c0.0561 0 0.1121 0.056 0.1121 0.1121v0.056c0 0.0561-0.056 0.1122-0.1121 0.1122z"/>
   <path d="m38.729 72.147-1.0649-0.0561c-0.0561 0-0.1121-0.056-0.1121-0.1121v-0.0561c0-0.056 0.056-0.1121 0.1121-0.1121l1.0649 0.0561c0.056 0 0.1121 0.056 0.1121 0.1121v0.0561c-0.0561 0.1121-0.1121 0.1121-0.1121 0.1121z"/>
   <path d="m38.673 72.428-1.0649-0.0561c-0.056 0-0.1121-0.0561-0.1121-0.1121v-0.0561c0-0.056 0.0561-0.1121 0.1121-0.1121l1.0649 0.0561c0.0561 0 0.1121 0.056 0.1121 0.1121v0.056c0 0.0561-0.056 0.1122-0.1121 0.1122z"/>
   <path d="m38.673 72.652-1.0649-0.0561c-0.056 0-0.1121-0.056-0.1121-0.1121v-0.0561c0-0.056 0.0561-0.1121 0.1121-0.1121l1.0649 0.0561c0.0561 0 0.1121 0.056 0.1121 0.1121v0.0561l-0.1121 0.1121z"/>
   <path d="m41.587 71.082 0.8968-0.5606c0.056 0 0.056-0.1121 0.056-0.1121v-0.0561c0-0.056-0.1121-0.056-0.1121-0.056l-0.8967 0.5606c-0.0561 0-0.0561 0.1121-0.0561 0.1121v0.056c0 0.0561 0.0561 0.0561 0.1121 0.0561z"/>
   <path d="m41.7 71.251 0.8968-0.5605c0.056 0 0.056-0.1122 0.056-0.1122v-0.056c0-0.0561-0.1121-0.0561-0.1121-0.0561l-0.8967 0.5606c-0.0561 0-0.0561 0.1121-0.0561 0.1121v0.0561c0 0.1121 0.0561 0.1121 0.1121 0.056z"/>
   <path d="m41.812 71.474 0.8968-0.5606c0.056 0 0.056-0.1121 0.056-0.1121v-0.0561c0-0.056-0.1121-0.056-0.1121-0.056l-0.8967 0.5605c-0.0561 0-0.0561 0.1122-0.0561 0.1122v0.056c0 0.0561 0.1121 0.0561 0.1121 0.0561z"/>
   <path d="m41.98 71.698 0.8968-0.5606c0.0561 0 0.0561-0.1121 0.0561-0.1121v-0.0561c0-0.056-0.1121-0.056-0.1121-0.056l-0.8968 0.5606c-0.0561 0-0.0561 0.1121-0.0561 0.1121v0.056c0 0.0561 0.0561 0.0561 0.1121 0.0561z"/>
   <path d="m42.092 71.866 0.8968-0.5606c0.0561 0 0.0561-0.1121 0.0561-0.1121v-0.0561c0-0.0561-0.1121-0.0561-0.1121-0.0561l-0.8968 0.5606c-0.056 0-0.056 0.1121-0.056 0.1121v0.0561c0 0.0561 0.056 0.1121 0.112 0.0561z"/>
  </g>
  <path d="m45.791 70.129c-0.0561 0-7.4544 1.4015-11.378 2.3545-3.9233 0.8969-10.817 2.915-10.873 2.9711l-0.056-0.2243c0.056 0 6.9499-2.0181 10.873-2.9711 3.9234-0.8969 11.322-2.3544 11.378-2.3544z" fill="#fff" opacity=".2"/>
  <g fill="#e48868">
   <path d="m31.275 73.156s2.5782 2.2984 2.4101 2.6348c-0.1682 0.4485-2.298 1.962-2.298 1.962l0.5605 0.7288s3.9233-2.0181 3.3068-3.1393c-0.6165-1.1211-2.8584-3.4756-2.8584-3.4756z"/>
   <path d="m31.779 78.65s0.3923-0.4485 0.3923-0.7288c0-0.2242-0.6726-0.3363-0.6726-0.3363l-0.3923 0.2242z"/>
   <path d="m31.443 77.809s-0.6166-0.0561-0.6726-0.0561c-0.1121 0-0.3363 0.1122-0.5044 0.3364-0.1682 0.2242-0.3924 0.4485-0.3924 0.5606 0 0.056-0.056 0.056 0.0561 0.1681 0.1121 0.1122 0.2242 0.1682 0.2242 0.1682s0.056 0.1682 0.2242 0.2243c0 0 0.056 0.1681 0.2242 0.2242 0 0 0.056 0.1682 0.1681 0.1682 0 0 0.2242-0.1122 0.2802-0.1682 0.1121 0 0.5045-0.3364 0.8408-0.6727-0.0561 0 0.1681-0.5045-0.4484-0.953z"/>
   <path d="m30.714 77.809s-0.2241 0.4484-0.2241 0.7287c0 0.0561 0 0.1121 0.056 0.1682 0.0561 0.0561 0.1682 0 0.2802-0.2242 0.1121-0.1682 0.3363-0.3924 0.3363-0.3924s0.0561-0.2243-0.4484-0.2803z"/>
   <path d="m29.986 78.93s0.5605-0.5606 0.6165-0.5606c0.0561 0-0.1121-0.2243-0.1681-0.2243s-0.5605 0.4485-0.6165 0.5046c-0.0561 0.056-0.0561 0.2803 0.1681 0.2803z"/>
   <path d="m30.042 78.481s-1.0089 0.897-0.9528 1.0091c0.1121 0.1121 0.3923 0 1.1209-0.7288 0.7286-0.7848-0.1681-0.2803-0.1681-0.2803z"/>
  </g>
  <path d="m27.127 82.35 6.2213-0.953s-0.7286-2.9711-0.9528-3.4756c-0.1682-0.5046-0.6726-2.5227-0.8407-3.9241-0.0561-0.3364 0.4483-0.2243 0.4483-0.2243l0.1121-0.6727 0.3363-1.1772c-0.4484-0.3363-2.41-0.8409-3.3628-0.8409-0.8408 0-1.0649 0.1121-1.5694 0.2243-1.3451 0.3363-3.0265 2.2984-3.0265 2.6347 0 0-0.0561 0.2803 0 0.3924 0.056 0.0561 1.289 0.5606 1.5132 0.4485 0 0 0.0561 0.1121 0.0561 0.2803 0.056 0.1121 0.6726 6.1104 1.0649 7.2876z" fill="#fab348"/>
  <g opacity=".2">
   <g opacity=".2">
    <path d="m27.912 80.892-0.0561-0.0561c0.6165-0.5606 1.0649-1.2893 1.4012-2.1302 0 0 0.0561-0.0561 0.0561 0 0 0 0.056 0.056 0 0.056-0.2803 0.7849-0.7847 1.5136-1.4012 2.1303z" fill="#fff" opacity=".2"/>
   </g>
  </g>
  <g opacity=".2">
   <g opacity=".2">
    <path d="m30.098 81.509c-0.056 0-0.056-0.0561-0.056-0.0561 0.2802-0.8409 0.5044-1.5136 0.5044-2.3544 0 0 0-0.0561 0.056-0.0561 0 0 0.0561 0 0.0561 0.0561-0.0561 0.8408-0.2242 1.5696-0.5605 2.4105z" fill="#fff" opacity=".2"/>
   </g>
  </g>
  <g opacity=".2">
   <g opacity=".2">
    <path d="m31.555 80.5c-0.0561 0-0.0561 0-0.0561-0.0561-0.1121-0.8408-0.2242-1.6817-0.3363-2.4665-0.056-0.6167-0.1681-1.1773-0.2802-1.85-0.1121-0.7848-0.4484-2.1862-0.9528-2.6908v-0.056h0.056c0.5045 0.5045 0.8407 1.962 0.9528 2.7468 0.1121 0.6167 0.1682 1.2333 0.2803 1.85 0.1121 0.7848 0.2242 1.6257 0.3363 2.5226 0.056 0 0 0 0 0z" fill="#fff" opacity=".2"/>
   </g>
  </g>
  <g opacity=".2">
   <g opacity=".2">
    <path d="m28.36 72.091h-0.1121c-0.3923 0.056-0.7846 0-1.1209-0.2243 0 0-0.0561-0.056 0-0.056 0.056 0 0.056-0.0561 0.056 0 0.2803 0.1681 0.6726 0.2803 1.0649 0.2242 0.3363-0.0561 0.6726-0.2803 0.8968-0.5606h0.056v0.0561c-0.1681 0.2242-0.5044 0.4484-0.8407 0.5606z" fill="#fff" opacity=".2"/>
   </g>
  </g>
  <g fill="#e48868">
   <path d="m26.903 70.297 0.2802 1.1772s1.177 0.7848 1.7936-0.3924l-0.3363-1.1772z"/>
   <path d="m26.959 67.438c-0.9529 0.3364-0.7847 1.5136-0.4484 2.4105 0.3363 0.897 0.8967 1.4015 1.5693 1.2333 0.6165-0.1682 0.8968-0.953 0.7847-1.8499-0.0561-0.897-0.3363-2.3545-1.9056-1.7939z"/>
   <path d="m26.623 69.568s-0.1121-0.3924-0.3924-0.1681c-0.2802 0.1681 0.2803 0.953 0.6166 0.7848 0.3362-0.1682-0.2242-0.6167-0.2242-0.6167z"/>
   <path d="m28.64 69.176s-0.0561-0.3924 0.2802-0.3363c0.3363 0.056 0.2242 1.009-0.1681 1.009-0.3363 0-0.1121-0.6727-0.1121-0.6727z"/>
  </g>
  <path d="m28.752 75.791v-1.4015l1.2891-0.056-0.1121 2.5787-1.177-0.1121z" fill="#004a90"/>
  <path d="m29.257 77.248s-0.6726 0.3363-0.8407 0.2242c-0.1682-0.1121-0.2242-0.8409-0.2242-0.8409s0.2242-0.5045 0.2242-0.6727 0.1681-0.6727 0.2802-0.6166c0.1121 0 0.1121 0.4484 0.1121 0.4484l1.2891-0.5045c0.2803-0.1121 0.2242 0.1121 0.2242 0.2242 0 0.1122-0.3363 0.2803-0.3363 0.2803s0.2242 0.2243 0.1682 0.2803c0 0.0561-0.0561 0.2243-0.0561 0.2243s0.2242 0.2803 0.1682 0.3363c-0.0561 0.0561-0.2242 0.1121-0.2242 0.1121v0.2243c-0.0561 0.056-0.7847 0.2803-0.7847 0.2803z" fill="#e48868"/>
  <g fill="#007ad9">
   <path d="m27.239 69.904c-0.2242 0.056-0.5044-0.0561-0.5605-0.2803-0.056-0.2242 0.0561-0.5045 0.2803-0.5606 0.2241-0.0561 0.5044 0.0561 0.5604 0.2803 0.0561 0.2242-0.056 0.4485-0.2802 0.5606zm-0.2242-0.7848c-0.1681 0.056-0.2802 0.2242-0.2242 0.4484 0.0561 0.1682 0.2242 0.2803 0.4484 0.2243 0.1681-0.0561 0.2802-0.2243 0.2242-0.4485-0.1121-0.1682-0.2803-0.2803-0.4484-0.2242z"/>
   <path d="m28.304 69.624c-0.2242 0.0561-0.5044-0.056-0.5605-0.2803-0.056-0.2242 0.0561-0.5045 0.2802-0.5606 0.2242-0.056 0.5045 0.0561 0.5605 0.2803 0.1121 0.2243-0.056 0.5046-0.2802 0.5606zm-0.2242-0.7288c-0.1682 0.0561-0.2802 0.2243-0.2242 0.4485 0.0561 0.1682 0.2242 0.2803 0.4484 0.2243 0.1681-0.0561 0.2802-0.2243 0.2242-0.4485-0.1121-0.1682-0.2803-0.2803-0.4484-0.2243z"/>
   <path d="m27.744 69.344c-0.056-0.0561-0.1121-0.0561-0.1121-0.0561-0.056 0-0.1121 0.0561-0.1121 0.1121l-0.1121-0.056s0.0561-0.1122 0.1682-0.1682c0.056 0 0.1681 0 0.2242 0.056z"/>
  </g>
  <path d="m28.08 71.138h-0.0561c-0.2802 0.0561-0.5604-0.056-0.8407-0.2242v-0.056h0.0561c0.2242 0.1681 0.5044 0.2242 0.7286 0.2242 0.2802-0.0561 0.5044-0.2242 0.6726-0.5045 0 0 0.056-0.0561 0.056 0 0 0 0.0561 0.056 0 0.056-0.1121 0.2803-0.3363 0.4485-0.6165 0.5045z" fill="#ba745d"/>
  <path d="m26.174 69.288 0.2802 0.2803 0.2242-0.0561-0.1121-0.5606s0.2242-0.3363 0.1682-0.6166l1.6253-0.2803s0.0561 0.3924 0.2242 0.5045l0.1682 0.6167 0.1681-0.0561 0.1121-0.2242s0.0561-1.4576-0.1681-1.7939c-0.2242-0.3364-0.5045-0.1121-0.5045-0.1121s-0.6725-0.5046-1.3451-0.1121c-0.6726 0.3924-1.177 0.9529-1.177 1.2893-0.1121 0.4485 0.3363 1.1212 0.3363 1.1212z" fill="#fab348"/>
  <path d="m24.549 74.334s0.3923 3.5877 0.4484 3.9241c0.1681 0.7288 1.1209 0.7848 1.5693 0.6166 0.4484-0.1681 2.0177-1.009 2.298-1.4575 0.2802-0.3924-0.4484-1.0651-0.4484-1.0651s-1.5693 1.1212-1.9617 1.1772c-0.3923 0-0.5044-2.8029-0.5044-2.8029s-0.8968-0.1682-1.4012-0.3924z" fill="#e48868"/>
  <g clip-rule="evenodd" fill-rule="evenodd">
   <path d="m32.676 64.523c10.201-2.4105 9.2479-2.0181 14.068 5.718 4.4838 1.5696 3.531 5.0452 4.8201 9.0254-7.3422 2.5787-14.853 4.5407-22.531 5.8861-2.1858 0.3924-4.3717 0.7288-6.6136 1.0091-0.6726-4.0923-3.0826-6.7831 0.2242-10.203 0.8407-9.0814-0.1682-9.0254 10.032-11.436zm-7.4543 2.9151c-2.0177 1.5135-1.9617 6.1103-1.7375 7.9042 7.3423-2.2984 14.797-3.9801 22.251-5.2695-0.6165-1.6817-2.6342-5.8301-5.1003-6.2785-1.0649-0.1682-4.4838 0.3924-7.8467 1.1772-3.3628 0.8409-6.6697 1.8499-7.5664 2.4666z" fill="#65c8cf"/>
   <path d="m46.912 68.447 1.2331-0.2803c0.5605-0.1121 1.1209 0.1682 1.233 0.6167l0.0561 0.2802c0.1121 0.5046-0.2803 0.953-0.8407 1.1212l-1.2331 0.2803c-0.5605 0.1121-1.1209-0.1682-1.233-0.6166l-0.0561-0.2803c-0.056-0.5045 0.2803-1.0091 0.8407-1.1212z" fill="#007ad9"/>
   <path d="m20.514 74.726 1.233-0.2803c0.5605-0.1121 1.121 0.1682 1.2331 0.6167l0.056 0.2803c0.1121 0.5045-0.2802 0.9529-0.8407 1.1211l-1.2331 0.2803c-0.5604 0.1121-1.1209-0.1682-1.233-0.6166l-0.056-0.2803c-0.1121-0.5045 0.2802-1.0091 0.8407-1.1212z" fill="#007ad9"/>
   <path d="m22.699 76.239c0 0.1122 0 0.2243-0.056 0.3364 0 0 0.8967-0.6727 2.7463-0.2803 1.8496 0.4485 3.4189 2.5226 4.0915 3.868s1.177 2.6348 1.177 2.6348l5.829-1.4015 5.8289-1.4014s-0.1121-1.3454-0.1121-2.9151c0-1.5136 0.4484-4.0922 1.9056-5.2695 1.4573-1.1772 2.5782-1.009 2.5782-1.009-0.056-0.1121-0.1121-0.2243-0.1681-0.2803-0.2802 0.056-0.5605 0.1121-0.8407 0.1682-0.3923 0.056-5.7729 1.3454-11.154 2.6347-5.3806 1.2894-10.705 2.5226-11.098 2.6908-0.1681 0.1121-0.4483 0.1682-0.7286 0.2242z" fill="#fff" opacity=".2"/>
   <path d="m22.531 84.816 27.968-6.671c0.5605-0.1121 1.1209 0.1682 1.233 0.6167l0.3363 1.3454c0.1121 0.5045-0.2802 1.009-0.8407 1.1211l-27.968 6.671c-0.5605 0.1121-1.1209-0.1682-1.233-0.6166l-0.3363-1.3454c-0.0561-0.5046 0.2802-1.0091 0.8407-1.1212z" fill="#999"/>
  </g>
  <path d="m25.126 82.002c1.5961-0.3795 2.6288-1.786 2.3066-3.1415-0.3221-1.3554-1.8772-2.1466-3.4734-1.767-1.5961 0.3795-2.6288 1.786-2.3066 3.1414 0.3222 1.3555 1.8773 2.1466 3.4734 1.7671z" fill="#007ad9"/>
  <path d="m47.192 76.8c1.5693-0.3924 2.6342-1.7939 2.2979-3.1393-0.3362-1.3454-1.9056-2.1302-3.4749-1.7939-1.5694 0.3925-2.6343 1.7939-2.298 3.1393 0.2803 1.3454 1.8496 2.1863 3.475 1.7939z" clip-rule="evenodd" fill="#007ad9" fill-rule="evenodd"/>
  <path d="m24.958 81.292c1.1443-0.2721 1.8863-1.2741 1.6572-2.2379-0.2291-0.9639-1.3425-1.5247-2.4869-1.2526s-1.8864 1.2741-1.6573 2.238 1.3426 1.5247 2.487 1.2525z" fill="#fff" opacity=".2"/>
  <path d="m46.992 76.082c1.1444-0.2721 1.8864-1.2741 1.6572-2.238-0.2291-0.9639-1.3425-1.5247-2.4869-1.2525-1.1444 0.2721-1.8864 1.2741-1.6572 2.238 0.2291 0.9638 1.3425 1.5246 2.4869 1.2525z" fill="#fff" opacity=".2"/>
  <path d="m24.157 85.825 2.1858-0.5045c0.1121 0 0.2242 0 0.2242 0.1121l0.1682 0.6167c0 0.1121-0.0561 0.1681-0.1682 0.2242l-2.1858 0.5045c-0.1121 0-0.2242 0-0.2242-0.1121l-0.1682-0.6166c0-0.0561 0.0561-0.1682 0.1682-0.2243z" clip-rule="evenodd" fill="#fab348" fill-rule="evenodd"/>
  <path d="m47.36 80.332 2.1859-0.5046c0.1121 0 0.2242 1e-4 0.2242 0.1122l0.1681 0.6166c0 0.1121-0.056 0.1682-0.1681 0.2243l-2.1859 0.5045c-0.1121 0-0.2242 0-0.2242-0.1121l-0.1681-0.6167c0-0.1121 0.056-0.1682 0.1681-0.2242z" clip-rule="evenodd" fill="#fab348" fill-rule="evenodd"/>
  <path d="m38.112 80.051-4.2035 1.009c-0.3363 0.0561-0.7287-0.1681-0.7847-0.5045-0.1121-0.3363 0.1121-0.7288 0.5044-0.8409l4.2036-1.009c0.3363-0.1121 0.7286 0.1682 0.7847 0.5045 0.1121 0.3924-0.1121 0.7848-0.5045 0.8409zm-4.4277 0.1121c-0.1121 0.0561-0.2242 0.2242-0.2242 0.3364 0.056 0.1121 0.2242 0.2242 0.3363 0.2242l4.2035-1.0091c0.1682-0.056 0.2242-0.2242 0.2242-0.3363-0.056-0.1682-0.1681-0.2803-0.3363-0.2243z" fill="#fff" opacity=".2"/>
  <g fill="#000" opacity=".1">
   <path d="m146.75 20.716-146.68 34.879 51.246 215.59 146.68-34.88z" opacity=".1"/>
   <path d="m198.07 236.34-146.79 34.925-51.284-215.71 146.79-34.924zm-146.68 34.757 146.51-34.869-51.227-215.43-146.51 34.868z" opacity=".1"/>
  </g>
  <path d="m259.05 78.931h-150.77v221.6h150.77z" fill="#f2f2f2"/>
  <path d="m259.16 300.64h-150.94v-221.71h150.88v221.71zm-150.77-0.112h150.6v-221.43h-150.6z" fill="#000"/>
  <path d="m248.12 100.46h-72.189c-0.673 0-1.233-1.2329-1.233-2.8025 0-1.5697 0.56-2.8029 1.233-2.8029h72.133c0.673 0 1.233 1.2332 1.233 2.8029 0 1.5696-0.504 2.8025-1.177 2.8025z" fill="#2977ff"/>
  <path d="m249.52 145.98h-129.97c-0.673 0-1.233-1.29-1.233-2.915 0-1.626 0.56-2.916 1.233-2.916h129.97c0.673 0 1.233 1.29 1.233 2.916 0 1.625-0.56 2.915-1.233 2.915z" fill="#65c8cf"/>
  <path d="m248.12 111.28h-72.189c-0.673 0-1.233-1.233-1.233-2.803 0-1.569 0.56-2.803 1.233-2.803h72.133c0.673 0 1.233 1.234 1.233 2.803 0 1.57-0.504 2.803-1.177 2.803z" fill="#2977ff"/>
  <g fill="#65c8cf">
   <path d="m249.52 159.99h-129.97c-0.673 0-1.233-1.289-1.233-2.915s0.56-2.915 1.233-2.915h129.97c0.673 0 1.233 1.289 1.233 2.915s-0.56 2.915-1.233 2.915z"/>
   <path d="m249.52 175.69h-129.97c-0.673 0-1.233-1.29-1.233-2.916 0-1.625 0.56-2.915 1.233-2.915h129.97c0.673 0 1.233 1.29 1.233 2.915 0 1.626-0.56 2.916-1.233 2.916z"/>
   <path d="m249.52 189.7h-129.97c-0.673 0-1.233-1.289-1.233-2.915s0.56-2.915 1.233-2.915h129.97c0.673 0 1.233 1.289 1.233 2.915s-0.56 2.915-1.233 2.915z"/>
   <path d="m249.52 205.74h-129.97c-0.673 0-1.233-1.289-1.233-2.915s0.56-2.915 1.233-2.915h129.97c0.673 0 1.233 1.289 1.233 2.915s-0.56 2.915-1.233 2.915z"/>
   <path d="m249.52 219.75h-129.97c-0.673 0-1.233-1.289-1.233-2.915 0-1.625 0.56-2.915 1.233-2.915h129.97c0.673 0 1.233 1.29 1.233 2.915 0 1.626-0.56 2.915-1.233 2.915z"/>
  </g>
  <path d="m165.79 247.72h-46.688c-0.448 0-0.784-1.234-0.784-2.803 0-1.57 0.336-2.803 0.784-2.803h46.688c0.449 0 0.785 1.233 0.785 2.803 0 1.569-0.336 2.803-0.785 2.803z" fill="#2977ff"/>
  <path d="m137.93 126.86c11.237 0 20.346-9.111 20.346-20.35 0-11.238-9.109-20.349-20.346-20.349-11.236 0-20.345 9.1107-20.345 20.349 0 11.239 9.109 20.35 20.345 20.35z" fill="#65c8cf" opacity=".2"/>
  <g clip-rule="evenodd" fill-rule="evenodd">
   <path d="m148.36 111.56h2.859c0.504 0 0.953 0.448 0.953 1.009v5.774c0 0.56-0.449 1.009-0.953 1.009h-2.859c-0.504 0-0.953-0.449-0.953-1.009v-5.774c0-0.561 0.393-1.009 0.953-1.009z" fill="#2f3031"/>
   <path d="m124.59 111.56h2.858c0.505 0 0.953 0.448 0.953 1.009v5.774c0 0.56-0.448 1.009-0.953 1.009h-2.858c-0.504 0-0.953-0.449-0.953-1.009v-5.774c0-0.561 0.449-1.009 0.953-1.009z" fill="#2f3031"/>
   <path d="m130.03 96.253c-2.354 1.009-3.363 5.4942-3.531 7.2872 7.678-0.504 15.301-0.504 22.867 0-0.168-1.793-1.177-6.2782-3.531-7.2872-0.953-0.3924-4.428-0.6167-7.903-0.6727-3.419 0.056-6.893 0.2803-7.902 0.6727z" fill="#999"/>
   <path d="m132.72 96.869h11.153c1.233 0 2.242 0.897 2.242 2.0181v1.4578c0 1.121-1.009 2.018-2.242 2.018h-11.153c-1.233 0-2.242-0.897-2.242-2.018v-1.4578c0-1.1211 1.009-2.0181 2.242-2.0181z" fill="#65c8cf" opacity=".2"/>
   <g fill="#e4ddd7">
    <path d="m141.52 100.06h2.635c1.793 0 3.194 1.29 3.194 2.916v0.504c-3.026-0.168-6.053-0.224-9.079-0.28v-0.224c0-1.626 1.457-2.916 3.25-2.916z"/>
    <path d="m130.65 100.01h2.354c1.57 0 2.859 1.29 2.859 2.915v0.281c-2.691 0-5.381 0.112-8.071 0.28v-0.617c0-1.569 1.289-2.859 2.858-2.859z"/>
    <path d="m135.97 96.309h3.699c0.168 0 0.336 0.1682 0.336 0.3363v0.6167c0 0.1682-0.168 0.3363-0.336 0.3363h-3.699c-0.168 0-0.337-0.1681-0.337-0.3363v-0.6167c0-0.1681 0.169-0.3363 0.337-0.3363z"/>
   </g>
  </g>
  <path d="m137.93 95.636h-0.392v0.953h0.392z" fill="#e4ddd7"/>
  <path d="m142.3 97.542c-0.448 2.2424-1.009 3.3072-1.009 3.3072s1.121-0.112 2.018-0.112 2.074 0.112 2.074 0.112-0.561-2.8027-0.505-3.1951-2.578-0.1121-2.578-0.1121z" fill="#2f3031"/>
  <g fill="#e48868">
   <path d="m143.65 101.02c-0.672-0.169-0.504-0.617-0.504-0.617s0.056-0.224 0.056-0.5606v-0.2243-0.3924c-0.056-0.5606 1.177-0.2242 1.177-0.2242s-0.056 1.0655 0.112 1.4015c0.112 0.28-0.168 0.729-0.841 0.617z"/>
   <path d="m142.53 100.51s1.289 1.513 1.794 1.85c0 0 0.56-0.505 0.224-1.794-0.056 0-0.673-0.336-2.018-0.056z"/>
   <path d="m142.47 96.926s-0.672 1.2893 0 2.5226c0.673 1.2329 1.962-0.5606 2.074-0.7287 0.112-0.2243 0.56-1.4015-0.336-1.7379-0.953-0.3924-1.57-0.4484-1.738-0.056z"/>
  </g>
  <path d="m142.7 97.374s-0.448 0.6166-0.504 1.0651c0 0-0.336-0.8409 0.168-1.6817 0.505-0.8409 1.401-0.7849 2.186-0.1122 0.448 0.3924 0.729 1.0091-0.168 2.4105 0 0-1.569-1.0651-1.682-1.6817z" fill="#2f3031"/>
  <path d="m143.76 99.56s-0.112 0.2803-0.56 0.5049v-0.2246s0.336 0 0.56-0.2803z" fill="#a77860"/>
  <path d="m145.67 104.04c-0.056 0.112-0.112 0.28-0.224 0.392-0.337 0.449-0.112 2.915 0 3.588 0 0.056-0.056 0.168-0.112 0.168l-0.225 0.112c-0.168 0.056-0.28-0.056-0.28-0.224 0.168-2.41 0.505-6.222-0.392-7.568h0.056c0.448 0.224 1.009 0.505 1.289 0.729 0.112 0.056 0.224 0.224 0.28 0.336 0.112 0.281 0.281 0.841 0.505 1.458 0 0.056 0.616 2.747-0.897 1.009z" fill="#007ad9"/>
  <path d="m141.24 102.64c0 0.056 0.28 0.561 0.505 1.346v0.056c0.168 0.56 0.168 1.121 0.056 1.794-0.056 0.504-0.449 1.289-0.673 1.681v0.225c0 0.056 0.056 0.056 0.056 0.112l0.785 0.28 0.168 0.056c0.112 0.056 0.28 0 0.392-0.056s0.168-0.168 0.168-0.28c0.169-1.346 0.393-2.747 0.561-3.308 0.785-2.298-0.336-4.036-0.336-4.036s-1.289 0.168-1.57 0.224c-0.28 0.056-1.009 0.729-1.345 1.402 0 0-0.616 1.85 0.056 2.186 0.673 0.337 1.065 0.337 1.177 0.168" fill="#007ad9"/>
  <path d="m141.3 104.55c0.465 0 0.841-0.376 0.841-0.84 0-0.465-0.376-0.841-0.841-0.841-0.464 0-0.84 0.376-0.84 0.841 0 0.464 0.376 0.84 0.84 0.84z" fill="#072643"/>
  <path d="m145.84 104.61c0.464 0 0.841-0.377 0.841-0.841 0-0.465-0.377-0.841-0.841-0.841s-0.841 0.376-0.841 0.841c0 0.464 0.377 0.841 0.841 0.841z" fill="#072643"/>
  <path d="m146.06 103.93c0 1.346-1.065 2.411-2.41 2.411s-2.41-1.065-2.41-2.411c0-1.345 1.065-2.41 2.41-2.41s2.41 1.065 2.41 2.41zm-2.354-1.849c-1.009 0-1.849 0.84-1.849 1.849 0 1.01 0.84 1.85 1.849 1.85s1.85-0.84 1.85-1.85c0-1.009-0.841-1.849-1.85-1.849z" fill="#999"/>
  <g fill="#e48868">
   <path d="m142.19 103.54-1.009-0.336c-0.056 0-0.056-0.056-0.056-0.112v-0.056c0-0.057 0.056-0.057 0.112-0.057l1.009 0.337c0.056 0 0.056 0.056 0.056 0.112v0.056s-0.056 0.056-0.112 0.056z"/>
   <path d="m142.14 103.76-1.009-0.336c-0.056 0-0.056-0.056-0.056-0.112v-0.056c0-0.056 0.056-0.056 0.112-0.056l1.009 0.336c0.056 0 0.056 0.056 0.056 0.112v0.056c0 0.056-0.056 0.056-0.112 0.056z"/>
   <path d="m142.02 103.99-1.009-0.337c-0.056 0-0.056-0.056-0.056-0.112v-0.056c0-0.056 0.056-0.056 0.112-0.056l1.009 0.337c0.056 0 0.056 0.056 0.056 0.112v0.056c0 0.056-0.056 0.056-0.112 0.056z"/>
   <path d="m141.97 104.21-1.009-0.336c-0.056 0-0.056-0.056-0.056-0.113v-0.056c0-0.056 0.056-0.056 0.112-0.056l1.009 0.337c0.056 0 0.056 0.056 0.056 0.112v0.056c0 0.056-0.056 0.056-0.112 0.056z"/>
   <path d="m141.91 104.44-1.009-0.336c-0.056 0-0.056-0.056-0.056-0.112v-0.056c0-0.057 0.056-0.057 0.112-0.057l1.009 0.337c0.056 0 0.056 0.056 0.056 0.112v0.056c-0.056 0.056-0.112 0.056-0.112 0.056z"/>
   <path d="m145.11 103.6 1.008-0.336c0.056 0 0.056-0.056 0.056-0.112v-0.056c0-0.056-0.056-0.056-0.112-0.056l-1.009 0.336c-0.056 0-0.056 0.056-0.056 0.112v0.056s0.056 0.056 0.113 0.056z"/>
   <path d="m145.16 103.82 1.009-0.336c0.056 0 0.056-0.056 0.056-0.112v-0.056c0-0.056-0.056-0.056-0.112-0.056l-1.009 0.336c-0.056 0-0.056 0.056-0.056 0.112v0.056s0.056 0.056 0.112 0.056z"/>
   <path d="m145.28 104.04 1.009-0.336c0.056 0 0.056-0.056 0.056-0.113v-0.056c0-0.056-0.056-0.056-0.113-0.056l-1.008 0.337c-0.056 0-0.056 0.056-0.056 0.112v0.056c0 0.056 0.056 0.056 0.112 0.056z"/>
   <path d="m145.33 104.27 1.009-0.336c0.056 0 0.056-0.056 0.056-0.112v-0.056c0-0.057-0.056-0.057-0.112-0.057l-1.009 0.337c-0.056 0-0.056 0.056-0.056 0.112v0.056c0 0.056 0.056 0.056 0.112 0.056z"/>
   <path d="m145.44 104.49 1.009-0.336c0.056 0 0.056-0.056 0.056-0.112v-0.056c0-0.056-0.056-0.056-0.112-0.056l-1.009 0.336c-0.056 0-0.056 0.056-0.056 0.112v0.056c0 0.056 0.056 0.056 0.112 0.056z"/>
  </g>
  <path d="m149.42 103.65c-0.056 0-7.566-0.336-11.602-0.336-4.035 0-11.209 0.336-11.265 0.336v-0.224c0.056 0 7.23-0.393 11.265-0.337 4.036 0 11.546 0.337 11.602 0.337z" fill="#fff" opacity=".2"/>
  <g fill="#e48868">
   <path d="m134.57 103.2s1.962 2.859 1.738 3.083c-0.28 0.392-2.69 1.402-2.69 1.402l0.392 0.84s4.316-1.065 3.979-2.298c-0.336-1.233-2.017-4.036-2.017-4.036z"/>
   <path d="m133.84 108.7s0.448-0.392 0.504-0.616-0.56-0.449-0.56-0.449l-0.393 0.112z"/>
   <path d="m133.67 107.8s-0.561-0.224-0.673-0.224c-0.112-0.056-0.336 0.056-0.56 0.224-0.224 0.169-0.449 0.393-0.561 0.449-0.056 0.056-0.056 0.056 0 0.168s0.168 0.224 0.168 0.224 0 0.168 0.169 0.281c0 0 0 0.168 0.168 0.224 0 0 0 0.168 0.168 0.224 0 0 0.224-0.056 0.336-0.056s0.561-0.224 1.009-0.505c-0.056 0 0.28-0.392-0.224-1.009z"/>
   <path d="m133 107.63s-0.336 0.393-0.392 0.673v0.168c0.056 0.056 0.168 0 0.336-0.112 0.168-0.168 0.392-0.28 0.392-0.28s0.113-0.281-0.336-0.449z"/>
   <path d="m131.99 108.58s0.673-0.392 0.729-0.392-0.056-0.224-0.112-0.224-0.673 0.28-0.729 0.336c-0.056 0-0.056 0.168 0.112 0.28z"/>
   <path d="m132.16 108.08s-1.177 0.673-1.121 0.729c0.057 0.112 0.393 0.112 1.29-0.449 0.84-0.504-0.169-0.28-0.169-0.28z"/>
  </g>
  <path d="m128.46 111.22 6.278 0.505s-0.056-3.083-0.112-3.588c-0.056-0.504-0.113-2.579 0.056-4.036 0.056-0.337 0.448-0.112 0.448-0.112l0.28-0.617 0.561-1.121c-0.337-0.393-2.13-1.402-3.027-1.626-0.785-0.168-1.065-0.168-1.569-0.168-1.401 0.056-3.475 1.514-3.531 1.85 0 0-0.112 0.28-0.056 0.392s1.121 0.841 1.345 0.785v0.28c0 0.169-0.785 6.223-0.673 7.456z" fill="#fab348"/>
  <g opacity=".2">
   <g opacity=".2">
    <path d="m129.53 109.93c-0.056-0.056-0.056-0.056 0-0.056 0.729-0.392 1.345-1.009 1.85-1.738h0.056v0.056c-0.505 0.729-1.177 1.346-1.906 1.738z" fill="#fff" opacity=".2"/>
   </g>
  </g>
  <g opacity=".2">
   <g opacity=".2">
    <path d="m131.49 111.05c-0.056 0-0.056-0.056-0.056-0.056 0.504-0.729 0.841-1.346 1.065-2.187 0 0 0-0.056 0.056-0.056 0 0 0.056 0.056 0 0.056-0.168 0.897-0.505 1.514-1.065 2.243 0.056 0 0.056 0 0 0z" fill="#fff" opacity=".2"/>
   </g>
  </g>
  <g opacity=".2">
   <g opacity=".2">
    <path d="m133.17 110.44c-0.056 0-0.056 0 0 0 0-0.897 0.112-1.738 0.168-2.523 0.056-0.617 0.113-1.233 0.169-1.85 0.056-0.785 0.056-2.242-0.281-2.859v-0.056h0.056c0.393 0.617 0.337 2.13 0.281 2.915-0.056 0.617-0.112 1.233-0.169 1.85-0.056 0.785-0.112 1.626-0.224 2.523 0.056 0 0 0 0 0z" fill="#fff" opacity=".2"/>
   </g>
  </g>
  <g opacity=".2">
   <g opacity=".2">
    <path d="m131.99 101.47h-0.112c-0.392 0-0.784-0.168-1.009-0.449v-0.056h0.056c0.281 0.281 0.617 0.393 0.953 0.449 0.336 0 0.729-0.112 1.009-0.336h0.056v0.056c-0.224 0.224-0.56 0.336-0.953 0.336z" fill="#fff" opacity=".2"/>
   </g>
  </g>
  <g fill="#e48868">
   <path d="m131.04 99.392v1.177s0.952 1.009 1.849 0l-0.056-1.2331h-1.793z"/>
   <path d="m131.71 96.645c-1.009 0.1121-1.065 1.2893-1.009 2.2423 0.112 0.953 0.561 1.5699 1.233 1.5699 0.673 0 1.065-0.673 1.233-1.626 0.112-0.8408 0.225-2.3544-1.457-2.1862z"/>
   <path d="m130.93 98.663s-0.056-0.3924-0.336-0.2803c-0.336 0.1122 0.056 1.0091 0.392 0.953 0.337-0.1121-0.056-0.6727-0.056-0.6727z"/>
   <path d="m132.94 98.775s0-0.3924 0.336-0.2802c0.337 0.1121 0 1.009-0.392 0.953-0.336-0.1122 0.056-0.6728 0.056-0.6728z"/>
  </g>
  <path d="m131.54 105.17 0.336-1.346 1.233 0.281-0.728 2.466-1.121-0.336z" fill="#004a90"/>
  <path d="m131.71 106.74s-0.729 0.168-0.841 0c-0.168-0.168-0.056-0.841-0.056-0.841s0.337-0.449 0.393-0.617c0-0.168 0.28-0.616 0.392-0.56s0 0.448 0 0.448l1.345-0.168c0.28-0.056 0.168 0.168 0.168 0.224 0 0.112-0.392 0.224-0.392 0.224s0.168 0.281 0.112 0.337-0.112 0.168-0.112 0.168 0.168 0.28 0.112 0.336-0.224 0.056-0.224 0.056l-0.056 0.225c-0.112 0.112-0.841 0.168-0.841 0.168z" fill="#e48868"/>
  <g fill="#007ad9">
   <path d="m131.43 99.111c-0.224 0-0.449-0.1682-0.449-0.3924 0-0.2243 0.169-0.4485 0.393-0.4485s0.448 0.1682 0.448 0.3924c0.056 0.2243-0.168 0.3924-0.392 0.4485zm-0.056-0.7848c-0.168 0-0.336 0.1681-0.336 0.3924 0 0.1682 0.168 0.3363 0.392 0.3363 0.168 0 0.336-0.1681 0.336-0.3924-0.056-0.2242-0.224-0.3363-0.392-0.3363z"/>
   <path d="m132.55 99.111c-0.224 0-0.449-0.1682-0.449-0.3924 0-0.2243 0.169-0.4485 0.393-0.4485s0.448 0.1682 0.448 0.3924c0 0.2243-0.168 0.4485-0.392 0.4485zm-0.056-0.7848c-0.168 0-0.337 0.1681-0.337 0.3924 0 0.1682 0.169 0.3363 0.393 0.3363 0.168 0 0.336-0.1681 0.336-0.3924-0.056-0.2242-0.224-0.3363-0.392-0.3363z"/>
   <path d="m132.05 98.663c-0.056-0.0561-0.056-0.0561-0.112-0.0561s-0.112 0.0561-0.112 0.0561l-0.056-0.0561s0.112-0.1121 0.224-0.1121c0.056 0 0.112 0.0561 0.168 0.1121z"/>
  </g>
  <path d="m131.94 100.51h-0.056c-0.28 0-0.56-0.168-0.728-0.392v-0.057h0.056c0.168 0.225 0.392 0.337 0.672 0.393 0.28 0 0.561-0.112 0.729-0.336h0.056v0.056c-0.168 0.224-0.448 0.336-0.729 0.336z" fill="#ba745d"/>
  <path d="m130.54 98.271 0.224 0.3364h0.224v-0.5606s0.281-0.2803 0.281-0.5606l1.625 0.1121s-0.056 0.3924 0.056 0.5606v0.6166h0.224l0.168-0.1681s0.393-1.4015 0.225-1.7939c-0.168-0.3364-0.505-0.2242-0.505-0.2242s-0.504-0.6167-1.289-0.3924c-0.728 0.2242-1.345 0.6727-1.457 1.009-0.056 0.2803 0.224 1.0651 0.224 1.0651z" fill="#fab348"/>
  <path d="m127.79 102.81s-0.449 3.587-0.449 3.924c0 0.728 0.897 1.009 1.402 0.953 0.448-0.056 2.185-0.561 2.578-0.841 0.392-0.337-0.168-1.121-0.168-1.121s-1.794 0.728-2.186 0.672c-0.393-0.056 0.168-2.859 0.168-2.859s-0.897-0.392-1.345-0.728z" fill="#e48868"/>
  <g clip-rule="evenodd" fill-rule="evenodd">
   <path d="m137.93 95.131c10.481 0 9.472 0.1682 12.387 8.8017 4.035 2.578 2.298 5.718 2.578 9.866-7.791 0.841-15.525 1.009-23.26 0.56-2.242-0.112-4.427-0.336-6.669-0.56 0.28-4.148-1.458-7.288 2.578-9.866 2.914-8.5774 1.905-8.8017 12.386-8.8017zm-7.902 1.1212c-2.354 1.0091-3.363 5.4935-3.531 7.2875 7.678-0.504 15.301-0.504 22.867 0-0.168-1.794-1.177-6.2784-3.531-7.2875-0.953-0.3924-4.428-0.6166-7.903-0.6727-3.419 0.0561-6.894 0.2803-7.902 0.6727z" fill="#65c8cf"/>
   <path d="m150.88 102.25h1.233c0.561 0 1.065 0.393 1.065 0.897v0.281c0 0.504-0.448 0.897-1.065 0.897h-1.233c-0.56 0-1.065-0.393-1.065-0.897v-0.281c0.057-0.504 0.505-0.897 1.065-0.897z" fill="#007ad9"/>
   <path d="m123.75 102.25h1.233c0.561 0 1.065 0.393 1.065 0.897v0.281c0 0.504-0.448 0.897-1.065 0.897h-1.233c-0.56 0-1.065-0.393-1.065-0.897v-0.281c0.056-0.504 0.505-0.897 1.065-0.897z" fill="#007ad9"/>
   <path d="m125.55 104.27c-0.056 0.112-0.056 0.224-0.112 0.336 0 0 1.065-0.448 2.746 0.393 1.681 0.84 2.746 3.195 3.083 4.709 0.336 1.513 0.56 2.858 0.56 2.858h11.994s0.225-1.345 0.561-2.858c0.336-1.514 1.401-3.869 3.082-4.709 1.682-0.841 2.747-0.393 2.747-0.393-0.056-0.112-0.056-0.224-0.112-0.336-0.281 0-0.617 0-0.841-0.056-0.392-0.056-5.941-0.056-11.434-0.056-5.492 0-11.041 0-11.433 0.056-0.281 0.056-0.561 0.056-0.841 0.056z" fill="#fff" opacity=".2"/>
   <path d="m123.42 112.56h28.753c0.56 0 1.064 0.393 1.064 0.897v1.402c0 0.504-0.504 0.897-1.064 0.897h-28.753c-0.56 0-1.065-0.393-1.065-0.897v-1.402c0-0.504 0.505-0.897 1.065-0.897z" fill="#999"/>
   <path d="m126.56 110.44c1.625 0 2.97-1.121 2.97-2.522 0-1.402-1.345-2.523-2.97-2.523-1.626 0-2.971 1.121-2.971 2.523 0 1.401 1.345 2.522 2.971 2.522z" fill="#007ad9"/>
   <path d="m149.2 110.44c1.625 0 2.97-1.121 2.97-2.522 0-1.402-1.345-2.523-2.97-2.523s-2.971 1.121-2.971 2.523c0 1.401 1.346 2.522 2.971 2.522z" fill="#007ad9"/>
  </g>
  <path d="m126.56 109.71c1.176 0 2.129-0.803 2.129-1.794s-0.953-1.794-2.129-1.794c-1.177 0-2.13 0.803-2.13 1.794s0.953 1.794 2.13 1.794z" fill="#fff" opacity=".2"/>
  <path d="m149.2 109.71c1.176 0 2.13-0.803 2.13-1.794s-0.954-1.794-2.13-1.794-2.13 0.803-2.13 1.794 0.954 1.794 2.13 1.794z" fill="#fff" opacity=".2"/>
  <path d="m124.71 113.91h2.298c0.112 0 0.168 0.056 0.168 0.168v0.617c0 0.112-0.112 0.168-0.168 0.168h-2.298c-0.112 0-0.168-0.056-0.168-0.168v-0.617c0-0.056 0.112-0.168 0.168-0.168z" clip-rule="evenodd" fill="#fab348" fill-rule="evenodd"/>
  <path d="m148.58 113.91h2.298c0.112 0 0.169 0.056 0.169 0.168v0.617c0 0.112-0.113 0.168-0.169 0.168h-2.298c-0.112 0-0.168-0.056-0.168-0.168v-0.617c-0.056-0.056 0.056-0.168 0.168-0.168z" clip-rule="evenodd" fill="#fab348" fill-rule="evenodd"/>
  <path d="m139.67 111.56h-4.316c-0.336 0-0.672-0.336-0.672-0.672 0-0.393 0.28-0.673 0.672-0.673h4.316c0.392 0 0.672 0.28 0.672 0.673 0 0.336-0.336 0.672-0.672 0.672zm-4.316-0.953c-0.168 0-0.28 0.169-0.28 0.281 0 0.168 0.112 0.28 0.28 0.28h4.316c0.168 0 0.28-0.168 0.28-0.28 0-0.169-0.112-0.281-0.28-0.281z" fill="#fff" opacity=".2"/>
  <path d="m259.05 322c-19.169 0-34.694-15.584-34.694-34.7 0-19.172 15.581-34.7 34.694-34.7 19.168 0 34.693 15.584 34.693 34.7 0.056 19.116-15.525 34.7-34.693 34.7z" fill="#65c8d0"/>
  <path d="m257.71 306.53-16.534-10.932c-1.457-0.953-1.569-2.578-0.28-3.643s3.531-1.122 4.932-0.169l9.248 6.111 16.366-28.254c0.785-1.289 2.802-1.906 4.596-1.345 1.793 0.561 2.634 2.074 1.849 3.363z" fill="#f2f2f2"/>
 </g>
 <defs>
  <clipPath id="clip0">
   <rect width="329" height="322" fill="#fff"/>
  </clipPath>
 </defs>
</svg>
