<?xml version="1.0" encoding="UTF-8"?>
<svg fill="none" version="1.1" viewBox="0 0 256 256" xmlns="http://www.w3.org/2000/svg">
 <g transform="matrix(.70273 0 0 .70273 33.162 6.4272)" clip-path="url(#clip0)">
  <path d="m214.47 0h-214.47v289.88h214.47z" fill="#f2f2f2"/>
  <path d="m182.06 69.784h-54.018v5.4394h54.018z" fill="#65c8cf"/>
  <path d="m185.69 101.93h-158.5v4.333h158.5z" fill="#65c8cf"/>
  <path d="m226.76 128.78h-31.266v4.289h31.266z" fill="#dde1ec"/>
  <g fill="#65c8cf">
   <path d="m185.69 115.38h-158.5v4.334h158.5z"/>
   <path d="m185.69 128.78h-158.5v4.289h158.5z"/>
   <path d="m185.69 142.18h-158.5v4.334h158.5z"/>
   <path d="m185.69 155.62h-158.5v4.333h158.5z"/>
   <path d="m185.69 169.02h-158.5v4.333h158.5z"/>
   <path d="m185.69 182.46h-158.5v4.334h158.5z"/>
   <path d="m185.69 195.86h-158.5v4.334h158.5z"/>
  </g>
  <path d="m203.65 86.81s-6.874 3.9358-4.745 9.5079c0 0 7.14 2.1227 10.023 7.385 2.882 5.263 25.368 24.234 25.368 24.234l16.365-8.181s-5.677-7.606-23.727-12.869c0 0-10.644-11.365-14.325-13.444s-8.959-6.6334-8.959-6.6334z" fill="#febdd5"/>
  <path d="m203.65 86.81s-6.874 3.9358-4.745 9.5079c0 0 7.14 2.1227 10.023 7.385 2.882 5.263 25.368 24.234 25.368 24.234l16.365-8.181s-5.677-7.606-23.727-12.869c0 0-10.644-11.365-14.325-13.444s-8.959-6.6334-8.959-6.6334z" fill="#65c8cf"/>
  <path d="m81.248 213.24 119.21-124.44c5.854-6.1027 15.611-6.3238 21.731-0.4864s6.342 15.566 0.488 21.669l-119.21 124.44-32.685 11.941z" fill="#007ad9"/>
  <path d="m215.67 86.102c6.12 5.8374 6.342 15.566 0.488 21.669l-119.17 124.44-24.57 8.978-1.6409 5.218 32.685-11.94 119.21-124.4c5.854-6.103 5.632-15.832-0.488-21.669-2.439-2.3438-5.632-3.8032-9.003-4.157 0.887 0.5307 1.73 1.1498 2.484 1.8574z" fill="#65c8cf" opacity=".2"/>
  <path d="m81.248 213.24 22.219 21.182-26.831 9.818-5.8541 2.123 3.7253-11.764z" fill="#e48868"/>
  <path d="m74.507 234.6c0.7983 0.176 1.5965 0.486 2.3061 0.928 0.7983 0.575 1.3749 1.592 1.1531 2.565-0.2217 0.619-0.5322 1.15-0.9313 1.681-0.7983 1.371-0.9757 3.007-0.3992 4.51l-5.8985 2.123z" fill="#999"/>
  <path d="m246.45 311.59s0.798 11.587 2.128 12.913c1.331 1.327-11.885 2.123-11.885 2.123l1.862-15.036z" fill="#ffb9b9"/>
  <path d="m246.45 311.59s0.798 11.587 2.128 12.913c1.331 1.327-11.885 2.123-11.885 2.123l1.862-15.036z" fill="#e48868"/>
  <path d="m249.38 320.57s-1.863 0-8.471 3.449c0 0-4.48-0.796-6.342-7.12 0 0-5.544 9.508-9.269 9.995-3.681 0.53-10.822 1.061-6.076 7.385 4.745 6.324 32.774 3.449 32.774 3.449s0.798-15.301-2.616-17.158z" fill="#cbcdda"/>
  <path d="m249.38 320.57s-1.863 0-8.471 3.449c0 0-4.48-0.796-6.342-7.12 0 0-5.544 9.508-9.269 9.995-3.681 0.53-10.822 1.061-6.076 7.385 4.745 6.324 32.774 3.449 32.774 3.449s0.798-15.301-2.616-17.158z" fill="#999"/>
  <path d="m245.39 329.55-1.863 4.997-12.151-3.449 0.709-4.953 0.178-1.194 0.443-3.317s10.289-2.653 10.289-1.326c0.133 1.105 0.355 2.166 0.666 3.228 0.443 1.636 0.975 3.449 1.33 4.687 0.266 0.796 0.399 1.327 0.399 1.327z" fill="#e48868"/>
  <path d="m238.78 260.83c-0.843 1.415-1.774 4.024 0 7.341 0.532 0.973 1.153 1.813 1.907 2.609 5.81 6.324 7.406 20.564 7.406 20.564v22.907l-3.947 0.31-6.342 0.486-9.535-39.004s-5.544-28.48-2.883-33.477 5.012-36.351 5.012-36.351l2.217-2.256 5.101-5.395h15.078c1.198 0.84 2.218 1.99 2.927 3.273 2.528 4.156 4.79 12.868-2.128 28.877-10.822 25.03-14.015 28.966-14.015 28.966-0.31 0.354-0.576 0.752-0.798 1.15z" fill="#4c4c78"/>
  <path d="m238.78 260.83c-0.843 1.415-1.774 4.024 0 7.341 0.532 0.973 1.153 1.813 1.907 2.609 5.81 6.324 7.406 20.564 7.406 20.564v22.907l-3.947 0.31-6.342 0.486-9.535-39.004s-5.544-28.48-2.883-33.477 5.012-36.351 5.012-36.351l2.217-2.256 5.101-5.395h15.078c1.198 0.84 2.218 1.99 2.927 3.273 2.528 4.156 4.79 12.868-2.128 28.877-10.822 25.03-14.015 28.966-14.015 28.966-0.31 0.354-0.576 0.752-0.798 1.15z" fill="#007ad9"/>
  <path d="m243.7 323.54-11.442 1.415 0.443-3.317s10.289-2.653 10.289-1.326c0.178 1.061 0.399 2.166 0.71 3.228z" fill="#000" opacity=".1"/>
  <path d="m237.98 227.04s0.665 20.741 0.754 33.787v7.341c0 0.973-0.045 1.945-0.222 2.874-0.798 2.388 0.798 7.651 0.798 7.651 6.608 17.379 4.746 32.68 4.746 32.68v11.587l-12.684 1.592s2.128-1.592-3.681-16.849c-3.327-8.8-4.081-17.38-4.081-23.129-0.044-3.139-0.665-6.235-1.862-9.154-0.355-0.973-0.577-1.99-0.666-3.051-0.532-5.263-2.882-11.852-2.882-11.852s-6.342-18.706-7.939-32.415c-0.754-6.501-0.621-13.135 0.355-19.591 0.222-1.636 0.532-3.273 0.976-4.909 0 0 25.811-16.23 35.568-4.997 0.931 1.106 1.685 2.344 2.217 3.67 0.533 1.327 0.932 2.698 1.242 4.113 3.016 14.859-12.639 20.652-12.639 20.652z" fill="#007ad9"/>
  <path d="m237.23 111.62c7.446 0 13.482-6.018 13.482-13.443 0-7.4248-6.036-13.444-13.482-13.444s-13.483 6.0189-13.483 13.444c0 7.4253 6.037 13.443 13.483 13.443z" fill="#e48868"/>
  <path d="m229.82 106.58s5.544 15.566 0 23.703c-5.543 8.182 17.696 5.528 17.696 5.528l9.003-10.79s-10.556 0-11.088-18.441c-0.532-18.441-15.611 0-15.611 0z" fill="#ffb9b9"/>
  <path d="m256.52 204.88c-1.907 0.663-3.903 1.149-5.899 1.459-3.282 0.486-7.184 0.531-9.446-1.459-1.331-1.194-4.657-1.327-8.648-0.929-8.382 0.796-19.736 3.936-21.909 4.555 0.222-1.636 0.532-3.273 0.976-4.909 0 0 25.811-16.23 35.568-4.997h5.632c1.198 0.84 2.218 1.99 2.927 3.272 0.488 2.035 0.799 3.008 0.799 3.008z" fill="#65c8cf" opacity=".2"/>
  <path d="m245.39 329.55-1.863 4.997-12.151-3.449 0.709-4.953c2.085 4.599 5.633 5.218 5.633 5.218 3.858-1.99 6.076-2.83 7.273-3.184 0.266 0.841 0.399 1.371 0.399 1.371z" fill="#000" opacity=".1"/>
  <path d="m246.18 328.22s-1.862 0-8.47 3.449c0 0-4.48-0.796-6.342-7.12 0 0-5.544 9.508-9.27 9.995-3.725 0.486-10.821 1.061-6.075 7.385 4.745 6.324 32.774 3.449 32.774 3.449s0.843-15.301-2.617-17.158z" fill="#999"/>
  <path d="m183.47 100.74s0.577-11.896 14.015-8.8006l-3.46 6.4123z" fill="#e48868"/>
  <path d="m245.96 128.2s-12.951-2.123-16.41-4.732c0 0-2.661 4.997-7.406 2.388-4.746-2.609-15.877-2.388-15.877-2.388s-9.269-4.997-11.088-16.362c0 0-1.862-6.855-1.33-8.7121 0 0-6.874-7.1199-10.289 2.3881 1.33 6.589 2.395 6.058 2.129 11.321l4.213 11.586s0.266 3.936 7.938 9.243c7.673 5.307 16.41 13.444 16.41 13.444s-4.613 2.52-2.883 13.974c2.084 14.019-1.064 34.008-1.064 34.008v12.913s26.432-7.651 30.911-3.671 15.345 0 15.345 0-1.33-4.466-3.193-15.301 0.266-21.36 0.266-21.36 6.874-18.175 10.023-25.56c3.149-7.386-2.395-17.38-7.939-21.095-5.543-3.714-7.628-1.459-7.628-1.459s9.713 6.987-2.128 9.375z" fill="#65c8cf"/>
  <path d="m222.64 94.328c0 0.5307 0.088 1.1056 0.266 1.592 0.31 0.5749 0.709 1.1056 1.242 1.5478 1.995 1.9458 3.725 4.2014 4.39 6.8984 0.488 1.814 0.444 3.715 0.399 5.572-0.133 7.563-0.443 15.744-5.1 21.67-1.73 2.211-3.947 3.936-6.031 5.793-0.311 0.221-0.533 0.486-0.621 0.84-0.045 0.354 0 0.708 0.177 1.061 0.976 1.991 3.016 3.229 4.923 4.334 0.887 0.487 1.818 1.017 2.838 1.062 2.395 0.088 3.992-2.433 6.165-3.45 3.193-1.459 6.741 0.575 9.934 2.079 2.306 1.105 4.701 1.901 7.14 2.476 3.371 0.796 7.229 0.973 10.068-1.017 1.641-1.15 2.749-2.919 3.149-4.864 0.221-1.283 0.177-2.786 1.153-3.671 0.488-0.442 1.197-0.619 1.729-1.017 0.843-0.619 1.242-1.68 1.597-2.653l3.237-8.889c0.4-0.929 0.621-1.946 0.621-2.963-0.133-2.123-2.128-3.671-4.124-4.511s-4.169-1.238-5.943-2.476c-2.971-2.123-3.858-6.059-4.125-9.685-0.177-2.477-0.177-4.9531 0.045-7.4738 0.31-3.6705 1.02-7.6064-0.577-10.879-1.774-3.5378-5.676-5.3509-9.313-6.8987-1.419-0.5749-2.839-1.194-4.346-1.2383-1.597-0.0884-3.149 0.4423-4.701 0.9729-2.395 0.8403-4.879 1.9016-7.362 2.4765-1.42 0.3096-2.928 0.0885-4.258 0.5749-4.834 1.9016-2.572 8.8004-2.572 12.736z" fill="#2f3031"/>
  <path d="m15.567 243.71c0.8427-3.493 4.7011-4.643 7.8942-4.511 1.9958 0.133 3.9915 0.443 5.9429 0.929 2.0401 0.442 4.0801 0.973 6.0759 1.548 3.681 1.061 7.362 2.3 11.087 3.14 3.1044 0.663 6.5193 1.061 9.6238 0.132 2.9714-0.884 5.5437-3.139 6.342-6.191 0.7539-2.918-0.2661-6.058-3.1045-7.385-2.5723-1.194-5.8098-0.575-7.0959 2.123-1.4192 3.095 0 6.456 2.2618 8.667 1.2862 1.194 2.7053 2.3 4.2132 3.184 1.5523 1.062 3.2375 1.814 5.0559 2.256 2.9714 0.619 6.475-0.31 8.0272-3.14 0.3548-0.619 0.5322-1.327 0.6209-2.078 0.0887-0.973-1.4635-0.973-1.5522 0-0.2661 2.83-3.548 4.112-6.0315 3.803-1.6853-0.266-3.2376-0.885-4.6567-1.813-1.3749-0.796-2.661-1.725-3.8585-2.742-2.0844-1.813-4.0801-4.776-2.6609-7.607 1.1531-2.299 4.1245-2.255 5.9428-0.796 2.2175 1.814 1.8183 5.042 0.3548 7.164-1.5966 2.344-4.5236 3.361-7.2733 3.45-2.9714 0.133-5.9429-0.575-8.7812-1.371-3.548-1.017-7.0516-2.123-10.6-3.051-2.04-0.531-4.0358-1.018-6.1202-1.416-1.9514-0.442-3.9471-0.574-5.9428-0.398-3.1932 0.354-6.4751 2.212-7.2734 5.573-0.2217 1.105 1.2862 1.503 1.5079 0.53z" fill="#3f3d56"/>
  <path d="m53.042 75.621c16.484 0 29.847-13.325 29.847-29.762s-13.363-29.762-29.847-29.762c-16.484 0-29.847 13.325-29.847 29.762s13.363 29.762 29.847 29.762z" fill="#65c8cf" opacity=".2"/>
  <g clip-rule="evenodd" fill-rule="evenodd">
   <path d="m68.298 53.244h4.2132c0.7539 0 1.3748 0.6634 1.3748 1.4594v8.4466c0 0.796-0.6209 1.4593-1.3748 1.4593h-4.2132c-0.754 0-1.3749-0.6633-1.3749-1.4593v-8.4466c0-0.796 0.6209-1.4594 1.3749-1.4594z" fill="#2f3031"/>
   <path d="m33.484 53.244h4.2133c0.7539 0 1.3748 0.6634 1.3748 1.4594v8.4466c0 0.796-0.6209 1.4593-1.3748 1.4593h-4.2133c-0.7539 0-1.3748-0.6633-1.3748-1.4593v-8.4466c0-0.796 0.6209-1.4594 1.3748-1.4594z" fill="#2f3031"/>
   <path d="m41.511 30.956c-3.4149 1.4151-4.9228 8.0486-5.1889 10.614 11.265-0.7518 22.441-0.7076 33.573 0-0.2661-2.5649-1.7739-9.1984-5.1889-10.614-1.4192-0.5749-6.5193-0.9287-11.62-0.9729-5.0559 0-10.156 0.3538-11.575 0.9729z" fill="#999"/>
   <path d="m45.414 31.841h16.365c1.8183 0 3.2819 1.3267 3.2819 2.9187v2.0785c0 1.592-1.4636 2.9187-3.2819 2.9187h-16.365c-1.8183 0-3.2818-1.3267-3.2818-2.9187v-2.0785c0-1.592 1.4635-2.9187 3.2818-2.9187z" fill="#65c8cf" opacity=".2"/>
   <g fill="#e4ddd7">
    <path d="m58.275 36.484h3.8584c2.6166 0 4.701 1.9016 4.701 4.2454v0.7075c-4.4349-0.2211-8.8255-0.3537-13.26-0.3537v-0.3096c0-2.388 2.0844-4.2896 4.7011-4.2896z"/>
    <path d="m42.354 36.396h3.4149c2.3062 0 4.2132 1.9016 4.2132 4.2454v0.4422c-3.9471 0.0442-7.8942 0.1769-11.841 0.4423v-0.8403c0.0443-2.388 1.907-4.2896 4.2132-4.2896z"/>
    <path d="m50.204 31h5.455c0.2661 0 0.5322 0.2211 0.5322 0.4422v0.8845c0 0.2653-0.2218 0.4422-0.5322 0.4422h-5.455c-0.2661 0-0.5322-0.2211-0.5322-0.4422v-0.8845c0-0.2211 0.2217-0.4422 0.5322-0.4422z"/>
   </g>
  </g>
  <path d="m53.13 29.983h-0.6209v1.3709h0.6209z" fill="#e4ddd7"/>
  <path d="m59.473 32.814c-0.7096 3.3167-1.4636 4.8203-1.4636 4.8203s1.641-0.1327 2.9271-0.1327 3.0601 0.1327 3.0601 0.1327-0.7983-4.0685-0.7096-4.6876c0.0444-0.6191-3.814-0.1327-3.814-0.1327z" fill="#2f3031"/>
  <g fill="#e48868">
   <path d="m61.468 37.81c-0.9313-0.2211-0.7539-0.8845-0.7539-0.8845s0.0444-0.3538 0.0444-0.8402v-0.3538c0-0.1769 0-0.398-0.0444-0.5749-0.0887-0.796 1.7296-0.3096 1.7296-0.3096s-0.0887 1.5921 0.1331 2.0343c0.2661 0.5307-0.1774 1.1498-1.1088 0.9287z"/>
   <path d="m59.739 37.147s1.9071 2.2112 2.6167 2.6976c0 0 0.7983-0.7518 0.3104-2.6533 0 0-0.887-0.4865-2.9271-0.0443z"/>
   <path d="m59.694 31.84s-0.9757 1.9016 0 3.7147c0.9757 1.8132 2.927-0.796 3.0601-1.1055 0.133-0.3096 0.7983-2.0343-0.5322-2.565-1.3305-0.4864-2.2618-0.5749-2.5279-0.0442z"/>
  </g>
  <path d="m60.049 32.504s-0.6653 0.8844-0.754 1.5478c0 0-0.4878-1.2383 0.2661-2.4765 0.754-1.194 2.0845-1.1056 3.1932-0.1327 0.6209 0.5749 1.02 1.4594-0.2661 3.5379 0 0.0442-2.3062-1.5921-2.4392-2.4765z" fill="#2f3031"/>
  <path d="m61.601 35.732s-0.1774 0.3538-0.8426 0.7076v-0.3096c0 0.0443 0.4878 0 0.8426-0.398z" fill="#a77860"/>
  <path d="m64.396 42.322c-0.0444 0.1769-0.1774 0.398-0.3548 0.6192-0.4879 0.6191-0.1331 4.2896 0 5.2183 0 0.1326-0.0444 0.2211-0.1331 0.2653l-0.3548 0.1327c-0.2217 0.0884-0.4435-0.0885-0.4435-0.3096 0.2661-3.5378 0.754-9.1099-0.5322-11.1 0 0 0.0444 0 0.0444 0.0442 0.6652 0.3538 1.4635 0.7518 1.907 1.0171 0.2218 0.1327 0.3548 0.3096 0.4435 0.5307 0.1331 0.4422 0.4435 1.2382 0.754 2.1227 0 0 0.8426 3.98-1.3305 1.4593z" fill="#007ad9"/>
  <path d="m57.876 40.243c0.0444 0.0442 0.3992 0.796 0.7096 1.9458v0.0442c0.2218 0.7961 0.2218 1.6363 0.0887 2.565-0.0887 0.7075-0.6209 1.9016-0.9757 2.4765-0.0443 0.0884-0.0443 0.2211 0 0.3095 0.0444 0.0442 0.0444 0.0885 0.0887 0.1327l1.1975 0.4422 0.2661 0.0885c0.1774 0.0884 0.3991 0.0442 0.5765-0.0885 0.133-0.0884 0.2217-0.2211 0.2217-0.398 0.2661-1.99 0.5766-4.0685 0.8427-4.8203 1.1531-3.4051-0.4435-5.9259-0.4435-5.9259s-1.907 0.2212-2.2618 0.3538c-0.3992 0.0443-1.4636 1.0614-1.9958 2.0785 0 0-0.887 2.6976 0.0887 3.2283s1.5966 0.4864 1.7297 0.2211" fill="#007ad9"/>
  <path d="m58.009 43.029c0.6858 0 1.2418-0.5544 1.2418-1.2382 0-0.6839-0.556-1.2383-1.2418-1.2383s-1.2418 0.5544-1.2418 1.2383c0 0.6838 0.556 1.2382 1.2418 1.2382z" fill="#072643"/>
  <path d="m64.617 43.117c0.6858 0 1.2417-0.5544 1.2417-1.2382 0-0.6839-0.5559-1.2383-1.2417-1.2383-0.6859 0-1.2418 0.5544-1.2418 1.2383 0 0.6838 0.5559 1.2382 1.2418 1.2382z" fill="#072643"/>
  <path d="m64.972 42.1c0 1.9458-1.5522 3.4936-3.5036 3.4936-1.9513 0-3.5036-1.5478-3.5036-3.4936 0-1.9459 1.5523-3.4937 3.5036-3.4937 1.9514 0 3.5036 1.5921 3.5036 3.4937zm-3.5036-2.6976c-1.5078 0-2.7053 1.194-2.7053 2.6976 0 1.5035 1.1975 2.6976 2.7053 2.6976 1.5079 0 2.7054-1.1941 2.7054-2.6976 0-1.4594-1.1975-2.6976-2.7054-2.6976z" fill="#999"/>
  <g fill="#e48868">
   <path d="m59.34 41.57-1.5965-0.5306c-0.0444 0-0.0444-0.0443-0.0444-0.0885l0.0444-0.1769c0-0.0442 0.0443-0.0442 0.0887-0.0442l1.5965 0.5307c0.0444 0 0.0444 0.0442 0.0444 0.0884l-0.0444 0.1769s-0.0443 0.0442-0.0887 0.0442z"/>
   <path d="m59.251 41.879-1.5966-0.5307c-0.0443 0-0.0443-0.0442-0.0443-0.0884l0.0443-0.1769c0-0.0442 0.0444-0.0442 0.0887-0.0442l1.5966 0.5307c0.0443 0 0.0443 0.0442 0.0443 0.0884l-0.0443 0.1769c0 0.0442-0.0444 0.0442-0.0887 0.0442z"/>
   <path d="m59.162 42.233-1.5966-0.5307c-0.0444 0-0.0444-0.0442-0.0444-0.0884l0.0444-0.1769c0-0.0442 0.0443-0.0442 0.0887-0.0442l1.5966 0.5307c0.0443 0 0.0443 0.0442 0.0443 0.0884l-0.0443 0.1769c-0.0444 0-0.0887 0.0442-0.0887 0.0442z"/>
   <path d="m59.029 42.542-1.5966-0.5307c-0.0443 0-0.0443-0.0442-0.0443-0.0884l0.0443-0.1769c0-0.0443 0.0444-0.0443 0.0887-0.0443l1.5966 0.5307c0.0444 0 0.0443 0.0442 0.0443 0.0885l-0.0443 0.1769c0 0.0442-0.0443 0.0442-0.0887 0.0442z"/>
   <path d="m58.896 42.896-1.5966-0.5307c-0.0444 0-0.0444-0.0442-0.0444-0.0884l0.0444-0.1769c0-0.0442 0.0443-0.0442 0.0887-0.0442l1.5966 0.5306c0.0443 0 0.0443 0.0443 0.0443 0.0885l-0.0443 0.1769s-0.0444 0.0442-0.0887 0.0442z"/>
   <path d="m63.508 41.614 1.5966-0.5307c0.0444 0 0.0443-0.0442 0.0443-0.0885l-0.0443-0.1768c0-0.0443-0.0443-0.0443-0.0887-0.0443l-1.5966 0.5307c-0.0443 0-0.0443 0.0442-0.0443 0.0885l0.0443 0.1768c0 0.0443 0.0444 0.0443 0.0887 0.0443z"/>
   <path d="m63.597 41.968 1.5965-0.5307c0.0444 0 0.0444-0.0442 0.0444-0.0885l-0.0444-0.1768c0-0.0443-0.0443-0.0443-0.0887-0.0443l-1.5965 0.5307c-0.0444 0-0.0444 0.0442-0.0444 0.0884l0.0444 0.1769s0.0443 0.0443 0.0887 0.0443z"/>
   <path d="m63.73 42.277 1.5966-0.5306c0.0443 0 0.0443-0.0443 0.0443-0.0885l-0.0443-0.1769c0-0.0442-0.0444-0.0442-0.0887-0.0442l-1.5966 0.5307c-0.0444 0-0.0444 0.0442-0.0444 0.0884l0.0444 0.1769c0 0.0442 0.0443 0.0885 0.0887 0.0442z"/>
   <path d="m63.863 42.631 1.5965-0.5306c0.0444 0 0.0444-0.0442 0.0444-0.0885l-0.0444-0.1769c0-0.0442-0.0443-0.0442-0.0887-0.0442l-1.5965 0.5307c-0.0444 0-0.0444 0.0442-0.0444 0.0884l0.0444 0.1769s0.0443 0.0442 0.0887 0.0442z"/>
   <path d="m63.952 42.941 1.5966-0.5307c0.0443 0 0.0443-0.0442 0.0443-0.0884l-0.0443-0.1769c0-0.0442-0.0444-0.0442-0.0887-0.0442l-1.5966 0.5307c-0.0443 0-0.0444 0.0442-0.0444 0.0884l0.0444 0.1769c0 0.0442 0.0443 0.0442 0.0887 0.0442z"/>
  </g>
  <path d="m69.85 41.702c-0.0887 0-11.087-0.4864-17.03-0.5306-5.9429-0.0442-16.409 0.5306-16.498 0.5306v-0.3095c0.0887 0 10.6-0.5307 16.542-0.5307 5.9428 0.0442 16.942 0.5307 17.03 0.5307z" fill="#fff" opacity=".2"/>
  <g fill="#e48868">
   <path d="m48.119 41.083s2.8384 4.1569 2.5723 4.555c-0.3992 0.5306-3.9915 1.99-3.9915 1.99l0.5766 1.2382s6.2976-1.5478 5.8098-3.3609c-0.4879-1.8132-2.9271-5.8817-2.9271-5.8817z"/>
   <path d="m47.01 49.087s0.7096-0.5307 0.7539-0.8845c0.0887-0.3538-0.8426-0.6633-0.8426-0.6633l-0.6209 0.1768z"/>
   <path d="m46.789 47.761s-0.8427-0.3096-0.9757-0.3538c-0.1331-0.0442-0.4878 0.0885-0.8426 0.3538-0.3105 0.2211-0.7096 0.5307-0.7983 0.6633-0.0444 0.0443-0.0887 0.0885 0 0.2654s0.2661 0.3095 0.2661 0.3095 0 0.2654 0.2217 0.398c0 0 0 0.2654 0.2661 0.3538 0 0 0.0444 0.2654 0.2218 0.3096 0 0 0.3547-0.1327 0.4878-0.1327 0.133 0 0.8426-0.3095 1.4635-0.7075 0 0.0442 0.4435-0.5749-0.3104-1.4594z"/>
   <path d="m45.769 47.496s-0.4878 0.5307-0.5765 0.9729c-0.0444 0.0885-0.0444 0.1769 0.0443 0.2654 0.0887 0.0442 0.2661 0.0442 0.4879-0.2212 0.2217-0.2211 0.6209-0.4422 0.6209-0.4422s0.133-0.2653-0.5766-0.5749z"/>
   <path d="m44.305 48.911s0.9757-0.5749 1.1087-0.5749c0.1331 0-0.0887-0.3538-0.1774-0.3538s-0.9757 0.398-1.0644 0.4865c-0.0887 0.0442-0.133 0.3538 0.1331 0.4422z"/>
   <path d="m44.571 48.203s-1.7296 0.9728-1.6853 1.1055c0.0887 0.1769 0.5766 0.1327 1.9071-0.6633 1.2861-0.796-0.2218-0.4422-0.2218-0.4422z"/>
  </g>
  <path d="m39.161 52.758 9.1803 0.7075s-0.0443-4.5107-0.1774-5.3067c-0.0887-0.7518-0.133-3.8032 0.0887-5.8817 0.0444-0.4864 0.6652-0.1326 0.6652-0.1326l0.3992-0.8845 0.8426-1.592c-0.4878-0.6191-3.1044-2.0343-4.4793-2.3438-1.1974-0.2654-1.5522-0.2211-2.3061-0.2211-2.0401 0.0442-5.1002 2.2111-5.2333 2.7418 0 0-0.1774 0.398-0.0887 0.5749 0.0444 0.1326 1.5966 1.194 1.9957 1.1056v0.398c0 0.2211-1.0643 9.0657-0.8869 10.835z" fill="#fab348"/>
  <g opacity=".2">
   <g opacity=".2">
    <path d="m40.757 50.944s-0.0443 0-0.0443-0.0443c0-0.0442 0-0.0442 0.0443-0.0884 1.0201-0.6191 1.9958-1.5036 2.7054-2.5207 0-0.0442 0.0443-0.0442 0.0887 0 0.0443 0 0.0443 0.0442 0 0.0884-0.7983 1.0614-1.7297 1.9458-2.7941 2.565z" fill="#fff" opacity=".2"/>
   </g>
  </g>
  <g opacity=".2">
   <g opacity=".2">
    <path d="m43.64 52.581c-0.0443 0-0.0443 0 0 0-0.0443-0.0442-0.0443-0.0885-0.0443-0.0885 0.7096-1.0613 1.1974-1.99 1.5522-3.184 0-0.0442 0.0444-0.0442 0.0887-0.0442 0.0444 0 0.0444 0.0442 0.0444 0.0884-0.3992 1.194-0.887 2.1227-1.641 3.2283z" fill="#fff" opacity=".2"/>
   </g>
  </g>
  <g opacity=".2">
   <g opacity=".2">
    <path d="m46.079 51.652c-0.0444 0-0.0887-0.0443-0.0887-0.0885 0.0887-1.2382 0.2217-2.4765 0.3104-3.6263 0.0887-0.8844 0.1774-1.7689 0.2661-2.6976 0.0887-1.1055 0.1331-3.2725-0.3991-4.1569 0-0.0442 0-0.0885 0.0443-0.0885 0.0444 0 0.0887 0 0.0887 0.0443 0.5322 0.9286 0.5322 3.0956 0.4435 4.2454-0.0887 0.9286-0.1774 1.8131-0.2661 2.6975-0.0887 1.1498-0.2217 2.3439-0.3104 3.6263-0.0444 0-0.0887 0.0443-0.0887 0.0443z" fill="#fff" opacity=".2"/>
   </g>
  </g>
  <g opacity=".2">
   <g opacity=".2">
    <path d="m44.35 38.562h-0.1331c-0.5765-0.0443-1.1087-0.2654-1.5078-0.7076-0.0444-0.0442-0.0444-0.0885 0-0.0885 0.0443 0 0.0887-0.0442 0.0887 0 0.3547 0.398 0.8869 0.6192 1.4191 0.6634s1.0644-0.1327 1.4636-0.4865c0.0443-0.0442 0.0887 0 0.0887 0 0.0443 0.0443 0 0.0885 0 0.0885-0.3992 0.3538-0.887 0.5307-1.4192 0.5307z" fill="#fff" opacity=".2"/>
   </g>
  </g>
  <g fill="#e48868">
   <path d="m42.93 35.511v1.7247s1.4192 1.5036 2.7053 0.0443l-0.133-1.769z"/>
   <path d="m43.95 31.487c-1.5079 0.1769-1.5966 1.8574-1.4635 3.2725 0.133 1.4152 0.8426 2.2996 1.8183 2.2996s1.5966-1.0171 1.774-2.3438 0.2661-3.4936-2.1288-3.2283z"/>
   <path d="m42.753 34.405s-0.0444-0.5749-0.5322-0.398 0.0887 1.5036 0.5765 1.371c0.5766-0.1769-0.0443-0.973-0.0443-0.973z"/>
   <path d="m45.724 34.582s0.0443-0.5749 0.4878-0.398c0.4879 0.1769-0.0443 1.5036-0.5322 1.3709-0.5322-0.1769 0.0444-0.9729 0.0444-0.9729z"/>
  </g>
  <path d="m43.684 43.958 0.4435-1.9458 1.8627 0.3538-1.0644 3.6263-1.6409-0.5307z" fill="#004a90"/>
  <path d="m43.906 46.257s-1.0644 0.2211-1.2862 0c-0.2217-0.2211-0.0443-1.2383-0.0443-1.2383s0.5322-0.6191 0.5322-0.8844c0.0443-0.2654 0.4435-0.8845 0.5765-0.796 0.1331 0.0442 0 0.6191 0 0.6191l1.9958-0.2654c0.4435-0.0442 0.2661 0.2212 0.2217 0.3538-0.0443 0.1327-0.5322 0.3096-0.5322 0.3096s0.2218 0.398 0.1774 0.4864c-0.0443 0.0885-0.1774 0.2654-0.1774 0.2654s0.2218 0.4422 0.1331 0.5307c-0.0887 0.0884-0.3105 0.1326-0.3105 0.1326s-0.0887 0.3096-0.133 0.3538c-0.0444 0.0442-1.1531 0.1327-1.1531 0.1327z" fill="#e48868"/>
  <g fill="#007ad9">
   <path d="m43.507 35.068c-0.3548 0.0443-0.6653-0.2211-0.7096-0.5749-0.0444-0.3537 0.2217-0.6633 0.5765-0.7075 0.3548-0.0443 0.6653 0.2211 0.7096 0.5749 0.0444 0.3538-0.2217 0.6633-0.5765 0.7075zm-0.0887-1.1498c-0.2661 0-0.4879 0.2654-0.4435 0.5307 0 0.2654 0.2661 0.4865 0.5322 0.4422 0.2661 0 0.4878-0.2653 0.4435-0.5306 0-0.2654-0.2661-0.4423-0.5322-0.4423z"/>
   <path d="m45.103 35.068c-0.3548 0.0443-0.6652-0.2211-0.7095-0.5749-0.0444-0.3537 0.2217-0.6633 0.5765-0.7075 0.3548-0.0443 0.6652 0.2211 0.7096 0.5749 0.0443 0.398-0.2218 0.7075-0.5766 0.7075zm-0.0887-1.1055c-0.266 0-0.4878 0.2653-0.4434 0.5306 0 0.2654 0.266 0.4865 0.5321 0.4423 0.2661 0 0.4879-0.2654 0.4435-0.5307 0-0.2653-0.2217-0.4865-0.5322-0.4422z"/>
   <path d="m44.438 34.45c-0.0443-0.0884-0.0887-0.1327-0.133-0.1327-0.0887 0-0.1774 0.0885-0.1774 0.0885l-0.133-0.0885s0.133-0.1769 0.3104-0.1769c0.0887 0 0.1774 0.0885 0.2661 0.1769z"/>
  </g>
  <path d="m44.261 37.147h-0.0887c-0.4435-0.0443-0.7983-0.2211-1.1087-0.5749-0.0444-0.0443 0-0.0885 0-0.0885 0.0443-0.0442 0.0887 0 0.0887 0 0.2661 0.3096 0.6209 0.4865 1.02 0.5307 0.3992 0.0442 0.7983-0.1327 1.1088-0.4865 0.0443-0.0442 0.0887-0.0442 0.0887 0 0.0443 0.0443 0.0443 0.0885 0 0.0885-0.3105 0.3538-0.7096 0.5307-1.1088 0.5307z" fill="#ba745d"/>
  <path d="m42.221 33.875 0.3104 0.4864h0.3105v-0.796s0.3991-0.398 0.4435-0.8402l2.3505 0.1769s-0.0887 0.5749 0.133 0.796v0.9287h0.3105l0.2661-0.2654s0.5765-2.0784 0.3548-2.6091c-0.2218-0.5307-0.7096-0.3538-0.7096-0.3538s-0.7983-0.9287-1.8627-0.6191c-1.1087 0.3096-1.9514 0.9729-2.1288 1.4151-0.1774 0.4423 0.2218 1.6805 0.2218 1.6805z" fill="#fab348"/>
  <path d="m38.185 40.463s-0.6652 5.2183-0.6652 5.7932c0 1.1056 1.2861 1.5036 2.04 1.4151 0.6653-0.0884 3.2375-0.796 3.7697-1.2824 0.5766-0.4865-0.2217-1.6363-0.2217-1.6363s-2.661 1.1056-3.1932 0.9729c-0.5322-0.0884 0.2218-4.2012 0.2218-4.2012s-1.3305-0.4864-1.9514-1.0613z" fill="#e48868"/>
  <g clip-rule="evenodd" fill-rule="evenodd">
   <path d="m53.086 29.276c15.389 0 13.926 0.2653 18.139 12.869 5.8985 3.759 3.3705 8.3582 3.814 14.417-11.398 1.194-22.751 1.4594-34.149 0.796-3.2375-0.1769-6.5194-0.4422-9.7569-0.796 0.4435-6.1028-2.1288-10.658 3.8141-14.417 4.2132-12.604 2.7496-12.869 18.139-12.869zm-11.575 1.6805c-3.4149 1.4151-4.9228 8.0485-5.1889 10.613 11.265-0.7517 22.441-0.7075 33.573 0-0.2661-2.5649-1.774-9.1983-5.1889-10.613-1.4192-0.5749-6.5194-0.9287-11.62-0.973-5.0558 0-10.156 0.3538-11.575 0.973z" fill="#65c8cf"/>
   <path d="m72.068 39.668h1.8183c0.8426 0 1.5522 0.5749 1.5522 1.2824v0.4423c0 0.7075-0.7096 1.2824-1.5522 1.2824h-1.8183c-0.8427 0-1.5523-0.5749-1.5523-1.2824v-0.4423c0-0.7075 0.7096-1.2824 1.5523-1.2824z" fill="#007ad9"/>
   <path d="m32.286 39.668h1.8183c0.8426 0 1.5522 0.5749 1.5522 1.2824v0.4423c0 0.7075-0.7096 1.2824-1.5522 1.2824h-1.8183c-0.8427 0-1.5523-0.5749-1.5523-1.2824v-0.4423c0-0.7075 0.6653-1.2824 1.5523-1.2824z" fill="#007ad9"/>
   <path d="m34.859 42.631c-0.0444 0.1768-0.1331 0.3095-0.1774 0.4864 0 0 1.5522-0.6633 3.9914 0.5749s3.9915 4.6876 4.5237 6.8988c0.5322 2.1669 0.7983 4.1569 0.7983 4.1569h17.651s0.3104-1.99 0.7983-4.1569c0.5322-2.1669 2.0401-5.6606 4.5236-6.8988 2.4393-1.2382 3.9915-0.5749 3.9915-0.5749-0.0444-0.1769-0.1331-0.3096-0.1774-0.4864-0.4435 0-0.887-0.0443-1.1974-0.0885-0.6209-0.0884-8.6926-0.0884-16.764-0.0442-8.0716 0-16.143 0-16.764 0.0442-0.3548 0.0442-0.754 0.0442-1.1974 0.0885z" fill="#fff" opacity=".2"/>
   <path d="m31.754 54.704h42.132c0.8426 0 1.5522 0.6191 1.5522 1.3267v2.0343c0 0.7517-0.7096 1.3266-1.5522 1.3266h-42.132c-0.8426 0-1.5522-0.6191-1.5522-1.3266v-2.0343c0-0.7076 0.7096-1.3267 1.5522-1.3267z" fill="#999"/>
   <path d="m36.366 51.653c2.3949 0 4.3463-1.6805 4.3463-3.7147 0-2.0343-1.9514-3.7148-4.3463-3.7148s-4.3462 1.6805-4.3462 3.7148c0 2.0342 1.9513 3.7147 4.3462 3.7147z" fill="#007ad9"/>
   <path d="m69.584 51.653c2.3948 0 4.3462-1.6805 4.3462-3.7147 0-2.0343-1.9514-3.7148-4.3462-3.7148-2.3949 0-4.3463 1.6805-4.3463 3.7148 0 2.0342 1.9514 3.7147 4.3463 3.7147z" fill="#007ad9"/>
   <path d="m36.367 50.592c1.7296 0 3.1488-1.194 3.1488-2.6534 0-1.4593-1.4192-2.6533-3.1488-2.6533s-3.1488 1.194-3.1488 2.6533c0.0443 1.4594 1.4192 2.6534 3.1488 2.6534z" fill="#fff" opacity=".2"/>
   <path d="m69.584 50.592c1.7296 0 3.1488-1.194 3.1488-2.6534 0-1.4593-1.4192-2.6533-3.1488-2.6533-1.7297 0-3.1489 1.194-3.1489 2.6533 0.0444 1.4594 1.4192 2.6534 3.1489 2.6534z" fill="#fff" opacity=".2"/>
   <path d="m33.661 56.738h3.3263c0.133 0 0.2661 0.0884 0.2661 0.2211v0.9287c0 0.1326-0.1331 0.2211-0.2661 0.2211h-3.3263c-0.133 0-0.2661-0.0885-0.2661-0.2211v-0.9287c0-0.1327 0.1331-0.2211 0.2661-0.2211z" fill="#fab348"/>
   <path d="m68.653 56.738h3.3262c0.1331 0 0.2661 0.0884 0.2661 0.2211v0.9287c0 0.1326-0.133 0.2211-0.2661 0.2211h-3.3262c-0.1331 0-0.2661-0.0885-0.2661-0.2211v-0.9287c-0.0444-0.1327 0.0887-0.2211 0.2661-0.2211z" fill="#fab348"/>
  </g>
  <path d="m55.614 53.244h-6.3863c-0.5322 0-0.9757-0.4422-0.9757-0.9729s0.4435-1.0171 0.9757-1.0171h6.342c0.5322 0 0.9757 0.4422 0.9757 1.0171 0 0.5307-0.4435 0.9729-0.9314 0.9729zm-6.3863-1.4151c-0.2217 0-0.3991 0.2211-0.3991 0.4422s0.2217 0.398 0.3991 0.398h6.342c0.2661 0 0.3991-0.2211 0.3991-0.398 0-0.2211-0.1774-0.4422-0.3991-0.4422z" fill="#fff" opacity=".2"/>
  <path d="m182.06 55.456h-54.018v5.4394h54.018z" fill="#65c8cf"/>
 </g>
 <defs>
  <clipPath id="clip0">
   <rect width="270" height="346" fill="#fff"/>
  </clipPath>
 </defs>
</svg>
