<?xml version="1.0" encoding="UTF-8"?>
<svg fill="none" version="1.1" viewBox="0 0 256 256" xmlns="http://www.w3.org/2000/svg">
 <g transform="matrix(.5014 0 0 .5014 .39466 .39466)" clip-path="url(#clip0)">
  <g filter="url(#filter0_d)" opacity=".2">
   <path d="m254.55 509.09c140.58 0 254.55-113.96 254.55-254.55s-113.96-254.55-254.55-254.55-254.55 113.96-254.55 254.55 113.96 254.55 254.55 254.55z" fill="#fff"/>
  </g>
  <path d="m276.8 347.89-205.8-0.923-20.404-48.01 72.293-5.263-12.649-52.534 143.02-18.558-136.92-47.641 12.095-2.862 220.2 35.915-12.095 82.079-17.358 45.148z" fill="#6c63ff"/>
  <path d="m394.24 309.76s-13.664 16.619-2.77 41.824l-108.85 47.179-10.433 2.216-4.801-21.05 3.231-26.591v-14.495z" fill="#d5d6db"/>
  <path d="m50.595 298.96 150.59-27.421 199.61 31.761-124 44.594z" fill="#6c63ff"/>
  <path d="m50.595 298.96 150.59-27.421 199.61 31.761-124 44.594z" fill="#007ad9"/>
  <path d="m50.595 298.96s-14.126 26.682 2.1235 51.334l223.43 48.379s-13.849-21.235 0.738-50.78z" fill="#6c63ff"/>
  <path d="m50.595 298.96s-14.126 26.682 2.1235 51.334l223.43 48.379s-13.849-21.235 0.738-50.78z" fill="#007ad9"/>
  <path d="m57.243 308.19s-8.0325 19.574 0 32.13z" fill="#fff" opacity=".2"/>
  <path d="m276.06 398.67 124.73-53.181s7.017 1.478 2.493 6.648c-4.524 5.078-124.73 51.703-124.73 51.703l-225.83-53.55z" fill="#6c63ff"/>
  <path d="m276.06 398.67 124.73-53.181s7.017 1.478 2.493 6.648c-4.524 5.078-124.73 51.703-124.73 51.703l-225.83-53.55z" fill="#007ad9"/>
  <path d="m265.9 353.34s-12.002 14.403 0 36.1z" fill="#fff" opacity=".2"/>
  <g fill="#000">
   <path d="m324.08 353.03-53.95 18 0.204 0.613 53.95-18z" opacity=".1"/>
   <path d="m334.81 351.33-64.724 24.609 0.23 0.605 64.723-24.61z" opacity=".1"/>
   <path d="m344.87 351.16-74.34 30.427 0.245 0.598 74.34-30.427z" opacity=".1"/>
   <path d="m355.57 348.55-84.222 38.049 0.266 0.589 84.222-38.049z" opacity=".1"/>
   <path d="m364.69 348.62-92.636 40.49 0.259 0.592 92.636-40.49z" opacity=".1"/>
   <path d="m384.54 345.23-111.12 47.992 0.256 0.594 111.12-47.993z" opacity=".1"/>
  </g>
  <path d="m106.55 301.91 105.81-22.251 64.444 12.28-86.695 27.975z" fill="#fff" opacity=".2"/>
  <path d="m400.79 303.3s5.447 2.216 2.215 5.632c-3.231 3.416-126.3 39.054-126.3 39.054z" fill="#007ad9"/>
  <path d="m453.97 251.87s-13.664 16.619-2.77 41.824l-108.85 47.179-10.433 2.216-4.801-21.051 3.232-26.59v-14.495z" fill="#d5d6db"/>
  <path d="m110.24 241.16 150.68-27.514 199.61 31.853-124 44.594z" fill="#65c8cf"/>
  <path d="m110.24 241.16s-14.126 26.682 2.123 51.334l223.43 48.379s-13.849-21.235 0.739-50.78z" fill="#3a3768"/>
  <path d="m110.24 241.16s-14.126 26.682 2.123 51.334l223.43 48.379s-13.849-21.235 0.739-50.78l-70.631-15.326z" fill="#65c8cf"/>
  <path d="m116.89 250.39s-8.032 19.481 0 32.13z" fill="#fff" opacity=".2"/>
  <path d="m335.79 340.87 124.73-53.18s6.925 1.477 2.493 6.647c-4.524 5.078-124.73 51.703-124.73 51.703l-225.83-53.549z" fill="#3a3768"/>
  <path d="m335.79 340.87 124.73-53.18s6.925 1.477 2.493 6.647c-4.524 5.078-124.73 51.703-124.73 51.703l-225.83-53.549z" fill="#65c8cf"/>
  <path d="m325.55 295.45s-12.003 14.403 0 36.1z" fill="#fff" opacity=".2"/>
  <g fill="#000">
   <path d="m383.82 295.22-53.95 18.001 0.204 0.613 53.951-18z" opacity=".1"/>
   <path d="m394.52 293.44-64.724 24.61 0.23 0.604 64.723-24.61z" opacity=".1"/>
   <path d="m404.53 293.38-74.341 30.427 0.245 0.598 74.341-30.427z" opacity=".1"/>
   <path d="m415.31 290.74-84.222 38.049 0.266 0.589 84.222-38.049z" opacity=".1"/>
   <path d="m424.32 290.76-92.637 40.49 0.259 0.592 92.637-40.49z" opacity=".1"/>
   <path d="m444.25 287.33-111.12 47.993 0.257 0.593 111.12-47.992z" opacity=".1"/>
  </g>
  <path d="m166.19 244.02 105.9-22.251 64.445 12.372-86.696 27.975z" fill="#fff" opacity=".2"/>
  <path d="m460.53 245.5s5.448 2.216 2.216 5.632c-3.231 3.416-126.21 39.054-126.21 39.054z" fill="#65c8cf"/>
  <path d="m459.6 185.67s-13.664 29.822-2.77 55.027l-108.85 33.976-10.433 2.216-4.801-21.05 3.232-26.591v-14.495z" fill="#d5d6db"/>
  <path d="m115.96 174.96 150.59-27.421 199.61 31.76-124 44.594z" fill="#007ad9"/>
  <path d="m115.96 174.96s-14.126 26.683 2.124 51.334l223.43 48.379s-13.849-21.235 0.739-50.78z" fill="#6c63ff"/>
  <path d="m115.96 174.96s-14.126 26.683 2.124 51.334l223.43 48.379s-13.849-21.235 0.739-50.78z" fill="#007ad9"/>
  <path d="m122.61 184.19s-8.033 19.573 0 32.129z" fill="#fff" opacity=".2"/>
  <path d="m341.43 274.67 124.73-39.977s7.017 1.477 2.493 6.647c-4.524 5.078-124.73 38.501-124.73 38.501l-225.83-53.55z" fill="#6c63ff"/>
  <path d="m341.43 274.67 124.73-39.977s7.017 1.477 2.493 6.647c-4.524 5.078-124.73 38.501-124.73 38.501l-225.83-53.55z" fill="#007ad9"/>
  <path d="m331.27 229.34s-12.002 14.403 0 36.1z" fill="#fff" opacity=".2"/>
  <g fill="#000">
   <path d="m389.44 229.04-53.95 18.001 0.204 0.613 53.951-18.001z" opacity=".1"/>
   <path d="m400.27 227.31-64.723 24.61 0.229 0.604 64.724-24.61z" opacity=".1"/>
   <path d="m410.24 227.16-74.341 30.427 0.245 0.598 74.341-30.427z" opacity=".1"/>
   <path d="m420.93 224.56-84.222 38.049 0.266 0.589 84.222-38.049z" opacity=".1"/>
   <path d="m430.06 224.64-92.637 40.49 0.259 0.592 92.637-40.49z" opacity=".1"/>
   <path d="m449.9 221.24-111.12 47.993 0.257 0.593 111.12-47.993z" opacity=".1"/>
  </g>
  <path d="m171.91 177.91 105.81-22.25 64.445 12.279-86.696 27.975z" fill="#fff" opacity=".2"/>
  <path d="m466.16 179.3s5.447 2.216 2.216 5.632-126.21 39.055-126.21 39.055z" fill="#007ad9"/>
  <path d="m393.78 214.11c0.561 0 1.015-0.455 1.015-1.016s-0.454-1.015-1.015-1.015-1.016 0.454-1.016 1.015 0.455 1.016 1.016 1.016z" fill="#4b4b5b"/>
  <g fill="#fff">
   <path d="m115.96 174.96s-14.126 26.683 2.124 51.334l223.43 48.379s-13.849-21.235 0.739-50.78z" opacity=".2"/>
   <path d="m50.595 298.96s-14.126 26.682 2.1235 51.334l223.43 48.379s-13.849-21.235 0.738-50.78z" opacity=".2"/>
   <path d="m110.24 241.16s-14.126 26.682 2.123 51.334l223.43 48.379s-13.849-21.235 0.739-50.78z" opacity=".2"/>
  </g>
  <path d="m102.68 334.43c1.353-11.239-6.6596-21.447-17.898-22.801-11.238-1.353-21.447 6.66-22.8 17.898-1.3538 11.239 6.6592 21.447 17.898 22.801 11.238 1.353 21.447-6.66 22.801-17.898z" fill="#65c8cf" opacity=".2"/>
  <g clip-rule="evenodd" fill-rule="evenodd">
   <path d="m88.726 322.13 0.3693-2.863c0.0923-0.554 0.5539-0.923 1.1079-0.83l5.8166 0.738c0.554 0.092 0.9233 0.554 0.9233 1.108l-0.3693 2.862c-0.0923 0.554-0.554 0.923-1.1079 0.831l-5.8167-0.738c-0.6462-0.093-1.0156-0.554-0.9232-1.108z" fill="#2f3031"/>
   <path d="m85.864 345.95 0.3693-2.862c0.0924-0.554 0.554-0.924 1.108-0.831l5.8166 0.738c0.5539 0.093 0.9233 0.554 0.9233 1.108l-0.3694 2.862c-0.0923 0.554-0.5539 0.924-1.1079 0.831l-5.8166-0.738c-0.6463-0.185-1.0156-0.646-0.9233-1.108z" fill="#2f3031"/>
   <path d="m71.184 338.66c0.7386 2.493 5.078 3.97 6.8322 4.432 0.3693-7.755 1.3849-15.326 2.7698-22.897-1.7542 0-6.4629 0.462-7.6631 2.677-0.554 0.924-1.2003 4.34-1.6619 7.848-0.3693 3.416-0.554 6.832-0.277 7.94z" fill="#999"/>
   <path d="m72.2 335.98 1.3849-11.172c0.1847-1.2 1.2003-2.123 2.3082-2.031l1.4772 0.185c1.1079 0.092 1.8466 1.2 1.7542 2.492l-1.5695 11.264c-0.1847 1.201-1.2003 2.124-2.3082 2.032l-1.4772-0.185c-1.0156-0.185-1.7543-1.293-1.5696-2.585z" fill="#65c8cf" opacity=".2"/>
   <g fill="#e4ddd7">
    <path d="m76.355 327.67 0.277-2.585c0.1847-1.754 1.6619-3.046 3.3238-2.862l0.4616 0.092c-0.5539 2.955-1.0156 6.002-1.3849 9.049h-0.1846c-1.5696-0.37-2.6775-1.939-2.4929-3.694z"/>
    <path d="m75.062 338.47 0.277-2.308c0.1847-1.57 1.6619-2.678 3.2315-2.493h0.277c-0.277 2.677-0.554 5.355-0.6463 8.125l-0.554-0.093c-1.6619-0.184-2.8621-1.662-2.5852-3.231z"/>
    <path d="m72.015 332.66 0.4617-3.693c0-0.185 0.1846-0.369 0.3693-0.277l0.5539 0.092c0.1847 0 0.277 0.185 0.277 0.37l-0.4616 3.693c0 0.184-0.1847 0.369-0.3693 0.277l-0.554-0.093c-0.1846 0-0.3693-0.184-0.277-0.369z"/>
   </g>
  </g>
  <path d="m71.561 330.61-0.0552 0.459 0.9166 0.11 0.0552-0.458z" fill="#e4ddd7"/>
  <path d="m73.954 326.47c2.2159 0.739 3.1391 1.385 3.1391 1.385s0.0924-1.108 0.1847-2.031c0.0923-0.924 0.3693-2.124 0.3693-2.124s-2.8622 0.185-3.2315 0.093c-0.3693-0.093-0.4616 2.677-0.4616 2.677z" fill="#2f3031"/>
  <g fill="#e48868">
   <path d="m77.555 325.55c-0.1847 0.646-0.6463 0.461-0.6463 0.461s-0.277-0.092-0.554-0.092h-0.6463c-0.5539 0-0.0923-1.2-0.0923-1.2s1.1079 0.184 1.3849 0.092c0.3693-0.277 0.831 0.092 0.554 0.739z"/>
   <path d="m77.001 326.65s1.6619-1.108 2.0312-1.57c0 0-0.4616-0.646-1.7542-0.461 0 0.092-0.4616 0.646-0.277 2.031z"/>
   <path d="m73.308 326.28s1.2003 0.831 2.4929 0.277c1.2925-0.554-0.277-2.031-0.4617-2.123-0.1846-0.092-1.2926-0.739-1.7542 0.185-0.4616 0.831-0.554 1.384-0.277 1.661z"/>
  </g>
  <path d="m73.862 326.1s0.5539 0.554 1.0156 0.646c0 0-0.9233 0.277-1.6619-0.369s-0.554-1.477 0.1846-2.216c0.4617-0.369 1.108-0.554 2.4006 0.462-0.0924 0-1.385 1.477-1.9389 1.477z" fill="#2f3031"/>
  <path d="m76.17 325.27s0.2769 0.184 0.4616 0.646h-0.1847c-0.0923 0-0.0923-0.369-0.2769-0.646z" fill="#a77860"/>
  <path d="m80.879 323.98c0.0923 0.093 0.2769 0.185 0.3693 0.277 0.3693 0.37 2.8621 0.462 3.6007 0.462 0.0924 0 0.1847 0.092 0.1847 0.092l0.0923 0.277c0 0.185-0.0923 0.277-0.277 0.277-2.4005-0.461-6.1859-1.292-7.6631-0.554 0.2769-0.461 0.6463-0.923 0.8309-1.2 0.0923-0.092 0.277-0.185 0.3693-0.277 0.277-0.092 0.9233-0.185 1.4773-0.369 0.1846-0.093 2.9544-0.277 1.0156 1.015z" fill="#007ad9"/>
  <path d="m78.94 328.22s0.5539-0.184 1.3849-0.369c0.5539-0.092 1.1079 0 1.7542 0.185 0.4616 0.092 1.2003 0.554 1.5696 0.831h0.1846s0.0923 0 0.0923-0.093l0.3694-0.738 0.0923-0.185c0.0923-0.092 0.0923-0.277 0-0.369-0.0923-0.093-0.1847-0.185-0.277-0.185-1.3849-0.369-2.7698-0.738-3.2315-1.015-2.2158-1.108-4.0624-0.185-4.0624-0.185s1e-4 1.292 0.0924 1.569c0 0.277 0.6463 1.108 1.2926 1.57 0 0 1.7542 0.831 2.2158 0.185 0.4616-0.647 0.4616-1.016 0.277-1.201" fill="#007ad9"/>
  <path d="m80.794 328.31c0.0549-0.455-0.27-0.869-0.7256-0.924s-0.8694 0.27-0.9243 0.725c-0.0549 0.456 0.2699 0.87 0.7256 0.925 0.4556 0.055 0.8694-0.27 0.9243-0.726z" fill="#072643"/>
  <path d="m81.446 323.86c0.0549-0.456-0.2699-0.87-0.7255-0.925-0.4556-0.054-0.8695 0.27-0.9244 0.726s0.27 0.869 0.7256 0.924 0.8695-0.27 0.9243-0.725z" fill="#072643"/>
  <path d="m80.786 323.52c1.2926 0.184 2.3082 1.385 2.1235 2.677-0.1846 1.293-1.3849 2.308-2.6774 2.124-1.2926-0.185-2.3082-1.385-2.1236-2.678 0.1847-1.385 1.3849-2.308 2.6775-2.123zm-2.1235 2.123c-0.0923 1.016 0.6463 1.939 1.6619 2.031 1.0156 0.093 1.9389-0.646 2.0312-1.661 0.0923-1.016-0.6463-1.939-1.6619-2.032-1.0156 0-1.9389 0.647-2.0312 1.662z" fill="#999"/>
  <g fill="#e48868">
   <path d="m79.955 327.3-0.4617 0.923c0 0.093-0.0923 0.093-0.0923 0.093-0.0923 0-0.0923-0.093-0.0923-0.093l0.4616-0.923c0-0.092 0.0924-0.092 0.0924-0.092 0.0923 0 0.0923 0.092 0.0923 0.092z"/>
   <path d="m80.14 327.48-0.4616 0.923c0 0.092-0.0923 0.092-0.0923 0.092-0.0924 0-0.0924-0.092-0.0924-0.092l0.4617-0.923c0-0.093 0.0923-0.093 0.0923-0.093 0.0923-0.092 0.0923 0 0.0923 0.093z"/>
   <path d="m80.325 327.58-0.4616 0.923c0 0.093-0.0924 0.093-0.0924 0.093-0.0923 0-0.0923-0.093-0.0923-0.093l0.4616-0.923c0-0.092 0.0924-0.092 0.0924-0.092 0.0923-0.093 0.1846 0 0.0923 0.092z"/>
   <path d="m80.602 327.67-0.4617 0.924c0 0.092-0.0923 0.092-0.0923 0.092-0.0923 0-0.0923-0.092-0.0923-0.092l0.4616-0.924c0-0.092 0.0923-0.092 0.0923-0.092 0.0924 0 0.0924 0 0.0924 0.092z"/>
   <path d="m80.786 327.76-0.4616 0.923c0 0.092-0.0923 0.092-0.0923 0.092-0.0924 0-0.0924-0.092-0.0924-0.092l0.4617-0.923c0-0.093 0.0923-0.093 0.0923-0.093 0.0923 0 0.0923 0 0.0923 0.093z"/>
   <path d="m80.325 324.44-0.1847-1.016c0-0.092-0.0923-0.092-0.0923-0.092-0.0923 0-0.0923 0.092-0.0923 0.092l0.1846 1.016c0 0.092 0.0924 0.092 0.0924 0.092 0.0923 0 0.0923 0 0.0923-0.092z"/>
   <path d="m80.602 324.34-0.1847-1.015c0-0.092-0.0923-0.092-0.0923-0.092-0.0923 0-0.0923 0.092-0.0923 0.092l0.1846 1.015c0 0.093 0.0923 0.093 0.0923 0.093 0 0.092 0.0924 0 0.0924-0.093z"/>
   <path d="m80.786 324.34-0.1846-1.015c0-0.092-0.0924-0.092-0.0924-0.092-0.0923 0-0.0923 0.092-0.0923 0.092l0.1847 1.015c0 0.093 0.0923 0.093 0.0923 0.093 0.0923 0 0.0923 0 0.0923-0.093z"/>
   <path d="m81.063 324.25-0.1846-1.015c0-0.093-0.0924-0.093-0.0924-0.093-0.0923 0-0.0923 0.093-0.0923 0.093l0.1847 1.015c0 0.093 0.0923 0.093 0.0923 0.093s0.0923 0 0.0923-0.093z"/>
   <path d="m81.248 324.25-0.1847-1.015c0-0.093-0.0923-0.093-0.0923-0.093-0.0924 0-0.0924 0.093-0.0924 0.093l0.1847 1.015c0 0.093 0.0923 0.093 0.0923 0.093 0.0924 0 0.0924-0.093 0.0924-0.093z"/>
  </g>
  <path d="m80.971 320.19c0 0.092-1.2926 7.571-1.7542 11.541-0.4617 4.062-1.0156 11.264-1.0156 11.264h-0.1847c0-0.093 0.4616-7.294 1.0156-11.356 0.554-4.063 1.7542-11.541 1.7542-11.541z" fill="#fff" opacity=".2"/>
  <g fill="#e48868">
   <path d="m78.663 334.96s3.0468-1.569 3.3238-1.385c0.3693 0.37 1.0156 2.863 1.0156 2.863l0.9232-0.277s-0.5539-4.432-1.8465-4.247c-1.2926 0.184-4.247 1.477-4.247 1.477z"/>
   <path d="m84.11 336.35s-0.277-0.554-0.554-0.554c-0.1846-0.092-0.5539 0.462-0.5539 0.462l0.0923 0.462z"/>
   <path d="m83.187 336.44s-0.2769 0.554-0.2769 0.647c0 0.092-1e-4 0.369 0.1846 0.554 0.0923 0.277 0.277 0.554 0.3693 0.554 0 0 0.0923 0.092 0.1847 0 0.0923 0 0.1846-0.185 0.1846-0.185s0.1847 0 0.277-0.092c0 0 0.1847 0 0.277-0.185 0 0 0.1846 0 0.277-0.092 0 0-0.0924-0.277 0-0.37 0-0.092-0.0924-0.554-0.3693-1.015-0.0924 0.092-0.4617-0.277-1.108 0.184z"/>
   <path d="m82.91 337.09s0.3693 0.369 0.6462 0.461h0.1847c0.0923-0.092 0-0.184-0.0923-0.369-0.0924-0.185-0.277-0.462-0.277-0.462s-0.1847-0.092-0.4616 0.37z"/>
   <path d="m83.741 338.2s-0.277-0.739-0.277-0.831c0-0.093-0.277 0-0.277 0.092s0.1847 0.739 0.277 0.739c0 0.092 0.1847 0.184 0.277 0z"/>
   <path d="m83.279 337.92s0.5539 1.292 0.6462 1.2c0.1847-0.092 0.1847-0.369-0.2769-1.385-0.4617-0.831-0.3693 0.185-0.3693 0.185z"/>
  </g>
  <path d="m85.957 341.98 1.2925-6.186s-3.1391-0.369-3.6007-0.369c-0.554 0-2.5852-0.185-3.9701-0.554-0.277-0.092 0-0.462 0-0.462l-0.554-0.369-1.0156-0.739c-0.4616 0.277-1.6619 1.939-1.9388 2.862-0.277 0.831-0.277 1.016-0.3694 1.57-0.0923 1.385 1.108 3.693 1.4773 3.785 0 0 0.277 0.185 0.3693 0.093 0.0923 0 0.9233-1.016 0.9233-1.293h0.277c0.1846 0 5.9089 1.662 7.1092 1.662z" fill="#fab348"/>
  <g opacity=".2">
   <g opacity=".2">
    <path d="m84.849 340.78c-0.0923 0-0.0923 0 0 0-0.3693-0.739-0.9233-1.477-1.5695-2.031v-0.093h0.0923c0.554 0.647 1.1079 1.293 1.4772 2.124z" fill="#fff" opacity=".2"/>
   </g>
  </g>
  <g opacity=".2">
   <g opacity=".2">
    <path d="m86.234 338.93c-0.0923 0-0.0923 0 0 0-0.7386-0.554-1.3849-1.015-2.1235-1.292v-0.093h0.0923c0.7386 0.37 1.2926 0.739 2.0312 1.385z" fill="#fff" opacity=".2"/>
   </g>
  </g>
  <g opacity=".2">
   <g opacity=".2">
    <path d="m85.772 337.18c-0.9233-0.092-1.7542-0.277-2.4928-0.462-0.554-0.092-1.2003-0.277-1.8466-0.369-0.7386-0.185-2.2158-0.369-2.8621-0.092h-0.0924v-0.093c0.6463-0.277 2.1236-0.092 2.9545 0.093 0.6463 0.092 1.2003 0.277 1.8466 0.369 0.7386 0.185 1.5695 0.369 2.4928 0.554z" fill="#fff" opacity=".2"/>
   </g>
  </g>
  <g opacity=".2">
   <g opacity=".2">
    <path d="m76.632 337.27c-0.0923 0.462-0.277 0.831-0.6463 1.108h-0.0923v-0.092c0.277-0.185 0.4616-0.554 0.5539-0.923 0.0924-0.37 0-0.739-0.1846-1.016v-0.092h0.0923c0.277 0.277 0.3693 0.646 0.277 1.015z" fill="#fff" opacity=".2"/>
   </g>
  </g>
  <g fill="#e48868">
   <path d="m74.508 338.01 1.2002 0.185s1.108-0.831 0.277-1.847l-1.2002-0.092z"/>
   <path d="m71.831 337c0 1.015 1.1079 1.2 2.1235 1.292 1.0156 0 1.6619-0.369 1.7542-1.015 0.0924-0.647-0.5539-1.201-1.4772-1.385-0.9233-0.277-2.4005-0.554-2.4005 1.108z"/>
   <path d="m73.677 338.01s-0.3693 0-0.277 0.277c0.0924 0.369 1.0156 0.092 1.0156-0.277-0.0923-0.277-0.7386 0-0.7386 0z"/>
   <path d="m74.046 335.98s-0.3693-0.092-0.2769-0.369c0.1846-0.277 1.0155 0.184 0.9232 0.461-0.0923 0.37-0.6463-0.092-0.6463-0.092z"/>
  </g>
  <path d="m80.325 338.2-1.2926-0.462 0.3693-1.293 2.4005 1.108-0.4616 1.016z" fill="#004a90"/>
  <path d="m81.894 338.2s0.0923 0.738-0.0924 0.831c-0.1846 0.092-0.8309-0.093-0.8309-0.093s-0.3693-0.369-0.554-0.461c-0.1846 0-0.5539-0.37-0.4616-0.462s0.4616 0.092 0.4616 0.092v-1.385c0-0.277 0.1847-0.184 0.277-0.092 0.0923 0 0.1847 0.369 0.1847 0.369s0.2769-0.092 0.3693-0.092c0.0923 0 0.1846 0.185 0.1846 0.185l0.3693-0.093c0.0924 0.093 0.0924 0.185 0.0924 0.185l0.1846 0.092c-0.1846 0.185-0.1846 0.924-0.1846 0.924z" fill="#e48868"/>
  <g fill="#007ad9">
   <path d="m74.231 337.55c0 0.277-0.1847 0.461-0.4616 0.461-0.277 0-0.4617-0.184-0.4617-0.461s0.1847-0.462 0.4617-0.462c0.2769 0 0.4616 0.277 0.4616 0.462zm-0.831 0c0 0.184 0.1847 0.369 0.3694 0.369 0.1846 0 0.3693-0.185 0.3693-0.369 0-0.185-0.1847-0.37-0.3693-0.37-0.1847 0-0.3694 0.185-0.3694 0.37z"/>
   <path d="m74.323 336.44c0 0.277-0.1846 0.461-0.4616 0.461s-0.4617-0.184-0.4617-0.461 0.1847-0.462 0.4617-0.462 0.4616 0.277 0.4616 0.462zm-0.7386 0c0 0.184 0.1847 0.369 0.3693 0.369 0.1847 0 0.3693-0.185 0.3693-0.369 0-0.185-0.1846-0.37-0.3693-0.37-0.1846 0-0.3693 0.185-0.3693 0.37z"/>
   <path d="m73.862 336.9c-0.0923 0-0.0923 0.092-0.0923 0.092 0 0.093 0 0.093 0.0923 0.185l-0.0923 0.092s-0.0924-0.092-0.0924-0.184c0-0.093 0.0924-0.093 0.1847-0.185z"/>
  </g>
  <path d="m75.708 337.27c-0.0923 0.37-0.277 0.647-0.4616 0.739h-0.0923v-0.092c0.2769-0.185 0.3693-0.37 0.4616-0.647s0-0.554-0.277-0.831v-0.092h0.0923c0.1847 0.369 0.277 0.646 0.277 0.923z" fill="#ba745d"/>
  <path d="m73.308 338.38 0.3693-0.184v-0.185l-0.5539-0.092s-0.277-0.277-0.554-0.369l0.277-1.57s0.3693 0.092 0.5539 0l0.6463 0.092v-0.184l-0.1846-0.185s-1.3849-0.554-1.7542-0.462c-0.3693 0.093-0.277 0.462-0.277 0.462s-0.6463 0.462-0.554 1.2c0.0923 0.739 0.4617 1.385 0.831 1.57 0.3693 0.092 1.2002-0.093 1.2002-0.093z" fill="#fab348"/>
  <path d="m77.462 341.61s3.5085 0.923 3.8778 0.923c0.7386 0.092 1.1079-0.738 1.1079-1.292 0-0.462-0.277-2.309-0.5539-2.678-0.277-0.462-1.108 0-1.108 0s0.554 1.939 0.3693 2.216c-0.0923 0.369-2.8621-0.462-2.8621-0.462s-0.3693 0.924-0.831 1.293z" fill="#e48868"/>
  <g clip-rule="evenodd" fill-rule="evenodd">
   <path d="m71.092 330.53c1.2926-10.525 1.2925-9.509 10.248-11.356 3.0468-3.693 6.0013-1.569 10.156-1.385-0.0923 7.848-0.831 15.604-2.2159 23.359-0.3693 2.216-0.8309 4.432-1.3849 6.555-4.1547-0.831-7.4785 0.554-9.5097-3.785-8.3094-3.878-8.5864-2.862-7.2938-13.388zm0.0923 8.125c0.7386 2.493 5.078 3.97 6.8322 4.432 0.3693-7.756 1.3849-15.326 2.7698-22.897-1.7542 0-6.4629 0.461-7.6631 2.677-0.554 0.924-1.2003 4.34-1.6619 7.848-0.3693 3.416-0.554 6.832-0.277 7.94z" fill="#65c8cf"/>
   <path d="m79.678 318.44 0.1847-1.201c0.0923-0.554 0.5539-1.015 1.0156-0.923h0.2769c0.4617 0.092 0.831 0.554 0.7387 1.2l-0.1847 1.201c-0.0923 0.554-0.554 1.015-1.0156 0.923h-0.277c-0.4616-0.092-0.7386-0.554-0.7386-1.2z" fill="#007ad9"/>
   <path d="m76.447 345.58 0.1846-1.2c0.0923-0.554 0.554-1.016 1.0156-0.924h0.277c0.4616 0.093 0.8309 0.554 0.7386 1.201l-0.1847 1.2c-0.0923 0.554-0.5539 1.015-1.0156 0.923h-0.2769c-0.4617-0.092-0.831-0.554-0.7386-1.2z" fill="#007ad9"/>
   <path d="m78.663 344.1c0.0923 0.092 0.1847 0.092 0.3693 0.184 0 0-0.277-1.108 0.7386-2.677 1.0156-1.57 3.5085-2.308 5.078-2.493 1.5696-0.185 2.9545-0.185 2.9545-0.185l1.4772-12.002s-1.2926-0.369-2.7698-0.923-3.6931-1.847-4.3394-3.601-0.0923-2.77-0.0923-2.77c-0.0923 0-0.277 0.092-0.3693 0.092 0 0.277-0.0923 0.554-0.1847 0.831-0.0923 0.37-0.7386 5.909-1.3849 11.449-0.6463 5.539-1.2925 10.987-1.3849 11.448 0 0.093-0.0923 0.37-0.0923 0.647z" fill="#fff" opacity=".2"/>
   <path d="m86.695 347.24 3.4161-28.714c0.0923-0.554 0.5539-1.016 1.0156-0.923l1.3849 0.184c0.4616 0.093 0.8309 0.554 0.7386 1.2l-3.4161 28.714c-0.0923 0.554-0.554 1.016-1.0156 0.924l-1.3849-0.185c-0.4616-0.092-0.831-0.646-0.7386-1.2z" fill="#999"/>
  </g>
  <path d="m84.944 343.79c0.1951-1.62-0.7958-3.071-2.2132-3.242-1.4175-0.171-2.7248 1.004-2.9199 2.624-0.1952 1.62 0.7957 3.071 2.2132 3.242 1.4174 0.171 2.7247-1.004 2.9199-2.624z" fill="#007ad9"/>
  <path d="m87.701 321.19c0.1951-1.62-0.7958-3.071-2.2132-3.242-1.4175-0.171-2.7248 1.004-2.9199 2.624-0.1952 1.62 0.7957 3.072 2.2132 3.242 1.4174 0.171 2.7247-1.004 2.9199-2.624z" fill="#007ad9"/>
  <path d="m84.21 343.7c0.1402-1.164-0.5668-2.207-1.5793-2.329s-1.947 0.723-2.0872 1.887c-0.1403 1.165 0.5668 2.207 1.5792 2.329 1.0125 0.122 1.947-0.723 2.0873-1.887z" fill="#fff" opacity=".2"/>
  <path d="m86.967 321.1c0.1402-1.165-0.5668-2.207-1.5793-2.329s-1.947 0.723-2.0872 1.887c-0.1403 1.164 0.5668 2.207 1.5793 2.329 1.0124 0.122 1.9469-0.723 2.0872-1.887z" fill="#fff" opacity=".2"/>
  <path d="m88.265 346.04 0.277-2.309c0-0.092 0.0923-0.184 0.1847-0.184l0.6463 0.092c0.0923 0 0.1846 0.092 0.1846 0.185l-0.277 2.308c0 0.092-0.0923 0.185-0.1846 0.185l-0.6463-0.093c-0.1847 0-0.277-0.092-0.1847-0.184z" clip-rule="evenodd" fill="#fab348" fill-rule="evenodd"/>
  <path d="m91.127 322.22 0.277-2.308c0-0.092 0.0923-0.185 0.1846-0.185l0.6463 0.093c0.0923 0 0.1846 0.092 0.1846 0.184l-0.2769 2.308c0 0.093-0.0924 0.185-0.1847 0.185l-0.6463-0.092c-0.1846 0-0.1846-0.093-0.1846-0.185z" clip-rule="evenodd" fill="#fab348" fill-rule="evenodd"/>
  <path d="m87.618 330.81-0.5539 4.339c0 0.369-0.3693 0.646-0.7386 0.554-0.3693 0-0.6463-0.369-0.6463-0.739l0.5539-4.339c0-0.369 0.3693-0.646 0.7386-0.554 0.4617 0.092 0.7387 0.369 0.6463 0.739zm-1.4772 4.247c0 0.184 0.0923 0.277 0.277 0.277 0.1846 0 0.277-0.093 0.277-0.277l0.5539-4.34c0-0.184-0.0923-0.277-0.277-0.277-0.1846 0-0.2769 0.093-0.3693 0.277z" fill="#fff" opacity=".2"/>
  <path d="m164.55 275.22c1.353-11.238-6.66-21.446-17.898-22.8-11.239-1.354-21.447 6.659-22.801 17.897-1.353 11.239 6.66 21.447 17.898 22.801 11.239 1.354 21.447-6.659 22.801-17.898z" fill="#65c8cf" opacity=".2"/>
  <g clip-rule="evenodd" fill-rule="evenodd">
   <path d="m150.49 262.95 0.37-2.862c0.092-0.554 0.554-0.924 1.108-0.831l5.816 0.738c0.554 0.093 0.923 0.554 0.923 1.108l-0.369 2.862c-0.092 0.554-0.554 0.924-1.108 0.831l-5.816-0.738c-0.554-0.093-0.924-0.554-0.924-1.108z" fill="#2f3031"/>
   <path d="m147.63 286.68 0.37-2.862c0.092-0.554 0.554-0.923 1.107-0.831l5.817 0.738c0.554 0.093 0.923 0.554 0.923 1.108l-0.369 2.863c-0.092 0.554-0.554 0.923-1.108 0.83l-5.817-0.738c-0.553-0.092-0.923-0.554-0.923-1.108z" fill="#2f3031"/>
   <path d="m133.04 279.38c0.738 2.493 5.078 3.97 6.832 4.432 0.369-7.756 1.385-15.326 2.77-22.897-1.755 0-6.463 0.461-7.664 2.677-0.554 0.924-1.2 4.34-1.661 7.848-0.37 3.416-0.554 6.925-0.277 7.94z" fill="#999"/>
   <path d="m133.97 276.8 1.385-11.172c0.184-1.2 1.2-2.123 2.308-2.031l1.477 0.185c1.108 0.092 1.847 1.2 1.754 2.493l-1.385 11.171c-0.184 1.201-1.2 2.124-2.308 2.032l-1.477-0.185c-1.108-0.092-1.847-1.2-1.754-2.493z" fill="#65c8cf" opacity=".2"/>
   <g fill="#e4ddd7">
    <path d="m138.21 268.4 0.277-2.585c0.184-1.754 1.662-3.047 3.324-2.862l0.461 0.092c-0.554 2.955-1.015 6.001-1.385 9.048h-0.184c-1.57-0.277-2.678-1.939-2.493-3.693z"/>
    <path d="m136.83 279.29 0.277-2.308c0.185-1.57 1.662-2.678 3.231-2.493h0.277c-0.277 2.677-0.554 5.355-0.646 8.125l-0.554-0.093c-1.569-0.277-2.77-1.662-2.585-3.231z"/>
    <path d="m133.87 273.47 0.462-3.693c0-0.185 0.185-0.369 0.369-0.277l0.554 0.092c0.185 0 0.277 0.185 0.277 0.37l-0.461 3.693c0 0.184-0.185 0.369-0.37 0.277l-0.554-0.093c-0.184 0-0.369-0.184-0.277-0.369z"/>
   </g>
  </g>
  <path d="m133.34 271.39-0.055 0.459 0.916 0.11 0.055-0.458z" fill="#e4ddd7"/>
  <path d="m135.81 267.29c2.216 0.739 3.139 1.385 3.139 1.385s0.093-1.108 0.185-2.031 0.369-2.124 0.369-2.124-2.862 0.185-3.231 0.093c-0.369-0.093-0.462 2.677-0.462 2.677z" fill="#2f3031"/>
  <g fill="#e48868">
   <path d="m139.41 266.36c-0.185 0.646-0.646 0.462-0.646 0.462s-0.277-0.093-0.554-0.093h-0.646c-0.554 0-0.093-1.2-0.093-1.2s1.108 0.185 1.385 0.092c0.369-0.277 0.831 0.093 0.554 0.739z"/>
   <path d="m138.77 267.47s1.662-1.108 2.031-1.57c0 0-0.462-0.646-1.754-0.461 0 0-0.37 0.646-0.277 2.031z"/>
   <path d="m135.17 267.1s1.2 0.831 2.493 0.277c1.292-0.554-0.277-2.032-0.462-2.124-0.184-0.092-1.292-0.739-1.754 0.185-0.462 0.738-0.554 1.385-0.277 1.662z"/>
  </g>
  <path d="m135.63 266.92s0.554 0.554 1.015 0.646c0 0-0.923 0.277-1.662-0.369-0.738-0.646-0.554-1.477 0.185-2.216 0.462-0.369 1.108-0.554 2.401 0.462 0 0-1.293 1.477-1.939 1.477z" fill="#2f3031"/>
  <path d="m138.03 266.09s0.277 0.185 0.462 0.646h-0.185c-0.092 0-0.092-0.369-0.277-0.646z" fill="#a77860"/>
  <path d="m142.74 264.7c0.092 0.092 0.277 0.185 0.369 0.277 0.37 0.369 2.862 0.462 3.601 0.462 0.092 0 0.185 0.092 0.185 0.092l0.092 0.277c0 0.185-0.092 0.277-0.277 0.277-2.401-0.462-6.186-1.293-7.663-0.554 0.277-0.462 0.646-0.923 0.831-1.2 0.092-0.093 0.277-0.185 0.369-0.277 0.277-0.092 0.923-0.185 1.477-0.369 0.093 0 2.955-0.277 1.016 1.015z" fill="#007ad9"/>
  <path d="m140.8 268.95s0.554-0.184 1.385-0.369c0.554-0.092 1.108 0 1.754 0.185 0.462 0.092 1.2 0.554 1.57 0.831h0.184s0.093 0 0.093-0.093l0.369-0.738 0.092-0.185c0.093-0.092 0.093-0.277 0-0.369-0.092-0.093-0.184-0.185-0.277-0.185-1.385-0.369-2.769-0.739-3.231-1.016-2.216-1.108-4.063-0.184-4.063-0.184s0 1.292 0.093 1.569c0 0.277 0.646 1.108 1.292 1.57 0 0 1.755 0.831 2.216 0.184 0.462-0.646 0.462-1.015 0.277-1.2" fill="#007ad9"/>
  <path d="m142.65 269.19c0.055-0.456-0.27-0.869-0.725-0.924-0.456-0.055-0.87 0.27-0.925 0.725-0.055 0.456 0.27 0.87 0.726 0.925 0.456 0.054 0.869-0.27 0.924-0.726z" fill="#072643"/>
  <path d="m143.22 264.63c0.055-0.456-0.27-0.869-0.726-0.924s-0.869 0.27-0.924 0.725c-0.055 0.456 0.27 0.87 0.725 0.925 0.456 0.055 0.87-0.27 0.925-0.726z" fill="#072643"/>
  <path d="m142.65 264.33c1.292 0.184 2.308 1.385 2.123 2.677-0.185 1.293-1.385 2.308-2.677 2.124-1.293-0.185-2.309-1.385-2.124-2.678 0.185-1.385 1.385-2.308 2.678-2.123zm-2.124 2.123c-0.092 1.016 0.646 1.939 1.662 2.032 1.016 0.092 1.939-0.647 2.031-1.662 0.092-1.016-0.646-1.939-1.662-2.032-1.015-0.092-1.939 0.647-2.031 1.662z" fill="#999"/>
  <g fill="#e48868">
   <path d="m141.82 268.12-0.462 0.923c0 0.093-0.092 0.093-0.092 0.093-0.093 0-0.093-0.093-0.093-0.093l0.462-0.923c0-0.092 0.092-0.092 0.092-0.092 0.093 0 0.093 0.092 0.093 0.092z"/>
   <path d="m142 268.21-0.461 0.924c0 0.092-0.093 0.092-0.093 0.092-0.092 0-0.092-0.092-0.092-0.092l0.462-0.924c0-0.092 0.092-0.092 0.092-0.092 0.092 0 0.092 0.092 0.092 0.092z"/>
   <path d="m142.18 268.3-0.462 0.923c0 0.092-0.092 0.092-0.092 0.092-0.092 0-0.092-0.092-0.092-0.092l0.461-0.923c0-0.093 0.093-0.093 0.093-0.093 0.092 0 0.184 0.093 0.092 0.093z"/>
   <path d="m142.46 268.49-0.462 0.923c0 0.092-0.092 0.092-0.092 0.092-0.092 0-0.092-0.092-0.092-0.092l0.461-0.923c0-0.093 0.093-0.093 0.093-0.093 0.092 0 0.092 0 0.092 0.093z"/>
   <path d="m142.65 268.58-0.462 0.923c0 0.092-0.092 0.092-0.092 0.092-0.093 0-0.093-0.092-0.093-0.092l0.462-0.923c0-0.092 0.092-0.092 0.092-0.092 0.093 0 0.093 0 0.093 0.092z"/>
   <path d="m142.18 265.26-0.185-1.016c0-0.092-0.092-0.092-0.092-0.092-0.092 0-0.092 0.092-0.092 0.092l0.184 1.016c0 0.092 0.093 0.092 0.093 0.092 0.092 0 0.092-0.092 0.092-0.092z"/>
   <path d="m142.37 265.16-0.185-1.016c0-0.092-0.092-0.092-0.092-0.092-0.093 0-0.093 0.092-0.093 0.092l0.185 1.016c0 0.092 0.092 0.092 0.092 0.092 0.093 0 0.185 0 0.093-0.092z"/>
   <path d="m142.65 265.16-0.185-1.016c0-0.092-0.092-0.092-0.092-0.092-0.093 0-0.093 0.092-0.093 0.092l0.185 1.016c0 0.092 0.092 0.092 0.092 0.092 0.093 0 0.093-0.092 0.093-0.092z"/>
   <path d="m142.92 265.07-0.185-1.015c0-0.093-0.092-0.093-0.092-0.093-0.093 0-0.093 0.093-0.093 0.093l0.185 1.015c0 0.093 0.092 0.093 0.092 0.093s0.093 0 0.093-0.093z"/>
   <path d="m143.11 265.07-0.184-1.015c0-0.093-0.093-0.093-0.093-0.093-0.092 0-0.092 0.093-0.092 0.093l0.185 1.015c0 0.093 0.092 0.093 0.092 0.093 0.092 0 0.092-0.093 0.092-0.093z"/>
  </g>
  <path d="m142.74 260.92c0 0.092-1.293 7.57-1.754 11.54-0.462 4.063-1.016 11.264-1.016 11.264h-0.185c0-0.092 0.462-7.293 1.016-11.356 0.554-4.062 1.754-11.541 1.754-11.541z" fill="#fff" opacity=".2"/>
  <g fill="#e48868">
   <path d="m140.52 275.69s3.047-1.569 3.324-1.385c0.369 0.37 1.015 2.862 1.015 2.862l0.924-0.277s-0.554-4.431-1.847-4.247c-1.292 0.185-4.247 1.478-4.247 1.478z"/>
   <path d="m145.97 277.17s-0.277-0.554-0.554-0.554c-0.184-0.092-0.554 0.462-0.554 0.462l0.093 0.462z"/>
   <path d="m145.05 277.17s-0.277 0.554-0.277 0.647c0 0.092 0 0.369 0.185 0.554 0.092 0.277 0.277 0.554 0.369 0.554 0 0 0.092 0.092 0.185 0 0.092 0 0.184-0.185 0.184-0.185s0.185 0 0.277-0.092c0 0 0.185 0 0.277-0.185 0 0 0.185 0 0.277-0.092 0 0-0.092-0.277 0-0.37 0-0.092-0.092-0.554-0.369-1.015-0.092 0.092-0.462-0.277-1.108 0.184z"/>
   <path d="m144.77 277.81s0.369 0.369 0.646 0.461h0.185c0.092-0.092 0-0.184-0.092-0.369-0.093-0.185-0.277-0.462-0.277-0.462s-0.185 0-0.462 0.37z"/>
   <path d="m145.6 278.92s-0.277-0.738-0.277-0.83c0-0.093-0.277-1e-3 -0.277 0.092 0 0.092 0.185 0.738 0.277 0.738 0 0.185 0.185 0.185 0.277 0z"/>
   <path d="m145.14 278.74s0.554 1.292 0.647 1.2c0.184-0.092 0.184-0.369-0.277-1.385-0.462-0.831-0.37 0.185-0.37 0.185z"/>
  </g>
  <path d="m147.82 282.8 1.292-6.186s-3.139-0.369-3.6-0.369c-0.554 0-2.585-0.184-3.97-0.554-0.277-0.092 0-0.461 0-0.461l-0.554-0.37-1.016-0.738c-0.462 0.277-1.662 1.939-1.939 2.862-0.277 0.831-0.277 1.015-0.369 1.569-0.092 1.385 1.108 3.693 1.477 3.786 0 0 0.277 0.184 0.369 0.092 0.093 0 0.924-1.015 0.924-1.292h0.277c-0.093 0.092 5.816 1.661 7.109 1.661z" fill="#fab348"/>
  <g opacity=".2">
   <g opacity=".2">
    <path d="m146.71 281.6c-0.092 0-0.092 0 0 0-0.369-0.739-0.923-1.477-1.57-2.031v-0.092h0.093c0.554 0.554 1.108 1.292 1.477 2.123z" fill="#fff" opacity=".2"/>
   </g>
  </g>
  <g opacity=".2">
   <g opacity=".2">
    <path d="m148 279.75c-0.739-0.554-1.385-1.016-2.124-1.293v-0.092h0.092c0.739 0.369 1.385 0.738 2.032 1.385z" fill="#fff" opacity=".2"/>
   </g>
  </g>
  <g opacity=".2">
   <g opacity=".2">
    <path d="m147.63 278s-0.092 0.093 0 0c-0.923-0.092-1.754-0.277-2.493-0.461-0.554-0.093-1.2-0.277-1.846-0.37-0.739-0.184-2.216-0.369-2.862-0.092h-0.093v-0.092c0.647-0.277 2.124-0.093 2.955 0.092 0.646 0.092 1.2 0.277 1.846 0.369 0.739 0.185 1.57 0.37 2.493 0.554z" fill="#fff" opacity=".2"/>
   </g>
  </g>
  <g opacity=".2">
   <g opacity=".2">
    <path d="m138.49 278.09c-0.092 0.461-0.277 0.83-0.646 1.107h-0.093v-0.092c0.277-0.185 0.462-0.554 0.554-0.923 0.093-0.369 0-0.739-0.184-1.016v-0.092h0.092c0.277 0.277 0.369 0.646 0.277 1.016z" fill="#fff" opacity=".2"/>
   </g>
  </g>
  <g fill="#e48868">
   <path d="m136.37 278.83 1.201 0.185s1.107-0.831 0.277-1.847l-1.201-0.092z"/>
   <path d="m133.69 277.81c0 1.015 1.108 1.2 2.123 1.292 1.016 0 1.662-0.369 1.755-1.015 0.092-0.647-0.554-1.201-1.478-1.385-0.923-0.37-2.4-0.554-2.4 1.108z"/>
   <path d="m135.54 278.83s-0.369 0-0.277 0.277c0.093 0.369 1.016 0.093 1.016-0.277-0.092-0.369-0.739 0-0.739 0z"/>
   <path d="m135.91 276.8s-0.37-0.092-0.277-0.369c0.184-0.277 1.015 0.184 0.923 0.461-0.092 0.37-0.646-0.092-0.646-0.092z"/>
  </g>
  <path d="m142.18 279.01-1.293-0.462 0.37-1.292 2.4 1.015-0.554 1.108z" fill="#004a90"/>
  <path d="m143.75 279.01s0.093 0.739-0.092 0.831c-0.184 0.092-0.831-0.092-0.831-0.092s-0.369-0.37-0.554-0.462c-0.184-0.092-0.554-0.369-0.461-0.462 0.092-0.092 0.461 0.093 0.461 0.093v-1.385c0-0.277 0.185-0.185 0.277-0.093 0.093 0 0.185 0.37 0.185 0.37s0.277-0.093 0.369-0.093c0.093 0 0.185 0.185 0.185 0.185l0.369-0.092 0.092 0.184 0.185 0.093z" fill="#e48868"/>
  <g fill="#007ad9">
   <path d="m136.09 278.37c0 0.277-0.184 0.461-0.461 0.461s-0.462-0.184-0.462-0.461 0.185-0.462 0.462-0.462 0.461 0.185 0.461 0.462zm-0.831 0c0 0.184 0.185 0.369 0.37 0.369 0.184 0 0.369-0.185 0.369-0.369 0-0.185-0.185-0.37-0.369-0.37-0.185 0-0.37 0.185-0.37 0.37z"/>
   <path d="m136.18 277.26c0 0.277-0.185 0.461-0.462 0.461s-0.462-0.184-0.462-0.461 0.185-0.462 0.462-0.462 0.462 0.277 0.462 0.462zm-0.739 0c0 0.184 0.185 0.369 0.369 0.369 0.185 0 0.37-0.185 0.37-0.369 0-0.185-0.185-0.37-0.37-0.37-0.277 0-0.369 0.185-0.369 0.37z"/>
   <path d="m135.72 277.72c-0.092 0-0.092 0.093-0.092 0.093 0 0.092 0 0.092 0.092 0.184l-0.092 0.093s-0.093-0.093-0.093-0.185 0.093-0.092 0.185-0.185z"/>
  </g>
  <path d="m137.57 278c-0.093 0.37-0.277 0.647-0.462 0.739h-0.092v-0.092c0.277-0.185 0.369-0.37 0.461-0.647 0.093-0.277 0-0.554-0.277-0.831v-0.092h0.093c0.184 0.369 0.277 0.646 0.277 0.923z" fill="#ba745d"/>
  <path d="m135.17 279.2 0.369-0.185v-0.185l-0.554-0.092s-0.277-0.277-0.554-0.369l0.277-1.57s0.37 0.092 0.554 0l0.647 0.092v-0.184l-0.185-0.185s-1.385-0.554-1.754-0.462c-0.369 0.093-0.277 0.462-0.277 0.462s-0.646 0.462-0.554 1.2c0.092 0.739 0.462 1.385 0.831 1.57 0.369 0.092 1.2-0.092 1.2-0.092z" fill="#fab348"/>
  <path d="m139.32 282.43s3.508 0.923 3.878 0.923c0.738 0.093 1.107-0.738 1.107-1.292 0-0.462-0.277-2.309-0.554-2.678s-1.107 0-1.107 0 0.554 1.939 0.369 2.216c-0.092 0.369-2.862-0.462-2.862-0.462s-0.37 0.924-0.831 1.293z" fill="#e48868"/>
  <g clip-rule="evenodd" fill-rule="evenodd">
   <path d="m132.86 271.35c1.292-10.526 1.292-9.51 10.248-11.357 3.047-3.693 6.001-1.569 10.156-1.385-0.092 7.848-0.831 15.604-2.216 23.359-0.369 2.216-0.831 4.432-1.385 6.555-4.154-0.831-7.478 0.554-9.509-3.785-8.217-3.878-8.494-2.862-7.294-13.387zm0.185 8.032c0.738 2.493 5.078 3.97 6.832 4.432 0.369-7.756 1.385-15.327 2.77-22.897-1.755 0-6.463 0.461-7.664 2.677-0.554 0.923-1.2 4.339-1.661 7.848-0.37 3.416-0.554 6.924-0.277 7.94z" fill="#65c8cf"/>
   <path d="m141.54 259.26 0.184-1.201c0.093-0.553 0.554-1.015 1.016-0.923h0.277c0.462 0.093 0.831 0.554 0.739 1.2l-0.185 1.201c-0.092 0.554-0.554 1.015-1.016 0.923h-0.277c-0.461-0.092-0.831-0.554-0.738-1.2z" fill="#007ad9"/>
   <path d="m138.31 286.4 0.185-1.2c0.092-0.554 0.554-1.016 1.015-0.924h0.277c0.462 0.093 0.831 0.554 0.739 1.201l-0.185 1.2c-0.092 0.554-0.554 1.016-1.015 0.923h-0.277c-0.462-0.092-0.831-0.646-0.739-1.2z" fill="#007ad9"/>
   <path d="m140.52 284.92c0.092 0.092 0.185 0.092 0.369 0.184 0 0-0.277-1.107 0.739-2.677s3.508-2.308 5.078-2.493 2.954-0.185 2.954-0.185l1.478-12.002s-1.293-0.369-2.77-0.923-3.693-1.847-4.34-3.601c-0.646-1.754-0.092-2.77-0.092-2.77-0.092 0-0.277 0.092-0.369 0.092 0 0.277-0.092 0.554-0.185 0.831-0.092 0.37-0.738 5.909-1.385 11.449-0.646 5.54-1.292 10.987-1.385 11.449-0.092 0-0.092 0.369-0.092 0.646z" fill="#fff" opacity=".2"/>
   <path d="m148.55 287.97 3.417-28.713c0.092-0.554 0.554-1.016 1.015-0.924l1.385 0.185c0.462 0.092 0.831 0.554 0.739 1.2l-3.416 28.714c-0.093 0.554-0.554 1.016-1.016 0.923l-1.385-0.184c-0.462-0.093-0.831-0.554-0.739-1.201z" fill="#999"/>
  </g>
  <path d="m146.81 284.58c0.196-1.62-0.795-3.072-2.213-3.243-1.417-0.17-2.724 1.004-2.92 2.624-0.195 1.62 0.796 3.072 2.214 3.243 1.417 0.171 2.724-1.004 2.919-2.624z" fill="#007ad9"/>
  <path d="m149.57 261.98c0.195-1.62-0.796-3.072-2.214-3.243-1.417-0.17-2.724 1.004-2.919 2.624-0.196 1.62 0.795 3.072 2.213 3.243 1.417 0.17 2.725-1.004 2.92-2.624z" fill="#007ad9"/>
  <path d="m146.08 284.49c0.14-1.164-0.567-2.207-1.579-2.329-1.013-0.122-1.947 0.723-2.087 1.888-0.141 1.164 0.566 2.207 1.579 2.329 1.012 0.122 1.947-0.723 2.087-1.888z" fill="#fff" opacity=".2"/>
  <path d="m148.83 261.89c0.141-1.164-0.566-2.207-1.579-2.329-1.012-0.122-1.947 0.723-2.087 1.887-0.14 1.165 0.567 2.208 1.579 2.329 1.013 0.122 1.947-0.723 2.087-1.887z" fill="#fff" opacity=".2"/>
  <path d="m150.03 286.86 0.277-2.309c0-0.092 0.092-0.184 0.184-0.184l0.647 0.092c0.092 0 0.184 0.092 0.184 0.185l-0.277 2.308c0 0.092-0.092 0.184-0.184 0.184l-0.647-0.092c-0.092 0-0.184-0.092-0.184-0.184z" clip-rule="evenodd" fill="#fab348" fill-rule="evenodd"/>
  <path d="m152.99 263.04 0.277-2.308c0-0.092 0.093-0.185 0.185-0.185l0.646 0.093c0.092 0 0.185 0.092 0.185 0.184l-0.277 2.309c0 0.092-0.093 0.184-0.185 0.184l-0.646-0.092c-0.185 0-0.277-0.092-0.185-0.185z" clip-rule="evenodd" fill="#fab348" fill-rule="evenodd"/>
  <path d="m149.48 271.63-0.554 4.339c0 0.369-0.369 0.646-0.739 0.554-0.369 0-0.646-0.369-0.646-0.739l0.554-4.339c0-0.369 0.369-0.646 0.738-0.554 0.462 0 0.739 0.369 0.647 0.739zm-1.477 4.247c0 0.184 0.092 0.277 0.277 0.277 0.184 0 0.277-0.093 0.277-0.277l0.553-4.34c0-0.184-0.092-0.277-0.277-0.277-0.184 0-0.276 0.093-0.369 0.277z" fill="#fff" opacity=".2"/>
  <path d="m167.2 208.71c1.354-11.239-6.659-21.447-17.898-22.801-11.238-1.353-21.446 6.66-22.8 17.898-1.354 11.239 6.659 21.447 17.898 22.801 11.238 1.353 21.446-6.66 22.8-17.898z" fill="#65c8cf" opacity=".2"/>
  <g clip-rule="evenodd" fill-rule="evenodd">
   <path d="m153.17 196.47 0.369-2.862c0.092-0.554 0.554-0.923 1.108-0.831l5.817 0.739c0.554 0.092 0.923 0.554 0.923 1.108l-0.369 2.862c-0.093 0.554-0.554 0.923-1.108 0.831l-5.817-0.739c-0.646-0.184-1.015-0.646-0.923-1.108z" fill="#2f3031"/>
   <path d="m150.31 220.2 0.369-2.862c0.092-0.554 0.554-0.923 1.108-0.831l5.817 0.739c0.554 0.092 0.923 0.554 0.923 1.108l-0.369 2.862c-0.093 0.554-0.554 0.923-1.108 0.831l-5.817-0.739c-0.646-0.092-1.016-0.646-0.923-1.108z" fill="#2f3031"/>
   <path d="m135.63 212.91c0.738 2.493 5.078 3.97 6.832 4.432 0.369-7.755 1.385-15.326 2.77-22.897-1.754 0-6.463 0.462-7.663 2.677-0.554 0.924-1.201 4.34-1.662 7.848-0.37 3.416-0.554 6.925-0.277 7.94z" fill="#999"/>
   <path d="m136.64 210.32 1.385-11.171c0.185-1.201 1.2-2.124 2.308-2.032l1.478 0.185c1.108 0.092 1.846 1.2 1.754 2.493l-1.385 11.172c-0.185 1.2-1.2 2.123-2.308 2.031l-1.477-0.185c-1.201-0.185-1.939-1.293-1.755-2.493z" fill="#65c8cf" opacity=".2"/>
   <g fill="#e4ddd7">
    <path d="m140.8 201.92 0.277-2.585c0.185-1.754 1.662-3.046 3.324-2.862l0.461 0.092c-0.554 2.955-1.015 6.002-1.385 9.049h-0.184c-1.57-0.37-2.678-1.939-2.493-3.694z"/>
    <path d="m139.51 212.72 0.277-2.308c0.185-1.57 1.662-2.678 3.232-2.493h0.277c-0.277 2.677-0.554 5.355-0.646 8.125l-0.554-0.093c-1.662-0.184-2.77-1.662-2.586-3.231z"/>
    <path d="m136.46 207 0.461-3.694c0-0.184 0.185-0.369 0.37-0.277l0.554 0.093c0.184 0 0.277 0.184 0.277 0.369l-0.462 3.693c0 0.185-0.185 0.37-0.369 0.277l-0.554-0.092c-0.185-0.092-0.37-0.185-0.277-0.369z"/>
   </g>
  </g>
  <path d="m135.99 204.88-0.055 0.458 0.917 0.111 0.055-0.459z" fill="#e4ddd7"/>
  <path d="m138.4 200.81c2.215 0.738 3.139 1.385 3.139 1.385s0.092-1.108 0.184-2.031c0.093-0.924 0.37-2.124 0.37-2.124s-2.863 0.185-3.232 0.092c-0.461 0-0.461 2.678-0.461 2.678z" fill="#2f3031"/>
  <g fill="#e48868">
   <path d="m142 199.8c-0.184 0.646-0.646 0.462-0.646 0.462s-0.277-0.093-0.554-0.093h-0.646c-0.554 0-0.093-1.2-0.093-1.2s1.108 0.185 1.385 0.092c0.37-0.184 0.831 0.185 0.554 0.739z"/>
   <path d="m141.44 200.9s1.662-1.108 2.032-1.57c0 0-0.462-0.646-1.755-0.461 0 0.092-0.461 0.646-0.277 2.031z"/>
   <path d="m137.75 200.54s1.2 0.831 2.493 0.277-0.277-2.032-0.462-2.124c-0.184-0.092-1.292-0.738-1.754 0.185-0.461 0.831-0.554 1.385-0.277 1.662z"/>
  </g>
  <path d="m138.31 200.35s0.554 0.554 1.016 0.646c0 0-0.923 0.277-1.662-0.369s-0.554-1.477 0.185-2.216c0.461-0.369 1.107-0.554 2.4 0.462-0.092 0-1.385 1.477-1.939 1.477z" fill="#2f3031"/>
  <path d="m140.61 199.52s0.277 0.185 0.462 0.646h-0.185c-0.092 0-0.092-0.277-0.277-0.646z" fill="#a77860"/>
  <path d="m145.32 198.23c0.092 0.092 0.277 0.184 0.369 0.277 0.37 0.369 2.863 0.461 3.601 0.461 0.092 0 0.185 0.093 0.185 0.093l0.092 0.276c0 0.185-0.092 0.277-0.277 0.277-2.4-0.461-6.186-1.292-7.663-0.553 0.277-0.462 0.646-0.924 0.831-1.201 0.092-0.092 0.277-0.184 0.369-0.277 0.277-0.092 0.924-0.184 1.477-0.369 0.185 0 2.955-0.277 1.016 1.016z" fill="#007ad9"/>
  <path d="m143.38 202.47s0.554-0.185 1.385-0.37c0.554-0.092 1.108 0 1.754 0.185 0.462 0.092 1.201 0.554 1.57 0.831h0.185s0.092 0 0.092-0.092l0.369-0.739 0.092-0.185c0.093-0.092 0.093-0.277 0-0.369-0.092-0.092-0.184-0.185-0.277-0.185-1.384-0.369-2.769-0.738-3.231-1.015-2.216-1.108-4.062-0.185-4.062-0.185s0 1.293 0.092 1.57c0 0.277 0.646 1.108 1.293 1.569 0 0 1.754 0.831 2.215 0.185 0.462-0.646 0.462-1.016 0.277-1.2" fill="#007ad9"/>
  <path d="m145.32 202.59c0.055-0.456-0.27-0.869-0.726-0.924-0.455-0.055-0.869 0.27-0.924 0.725-0.055 0.456 0.27 0.87 0.725 0.925 0.456 0.055 0.87-0.27 0.925-0.726z" fill="#072643"/>
  <path d="m145.88 198.13c0.055-0.456-0.27-0.87-0.725-0.925-0.456-0.054-0.87 0.27-0.925 0.726s0.27 0.869 0.726 0.924 0.869-0.27 0.924-0.725z" fill="#072643"/>
  <path d="m145.23 197.76c1.292 0.185 2.308 1.385 2.123 2.677-0.184 1.293-1.385 2.309-2.677 2.124-1.293-0.185-2.308-1.385-2.124-2.678 0.185-1.292 1.385-2.308 2.678-2.123zm-2.124 2.216c-0.092 1.015 0.646 1.939 1.662 2.031s1.939-0.646 2.031-1.662c0.093-1.016-0.646-1.939-1.662-2.031-1.015-0.092-1.938 0.646-2.031 1.662z" fill="#999"/>
  <g fill="#e48868">
   <path d="m144.4 201.64-0.462 0.923c0 0.092-0.092 0.092-0.092 0.092-0.093 0-0.093-0.092-0.093-0.092l0.462-0.923c0-0.093 0.092-0.093 0.092-0.093 0.093-0.092 0.093 0 0.093 0.093z"/>
   <path d="m144.58 201.74-0.461 0.923c0 0.093-0.093 0.093-0.093 0.093-0.092 0-0.092-0.093-0.092-0.093l0.462-0.923c0-0.092 0.092-0.092 0.092-0.092 0.092 0 0.092 0 0.092 0.092z"/>
   <path d="m144.77 201.83-0.462 0.923c0 0.093-0.092 0.093-0.092 0.093-0.092 0-0.092-0.093-0.092-0.093l0.461-0.923c0-0.092 0.093-0.092 0.093-0.092 0.184 0 0.184 0 0.092 0.092z"/>
   <path d="m145.05 201.92-0.462 0.924c0 0.092-0.092 0.092-0.092 0.092-0.092 0-0.092-0.092-0.092-0.092l0.461-0.924c0-0.092 0.093-0.092 0.093-0.092 0.092 0 0.092 0.092 0.092 0.092z"/>
   <path d="m145.23 202.01-0.462 0.923c0 0.092-0.092 0.092-0.092 0.092-0.093 0-0.093-0.092-0.093-0.092l0.462-0.923c0-0.093 0.092-0.093 0.092-0.093 0.093 0 0.093 0.093 0.093 0.093z"/>
   <path d="m144.77 198.69-0.185-1.016c0-0.092-0.092-0.092-0.092-0.092-0.092 0-0.092 0.092-0.092 0.092l0.184 1.016c0 0.092 0.093 0.092 0.093 0.092 0.092 0 0.092 0 0.092-0.092z"/>
   <path d="m145.05 198.69-0.185-1.016c0-0.092-0.092-0.092-0.092-0.092-0.092 0-0.092 0.092-0.092 0.092l0.184 1.016c0 0.092 0.093 0.092 0.093 0.092z"/>
   <path d="m145.23 198.6-0.185-1.016c0-0.092-0.092-0.092-0.092-0.092-0.093 0-0.093 0.092-0.093 0.092l0.185 1.016c0 0.092 0.092 0.092 0.092 0.092 0.093 0 0.093 0 0.093-0.092z"/>
   <path d="m145.51 198.5-0.185-1.015c0-0.093-0.092-0.092-0.092-0.092-0.093 0-0.093 0.092-0.093 0.092l0.185 1.015c0 0.093 0.092 0.093 0.092 0.093 0 0.092 0.093 0 0.093-0.093z"/>
   <path d="m145.69 198.5-0.184-1.015c0-0.093-0.093-0.092-0.093-0.092-0.092 0-0.092 0.092-0.092 0.092l0.185 1.015c0 0.093 0.092 0.093 0.092 0.093 0.092 0 0.092 0 0.092-0.093z"/>
  </g>
  <path d="m145.42 194.44c0 0.092-1.292 7.571-1.754 11.541-0.461 4.062-1.015 11.264-1.015 11.264h-0.185c0-0.093 0.462-7.294 1.016-11.356 0.553-4.063 1.754-11.541 1.754-11.541z" fill="#fff" opacity=".2"/>
  <g fill="#e48868">
   <path d="m143.11 209.21s3.047-1.569 3.324-1.385c0.369 0.37 1.016 2.863 1.016 2.863l0.923-0.277s-0.554-4.432-1.847-4.247c-1.292 0.184-4.247 1.477-4.247 1.477z"/>
   <path d="m148.56 210.6s-0.277-0.554-0.554-0.554c-0.185-0.092-0.554 0.462-0.554 0.462l0.092 0.462z"/>
   <path d="m147.63 210.69s-0.277 0.553-0.277 0.646c0 0.092 0 0.369 0.185 0.554 0.092 0.277 0.277 0.554 0.369 0.554 0 0 0.093 0.092 0.185 0 0.092 0 0.185-0.185 0.185-0.185s0.184 0 0.277-0.092c0 0 0.184 0 0.276-0.185 0 0 0.185 0 0.277-0.092 0 0-0.092-0.277 0-0.37 0-0.092-0.092-0.554-0.369-1.015-0.092 0.092-0.461-0.277-1.108 0.185z"/>
   <path d="m147.35 211.34s0.37 0.369 0.647 0.461h0.184c0.093-0.092 0-0.184-0.092-0.369s-0.277-0.462-0.277-0.462-0.185-0.092-0.462 0.37z"/>
   <path d="m148.18 212.44s-0.277-0.739-0.277-0.831c0-0.093-0.277 0-0.277 0.092s0.185 0.739 0.277 0.739c0 0.092 0.185 0.184 0.277 0z"/>
   <path d="m147.72 212.17s0.554 1.292 0.646 1.2c0.185-0.092 0.185-0.369-0.277-1.385-0.462-0.831-0.369 0.185-0.369 0.185z"/>
  </g>
  <path d="m150.4 216.23 1.293-6.186s-3.139-0.369-3.601-0.369c-0.554 0-2.585-0.185-3.97-0.554-0.277-0.092 0-0.462 0-0.462l-0.554-0.369-1.016-0.738c-0.461 0.276-1.662 1.938-1.939 2.862-0.277 0.831-0.277 1.015-0.369 1.569-0.092 1.385 1.108 3.693 1.477 3.786 0 0 0.277 0.184 0.37 0.092 0.092 0 0.923-1.016 0.923-1.293h0.277c0.185 0 5.909 1.662 7.109 1.662z" fill="#fab348"/>
  <g opacity=".2">
   <g opacity=".2">
    <path d="m149.29 215.03c-0.092 0.092-0.092 0 0 0-0.369-0.739-0.923-1.477-1.569-2.031v-0.093h0.092c0.646 0.647 1.108 1.385 1.477 2.124z" fill="#fff" opacity=".2"/>
   </g>
  </g>
  <g opacity=".2">
   <g opacity=".2">
    <path d="m150.68 213.18c-0.092 0.093-0.092 0.093 0 0-0.739-0.554-1.385-1.015-2.123-1.292v-0.093h0.092c0.738 0.37 1.292 0.831 2.031 1.385z" fill="#fff" opacity=".2"/>
   </g>
  </g>
  <g opacity=".2">
   <g opacity=".2">
    <path d="m150.22 211.43c-0.923-0.092-1.754-0.277-2.492-0.462-0.554-0.092-1.201-0.277-1.847-0.369-0.739-0.185-2.216-0.369-2.862-0.092h-0.092v-0.093c0.646-0.277 2.123-0.092 2.954 0.093 0.646 0.092 1.2 0.277 1.847 0.369 0.738 0.185 1.569 0.369 2.492 0.554z" fill="#fff" opacity=".2"/>
   </g>
  </g>
  <g opacity=".2">
   <g opacity=".2">
    <path d="m141.08 211.52c-0.092 0.462-0.277 0.831-0.646 1.108h-0.093v-0.092c0.277-0.185 0.462-0.554 0.554-0.923 0.093-0.37 0-0.739-0.184-1.016v-0.092h0.092c0.277 0.369 0.369 0.738 0.277 1.015z" fill="#fff" opacity=".2"/>
   </g>
  </g>
  <g fill="#e48868">
   <path d="m138.95 212.26 1.201 0.185s1.108-0.831 0.277-1.847l-1.201-0.092z"/>
   <path d="m136.28 211.24c0 1.015 1.108 1.2 2.124 1.292 1.015 0 1.661-0.369 1.754-1.015 0.092-0.647-0.554-1.201-1.478-1.385-0.923-0.277-2.4-0.554-2.4 1.108z"/>
   <path d="m138.12 212.26s-0.37 0-0.277 0.277c0.092 0.369 1.015 0.092 1.015-0.277-0.092-0.277-0.738 0-0.738 0z"/>
   <path d="m138.49 210.32s-0.369-0.092-0.277-0.369c0.185-0.277 1.015 0.185 0.923 0.462-0.092 0.369-0.646-0.093-0.646-0.093z"/>
  </g>
  <path d="m144.77 212.44-1.292-0.462 0.369-1.2 2.4 1.016-0.461 1.015z" fill="#004a90"/>
  <path d="m146.34 212.54s0.092 0.739-0.093 0.831c-0.184 0.092-0.831-0.092-0.831-0.092s-0.369-0.37-0.554-0.462c-0.184 0-0.554-0.369-0.461-0.462 0.092-0.092 0.461 0.093 0.461 0.093v-1.385c0-0.277 0.185-0.185 0.277-0.092 0.093 0 0.185 0.369 0.185 0.369s0.277-0.092 0.369-0.092c0.093 0 0.185 0.184 0.185 0.184l0.369-0.092c0.093 0.092 0.093 0.185 0.093 0.185l0.184 0.092c-0.184 0.092-0.184 0.923-0.184 0.923z" fill="#e48868"/>
  <g fill="#007ad9">
   <path d="m138.68 211.8c0 0.277-0.184 0.461-0.461 0.461s-0.462-0.184-0.462-0.461 0.185-0.462 0.462-0.462c0.277 0.092 0.461 0.277 0.461 0.462zm-0.83 0c0 0.184 0.184 0.369 0.369 0.369s0.369-0.185 0.369-0.369c0-0.185-0.184-0.37-0.369-0.37-0.185 0.093-0.369 0.185-0.369 0.37z"/>
   <path d="m138.77 210.78c0 0.277-0.185 0.462-0.462 0.462s-0.461-0.185-0.461-0.462 0.184-0.462 0.461-0.462 0.462 0.185 0.462 0.462zm-0.739-0.092c0 0.184 0.185 0.369 0.37 0.369 0.184 0 0.369-0.185 0.369-0.369 0-0.185-0.185-0.37-0.369-0.37-0.185 0.093-0.37 0.185-0.37 0.37z"/>
   <path d="m138.31 211.15c-0.092 0-0.092 0.092-0.092 0.092 0 0.093 0 0.093 0.092 0.185l-0.092 0.092s-0.092-0.092-0.092-0.184c0-0.093 0.092-0.093 0.184-0.185z"/>
  </g>
  <path d="m140.15 211.52c-0.093 0.37-0.277 0.647-0.462 0.739h-0.092v-0.092c0.277-0.185 0.369-0.37 0.461-0.647 0.093-0.277 0-0.554-0.277-0.831v-0.092h0.093c0.184 0.369 0.277 0.646 0.277 0.923z" fill="#ba745d"/>
  <path d="m137.75 212.63 0.37-0.184v-0.185l-0.554-0.092s-0.277-0.277-0.554-0.369l0.277-1.57s0.369 0.092 0.554 0l0.646 0.092v-0.184l-0.185-0.185s-1.385-0.554-1.754-0.462c-0.369 0.093-0.277 0.462-0.277 0.462s-0.646 0.462-0.554 1.2c0.092 0.739 0.462 1.385 0.831 1.57 0.369 0.092 1.2-0.093 1.2-0.093z" fill="#fab348"/>
  <path d="m141.91 215.95s3.508 0.923 3.878 0.923c0.738 0.093 1.108-0.738 1.108-1.292 0-0.462-0.277-2.308-0.554-2.678-0.277-0.461-1.108 0-1.108 0s0.554 1.939 0.369 2.216c-0.092 0.37-2.862-0.461-2.862-0.461s-0.369 0.923-0.831 1.292z" fill="#e48868"/>
  <g clip-rule="evenodd" fill-rule="evenodd">
   <path d="m135.54 204.87c1.293-10.525 1.293-9.51 10.249-11.356 3.046-3.693 6.001-1.57 10.156-1.385-0.093 7.848-0.831 15.603-2.216 23.359-0.369 2.215-0.831 4.431-1.385 6.555-4.155-0.831-7.479 0.554-9.51-3.786-8.309-3.877-8.586-2.954-7.294-13.387zm0.093 8.032c0.738 2.493 5.078 3.97 6.832 4.432 0.369-7.755 1.385-15.326 2.77-22.897-1.754 0-6.463 0.462-7.663 2.677-0.554 0.924-1.201 4.34-1.662 7.848-0.37 3.416-0.554 6.925-0.277 7.94z" fill="#65c8cf"/>
   <path d="m144.12 192.78 0.184-1.2c0.093-0.554 0.554-1.016 1.016-0.923h0.277c0.462 0.092 0.831 0.554 0.739 1.2l-0.185 1.2c-0.092 0.554-0.554 1.016-1.016 0.923h-0.277c-0.461-0.092-0.738-0.646-0.738-1.2z" fill="#007ad9"/>
   <path d="m140.89 219.92 0.185-1.2c0.092-0.554 0.554-1.015 1.016-0.923h0.277c0.461 0.092 0.831 0.554 0.738 1.2l-0.184 1.2c-0.093 0.554-0.554 1.016-1.016 0.924h-0.277c-0.462-0.185-0.831-0.647-0.739-1.201z" fill="#007ad9"/>
   <path d="m143.11 218.35c0.093 0.092 0.185 0.092 0.37 0.185 0 0-0.277-1.108 0.738-2.678 1.016-1.569 3.509-2.308 5.078-2.493 1.57-0.184 2.955-0.184 2.955-0.184l0.738-6.002 0.739-6.001s-1.293-0.369-2.77-0.923-3.693-1.847-4.339-3.601c-0.647-1.754-0.093-2.77-0.093-2.77-0.092 0-0.277 0.093-0.369 0.093 0 0.277-0.092 0.553-0.185 0.83-0.092 0.37-0.738 5.909-1.385 11.449-0.646 5.54-1.292 10.987-1.384 11.449 0 0.092-0.093 0.369-0.093 0.646z" fill="#fff" opacity=".2"/>
   <path d="m151.14 221.49 3.416-28.714c0.092-0.554 0.554-1.016 1.015-0.923l1.385 0.184c0.462 0.093 0.831 0.554 0.739 1.201l-3.416 28.713c-0.093 0.554-0.554 1.016-1.016 0.924l-1.385-0.185c-0.461-0.092-0.831-0.646-0.738-1.2z" fill="#999"/>
  </g>
  <path d="m149.47 218.07c0.195-1.62-0.796-3.071-2.213-3.242-1.418-0.171-2.725 1.004-2.92 2.624s0.796 3.072 2.213 3.242c1.418 0.171 2.725-1.004 2.92-2.624z" fill="#007ad9"/>
  <path d="m152.13 195.46c0.195-1.62-0.796-3.071-2.214-3.242-1.417-0.171-2.724 1.004-2.919 2.624-0.196 1.62 0.795 3.072 2.213 3.242 1.417 0.171 2.724-1.004 2.92-2.624z" fill="#007ad9"/>
  <path d="m148.73 217.98c0.14-1.164-0.567-2.207-1.579-2.329-1.013-0.122-1.947 0.723-2.088 1.887-0.14 1.165 0.567 2.208 1.58 2.33 1.012 0.121 1.947-0.724 2.087-1.888z" fill="#fff" opacity=".2"/>
  <path d="m151.4 195.37c0.141-1.164-0.566-2.207-1.579-2.329-1.012-0.122-1.947 0.723-2.087 1.887-0.14 1.165 0.567 2.207 1.579 2.329 1.013 0.122 1.947-0.723 2.087-1.887z" fill="#fff" opacity=".2"/>
  <path d="m152.71 220.29 0.277-2.309c0-0.092 0.093-0.184 0.185-0.184l0.646 0.092c0.093 0 0.185 0.092 0.185 0.185l-0.277 2.308c0 0.092-0.092 0.185-0.185 0.185l-0.646-0.093c-0.185 0.093-0.277 0-0.185-0.184z" clip-rule="evenodd" fill="#fab348" fill-rule="evenodd"/>
  <path d="m155.57 196.47 0.277-2.308c0-0.092 0.093-0.185 0.185-0.185l0.646 0.093c0.093 0 0.185 0.092 0.185 0.184l-0.277 2.309c0 0.092-0.092 0.184-0.185 0.184l-0.646-0.092c-0.185 0-0.185-0.092-0.185-0.185z" clip-rule="evenodd" fill="#fab348" fill-rule="evenodd"/>
  <path d="m152.06 205.06-0.554 4.339c0 0.369-0.369 0.646-0.739 0.554-0.369 0-0.646-0.369-0.646-0.739l0.554-4.339c0-0.369 0.369-0.646 0.739-0.554 0.461 0.092 0.738 0.462 0.646 0.739zm-1.477 4.247c0 0.184 0.092 0.277 0.277 0.277 0.184 0 0.277-0.093 0.277-0.277l0.554-4.34c0-0.184-0.093-0.277-0.277-0.277-0.185 0-0.277 0.093-0.37 0.277z" fill="#fff" opacity=".2"/>
 </g>
 <defs>
  <filter id="filter0_d" x="-4" y="0" width="517.09" height="517.09" color-interpolation-filters="sRGB" filterUnits="userSpaceOnUse">
   <feFlood flood-opacity="0" result="BackgroundImageFix"/>
   <feColorMatrix in="SourceAlpha" values="0 0 0 0 0 0 0 0 0 0 0 0 0 0 0 0 0 0 127 0"/>
   <feOffset dy="4"/>
   <feGaussianBlur stdDeviation="2"/>
   <feColorMatrix values="0 0 0 0 0 0 0 0 0 0 0 0 0 0 0 0 0 0 0.25 0"/>
   <feBlend in2="BackgroundImageFix" result="effect1_dropShadow"/>
   <feBlend in="SourceGraphic" in2="effect1_dropShadow" result="shape"/>
  </filter>
  <clipPath id="clip0">
   <rect width="509" height="509" fill="#fff"/>
  </clipPath>
 </defs>
</svg>
