<?xml version="1.0" encoding="UTF-8"?>
<!-- Generator: Adobe Illustrator 24.1.2, SVG Export Plug-In . SVG Version: 6.00 Build 0)  -->
<svg version="1.1" id="Calque_1" xmlns="http://www.w3.org/2000/svg" xmlns:xlink="http://www.w3.org/1999/xlink" x="0px" y="0px" width="198px" height="126px" viewBox="0 0 198 126" style="enable-background:new 0 0 198 126;" xml:space="preserve">
<style type="text/css">
	.st0{fill:#572380;}
	.st1{fill:#EA6927;}
	.st2{fill:#E32283;}
	.st3{fill:#EA6F27;}
	.st4{fill:#D5D830;}
	.st5{fill:#78A941;}
	.st6{fill:#FFFFFF;}
</style>
<g id="XMLID_132_">
	<rect id="XMLID_168_" class="st0" width="183.3" height="90.1"/>
	<rect id="XMLID_167_" y="89.7" class="st1" width="183.3" height="36.2"/>
	<g id="XMLID_145_">
		<path id="XMLID_166_" class="st2" d="M74.3,38.6c-3.7,0.6-4.8-2.2-4.8-2.2s-2.7-6.2-3.6-8.4c-0.9-2.2-4.2-7.6-9.1-5.7    c-4.7,1.9-2.5,8.8-2.5,8.8l1.5,4.1c3.6,10-4.8,13.3-4.8,13.3c-9.3,3.7-13.7-6.1-13.7-6.1l-5.7-13.2c3.7-0.8,4.9,2.6,4.9,2.6    l3.3,7.6c0,0,3.3,8.3,9.6,5.6c6.1-2.7,2.2-10.7,2.2-10.7s-5.3-11.4,3.4-15.1c9.1-3.9,13.7,6.5,13.7,6.5L74.3,38.6z"/>
		<path id="XMLID_165_" class="st3" d="M100.1,38.6c-3.7,0.6-4.8-2.2-4.8-2.2s-2.7-6.2-3.6-8.4c-0.9-2.2-4.2-7.6-9.1-5.7    c-4.7,1.9-2.5,8.8-2.5,8.8l1.5,4.1c3.6,10-4.8,13.3-4.8,13.3c-9.3,3.7-13.7-6.1-13.7-6.1l-5.7-13.2c3.7-0.8,4.9,2.6,4.9,2.6    l3.3,7.6c0,0,3.3,8.3,9.6,5.6c6.1-2.7,2.2-10.7,2.2-10.7s-5.3-11.4,3.4-15.1c9.1-3.9,13.7,6.5,13.7,6.5L100.1,38.6z"/>
		<path id="XMLID_164_" class="st4" d="M126.2,38.6c-3.7,0.6-4.8-2.2-4.8-2.2s-2.7-6.2-3.6-8.4c-0.9-2.2-4.2-7.6-9.1-5.7    c-4.7,1.9-2.5,8.8-2.5,8.8l1.5,4.1c3.6,10-4.8,13.3-4.8,13.3c-9.3,3.7-13.7-6.1-13.7-6.1l-5.7-13.2c3.7-0.8,4.9,2.6,4.9,2.6    l3.3,7.6c0,0,3.3,8.3,9.6,5.6c6.1-2.7,2.2-10.7,2.2-10.7s-5.3-11.4,3.4-15.1c9.1-3.9,13.7,6.5,13.7,6.5L126.2,38.6z"/>
		<path id="XMLID_163_" class="st5" d="M152.2,38.6c-3.7,0.6-4.8-2.2-4.8-2.2s-2.7-6.2-3.6-8.4c-0.9-2.2-4.2-7.6-9.1-5.7    c-4.7,1.9-2.5,8.8-2.5,8.8l1.5,4.1c3.6,10-4.8,13.3-4.8,13.3c-9.3,3.7-13.7-6.1-13.7-6.1l-5.7-13.2c3.7-0.8,4.9,2.6,4.9,2.6    l3.3,7.6c0,0,3.3,8.3,9.6,5.6c6.1-2.7,2.2-10.7,2.2-10.7s-5.3-11.4,3.4-15.1c9.1-3.9,13.7,6.5,13.7,6.5L152.2,38.6z"/>
		<g id="XMLID_146_">
			<path id="XMLID_160_" class="st6" d="M43.3,63.6c-0.3,2.6-1.8,5.6-4.9,5.6c-3.1,0-3.8-3-3.5-5.6c0.3-2.6,1.8-5.6,4.9-5.6     C43,58,43.7,61,43.3,63.6 M40.3,55.8c0,0-0.1,0-0.1,0c0,0-0.1,0-0.1,0c-1.6,0-3,0.5-4.1,1.4c-0.1,0-0.1,0.1-0.2,0.1c0,0,0,0,0,0     c0,0-0.1,0.1-0.1,0.1c0,0,0,0,0,0c-0.1,0-0.1,0.1-0.1,0.1c-1.4,1.3-2.4,3.2-2.7,5.3l-0.1,0.6l0,0.5l-1.5,11.8v0     c0,0.4,0.2,0.3,0.3,0.3l2.1-0.8c0.2-0.1,0.2-0.3,0.2-0.3l0.7-5.1c0.9,0.9,2.1,1.4,3.7,1.4c0,0,0.1,0,0.1,0c0,0,0.1,0,0.1,0     c3.7,0,6.3-3,7.2-6.4c0.1-0.4,0.2-0.9,0.3-1.4c0.1-0.4,0.1-0.9,0.1-1.3C45.9,58.8,44,55.8,40.3,55.8"/>
			<path id="XMLID_157_" class="st6" d="M58.7,63.6c-0.3,2.6-1.8,5.6-4.9,5.6h0c-1.3,0-2.2-0.6-2.8-1.4c-0.7-1.1-0.9-2.7-0.7-4.2     c0.1-0.7,0.3-1.5,0.6-2.2c0.7-1.8,2.1-3.4,4.3-3.4h0C58.3,58,59,61,58.7,63.6 M59.5,57.5c-0.9-0.9-2.1-1.5-3.7-1.6     c-0.1,0-0.1,0-0.2,0c0,0-0.1,0-0.1,0c0,0,0,0,0,0h0c-1.7,0-3.2,0.6-4.4,1.6c-0.1,0.1-0.1,0.1-0.2,0.2c-0.5,0.4-0.9,0.9-1.2,1.4     c-0.7,1-1.3,2.2-1.6,3.5c-0.1,0.4-0.2,0.8-0.2,1.2c-0.1,0.4-0.1,0.8-0.1,1.3c0,3.5,1.9,6.5,5.8,6.5h0c0.1,0,0.1,0,0.2,0     c1.7,0,3.1-0.7,4.2-1.6l-0.1,0.8c0,0,0,0,0,0c0,0.4,0.2,0.3,0.3,0.3l1.9-0.7c0.2-0.1,0.3-0.3,0.3-0.3l0.8-6.3v0c0,0,0,0,0,0     C61.4,61.2,60.9,58.9,59.5,57.5"/>
			<path id="XMLID_156_" class="st6" d="M70.2,55.8c-2.6,0-5.4,1.5-5.7,4.3c-0.5,4.2,7.6,4.1,7.2,7c-0.1,1-1.4,2.1-3.2,2.1     c-1.4,0-2.3-0.5-2.9-1c-0.1,0-0.2-0.1-0.4-0.1L63.1,69c-0.2,0.1-0.1,0.2-0.1,0.3c0.6,1.1,2.6,2.1,5.2,2.1c2.8,0,5.8-1.5,6.2-4.7     c0.6-4.4-7.6-4.1-7.3-6.8c0.2-1.3,1.5-1.9,2.9-1.9c2.4,0,2.6,1.5,3.7,1.5c0.8,0,1.2-0.5,1.3-1C75.2,56.9,72.3,55.8,70.2,55.8"/>
			<path id="XMLID_155_" class="st6" d="M82.9,55.8c-2.6,0-5.4,1.5-5.7,4.3c-0.5,4.2,7.6,4.1,7.2,7c-0.1,1-1.4,2.1-3.2,2.1     c-1.4,0-2.3-0.5-2.9-1c0,0-0.2-0.1-0.4-0.1L75.8,69c-0.2,0.1-0.1,0.2-0.1,0.3c0.6,1.1,2.6,2.1,5.2,2.1c2.8,0,5.8-1.5,6.2-4.7     c0.6-4.4-7.6-4.1-7.3-6.8c0.2-1.3,1.5-1.9,2.9-1.9c2.4,0,2.6,1.5,3.7,1.5c0.8,0,1.2-0.5,1.3-1C87.9,56.9,85,55.8,82.9,55.8"/>
			<path id="XMLID_152_" class="st6" d="M107.6,63.6c-0.3,2.6-1.8,5.6-4.9,5.6c-3.1,0-3.8-3-3.5-5.6c0.3-2.6,1.8-5.6,4.9-5.6     C107.2,58,107.9,61,107.6,63.6 M104.6,55.8c0,0-0.1,0-0.1,0c0,0-0.1,0-0.1,0c-1.6,0-3,0.5-4.1,1.4c-0.1,0-0.1,0.1-0.2,0.1     c0,0,0,0,0,0c0,0-0.1,0.1-0.1,0.1c0,0,0,0,0,0c0,0-0.1,0.1-0.1,0.1c-1.4,1.3-2.4,3.2-2.8,5.3l-0.1,0.6l0,0.5l-1.5,11.8     c0,0,0,0,0,0c0,0.4,0.2,0.3,0.3,0.3l2.1-0.8c0.2-0.1,0.2-0.3,0.2-0.3l0.7-5.1c0.9,0.9,2.1,1.4,3.7,1.4c0,0,0.1,0,0.1,0     c0,0,0.1,0,0.1,0c3.7,0,6.3-3,7.2-6.4c0.1-0.4,0.2-0.9,0.3-1.4c0.1-0.4,0.1-0.9,0.1-1.3C110.1,58.8,108.2,55.8,104.6,55.8"/>
			<path id="XMLID_149_" class="st6" d="M122.9,63.6c-0.3,2.6-1.8,5.6-4.9,5.6h0c-1.3,0-2.2-0.6-2.8-1.4c-0.7-1.1-0.9-2.7-0.7-4.2     c0.1-0.7,0.3-1.5,0.6-2.2c0.7-1.8,2.1-3.4,4.3-3.4C122.5,58,123.2,61,122.9,63.6 M123.7,57.5c-0.9-0.9-2.1-1.5-3.7-1.6     c-0.1,0-0.1,0-0.2,0c0,0-0.1,0-0.1,0c0,0,0,0,0,0h0c-1.7,0-3.2,0.6-4.4,1.6c-0.1,0.1-0.1,0.1-0.2,0.2c-0.5,0.4-0.9,0.9-1.2,1.4     c-0.7,1-1.3,2.2-1.6,3.5c-0.1,0.4-0.2,0.8-0.2,1.2c-0.1,0.4-0.1,0.8-0.1,1.3c0,3.5,1.9,6.5,5.8,6.5c0.1,0,0.1,0,0.2,0     c1.7,0,3.1-0.7,4.2-1.6l-0.1,0.8c0,0,0,0,0,0c0,0.4,0.2,0.3,0.3,0.3l1.9-0.7c0.2-0.1,0.3-0.3,0.3-0.3l0.8-6.3v0v0     C125.6,61.2,125.1,58.9,123.7,57.5"/>
			<path id="XMLID_148_" class="st6" d="M134.4,55.8c-2.5,0-5.4,1.5-5.7,4.3c-0.5,4.2,7.6,4.1,7.2,7c-0.1,1-1.4,2.1-3.2,2.1     c-1.4,0-2.3-0.5-2.9-1c-0.1,0-0.2-0.1-0.4-0.1l-2.1,0.8c-0.2,0.1-0.1,0.2-0.1,0.3c0.6,1.1,2.6,2.1,5.2,2.1c2.8,0,5.8-1.5,6.2-4.7     c0.6-4.4-7.6-4.1-7.3-6.8c0.2-1.3,1.5-1.9,2.9-1.9c2.4,0,2.6,1.5,3.7,1.5c0.8,0,1.2-0.5,1.3-1C139.4,56.9,136.5,55.8,134.4,55.8"/>
			<path id="XMLID_147_" class="st6" d="M147.2,55.8c-2.6,0-5.4,1.5-5.7,4.3c-0.5,4.2,7.6,4.1,7.2,7c-0.1,1-1.4,2.1-3.2,2.1     c-1.4,0-2.3-0.5-2.9-1c-0.1,0-0.2-0.1-0.4-0.1L140,69c-0.2,0.1-0.1,0.2-0.1,0.3c0.6,1.1,2.6,2.1,5.2,2.1c2.8,0,5.8-1.5,6.2-4.7     c0.6-4.4-7.6-4.1-7.3-6.8c0.2-1.3,1.5-1.9,2.9-1.9c2.4,0,2.6,1.5,3.7,1.5c0.8,0,1.2-0.5,1.3-1C152.1,56.9,149.2,55.8,147.2,55.8"/>
		</g>
	</g>
	<g>
		<path class="st6" d="M19.8,103.3c0.7,0,1.3,0.1,1.9,0.2c0.6,0.1,1,0.3,1.3,0.6c0.3,0.3,0.5,0.5,0.5,0.9c0,0.2-0.1,0.4-0.2,0.5    c-0.1,0.2-0.3,0.2-0.5,0.2c-0.2,0-0.3,0-0.5-0.1c-0.1-0.1-0.2-0.2-0.3-0.3c-0.1-0.1-0.2-0.2-0.4-0.3c-0.2-0.1-0.4-0.2-0.7-0.2    c-0.3-0.1-0.6-0.1-0.9-0.1c-0.7,0-1.4,0.2-1.9,0.5c-0.6,0.3-1,0.8-1.3,1.4c-0.3,0.6-0.5,1.3-0.5,2c0,0.8,0.2,1.4,0.5,2    c0.3,0.6,0.7,1.1,1.3,1.4c0.5,0.3,1.2,0.5,1.9,0.5c0.5,0,0.8,0,1.1-0.1c0.3-0.1,0.5-0.2,0.7-0.3c0.2-0.1,0.4-0.3,0.6-0.4    c0.1-0.1,0.3-0.2,0.5-0.2c0.2,0,0.4,0.1,0.5,0.2c0.1,0.1,0.2,0.3,0.2,0.5c0,0.3-0.2,0.5-0.5,0.8c-0.3,0.3-0.8,0.5-1.4,0.7    c-0.6,0.2-1.2,0.3-1.9,0.3c-1,0-1.9-0.2-2.7-0.7c-0.8-0.5-1.4-1.1-1.8-2c-0.4-0.8-0.6-1.7-0.6-2.8c0-1,0.2-1.9,0.7-2.8    c0.4-0.8,1-1.5,1.8-2C17.8,103.6,18.7,103.3,19.8,103.3z"/>
		<path class="st6" d="M34.4,108.8c0,1-0.2,2-0.7,2.8c-0.5,0.8-1.1,1.5-1.9,1.9c-0.8,0.5-1.7,0.7-2.7,0.7c-1,0-1.9-0.2-2.7-0.7    c-0.8-0.5-1.4-1.1-1.9-1.9c-0.5-0.8-0.7-1.8-0.7-2.8s0.2-2,0.7-2.8c0.5-0.8,1.1-1.5,1.9-1.9c0.8-0.5,1.7-0.7,2.7-0.7    c1,0,1.9,0.2,2.7,0.7c0.8,0.5,1.4,1.1,1.9,1.9C34.1,106.8,34.4,107.7,34.4,108.8z M32.8,108.8c0-0.8-0.2-1.5-0.5-2    c-0.3-0.6-0.7-1-1.3-1.4s-1.2-0.5-1.8-0.5c-0.7,0-1.3,0.2-1.8,0.5c-0.6,0.3-1,0.8-1.3,1.4c-0.3,0.6-0.5,1.3-0.5,2    c0,0.8,0.2,1.4,0.5,2c0.3,0.6,0.7,1.1,1.3,1.4c0.6,0.3,1.2,0.5,1.8,0.5c0.7,0,1.3-0.2,1.8-0.5s1-0.8,1.3-1.4    C32.6,110.2,32.8,109.5,32.8,108.8z"/>
		<path class="st6" d="M35.5,103.4c0.2,0,0.3,0,0.5,0.1c0.1,0.1,0.3,0.2,0.3,0.4l3.3,7.8l-0.3,0.2l3.4-8c0.1-0.4,0.4-0.5,0.8-0.5    c0.2,0,0.4,0.1,0.5,0.2c0.1,0.1,0.2,0.3,0.2,0.5c0,0.1,0,0.2,0,0.2c0,0.1,0,0.1-0.1,0.2l-3.9,8.9c-0.1,0.3-0.4,0.5-0.7,0.5    c-0.2,0-0.3,0-0.5-0.1c-0.2-0.1-0.3-0.2-0.4-0.4l-3.9-8.9c0,0,0-0.1-0.1-0.2c0-0.1,0-0.2,0-0.2c0-0.2,0.1-0.3,0.2-0.5    C35.1,103.5,35.3,103.4,35.5,103.4z"/>
		<path class="st6" d="M55,108.8c0,1-0.2,2-0.7,2.8c-0.5,0.8-1.1,1.5-1.9,1.9c-0.8,0.5-1.7,0.7-2.7,0.7c-1,0-1.9-0.2-2.7-0.7    c-0.8-0.5-1.4-1.1-1.9-1.9c-0.5-0.8-0.7-1.8-0.7-2.8s0.2-2,0.7-2.8c0.5-0.8,1.1-1.5,1.9-1.9c0.8-0.5,1.7-0.7,2.7-0.7    c1,0,1.9,0.2,2.7,0.7c0.8,0.5,1.4,1.1,1.9,1.9S55,107.7,55,108.8z M53.4,108.8c0-0.8-0.2-1.5-0.5-2c-0.3-0.6-0.7-1-1.3-1.4    c-0.5-0.3-1.2-0.5-1.8-0.5c-0.7,0-1.3,0.2-1.8,0.5c-0.6,0.3-1,0.8-1.3,1.4c-0.3,0.6-0.5,1.3-0.5,2c0,0.8,0.2,1.4,0.5,2    c0.3,0.6,0.7,1.1,1.3,1.4c0.6,0.3,1.2,0.5,1.8,0.5c0.7,0,1.3-0.2,1.8-0.5c0.5-0.3,1-0.8,1.3-1.4C53.2,110.2,53.4,109.5,53.4,108.8    z"/>
		<path class="st6" d="M57.3,102.1c-0.3,0-0.6-0.1-0.7-0.2c-0.2-0.1-0.2-0.3-0.2-0.6V101c0-0.3,0.1-0.5,0.3-0.6    c0.2-0.1,0.4-0.2,0.7-0.2s0.6,0.1,0.7,0.2c0.2,0.1,0.2,0.3,0.2,0.6v0.3c0,0.3-0.1,0.5-0.3,0.6C57.8,102,57.6,102.1,57.3,102.1z     M58.1,113.2c0,0.2-0.1,0.4-0.2,0.6c-0.2,0.2-0.3,0.2-0.6,0.2c-0.2,0-0.4-0.1-0.6-0.2c-0.2-0.2-0.2-0.4-0.2-0.6v-8.9    c0-0.2,0.1-0.4,0.2-0.6c0.2-0.2,0.4-0.2,0.6-0.2c0.2,0,0.4,0.1,0.6,0.2c0.2,0.2,0.2,0.4,0.2,0.6V113.2z"/>
		<path class="st6" d="M59.9,103.7h4.7c0.2,0,0.4,0.1,0.5,0.2c0.1,0.1,0.2,0.3,0.2,0.5c0,0.2-0.1,0.4-0.2,0.5    c-0.1,0.1-0.3,0.2-0.5,0.2h-4.7c-0.2,0-0.4-0.1-0.5-0.2c-0.2-0.1-0.2-0.3-0.2-0.5c0-0.2,0.1-0.4,0.2-0.5    C59.5,103.7,59.7,103.7,59.9,103.7z M62,100.9c0.2,0,0.4,0.1,0.6,0.2s0.2,0.4,0.2,0.6v9.7c0,0.3,0,0.6,0.1,0.7    c0.1,0.2,0.2,0.3,0.4,0.3c0.2,0.1,0.3,0.1,0.5,0.1c0.1,0,0.3,0,0.4-0.1c0.1,0,0.2-0.1,0.4-0.1c0.1,0,0.3,0.1,0.4,0.2    c0.1,0.1,0.2,0.3,0.2,0.5c0,0.2-0.1,0.4-0.4,0.6c-0.3,0.2-0.6,0.3-0.9,0.3c-0.2,0-0.4,0-0.7,0c-0.3,0-0.5-0.1-0.8-0.3    c-0.3-0.1-0.5-0.4-0.7-0.7s-0.3-0.8-0.3-1.4v-9.8c0-0.2,0.1-0.4,0.2-0.6S61.8,100.9,62,100.9z"/>
		<path class="st6" d="M74.7,103.6c0.2,0,0.4,0.1,0.6,0.2c0.1,0.2,0.2,0.4,0.2,0.6v5.5c0,1.4-0.4,2.4-1.1,3.2    c-0.8,0.7-1.8,1.1-3.2,1.1c-1.3,0-2.4-0.4-3.2-1.1c-0.8-0.7-1.1-1.8-1.1-3.2v-5.5c0-0.2,0.1-0.4,0.2-0.6c0.2-0.2,0.3-0.2,0.6-0.2    c0.2,0,0.4,0.1,0.6,0.2c0.1,0.2,0.2,0.4,0.2,0.6v5.5c0,0.9,0.2,1.6,0.7,2.1s1.1,0.7,2,0.7c0.9,0,1.5-0.2,2-0.7s0.7-1.2,0.7-2.1    v-5.5c0-0.2,0.1-0.4,0.2-0.6C74.2,103.7,74.4,103.6,74.7,103.6z"/>
		<path class="st6" d="M78.4,114c-0.2,0-0.4-0.1-0.6-0.2s-0.2-0.4-0.2-0.6v-8.8c0-0.2,0.1-0.4,0.2-0.6c0.2-0.2,0.3-0.2,0.6-0.2    c0.2,0,0.4,0.1,0.6,0.2c0.1,0.2,0.2,0.4,0.2,0.6v2.6l-0.2-0.4c0.1-0.4,0.2-0.8,0.4-1.2c0.2-0.4,0.5-0.8,0.8-1.1    c0.3-0.3,0.7-0.6,1.1-0.7c0.4-0.2,0.9-0.3,1.4-0.3c0.3,0,0.6,0.1,0.8,0.2c0.2,0.1,0.4,0.3,0.4,0.6c0,0.3-0.1,0.5-0.2,0.6    c-0.1,0.1-0.3,0.2-0.5,0.2c-0.2,0-0.3,0-0.5-0.1c-0.2-0.1-0.4-0.1-0.6-0.1c-0.3,0-0.7,0.1-1,0.3c-0.3,0.2-0.6,0.4-0.9,0.8    c-0.3,0.3-0.5,0.7-0.7,1.1c-0.2,0.4-0.3,0.9-0.3,1.4v4.9c0,0.2-0.1,0.4-0.2,0.6S78.7,114,78.4,114z"/>
		<path class="st6" d="M93.1,103.5c0.2,0,0.4,0.1,0.6,0.2c0.1,0.2,0.2,0.3,0.2,0.6v8.9c0,0.2-0.1,0.4-0.2,0.6s-0.3,0.2-0.6,0.2    c-0.2,0-0.4-0.1-0.6-0.2c-0.1-0.2-0.2-0.4-0.2-0.6v-1.9l0.4,0c0,0.3-0.1,0.6-0.3,1s-0.5,0.7-0.8,1c-0.3,0.3-0.8,0.6-1.2,0.7    c-0.5,0.2-1,0.3-1.5,0.3c-0.9,0-1.8-0.2-2.5-0.7c-0.7-0.5-1.3-1.1-1.7-1.9c-0.4-0.8-0.6-1.8-0.6-2.8c0-1.1,0.2-2,0.6-2.8    c0.4-0.8,1-1.4,1.7-1.9c0.7-0.5,1.5-0.7,2.4-0.7c0.6,0,1.1,0.1,1.6,0.3c0.5,0.2,0.9,0.4,1.3,0.8c0.4,0.3,0.7,0.7,0.9,1.1    c0.2,0.4,0.3,0.8,0.3,1.2l-0.5-0.1v-2.2c0-0.2,0.1-0.4,0.2-0.6C92.6,103.6,92.8,103.5,93.1,103.5z M88.9,112.7    c0.7,0,1.3-0.2,1.8-0.5c0.5-0.3,0.9-0.8,1.2-1.4c0.3-0.6,0.4-1.3,0.4-2c0-0.7-0.1-1.4-0.4-2c-0.3-0.6-0.7-1.1-1.2-1.4    c-0.5-0.3-1.1-0.5-1.8-0.5c-0.7,0-1.2,0.2-1.8,0.5c-0.5,0.3-0.9,0.8-1.2,1.4c-0.3,0.6-0.4,1.3-0.4,2c0,0.8,0.1,1.4,0.4,2    c0.3,0.6,0.7,1.1,1.2,1.4C87.7,112.5,88.3,112.7,88.9,112.7z"/>
		<path class="st6" d="M100.4,103.3c0.6,0,1.1,0.1,1.6,0.3c0.5,0.2,0.9,0.4,1.3,0.8c0.4,0.3,0.7,0.6,0.9,1c0.2,0.3,0.3,0.7,0.3,0.9    l-0.4-0.2v-1.8c0-0.2,0.1-0.4,0.2-0.6s0.3-0.2,0.6-0.2c0.2,0,0.4,0.1,0.6,0.2s0.2,0.3,0.2,0.6v8.8c0,1.1-0.2,2-0.7,2.7    c-0.5,0.7-1.1,1.3-1.9,1.6c-0.8,0.4-1.6,0.5-2.6,0.5c-0.4,0-0.8,0-1.3-0.2c-0.5-0.1-0.9-0.2-1.3-0.4c-0.4-0.2-0.6-0.3-0.7-0.5    c-0.2-0.1-0.3-0.3-0.4-0.5c-0.1-0.2,0-0.3,0.1-0.5c0.1-0.2,0.3-0.3,0.5-0.3c0.2,0,0.4,0.1,0.7,0.2c0.1,0,0.3,0.1,0.6,0.2    c0.3,0.1,0.6,0.2,0.9,0.3c0.3,0.1,0.7,0.1,1,0.1c1.1,0,2-0.3,2.6-0.9c0.6-0.6,0.9-1.4,0.9-2.4v-1.9l0.2,0.1    c-0.1,0.4-0.2,0.7-0.5,1c-0.2,0.3-0.5,0.6-0.9,0.9c-0.3,0.2-0.7,0.4-1.2,0.6c-0.4,0.1-0.9,0.2-1.3,0.2c-0.9,0-1.8-0.2-2.5-0.7    c-0.8-0.5-1.3-1.1-1.8-1.9c-0.4-0.8-0.7-1.8-0.7-2.8c0-1.1,0.2-2,0.7-2.8c0.4-0.8,1-1.5,1.8-1.9    C98.7,103.6,99.5,103.3,100.4,103.3z M100.6,104.8c-0.7,0-1.3,0.2-1.9,0.5c-0.5,0.3-1,0.8-1.3,1.4c-0.3,0.6-0.5,1.3-0.5,2    c0,0.7,0.2,1.4,0.5,2c0.3,0.6,0.7,1.1,1.3,1.4c0.5,0.3,1.2,0.5,1.9,0.5c0.7,0,1.3-0.2,1.8-0.5s1-0.8,1.3-1.4    c0.3-0.6,0.5-1.3,0.5-2c0-0.8-0.2-1.4-0.5-2c-0.3-0.6-0.7-1.1-1.3-1.4C101.9,105,101.3,104.8,100.6,104.8z"/>
		<path class="st6" d="M112.7,114.2c-1.1,0-2-0.2-2.8-0.7c-0.8-0.5-1.4-1.1-1.9-1.9c-0.5-0.8-0.7-1.7-0.7-2.8c0-1.2,0.2-2.2,0.7-3    c0.5-0.8,1.1-1.5,1.8-1.9c0.7-0.4,1.5-0.7,2.4-0.7c0.6,0,1.2,0.1,1.8,0.3c0.6,0.2,1.1,0.6,1.5,1c0.5,0.4,0.8,1,1.1,1.6    c0.3,0.6,0.4,1.3,0.4,2.1c0,0.2-0.1,0.4-0.3,0.5c-0.2,0.1-0.3,0.2-0.6,0.2h-8l-0.4-1.4h7.7l-0.3,0.3v-0.4c-0.1-0.6-0.2-1-0.6-1.4    c-0.3-0.4-0.7-0.7-1.1-0.9c-0.5-0.2-0.9-0.3-1.4-0.3c-0.4,0-0.8,0.1-1.2,0.2c-0.4,0.1-0.8,0.4-1.1,0.7c-0.3,0.3-0.6,0.7-0.8,1.2    c-0.2,0.5-0.3,1.1-0.3,1.8c0,0.8,0.2,1.5,0.5,2.1c0.3,0.6,0.8,1.1,1.3,1.4c0.6,0.3,1.2,0.5,2,0.5c0.5,0,0.9-0.1,1.2-0.2    c0.3-0.1,0.6-0.3,0.9-0.5c0.3-0.2,0.5-0.4,0.6-0.6c0.2-0.1,0.3-0.2,0.5-0.2c0.2,0,0.4,0.1,0.5,0.2c0.1,0.1,0.2,0.3,0.2,0.5    c0,0.2-0.1,0.4-0.3,0.6c-0.4,0.4-0.9,0.8-1.5,1.1C114.1,114,113.4,114.2,112.7,114.2z"/>
	</g>
	<g id="XMLID_133_">
		<g id="XMLID_142_">
			<g>
				<path class="st6" d="M175.8,115.4c-0.9,0-1.4-0.1-1.5-0.1l-40.1,0l0.3-0.8c0-0.1,2.3-7.8,6.4-20.2c4.2-12.8,20.1-13.2,20.3-13.2      h18.9c6.2,0,11.5,2.3,14.1,6.2c2.5,3.7,2.6,8.6,0.3,14.6C189.6,114.1,179.8,115.4,175.8,115.4      C175.8,115.4,175.8,115.4,175.8,115.4z"/>
			</g>
			<g>
				<path class="st1" d="M180.1,81.8c8.7,0,19.6,5.1,13.8,19.9c-4.7,11.9-14.4,13.1-18,13.1c-0.9,0-1.4-0.1-1.4-0.1h-39.3      c0,0,2.3-7.6,6.4-20.1c4.1-12.5,19.6-12.8,19.6-12.8H180.1 M180.1,80.5h-18.9c-0.2,0-4.2,0.1-8.7,1.8      c-6.1,2.3-10.3,6.4-12.1,11.9c-4,12.4-6.4,20.1-6.4,20.2l-0.5,1.7h1.8h39.2c0.2,0,0.7,0.1,1.5,0.1c4.1,0,14.2-1.4,19.2-13.9      c2.4-6.2,2.3-11.3-0.3-15.2C192,82.9,186.5,80.5,180.1,80.5L180.1,80.5z"/>
			</g>
		</g>
		<g id="XMLID_134_">
			<path id="XMLID_139_" class="st0" d="M175.2,100.6c-1.5-0.5-3.7-0.7-6-2.3c-4.9-3.5-9.1-3.7-10.7-3.7c-10,0-12.3,7.2-12.3,9.8     c0,2.6,2,4.1,2,4.1s1.2,2.1,3.2,2.1c2,0,2.7-2,2.7-2h17.6c0,0,1.2,1.9,3.1,1.9c2.1,0,2.8-2.1,2.8-2.1c0.2,0,1.9-1,1.9-3.3     C179.5,102.2,176.7,101.1,175.2,100.6z M154.7,100.7c-0.8,0-2.8-0.4-2.8-1.7c0-1.3,2.4-3,6.3-3c1.3,0,6.2,0,9.8,4.6     C166,100.7,155.5,100.7,154.7,100.7z"/>
			<path id="XMLID_137_" class="st0" d="M172.4,97.7v-2.4l4.2-4.5c0.4-0.5,0.6-0.7,0.6-1.2c0-0.6-0.4-1.1-1-1.1     c-0.5,0-1.1,0.2-1.1,1.1h-2.7c0-2.3,1.7-3.5,3.7-3.5c2.1,0,3.7,1.3,3.7,3.5c0,1.2-0.5,1.9-1.4,2.8l-2.8,2.9h4.2v2.4H172.4z"/>
			<path id="XMLID_135_" class="st0" d="M185.4,93.4V96h-2v-2.6h-2.6v-2h2.6v-2.6h2v2.6h2.6v2H185.4z"/>
		</g>
	</g>
</g>
</svg>