<?xml version="1.0" encoding="UTF-8"?>
<!-- Generator: Adobe Illustrator 24.0.3, SVG Export Plug-In . SVG Version: 6.00 Build 0)  -->
<svg version="1.1" id="Calque_1" xmlns="http://www.w3.org/2000/svg" xmlns:xlink="http://www.w3.org/1999/xlink" x="0px" y="0px" width="200px" height="84px" viewBox="0 0 200 84" style="enable-background:new 0 0 200 84;" xml:space="preserve">
<style type="text/css">
	.st0{fill:#3C3C3B;}
	.st1{fill:#FFFFFF;}
	.st2{fill-rule:evenodd;clip-rule:evenodd;fill:#FFFFFF;}
	.st3{fill-rule:evenodd;clip-rule:evenodd;fill:#009EE3;}
	.st4{fill-rule:evenodd;clip-rule:evenodd;fill:#95B421;}
	.st5{fill:#95B421;}
	.st6{fill:#009EE3;}
	.st7{display:none;fill:#FFFFFF;}
</style>
<g>
	<g>
		<path class="st0" d="M27.7,81.1v0.5h-3.3V76H25v5.1H27.7z"/>
		<path class="st0" d="M32.1,80.2c-0.1,0.9-0.8,1.4-1.9,1.4c-1.1,0-1.8-0.5-1.8-1.5v-1.4c0-1,0.7-1.5,1.8-1.5c1.1,0,1.8,0.5,1.8,1.5    v0.9h-3v0.5c0,0.7,0.4,1,1.2,1c0.8,0,1.2-0.3,1.3-0.9H32.1z M29,78.7v0.5h2.4v-0.5c0-0.7-0.5-1-1.2-1C29.4,77.7,29,78,29,78.7z"/>
		<path class="st0" d="M35.5,79.9v-2.4c0-1.1,0.8-1.7,2-1.7c1.2,0,2,0.6,2,1.6h-0.6c-0.1-0.8-0.6-1.2-1.4-1.2    c-0.8,0-1.3,0.4-1.3,1.2v2.4c0,0.8,0.6,1.2,1.4,1.2c0.8,0,1.3-0.4,1.4-1.2h0.6c-0.1,1-0.9,1.6-2.1,1.6    C36.4,81.6,35.5,81,35.5,79.9z"/>
		<path class="st0" d="M40.5,80.1v-1.3c0-1,0.7-1.5,1.8-1.5s1.8,0.5,1.8,1.5v1.3c0,1-0.7,1.5-1.8,1.5S40.5,81.1,40.5,80.1z     M43.6,80.1v-1.3c0-0.7-0.5-1-1.2-1c-0.7,0-1.2,0.3-1.2,1v1.3c0,0.7,0.5,1,1.2,1C43.1,81.2,43.6,80.8,43.6,80.1z"/>
		<path class="st0" d="M48.4,77.4l-1.6,4.2h-0.7l-1.6-4.2h0.7l0.9,2.4c0.1,0.3,0.3,0.9,0.4,1.1h0c0.1-0.2,0.2-0.8,0.4-1.1l0.9-2.4    H48.4z"/>
		<path class="st0" d="M49.1,80.1v-1.3c0-1,0.7-1.5,1.8-1.5s1.8,0.5,1.8,1.5v1.3c0,1-0.7,1.5-1.8,1.5S49.1,81.1,49.1,80.1z     M52.1,80.1v-1.3c0-0.7-0.5-1-1.2-1c-0.7,0-1.2,0.3-1.2,1v1.3c0,0.7,0.5,1,1.2,1C51.7,81.2,52.1,80.8,52.1,80.1z"/>
		<path class="st0" d="M53.8,76.2c0-0.2,0.2-0.4,0.5-0.4c0.3,0,0.5,0.2,0.5,0.4c0,0.2-0.2,0.4-0.5,0.4C54,76.6,53.8,76.4,53.8,76.2z     M54,77.4h0.6v4.2H54V77.4z"/>
		<path class="st0" d="M58.2,81.1v0.4h-0.3c-1,0-1.6-0.5-1.6-1.3v-2.5h-0.8v-0.4h0.8v-1H57v1h1.1v0.4H57v2.5c0,0.5,0.3,0.8,0.9,0.8    H58.2z"/>
		<path class="st0" d="M62.6,77.4v4.2h-0.5L62,81c-0.3,0.4-0.8,0.6-1.4,0.6c-0.9,0-1.5-0.5-1.5-1.6v-2.7h0.6v2.6    c0,0.8,0.3,1.2,1,1.2c0.8,0,1.3-0.5,1.3-1.3v-2.5H62.6z"/>
		<path class="st0" d="M66.6,77.3v0.5c-0.2-0.1-0.4-0.1-0.7-0.1c-0.8,0-1.3,0.5-1.3,1.3v2.5H64v-4.2h0.5l0.1,0.5v0    c0.3-0.4,0.8-0.6,1.4-0.6C66.3,77.3,66.5,77.3,66.6,77.3z"/>
		<path class="st0" d="M70.7,78.6v2.9h-0.5l-0.1-0.4c-0.3,0.3-0.7,0.5-1.3,0.5c-1,0-1.7-0.5-1.7-1.3c0-0.8,0.7-1.2,1.9-1.2h1.1v-0.4    c0-0.6-0.4-0.9-1.1-0.9c-0.6,0-1.1,0.3-1.1,0.7h-0.6c0-0.7,0.7-1.2,1.7-1.2C70.1,77.3,70.7,77.8,70.7,78.6z M70.1,80.3v-0.8H69    c-0.8,0-1.2,0.3-1.2,0.8c0,0.5,0.5,0.8,1.2,0.8C69.7,81.2,70.1,80.8,70.1,80.3z"/>
		<path class="st0" d="M75.6,77.4v4.4c0,0.7-0.7,1.2-1.8,1.2c-1,0-1.7-0.5-1.8-1.2h0.6c0.1,0.5,0.5,0.8,1.2,0.8    c0.7,0,1.1-0.3,1.1-0.8V81c-0.3,0.3-0.7,0.4-1.2,0.4c-1.1,0-1.8-0.5-1.8-1.5v-1.1c0-1,0.7-1.6,1.8-1.6c0.5,0,1,0.2,1.3,0.5    l0.1-0.4H75.6z M75,79.9v-1.1c0-0.7-0.5-1.1-1.1-1.1c-0.8,0-1.3,0.3-1.3,1.1v1.1c0,0.7,0.5,1,1.3,1C74.5,80.9,75,80.6,75,79.9z"/>
		<path class="st0" d="M80.5,80.2c-0.1,0.9-0.8,1.4-1.9,1.4c-1.1,0-1.8-0.5-1.8-1.5v-1.4c0-1,0.7-1.5,1.8-1.5c1.1,0,1.8,0.5,1.8,1.5    v0.9h-3v0.5c0,0.7,0.4,1,1.2,1c0.8,0,1.2-0.3,1.3-0.9H80.5z M77.5,78.7v0.5h2.4v-0.5c0-0.7-0.5-1-1.2-1    C77.9,77.7,77.5,78,77.5,78.7z"/>
		<path class="st0" d="M87.6,81.1v0.5h-3.3V76h0.7v5.1H87.6z"/>
		<path class="st0" d="M88,76.2c0-0.2,0.2-0.4,0.5-0.4c0.3,0,0.5,0.2,0.5,0.4c0,0.2-0.2,0.4-0.5,0.4C88.2,76.6,88,76.4,88,76.2z     M88.2,77.4h0.6v4.2h-0.6V77.4z"/>
		<path class="st0" d="M93.8,78.8V80c0,1.1-0.7,1.6-1.7,1.6c-0.5,0-1-0.2-1.3-0.5l-0.1,0.4h-0.5v-5.7h0.6v2c0.3-0.3,0.8-0.5,1.3-0.5    C93.2,77.3,93.8,77.8,93.8,78.8z M93.2,78.8c0-0.8-0.4-1.1-1.2-1.1c-0.7,0-1.1,0.5-1.1,1.1V80c0,0.8,0.5,1.1,1.1,1.1    c0.8,0,1.2-0.3,1.2-1.2V78.8z"/>
		<path class="st0" d="M97.7,77.3v0.5c-0.2-0.1-0.4-0.1-0.7-0.1c-0.8,0-1.3,0.5-1.3,1.3v2.5h-0.6v-4.2h0.5l0.1,0.5v0    c0.3-0.4,0.8-0.6,1.4-0.6C97.4,77.3,97.5,77.3,97.7,77.3z"/>
		<path class="st0" d="M102,80.2c-0.1,0.9-0.8,1.4-1.9,1.4c-1.1,0-1.8-0.5-1.8-1.5v-1.4c0-1,0.7-1.5,1.8-1.5c1.1,0,1.8,0.5,1.8,1.5    v0.9h-3v0.5c0,0.7,0.4,1,1.2,1c0.8,0,1.2-0.3,1.3-0.9H102z M99,78.7v0.5h2.4v-0.5c0-0.7-0.5-1-1.2-1C99.4,77.7,99,78,99,78.7z"/>
		<path class="st0" d="M109.2,80.2c-0.1,0.9-0.8,1.4-1.9,1.4c-1.1,0-1.8-0.5-1.8-1.5v-1.4c0-1,0.7-1.5,1.8-1.5    c1.1,0,1.8,0.5,1.8,1.5v0.9h-3v0.5c0,0.7,0.4,1,1.2,1c0.8,0,1.2-0.3,1.3-0.9H109.2z M106.1,78.7v0.5h2.4v-0.5c0-0.7-0.5-1-1.2-1    C106.6,77.7,106.1,78,106.1,78.7z"/>
		<path class="st0" d="M113.9,78.9v2.7h-0.6v-2.6c0-0.8-0.3-1.2-1-1.2c-0.8,0-1.3,0.5-1.3,1.3v2.5h-0.6v-4.2h0.5l0.1,0.5    c0.3-0.4,0.8-0.6,1.4-0.6C113.3,77.3,113.9,77.7,113.9,78.9z"/>
		<path class="st0" d="M117.5,79.9v-2.4c0-1.1,0.8-1.7,2-1.7c1.2,0,2,0.6,2,1.6h-0.6c-0.1-0.8-0.6-1.2-1.4-1.2    c-0.8,0-1.3,0.4-1.3,1.2v2.4c0,0.8,0.6,1.2,1.4,1.2c0.8,0,1.3-0.4,1.4-1.2h0.6c-0.1,1-0.9,1.6-2.1,1.6    C118.4,81.6,117.5,81,117.5,79.9z"/>
		<path class="st0" d="M126.1,79.6v0.5c0,0.7,0.4,1,1.1,1c0.7,0,1.2-0.3,1.2-1h0.6c0,0.9-0.7,1.4-1.8,1.4c-0.6,0-1.2-0.2-1.5-0.7    c-0.3,0.5-0.8,0.7-1.5,0.7c-1.1,0-1.8-0.5-1.8-1.5v-1.3c0-1,0.7-1.5,1.8-1.5c0.7,0,1.2,0.2,1.5,0.7c0.3-0.4,0.8-0.7,1.5-0.7    c1.1,0,1.8,0.5,1.8,1.5v0.8H126.1z M125.5,78.8c0-0.7-0.4-1-1.2-1c-0.7,0-1.2,0.3-1.2,1v1.3c0,0.7,0.4,1,1.2,1    c0.7,0,1.2-0.3,1.2-1V78.8z M126.1,79.2h2.3v-0.4c0-0.7-0.4-1-1.2-1c-0.7,0-1.1,0.3-1.1,1V79.2z"/>
		<path class="st0" d="M133.7,77.4v4.2h-0.5L133,81c-0.3,0.4-0.8,0.6-1.4,0.6c-0.9,0-1.5-0.5-1.5-1.6v-2.7h0.6v2.6    c0,0.8,0.3,1.2,1,1.2c0.8,0,1.3-0.5,1.3-1.3v-2.5H133.7z"/>
		<path class="st0" d="M137.7,77.3v0.5c-0.2-0.1-0.4-0.1-0.7-0.1c-0.8,0-1.3,0.5-1.3,1.3v2.5H135v-4.2h0.5l0.1,0.5v0    c0.3-0.4,0.8-0.6,1.4-0.6C137.3,77.3,137.5,77.3,137.7,77.3z"/>
		<path class="st0" d="M144.4,75.8v5.7h-0.5l-0.1-0.4c-0.3,0.3-0.8,0.5-1.3,0.5c-1,0-1.7-0.5-1.7-1.6v-1.2c0-1,0.7-1.6,1.7-1.6    c0.5,0,1,0.2,1.3,0.5v-2H144.4z M143.8,80v-1.2c0-0.7-0.5-1.1-1.1-1.1c-0.8,0-1.2,0.3-1.2,1.1V80c0,0.8,0.5,1.2,1.2,1.2    C143.3,81.2,143.8,80.8,143.8,80z"/>
		<path class="st0" d="M146.2,75.9l-0.5,1.6h-0.4l0.2-1.6H146.2z"/>
		<path class="st0" d="M151.1,76v5.6h-0.7v-2.6h-2.6v2.6h-0.7V76h0.7v2.5h2.6V76H151.1z"/>
		<path class="st0" d="M156.2,80.2c-0.1,0.9-0.8,1.4-1.9,1.4c-1.1,0-1.8-0.5-1.8-1.5v-1.4c0-1,0.7-1.5,1.8-1.5    c1.1,0,1.8,0.5,1.8,1.5v0.9h-3v0.5c0,0.7,0.4,1,1.2,1c0.8,0,1.2-0.3,1.3-0.9H156.2z M153.1,78.7v0.5h2.4v-0.5c0-0.7-0.5-1-1.2-1    C153.6,77.7,153.1,78,153.1,78.7z M154.3,76.7h-0.6l0.8-0.9h0.7L154.3,76.7z"/>
		<path class="st0" d="M160,77.3v0.5c-0.2-0.1-0.4-0.1-0.7-0.1c-0.8,0-1.3,0.5-1.3,1.3v2.5h-0.6v-4.2h0.5l0.1,0.5v0    c0.3-0.4,0.8-0.6,1.4-0.6C159.6,77.3,159.8,77.3,160,77.3z"/>
		<path class="st0" d="M164.1,78.6v2.9h-0.5l-0.1-0.4c-0.3,0.3-0.7,0.5-1.3,0.5c-1,0-1.7-0.5-1.7-1.3c0-0.8,0.7-1.2,1.9-1.2h1.1    v-0.4c0-0.6-0.4-0.9-1.1-0.9c-0.6,0-1.1,0.3-1.1,0.7h-0.6c0-0.7,0.7-1.2,1.7-1.2C163.4,77.3,164.1,77.8,164.1,78.6z M163.5,80.3    v-0.8h-1.1c-0.8,0-1.2,0.3-1.2,0.8c0,0.5,0.5,0.8,1.2,0.8C163,81.2,163.5,80.8,163.5,80.3z"/>
		<path class="st0" d="M168.9,77.4v4.2h-0.5l-0.1-0.5c-0.3,0.4-0.8,0.6-1.4,0.6c-0.9,0-1.5-0.5-1.5-1.6v-2.7h0.6v2.6    c0,0.8,0.3,1.2,1,1.2c0.8,0,1.3-0.5,1.3-1.3v-2.5H168.9z"/>
		<path class="st0" d="M170.4,75.8h0.6v5.7h-0.6V75.8z"/>
		<path class="st0" d="M174.6,81.1v0.4h-0.3c-1,0-1.6-0.5-1.6-1.3v-2.5h-0.8v-0.4h0.8v-1h0.6v1h1.1v0.4h-1.1v2.5    c0,0.5,0.3,0.8,0.9,0.8H174.6z"/>
	</g>
	<g>
		<path class="st0" d="M94.8,22.4c0,2.3-1.6,4.2-3.7,4.2c-2,0-3.7-1.9-3.7-4.2c0-2.3,1.6-4.2,3.7-4.2C93.2,18.2,94.8,20.1,94.8,22.4    z"/>
		<path class="st1" d="M93.3,22.4c0,1.3-0.9,2.3-2,2.3c-1.1,0-2-1-2-2.3c0-1.3,0.9-2.3,2-2.3C92.4,20.1,93.3,21.1,93.3,22.4z"/>
	</g>
	<path class="st2" d="M94.6,14.6c0,3.4-1.5,6.2-3.3,6.2s-3.3-2.8-3.3-6.2c0-3.4,1.5-6.2,3.3-6.2S94.6,11.2,94.6,14.6z"/>
	<g>
		<g>
			<path class="st3" d="M59.7,11.5c4-0.3,8-0.6,12-0.9c0.8-0.1,1.3-0.4,1.6-1.1c0.5-1.3-0.4-2.6-1.9-2.5C66.7,7.4,62,7.7,57.3,8.1     c-3.3,0.3-6.6,0.5-10,0.7c-0.6,0-1.1,0.3-1.4,0.8c-0.4,0.6-0.4,1.3-0.1,1.9c0.4,0.6,0.9,0.9,1.7,0.9     C51.6,12.1,55.6,11.8,59.7,11.5z"/>
			<path class="st3" d="M68.2,24.8c2.7-0.2,5.4-0.4,8.1-0.6c0.4,0,0.8-0.1,1.2-0.4c0.7-0.5,0.9-1.3,0.6-2.1c-0.3-0.8-1-1.3-1.9-1.2     c-5.5,0.4-11,0.8-16.5,1.2c-1.2,0.1-1.9,0.9-1.9,1.9c0.1,1.1,0.9,1.8,2.1,1.7C62.7,25.2,65.5,25,68.2,24.8z"/>
			<path class="st3" d="M71.7,14c-2.5,0.2-5,0.4-7.5,0.6c-1.1,0.1-1.8,0.9-1.8,1.9c0.1,1,0.9,1.8,2.1,1.7c5.1-0.4,10.1-0.8,15.2-1.1     c0.7-0.1,1.2-0.4,1.5-1c0.6-1.3-0.3-2.7-1.8-2.6C76.8,13.6,74.2,13.8,71.7,14z"/>
			<path class="st3" d="M55.1,18.7C55.1,18.7,55.1,18.7,55.1,18.7c0.9-0.1,1.8-0.1,2.8-0.2c1.1-0.1,1.8-0.9,1.7-2     c-0.1-1-0.9-1.7-2-1.7c-1.8,0.1-3.6,0.3-5.5,0.4c-1.1,0.1-1.9,0.9-1.8,2c0.1,1,1,1.7,2,1.6C53.3,18.8,54.2,18.8,55.1,18.7z"/>
			<path class="st3" d="M80.2,6.4c-0.7,0.1-1.4,0.1-2.1,0.2c-1.1,0.1-1.8,0.9-1.7,1.9c0.1,1,0.9,1.7,2,1.7c1.4-0.1,2.9-0.2,4.3-0.3     c1-0.1,1.7-0.9,1.7-1.9c-0.1-1-0.9-1.7-1.9-1.7C81.6,6.2,80.9,6.3,80.2,6.4z"/>
		</g>
	</g>
	<path class="st4" d="M92.2,23.3c-0.2-0.2-0.4-0.4-0.6-0.5c-0.1-0.1-0.1-0.2-0.2-0.2c-0.2-0.2-0.4-0.4-0.6-0.6   c-0.1-0.1-0.1-0.1-0.2-0.2c-0.2-0.2-0.3-0.4-0.5-0.6c-0.1-0.1-0.1-0.1-0.2-0.2c-0.1-0.2-0.3-0.4-0.4-0.6c0-0.1-0.1-0.2-0.1-0.2   c-0.1-0.2-0.3-0.4-0.4-0.6c0-0.1-0.1-0.1-0.1-0.2c-0.1-0.2-0.2-0.4-0.3-0.5c0-0.1-0.1-0.2-0.2-0.3c-0.1-0.1-0.1-0.3-0.2-0.4   c0-0.1-0.1-0.2-0.1-0.3c-0.1-0.2-0.1-0.4-0.2-0.6c0-0.1-0.1-0.2-0.1-0.3c0-0.2-0.1-0.4-0.1-0.5c0-0.1,0-0.2-0.1-0.3   c0-0.2-0.1-0.4-0.1-0.6c0-0.1,0-0.1,0-0.2c0-0.2,0-0.5-0.1-0.7c0-0.1,0-0.1,0-0.2c0-0.3,0-0.5,0-0.8c0,0,0-0.1,0-0.1   c0-0.2,0-0.5,0.1-0.7c0-0.1,0-0.1,0-0.2c0-0.2,0.1-0.5,0.1-0.7c0-0.1,0-0.1,0-0.2c0.1-0.2,0.1-0.5,0.2-0.7c0.1-0.1,0.1-0.2,0.1-0.2   c0.5-1.4,1.2-2.7,2.2-3.9c0.6-0.7,1.3-1.4,2-2c0.1-0.1,0.3-0.2,0.4-0.3c0.5-0.3,0.9-0.6,1.4-0.9c0.2-0.1,0.4-0.2,0.5-0.3   c0.8-0.4,1.6-0.8,2.4-1.1c0.5-0.2,1-0.3,1.5-0.5c1.3-0.4,2.7-0.6,4-0.8c0.5,0,1-0.1,1.5-0.1c0.9,0,1.8,0.1,2.8,0.1   c0.2,0,0.5,0.1,0.7,0.1c0.6,0.1,1.1,0.2,1.7,0.3c0.2,0,0.3,0.1,0.5,0.1c0.5,0.1,0.9,0.3,1.4,0.4c0.1,0.1,0.3,0.1,0.4,0.2   c0.4,0.1,0.7,0.3,1.1,0.4c0.1,0.1,0.3,0.1,0.4,0.2c0.3,0.2,0.6,0.3,0.9,0.5c0.1,0.1,0.2,0.1,0.3,0.2c0.3,0.2,0.5,0.3,0.8,0.5   c0.1,0.1,0.2,0.1,0.3,0.2c0.2,0.2,0.5,0.3,0.7,0.5c0.1,0,0.1,0.1,0.2,0.1c0.2,0.2,0.4,0.4,0.7,0.6c0.1,0.1,0.1,0.1,0.2,0.2   c0.2,0.2,0.4,0.4,0.5,0.5c0,0.1,0.1,0.1,0.2,0.2c0.2,0.2,0.3,0.4,0.5,0.6c0,0.1,0.1,0.1,0.1,0.2c0.1,0.2,0.3,0.4,0.4,0.6   c0,0.1,0.1,0.2,0.1,0.2c0.1,0.2,0.2,0.4,0.4,0.6c0,0.1,0,0.1,0.1,0.1c0.1,0.2,0.2,0.5,0.3,0.7c0,0.1,0,0.1,0.1,0.2   c0.1,0.2,0.1,0.4,0.2,0.5c0,0.1,0.1,0.2,0.1,0.3c0.1,0.2,0.1,0.4,0.2,0.6c0,0.1,0,0.2,0.1,0.3c0,0.2,0.1,0.4,0.1,0.6   c0,0,0,0.1,0,0.1c0,0.2,0.1,0.4,0.1,0.7c0,0.1,0,0.1,0,0.2c0,0.2,0,0.5,0,0.7c0,0.1,0,0.2,0,0.3c0,0.2,0,0.4,0,0.6   c0,0.1,0,0.1,0,0.2c0,0.2-0.1,0.5-0.1,0.7c0,0.1,0,0.1,0,0.2c-0.1,0.2-0.1,0.5-0.2,0.7c0,0.1,0,0.2-0.1,0.3   c-0.1,0.2-0.1,0.4-0.2,0.7c-0.1,0.1-0.1,0.2-0.1,0.2c-0.5,1.1-1,2.2-1.8,3.2c-0.5,0.6-1,1.1-1.5,1.7c-0.1,0.1-0.2,0.2-0.3,0.3   c-0.4,0.3-0.7,0.6-1.1,0.8c-0.2,0.1-0.3,0.2-0.5,0.3c-0.5,0.3-1.1,0.6-1.6,0.9c-0.2,0.1-0.5,0.2-0.7,0.3c-1.7,0.8-3.5,1.3-5.3,1.6   c-1.4,0.2-2.8,0.3-4.2,0.3c-0.1,0-0.2,0-0.3,0c-0.3,0-0.6,0-0.8-0.1c-0.7-0.1-1.3-0.2-2-0.3c-0.2-0.1-0.4-0.1-0.7-0.1   c-0.4-0.1-0.9-0.2-1.3-0.4c-0.2-0.1-0.3-0.1-0.5-0.2c-0.4-0.1-0.8-0.3-1.1-0.4c-0.1-0.1-0.3-0.1-0.4-0.2c-0.3-0.2-0.6-0.3-1-0.5   c-0.1-0.1-0.2-0.1-0.3-0.2c-0.3-0.2-0.6-0.3-0.9-0.5c-0.1-0.1-0.2-0.1-0.3-0.2c-0.3-0.2-0.5-0.3-0.8-0.5   C92.4,23.4,92.3,23.4,92.2,23.3z M111.1,6.7c0.5,0.1,1.1,0.3,1.6,0.4c0.9,0.3,1.8,0.6,2.7,1c-0.5-0.5-0.9-1-1.5-1.4   c-0.2-0.2-0.4-0.4-0.6-0.5c-0.1-0.1-0.2-0.2-0.3-0.2c-0.2-0.2-0.5-0.4-0.8-0.5c-0.1-0.1-0.2-0.1-0.3-0.2c-0.3-0.2-0.6-0.4-0.9-0.5   c-0.1-0.1-0.2-0.2-0.3-0.2c-0.4-0.2-0.7-0.3-1.1-0.4c-0.1-0.1-0.3-0.1-0.5-0.2c-0.5-0.2-1-0.3-1.5-0.4c-0.2-0.1-0.4-0.1-0.7-0.1   c-0.2,0-0.3-0.1-0.5-0.1c-1.7-0.2-3.5,0-5.2,0.4c-1.3,0.3-2.6,0.8-3.7,1.5c-0.2,0.1-0.3,0.2-0.5,0.4c-0.3,0.2-0.5,0.4-0.7,0.8   c-0.1,0.1-0.1,0.2-0.1,0.4c-0.1,0.2-0.1,0.4,0,0.6c0,0.1,0,0.2,0.1,0.3c0.1,0.3,0.3,0.5,0.5,0.6c0.1,0.1,0.2,0.1,0.3,0.2   c1,0.6,1.9,0.5,2.9,0c0.5-0.2,0.9-0.6,1.4-0.8c0.3-0.1,0.6-0.3,1-0.4c0.3-0.1,0.5-0.2,0.8-0.2c1.2-0.3,2.4-0.5,3.6-0.6   c0.4,0,0.9,0,1.3,0c0.8,0,1.6,0.1,2.4,0.2C110.7,6.6,110.9,6.7,111.1,6.7z M92.9,19.1C93,19,93,18.9,93,18.8   c0.1-0.2,0.2-0.5,0.3-0.7c0.1-0.1,0.1-0.2,0.1-0.2c0.1-0.2,0.1-0.5,0.2-0.7c0-0.1,0.1-0.1,0-0.2c0.1-0.3,0.1-0.5,0.1-0.8   c0,0,0-0.1,0-0.1c0-0.2,0.1-0.5,0-0.7c0-0.1,0-0.2,0-0.3c0-0.2,0-0.4,0-0.6c0-0.1,0-0.1,0-0.2c0-0.2,0-0.4-0.1-0.6   c0-0.1,0-0.2,0-0.3c0-0.2-0.1-0.5-0.1-0.7c0-0.1,0-0.2-0.1-0.3c0-0.2-0.1-0.4-0.1-0.5c0-0.1,0-0.1-0.1-0.2c0-0.2-0.1-0.4-0.2-0.6   c0-0.1,0-0.2-0.1-0.2c-0.1-0.2-0.2-0.5-0.4-0.7c0-0.1-0.1-0.2-0.1-0.2c-0.1-0.2-0.3-0.4-0.5-0.6c-0.2-0.1-0.3-0.3-0.5-0.3   c-0.6-0.2-1.2,0-1.7,0.7c-0.2,0.2-0.3,0.5-0.4,0.7c-0.1,0.1-0.1,0.2-0.1,0.3c-0.1,0.2-0.2,0.4-0.2,0.7c-0.1,0.1-0.1,0.2-0.1,0.3   c-0.1,0.2-0.1,0.5-0.2,0.8c0,0.1-0.1,0.1,0,0.2c-0.1,0.2-0.1,0.5-0.1,0.8c0,0.1,0,0.2,0,0.3c0,0.2,0,0.4,0,0.6c0,0.1,0,0.2,0,0.3   c0,0.2,0,0.4,0,0.5c0,0.1,0,0.2,0,0.3c0,0.2,0,0.4,0.1,0.6c0,0.1,0,0.1,0,0.2c0,0.3,0.1,0.5,0.2,0.7c0,0.1,0,0.1,0,0.2   c0,0.2,0.1,0.4,0.2,0.6c0,0.1,0,0.1,0.1,0.2c0.1,0.2,0.2,0.4,0.3,0.6c0,0.1,0.1,0.2,0.1,0.2c0.1,0.2,0.3,0.4,0.5,0.6   c0,0.1,0.1,0.1,0.2,0.2c0.1,0.1,0.2,0.2,0.3,0.2c0.6,0.4,1.2,0.4,1.7,0C92.6,19.6,92.8,19.4,92.9,19.1z"/>
	<g>
		<path class="st0" d="M102.2,25.2c0,2.3-1.6,4.2-3.7,4.2c-2,0-3.7-1.9-3.7-4.2c0-2.3,1.6-4.2,3.7-4.2    C100.5,21,102.2,22.9,102.2,25.2z"/>
		<path class="st1" d="M100.7,25.2c0,1.3-0.9,2.3-2,2.3c-1.1,0-2-1-2-2.3c0-1.3,0.9-2.3,2-2.3C99.8,22.9,100.7,23.9,100.7,25.2z"/>
	</g>
	<g>
		<path class="st0" d="M116.9,24.1c0,1.9-1.4,3.5-3,3.5c-1.7,0-3-1.6-3-3.5s1.4-3.5,3-3.5C115.6,20.6,116.9,22.2,116.9,24.1z"/>
		<path class="st1" d="M115.7,24.1c0,1.1-0.7,1.9-1.7,1.9c-0.9,0-1.7-0.9-1.7-1.9c0-1.1,0.7-1.9,1.7-1.9    C115,22.2,115.7,23,115.7,24.1z"/>
	</g>
	<g>
		<g>
			<path class="st5" d="M11.4,38.9c1.4,0,2.7,0.3,4,0.8c1.3,0.6,2.4,1.3,3.4,2.3c1,1,1.8,2.1,2.4,3.4c0.6,1.3,0.9,2.7,0.9,4.2     c0,1.5-0.3,2.9-0.8,4.2c-0.5,1.3-1.3,2.4-2.2,3.4c-0.9,1-2.1,1.7-3.4,2.3c-1.3,0.6-2.7,0.8-4.2,0.8c-0.7,0-1.5-0.1-2.2-0.4     c-0.7-0.2-1.5-0.6-2.1-1.2v7c0,0.9-0.3,1.7-0.9,2.3c-0.6,0.6-1.4,0.9-2.3,0.9c-0.9,0-1.6-0.3-2.2-0.9c-0.6-0.6-0.9-1.4-0.9-2.3     V49.5c0-1.4,0.3-2.7,0.9-4c0.6-1.3,1.3-2.4,2.3-3.4c1-1,2.1-1.8,3.4-2.4C8.5,39.2,9.9,38.9,11.4,38.9z M11.4,53.9     c1.2,0,2.2-0.4,3.1-1.2c0.8-0.8,1.3-1.9,1.3-3.1c0-0.6-0.1-1.2-0.4-1.7c-0.2-0.5-0.5-1-0.9-1.4c-0.4-0.4-0.8-0.7-1.4-0.9     c-0.5-0.2-1.1-0.3-1.7-0.3c-0.6,0-1.2,0.1-1.7,0.3c-0.5,0.2-1,0.5-1.4,0.9c-0.4,0.4-0.7,0.9-0.9,1.4C7.2,48.4,7,48.9,7,49.5     c0,0.6,0.1,1.2,0.3,1.7c0.2,0.5,0.5,1,0.9,1.4c0.4,0.4,0.9,0.7,1.4,0.9C10.2,53.8,10.8,53.9,11.4,53.9z"/>
			<path class="st5" d="M27,38.9c0.8,0,1.6,0.3,2.2,0.9c0.6,0.6,0.9,1.4,0.9,2.2v23.7c0,0.9-0.3,1.6-0.9,2.2     c-0.6,0.6-1.3,0.9-2.2,0.9c-0.9,0-1.7-0.3-2.3-0.9c-0.6-0.6-0.9-1.4-0.9-2.2V42.1c0-0.8,0.3-1.6,0.9-2.2     C25.4,39.2,26.1,38.9,27,38.9z"/>
			<path class="st5" d="M50,58.6c0.8,0,1.6,0.3,2.2,0.9c0.6,0.6,0.9,1.4,0.9,2.3c0,0.3-0.1,0.6-0.2,0.9c-0.1,0.3-0.2,0.6-0.4,0.9     c-0.9,1.6-2.2,2.9-3.9,3.8c-1.7,1-3.5,1.4-5.4,1.4c-1.4,0-2.7-0.3-4-0.8c-1.3-0.5-2.4-1.3-3.4-2.3c-1-1-1.8-2.1-2.4-3.4     c-0.6-1.3-0.9-2.7-0.9-4.2v-8.6c0-1.4,0.3-2.8,0.8-4c0.5-1.3,1.3-2.4,2.3-3.4c1-1,2.1-1.8,3.4-2.3c1.3-0.6,2.7-0.9,4.1-0.9     c1.9,0,3.7,0.5,5.3,1.4c1.7,1,3,2.3,4,4c0.1,0.2,0.2,0.5,0.4,0.8c0.1,0.3,0.2,0.6,0.2,0.9c0,0.9-0.3,1.6-0.9,2.3     c-0.6,0.6-1.4,0.9-2.3,0.9c-0.7,0-1.3-0.2-1.7-0.5c-0.4-0.4-0.8-0.8-1.2-1.3c-0.4-0.6-0.9-1.1-1.5-1.5c-0.6-0.4-1.4-0.6-2.2-0.6     c-0.6,0-1.2,0.1-1.7,0.3c-0.5,0.2-1,0.5-1.4,0.9c-0.4,0.4-0.7,0.9-0.9,1.4c-0.2,0.5-0.4,1.1-0.4,1.7v8.6c0,0.6,0.1,1.2,0.4,1.7     c0.2,0.5,0.5,1,0.9,1.4c0.4,0.4,0.8,0.7,1.4,0.9c0.5,0.2,1.1,0.3,1.7,0.3c0.8,0,1.5-0.2,2.2-0.6c0.6-0.4,1.1-0.9,1.6-1.5     c0.3-0.5,0.7-1,1.1-1.3C48.6,58.8,49.2,58.6,50,58.6z"/>
			<path class="st5" d="M73.3,38.9c0.8,0,1.6,0.3,2.2,0.9c0.7,0.6,1,1.3,1,2.3v23.7c0,0.4-0.1,0.8-0.3,1.2c-0.2,0.4-0.4,0.7-0.7,1     c-0.3,0.3-0.7,0.5-1.1,0.7c-0.4,0.2-0.8,0.3-1.2,0.3c-0.8,0-1.5-0.3-2.2-0.9c-0.6-0.6-0.9-1.4-0.9-2.2v-8.6H62v8.6     c0,0.9-0.3,1.6-0.9,2.2c-0.6,0.6-1.4,0.9-2.3,0.9c-0.8,0-1.6-0.3-2.2-0.9c-0.6-0.6-0.9-1.3-1-2.3V42.1c0-1,0.3-1.7,1-2.3     c0.7-0.6,1.4-0.8,2.1-0.8c0.9,0,1.7,0.3,2.3,0.9c0.6,0.6,0.9,1.4,0.9,2.2v8.6h8.2v-8.6c0-0.8,0.3-1.6,0.9-2.2     C71.7,39.2,72.5,38.9,73.3,38.9z"/>
			<path class="st5" d="M89.8,38.9c1.4,0,2.8,0.3,4,0.8c1.3,0.5,2.4,1.3,3.3,2.3c1,1,1.7,2.1,2.3,3.4c0.6,1.3,0.9,2.7,1,4.2v8.6     c-0.1,1.4-0.4,2.8-0.9,4.1c-0.5,1.3-1.3,2.4-2.2,3.4c-0.9,1-2,1.8-3.3,2.3c-1.3,0.6-2.7,0.9-4.2,0.9c-1.4,0-2.8-0.3-4.1-0.8     c-1.3-0.5-2.4-1.3-3.4-2.3c-1-1-1.7-2.1-2.3-3.4c-0.6-1.3-0.9-2.7-1-4.2v-8.6c0-1.4,0.3-2.8,0.9-4.1c0.6-1.3,1.3-2.4,2.3-3.4     c1-1,2.1-1.7,3.4-2.3C87,39.1,88.4,38.9,89.8,38.9z M89.8,62.5c0.6,0,1.2-0.1,1.7-0.3c0.5-0.2,1-0.5,1.4-0.9     c0.4-0.4,0.7-0.9,0.9-1.4c0.2-0.5,0.4-1.1,0.4-1.7v-8.6c0-0.6-0.1-1.2-0.4-1.7c-0.2-0.5-0.5-1-0.9-1.4c-0.4-0.4-0.8-0.7-1.4-0.9     c-0.5-0.2-1.1-0.3-1.7-0.3c-0.6,0-1.2,0.1-1.7,0.3c-0.5,0.2-1,0.5-1.4,0.9c-0.4,0.4-0.7,0.9-0.9,1.4c-0.2,0.5-0.3,1.1-0.3,1.7     v8.6c0,1.2,0.4,2.3,1.3,3.1C87.6,62.1,88.6,62.5,89.8,62.5z"/>
			<path class="st6" d="M120.3,63.2c0.6,0.6,0.9,1.4,0.9,2.2c0,0.9-0.3,1.7-0.9,2.3c-0.6,0.6-1.3,0.9-2.2,0.9h-11.8     c-0.9,0-1.7-0.3-2.3-0.9c-0.6-0.6-0.9-1.4-1-2.3V41.8c0-0.9,0.3-1.6,0.9-2.2c0.6-0.6,1.4-0.9,2.3-0.9c0.8,0,1.5,0.3,2.2,0.9     c0.6,0.6,1,1.4,1,2.2v20.5h8.7C119,62.3,119.7,62.6,120.3,63.2z"/>
			<path class="st6" d="M126.1,38.9c0.8,0,1.6,0.3,2.2,0.9c0.6,0.6,0.9,1.4,0.9,2.2v23.7c0,0.9-0.3,1.6-0.9,2.2     c-0.6,0.6-1.3,0.9-2.2,0.9c-0.9,0-1.7-0.3-2.3-0.9c-0.6-0.6-0.9-1.4-0.9-2.2V42.1c0-0.8,0.3-1.6,0.9-2.2     C124.4,39.2,125.2,38.9,126.1,38.9z"/>
			<path class="st6" d="M142.6,38.9c1.4,0,2.8,0.3,4,0.8c1.3,0.5,2.4,1.3,3.3,2.3c1,1,1.7,2.1,2.3,3.4c0.6,1.3,0.9,2.7,1,4.2v16.2     c0,0.9-0.3,1.7-0.9,2.3c-0.6,0.6-1.4,0.9-2.2,0.9c-0.9,0-1.7-0.3-2.3-0.9c-0.6-0.6-0.9-1.4-0.9-2.3V49.5c0-0.6-0.1-1.2-0.4-1.7     c-0.2-0.5-0.5-1-0.9-1.4c-0.4-0.4-0.8-0.7-1.4-0.9c-0.5-0.2-1.1-0.3-1.7-0.3c-0.6,0-1.2,0.1-1.7,0.3c-0.5,0.2-1,0.5-1.4,0.9     c-0.4,0.4-0.7,0.9-0.9,1.4c-0.2,0.5-0.4,1.1-0.4,1.7v16.2c0,0.9-0.3,1.7-0.9,2.3c-0.6,0.6-1.3,0.9-2.2,0.9     c-0.9,0-1.7-0.3-2.3-0.9c-0.6-0.6-0.9-1.4-0.9-2.3V49.5c0-1.4,0.3-2.8,0.9-4.1c0.5-1.3,1.3-2.4,2.3-3.4c1-1,2.1-1.7,3.4-2.3     C139.8,39.2,141.2,38.9,142.6,38.9z"/>
			<path class="st6" d="M174,63.5c0.6,0.6,0.9,1.4,0.9,2.2c0,0.9-0.3,1.7-0.9,2.3c-0.6,0.6-1.4,0.9-2.2,0.9h-12.5     c-0.8,0-1.5-0.3-2.2-0.9c-0.6-0.6-1-1.4-1-2.3V42.1c0-0.8,0.3-1.6,0.9-2.2c0.6-0.7,1.3-1,2.3-1h12.5c0.9,0,1.6,0.3,2.2,0.9     c0.6,0.6,0.9,1.4,0.9,2.3c0,0.9-0.3,1.7-0.9,2.3c-0.6,0.6-1.4,0.9-2.2,0.9h-9.4v4.6h6.3c0.8,0,1.6,0.3,2.2,0.9     c0.6,0.6,0.9,1.4,0.9,2.3c0,0.9-0.3,1.6-0.9,2.2c-0.6,0.6-1.4,0.9-2.2,0.9h-6.3v6.4h9.4C172.6,62.5,173.4,62.9,174,63.5z"/>
			<path class="st6" d="M184.6,46c-0.5,0.5-0.8,1.2-0.8,2c0,0.7,0.3,1.3,0.8,1.9c0.5,0.5,1.2,0.8,1.9,0.8h3.2c1.2,0,2.3,0.2,3.4,0.7     c1.1,0.5,2,1.1,2.9,1.9c0.8,0.8,1.5,1.8,2,2.9c0.5,1.1,0.8,2.3,0.8,3.5c0,1.2-0.2,2.4-0.7,3.5c-0.5,1.1-1.1,2.1-1.9,2.9     c-0.8,0.8-1.8,1.5-2.9,1.9c-1.1,0.5-2.3,0.7-3.5,0.8h-8.4c-0.9,0-1.7-0.3-2.3-0.9c-0.6-0.6-0.9-1.4-0.9-2.3     c0-0.8,0.3-1.6,0.9-2.2c0.6-0.6,1.4-0.9,2.3-0.9h8.4c0.7,0,1.4-0.3,1.9-0.8c0.6-0.5,0.8-1.2,0.8-1.9c0-0.8-0.3-1.4-0.8-1.9     c-0.5-0.5-1.2-0.8-1.9-0.8h-3.2c-1.2,0-2.3-0.3-3.4-0.8c-1.1-0.5-2.1-1.1-2.9-1.9c-0.8-0.8-1.5-1.7-2-2.8     c-0.5-1.1-0.8-2.3-0.8-3.6c0-1.2,0.2-2.3,0.7-3.4c0.5-1.1,1.1-2.1,2-2.9c0.8-0.8,1.8-1.5,2.9-2c1.1-0.5,2.3-0.8,3.5-0.8h8.4     c0.8,0,1.6,0.3,2.2,0.9c0.6,0.6,0.9,1.4,1,2.3c0,0.9-0.3,1.7-0.9,2.3c-0.6,0.6-1.3,0.9-2.3,0.9h-8.4     C185.7,45.2,185.1,45.5,184.6,46z"/>
		</g>
		<g>
			<polygon class="st1" points="126.5,66.8 125.7,66.8 125.7,63.6 126.4,63.6 126.4,66.1 126.5,66.1    "/>
			<g>
				<rect x="125.7" y="56.8" class="st1" width="0.7" height="3.3"/>
				<rect x="125.7" y="49.9" class="st1" width="0.7" height="3.3"/>
			</g>
			<g>
				<rect x="125.7" y="49.5" class="st1" width="0.7" height="3.3"/>
				<rect x="125.7" y="42.7" class="st1" width="0.7" height="3.3"/>
			</g>
		</g>
		<g>
			<g>
				<polygon class="st1" points="106.5,66 105.7,66 105.7,62.8 106.4,62.8 106.4,65.3 106.5,65.3     "/>
				<g>
					<rect x="105.7" y="55.9" class="st1" width="0.7" height="3.3"/>
					<rect x="105.7" y="49.1" class="st1" width="0.7" height="3.3"/>
				</g>
				<g>
					<rect x="105.7" y="48.7" class="st1" width="0.7" height="3.3"/>
					<rect x="105.7" y="41.8" class="st1" width="0.7" height="3.3"/>
				</g>
			</g>
			<g>
				<rect x="110.1" y="65.3" class="st1" width="3.3" height="0.7"/>
				<rect x="116.6" y="65.3" class="st1" width="3.3" height="0.7"/>
			</g>
		</g>
		<g>
			<g>
				<rect x="162.4" y="66.2" class="st1" width="3.3" height="0.7"/>
				<rect x="168.9" y="66.2" class="st1" width="3.3" height="0.7"/>
			</g>
			<g>
				<g>
					<polygon class="st1" points="159.8,66.4 159,66.4 159,63.2 159.7,63.2 159.7,65.7 159.8,65.7      "/>
					<g>
						<rect x="159" y="56.4" class="st1" width="0.7" height="3.3"/>
						<rect x="159" y="49.5" class="st1" width="0.7" height="3.3"/>
					</g>
					<g>
						<rect x="159" y="49.1" class="st1" width="0.7" height="3.3"/>
						<rect x="159" y="42.3" class="st1" width="0.7" height="3.3"/>
					</g>
				</g>
				<g>
					<rect x="162.4" y="41.8" class="st1" width="3.3" height="0.7"/>
					<rect x="168.9" y="41.8" class="st1" width="3.3" height="0.7"/>
				</g>
				<rect x="162.4" y="52.8" class="st1" width="3.3" height="0.7"/>
			</g>
		</g>
		<g>
			<g>
				<g>
					<polygon class="st1" points="136,66.2 135.2,66.2 135.2,63 135.9,63 135.9,65.5 136,65.5      "/>
					<g>
						<rect x="135.2" y="56.1" class="st1" width="0.7" height="3.3"/>
						<rect x="135.2" y="49.3" class="st1" width="0.7" height="3.3"/>
					</g>
					<rect x="135.2" y="48.9" class="st1" width="0.7" height="3.3"/>
				</g>
				<polygon class="st1" points="150.8,66.6 150,66.6 150,63.4 150.7,63.4 150.7,65.9 150.8,65.9     "/>
				<g>
					<rect x="150" y="56.6" class="st1" width="0.7" height="3.3"/>
					<rect x="150" y="49.7" class="st1" width="0.7" height="3.3"/>
				</g>
				<rect x="150" y="49.3" class="st1" width="0.7" height="3.3"/>
			</g>
			<g>
				<path class="st1" d="M149.3,46.6c-0.3-0.5-0.6-1-1-1.4c-0.2-0.3-0.5-0.6-0.8-0.9l0.4-0.6c0.3,0.3,0.6,0.6,0.8,0.9      c0.4,0.5,0.7,1,1,1.5L149.3,46.6z"/>
				<path class="st1" d="M136.9,45.1l-0.4-0.5c0.7-0.8,1.4-1.4,2.2-1.9l0.3,0.6C138.2,43.8,137.5,44.4,136.9,45.1z"/>
				<path class="st1" d="M145.1,42.7c-0.8-0.3-1.6-0.5-2.5-0.5c-0.3,0-0.6,0.1-0.9,0.1l-0.1-0.7c0.3-0.1,0.6-0.1,1-0.1c0,0,0,0,0,0      c0.9,0,1.8,0.2,2.7,0.5L145.1,42.7z"/>
			</g>
		</g>
		<rect x="180.9" y="66.3" class="st1" width="3.2" height="0.5"/>
		<path class="st1" d="M187.6,66.8l0-0.5c1,0,2-0.2,3-0.5l0.3,0.5l0,0C189.8,66.5,188.8,66.7,187.6,66.8z"/>
		<path class="st1" d="M193.9,64.7l-0.5-0.4c0.7-0.5,1.3-1.1,1.7-1.8l0.7,0.2C195.3,63.5,194.6,64.2,193.9,64.7z"/>
		<path class="st1" d="M196.1,60.2h-0.4c0-0.8-0.2-1.5-0.6-2.1l0.7-0.2c0.4,0.7,0.6,1.5,0.6,2.3L196.1,60.2z"/>
		<path class="st1" d="M193.4,56.1c-0.1-0.1-0.2-0.1-0.3-0.2c-0.7-0.5-1.4-0.8-2.2-1.1l0.3-0.4c0.9,0.3,1.7,0.7,2.4,1.2    c0.1,0.1,0.2,0.1,0.3,0.2L193.4,56.1z"/>
		<path class="st1" d="M189.5,54.6h-0.9c-0.7,0-1.3-0.1-1.9-0.2l0.2-0.5c0.6,0.1,1.2,0.2,1.8,0.2h0.9V54.6z"/>
		<path class="st1" d="M183.7,53.2c-0.3-0.2-0.6-0.4-0.8-0.6c-0.4-0.3-0.8-0.7-1.1-1.1l0.5-0.3c0.3,0.4,0.7,0.7,1.1,1.1    c0.2,0.2,0.5,0.4,0.8,0.5L183.7,53.2z"/>
		<path class="st1" d="M180.6,49.1c-0.1-0.4-0.1-0.7-0.1-1.1c0-0.4,0.1-0.8,0.2-1.3l0.6,0.1c-0.1,0.4-0.1,0.8-0.1,1.2    c0,0.4,0,0.7,0.1,1L180.6,49.1z"/>
		<path class="st1" d="M182.4,44.6l-0.5-0.3c0.3-0.3,0.6-0.7,0.9-0.9c0.3-0.3,0.7-0.5,1.1-0.8l0.4,0.4c-0.3,0.2-0.7,0.4-1,0.7    C182.9,44,182.6,44.3,182.4,44.6z"/>
		<path class="st1" d="M186.9,41.9l-0.1-0.5c0.6-0.1,1.2-0.2,1.8-0.2c0,0,0,0,0,0h1.1v0.5h-1.1c0,0,0,0,0,0    C188,41.8,187.4,41.8,186.9,41.9z"/>
		<rect x="192.7" y="41.3" class="st7" width="2.8" height="0.5"/>
	</g>
</g>
</svg>