<?xml version="1.0" encoding="UTF-8"?>
<svg fill="none" version="1.1" viewBox="0 0 256 256" xmlns="http://www.w3.org/2000/svg">
 <g transform="matrix(1.3042 0 0 1.3042 7.3801 -.46238)" clip-path="url(#clip0)">
  <path d="m76.893 177.96h33.721c0 4.437-5.967 8.036-13.312 8.036h-7.0975c-7.3446 0-13.312-3.599-13.312-8.036z" fill="#2977ff"/>
  <path d="m108.85 159.97v-7.477c0-9.014 9.922-17.573 16.349-23.652 9.075-8.595 13.842-20.089 13.842-33.61 0-24.735-20.269-44.789-45.269-44.789-24.894 0-45.162 19.914-45.268 44.545v0.2445c0 13.032 4.9788 25.33 13.842 33.61 6.3912 5.974 16.349 14.534 16.349 23.652v7.477" fill="#2977ff"/>
  <path d="m108.11 174.47h-28.672c-1.3771 0-2.5071-0.769-2.5071-1.747s1.13-1.747 2.5071-1.747h28.672c1.377 0 2.507 0.769 2.507 1.747s-1.13 1.747-2.507 1.747z" fill="#65c8d0"/>
  <path d="m46.914 54.077c-0.4238 0-0.8475-0.1398-1.1653-0.4193l-15.148-13.101c-0.7415-0.6289-0.8121-1.7469-0.1765-2.4805 0.6355-0.7337 1.7655-0.8036 2.507-0.1747l15.148 13.101c0.7415 0.6289 0.8122 1.7469 0.1766 2.4805-0.3178 0.3843-0.8122 0.594-1.3418 0.594z" fill="#2977ff"/>
  <path d="m138.05 54.077c-0.989 0-1.766-0.7686-1.766-1.7469 0-0.4891 0.212-0.9782 0.601-1.3276l15.148-13.101c0.741-0.6289 1.836-0.559 2.507 0.1747 0.636 0.7336 0.565 1.8167-0.177 2.4805l-15.148 13.101c-0.318 0.2795-0.741 0.4193-1.165 0.4193z" fill="#2977ff"/>
  <g fill="#65c8d0">
   <path d="m108.85 168.29h-30.191c-0.9887 0-1.7655-0.769-1.7655-1.747s0.7768-1.747 1.7655-1.747h30.191c0.989 0 1.765 0.769 1.765 1.747s-0.812 1.747-1.765 1.747z"/>
   <path d="m93.736 161.72c-0.9887 0-1.7656-0.769-1.7656-1.747v-39.829c0-0.978 0.7769-1.746 1.7656-1.746s1.7655 0.768 1.7655 1.746v39.829c0 0.978-0.7768 1.747-1.7655 1.747z"/>
   <path d="m93.736 121.89c-5.7203 0-12.712-5.1-12.994-5.31-0.7769-0.559-0.9534-1.677-0.3532-2.446 0.6003-0.768 1.695-0.943 2.4718-0.349 1.7655 1.293 7.1328 4.647 10.911 4.647 3.7783 0 9.1458-3.354 10.911-4.647 0.777-0.559 1.872-0.419 2.472 0.349 0.6 0.769 0.424 1.852-0.353 2.446-0.353 0.21-7.3448 5.31-13.065 5.31z"/>
  </g>
  <path d="m93.736 33.849c-0.9887 0-1.7656-0.5241-1.7656-1.1879v-20.473c0-0.6638 0.7769-1.1879 1.7656-1.1879s1.7655 0.5241 1.7655 1.1879v20.473c0 0.6638-0.7768 1.1879-1.7655 1.1879z" fill="#2977ff"/>
  <path d="m67.394 39.299c-0.3884-0.1747-0.7062-0.4891-0.8828-0.8734l-8.1567-18.202c-0.3885-0.8734 0-1.9215 0.8827-2.3058 0.8828-0.3843 1.9421 0 2.3305 0.8734l8.1568 18.202c0.3884 0.8735 0 1.9216-0.8827 2.3059-0.4591 0.2096-0.9887 0.2096-1.4478 0z" fill="#65c8d0"/>
  <path d="m120.11 39.299c-0.459 0.2096-0.989 0.2096-1.448 0-0.882-0.3843-1.306-1.4324-0.882-2.3058l8.156-18.202c0.389-0.8734 1.448-1.2927 2.331-0.8734 0.883 0.3843 1.306 1.4324 0.883 2.3058l-8.157 18.202c-0.177 0.3843-0.495 0.6987-0.883 0.8734z" fill="#65c8d0"/>
  <path d="m65.381 120.49c-5.9676-11.425-8.863-17.993-6.3207-33.19 4.9789-29.836 38.63-36.684 38.63-36.684-24.824 0-44.951 19.879-45.092 44.475v0.2446c0 12.997 4.9435 25.295 13.771 33.54 3.7782 3.563 8.8276 8 12.323 12.961 2.3658 3.354 3.9901 6.953 3.9901 10.656v7.442c2.5424-24.84-11.299-28.02-17.302-39.444z" fill="#fff" opacity=".2"/>
 </g>
 <defs>
  <clipPath id="clip0">
   <rect transform="translate(30,11)" width="125" height="175" fill="#fff"/>
  </clipPath>
 </defs>
</svg>
