<?xml version="1.0" encoding="UTF-8"?>
<svg fill="none" version="1.1" viewBox="0 0 256 256" xmlns="http://www.w3.org/2000/svg">
 <g transform="matrix(1.2163 0 0 1.2163 20.969 41.645)" clip-path="url(#clip0)">
  <path d="m95.939 142c-3.947 0-8.2977-1.917-11.886-5.569l-67.772-68.968 52.522-53.45c5.158-5.2491 13.545-5.2491 18.658 0l58.442 59.475c2.781 2.83 4.62 6.299 5.248 9.8136 0.628 3.7885-0.314 7.2575-2.602 9.5853l-1.839 1.8715c-2.601 2.6473-6.369 3.4233-10.271 2.4648 0.045 0.2738 0.135 0.5477 0.18 0.8216 0.628 3.7886-0.314 7.2576-2.602 9.5856l-1.839 1.871c-2.287 2.328-5.696 3.287-9.419 2.648-0.269-0.046-0.538-0.092-0.807-0.183 0.897 3.971 0.135 7.805-2.422 10.453l-1.839 1.871c-2.287 2.328-5.696 3.286-9.419 2.647-0.269-0.045-0.583-0.091-0.852-0.182 0.045 0.274 0.135 0.593 0.179 0.867 0.628 3.788-0.314 7.257-2.601 9.585l-1.839 1.872c-1.929 2.008-4.4404 2.921-7.2212 2.921z" fill="#65c8d0"/>
  <path d="m23.727 67.463 64.049 65.18c3.8573 3.925 9.1947 5.158 11.617 2.693l1.8385-1.872c1.436-1.46 1.301-3.697 1.122-4.883-0.404-2.374-1.794-4.884-3.7679-6.938l-15.429-15.702 3.7227-3.789 15.429 15.702c1.973 2.008 4.485 3.423 6.817 3.834 1.167 0.228 3.364 0.32 4.8-1.141l1.839-1.871c2.422-2.465 1.211-7.897-2.647-11.822l-15.429-15.702 3.7229-3.7885 15.429 15.701c1.973 2.009 4.44 3.424 6.773 3.834 1.166 0.229 3.364 0.32 4.799-1.141l1.839-1.871c1.435-1.461 1.3-3.697 1.121-4.8841-0.404-2.3735-1.794-4.884-3.768-6.938l-15.429-15.702 3.723-3.7885 15.429 15.702c3.858 3.9255 9.195 5.1579 11.617 2.6931l1.839-1.8714c1.435-1.4607 1.301-3.6973 1.121-4.884-0.403-2.3735-1.794-4.884-3.767-6.938l-58.398-59.475c-1.4801-1.5063-3.4984-2.3735-5.6065-2.3735-2.108 0-4.1264 0.8216-5.6065 2.3735z" fill="#fff" opacity=".2"/>
  <path d="m50.005 4.3125e-4 -50.015 50.898 20.012 20.366 50.014-50.898z" fill="#2977ff"/>
  <path d="m50.036 7.5877-42.562 43.313 12.559 12.781 42.562-43.313z" fill="#fff" opacity=".2"/>
  <path d="m32.697 92.111c-3.05 0-6.0551-1.1867-8.3874-3.5146-4.6198-4.7014-4.6198-12.324 0-17.025l9.6881-9.8592c2.2426-2.2822 5.2029-3.5146 8.3874-3.5146s6.1447 1.2324 8.3873 3.5146 3.4536 5.2948 3.4536 8.5355c0 3.2408-1.211 6.2533-3.4536 8.5355l-9.6881 9.8592c-2.3323 2.2823-5.3374 3.469-8.3873 3.469z" fill="#65c8d0"/>
  <path d="m42.385 63.492c-1.7492 0-3.4088 0.6846-4.6646 1.9627l-9.6881 9.8592c-2.5566 2.6017-2.5566 6.8466 0 9.4484 2.5566 2.6017 6.7278 2.6017 9.2844 0l9.6881-9.8592c1.2559-1.2781 1.9286-2.9669 1.9286-4.7471 0-1.7801-0.6727-3.4689-1.9286-4.747-1.211-1.1867-2.8706-1.917-4.6198-1.917z" fill="#fff" opacity=".2"/>
  <path d="m71.764 131.87c-3.1845 0-6.1447-1.232-8.3873-3.515-2.2426-2.282-3.4537-5.294-3.4537-8.535s1.2111-6.254 3.4537-8.536l9.688-9.859c4.6198-4.7013 12.11-4.7013 16.73 0 4.6198 4.701 4.6198 12.324 0 17.025l-9.6881 9.86c-2.1977 2.328-5.158 3.56-8.3425 3.56z" fill="#65c8d0"/>
  <path d="m81.452 103.29c-1.7044 0-3.3639 0.639-4.6647 1.963l-9.688 9.859c-1.2559 1.278-1.9287 2.967-1.9287 4.747 0 1.781 0.6728 3.469 1.9287 4.747 1.2558 1.278 2.9154 1.963 4.6646 1.963s3.4088-0.685 4.6646-1.963l9.6881-9.859c2.5566-2.602 2.5566-6.846 0-9.448-1.3007-1.37-2.9602-2.009-4.6646-2.009z" fill="#fff" opacity=".2"/>
  <path d="m45.704 105.35c-3.1845 0-6.1448-1.233-8.3874-3.515-2.2426-2.2823-3.4536-5.2948-3.4536-8.5356 0-3.2407 1.211-6.2533 3.4536-8.5355l20.273-20.631c2.2426-2.2822 5.2029-3.5146 8.3874-3.5146s6.1447 1.2324 8.3873 3.5146 3.4536 5.2948 3.4536 8.5355c0 3.2408-1.211 6.2533-3.4536 8.5355l-20.273 20.631c-2.2426 2.282-5.2028 3.515-8.3873 3.515z" fill="#65c8d0"/>
  <path d="m65.978 66.002c-1.7492 0-3.4088 0.6846-4.6646 1.9627l-20.273 20.631c-1.2559 1.278-1.9287 2.9669-1.9287 4.747s0.6728 3.469 1.9287 4.747c1.2559 1.2781 2.9154 1.963 4.6646 1.963 1.7493 0 3.4088-0.6849 4.6646-1.963l20.273-20.631c1.2559-1.278 1.9287-2.9669 1.9287-4.747s-0.6728-3.469-1.9287-4.747c-1.2558-1.2781-2.8705-1.9627-4.6646-1.9627z" fill="#fff" opacity=".2"/>
  <path d="m58.756 118.63c-3.05 0-6.0551-1.187-8.3874-3.515-2.2426-2.282-3.4536-5.294-3.4536-8.535s1.211-6.253 3.4536-8.5356l20.273-20.631c2.2426-2.2823 5.2029-3.5147 8.3874-3.5147s6.1447 1.2324 8.3873 3.5147c2.2426 2.2822 3.4537 5.2947 3.4537 8.5355 0 3.2407-1.2111 6.2533-3.4537 8.5355l-20.273 20.631c-2.3323 2.328-5.3822 3.515-8.3873 3.515z" fill="#65c8d0"/>
  <path d="m79.03 79.239c-1.7492 0-3.4087 0.6846-4.6646 1.9627l-20.273 20.632c-1.2558 1.278-1.9286 2.967-1.9286 4.747s0.6728 3.469 1.9286 4.747c2.5566 2.602 6.7279 2.602 9.2844 0l20.273-20.632c1.2559-1.278 1.9287-2.9669 1.9287-4.747s-0.6728-3.469-1.9287-4.747c-1.211-1.2781-2.8705-1.9627-4.6198-1.9627z" fill="#fff" opacity=".2"/>
  <path d="m130.09 0.17254-20.012 20.366 45.955 46.767 20.013-20.366z" fill="#2977ff"/>
  <path d="m130.06 7.7594-12.559 12.781 38.502 39.182 12.559-12.781z" fill="#fff" opacity=".2"/>
  <path d="m144.38 79.193-39.559-40.258-18.524 18.851c-3.2294 3.2864-8.9256 2.9213-12.648-0.8672l-3.7676-3.8341c-3.7227-3.7885-4.1264-9.5397-0.8522-12.872l25.431-25.88c2.1978-2.2366 5.158-3.3777 8.2973-3.3321 3.095 0.0913 6.055 1.3694 8.298 3.6516l48.351 49.25z" fill="#65c8d0"/>
  <path d="m104.6 31.13 39.829 40.532 7.58-7.7139-44.628-45.416c-1.301-1.3237-2.96-2.054-4.709-2.0996-1.66-0.0457-3.2745 0.5934-4.4407 1.7345l-25.431 25.88c-1.1661 1.1868-0.7625 3.6059 0.8522 5.2948l3.7676 3.8341c1.6595 1.6888 3.9918 2.054 5.2028 0.8672l19.241-19.581z" fill="#fff" opacity=".2"/>
 </g>
 <defs>
  <clipPath id="clip0">
   <rect width="176" height="142" fill="#fff"/>
  </clipPath>
 </defs>
</svg>
