<?xml version="1.0" encoding="UTF-8"?>
<svg fill="none" version="1.1" viewBox="0 0 256 256" xmlns="http://www.w3.org/2000/svg">
 <g transform="matrix(1.8817 0 0 1.8817 2.8651 4.4232)" clip-path="url(#clip0)">
  <path d="m66.5 131.34c36.727 0 66.5-29.402 66.5-65.672 0-36.27-29.773-65.672-66.5-65.672-36.727 0-66.5 29.402-66.5 65.672 0 36.27 29.773 65.672 66.5 65.672z" fill="#65c8cf" opacity=".2"/>
  <g clip-path="url(#clip1)">
   <path d="m67.004 111.36c25.051 0 45.358-20.307 45.358-45.358s-20.307-45.358-45.358-45.358-45.358 20.308-45.358 45.358 20.308 45.358 45.358 45.358z" fill="#fff"/>
   <path d="m67.004 113c-9.2965 0-18.384-2.757-26.114-7.922-7.7297-5.1646-13.754-12.506-17.312-21.094s-4.4885-18.04-2.6748-27.158 6.2904-17.493 12.864-24.067 14.949-11.05 24.067-12.864 18.569-0.8828 27.158 2.6748 15.93 9.5823 21.095 17.312c5.164 7.7298 7.921 16.818 7.921 26.114-0.013 12.462-4.969 24.41-13.781 33.222-8.8125 8.8117-20.761 13.769-33.223 13.782zm0-90.708c-8.6455 0-17.097 2.5636-24.285 7.3668-7.1885 4.8032-12.791 11.63-16.1 19.618s-4.1741 16.777-2.4875 25.256c1.6867 8.4793 5.8499 16.268 11.963 22.382 6.1133 6.1135 13.902 10.276 22.382 11.964 8.4794 1.686 17.269 0.821 25.256-2.488 7.9874-3.308 14.814-8.9111 19.618-16.1 4.803-7.1885 7.367-15.64 7.367-24.285-0.013-11.589-4.623-22.7-12.818-30.895-8.1948-8.1949-19.306-12.804-30.895-12.818z" fill="#2977ff"/>
   <path d="m67.004 104.28c21.138 0 38.273-17.135 38.273-38.273s-17.135-38.273-38.273-38.273-38.273 17.135-38.273 38.273 17.135 38.273 38.273 38.273z" fill="#fff"/>
   <path d="m67.045 105.92c-1.7279 1e-3 -3.454-0.109-5.1678-0.329l0.4197-3.292c1.5718 0.203 3.155 0.304 4.7399 0.305zm5.209-0.346-0.4279-3.291c1.5848-0.207 3.1545-0.518 4.6987-0.93l0.8229 3.176c-1.676 0.459-3.3803 0.808-5.102 1.045zm-15.536-0.995c-1.68-0.441-3.3293-0.99-4.9374-1.646l1.259-3.045c1.4763 0.609 2.991 1.12 4.5342 1.531zm25.592-1.704-1.2672-3.0363c1.4738-0.6136 2.9059-1.3228 4.2873-2.1231l1.6458 2.8474c-1.5033 0.871-3.0619 1.644-4.6659 2.312zm-35.228-2.271c-1.5099-0.8697-2.9613-1.8373-4.3449-2.8966l1.9997-2.6086c1.2684 0.9715 2.5989 1.8594 3.9828 2.6579zm44.239-2.9378-2.0079-2.6086c1.2659-0.9743 2.4671-2.0299 3.5961-3.1599l2.3288 2.3288c-1.2302 1.2271-2.5386 2.3734-3.917 3.4315zm-52.509-3.3986c-1.2331-1.2295-2.3848-2.5379-3.448-3.917l2.6086-2.0079c0.9775 1.2658 2.0357 2.467 3.1682 3.5961zm59.866-3.9746-2.6086-2.0079c0.9743-1.2683 1.8649-2.5987 2.6662-3.9828l2.8469 1.6458c-0.872 1.5099-1.8428 2.9613-2.9045 4.3449zm-66.227-4.2708c-0.8749-1.5056-1.6501-3.067-2.3205-4.6741l3.0365-1.2673c0.6134 1.4739 1.3226 2.906 2.1231 4.2873zm71.436-4.7482-3.044-1.259c0.612-1.4758 1.126-2.9905 1.539-4.5342l3.184 0.8229c-0.446 1.6919-1.004 3.3523-1.67 4.9703zm-75.435-4.8716c-0.4598-1.6814-0.8089-3.3912-1.045-5.1184l3.2916-0.4444c0.21 1.5823 0.5233 3.1492 0.9381 4.6906zm78.176-5.2007-3.292-0.4279c0.207-1.5853 0.312-3.1823 0.313-4.7811v-0.1563h3.291v0.1563c-5e-3 1.7422-0.123 3.4821-0.353 5.209zm-79.55-5.1267v-0.1316c2e-3 -1.695 0.112-3.3881 0.3292-5.0691l3.2916 0.4197c-0.1985 1.5611-0.2975 3.1333-0.2963 4.707zm76.225-5.0114c-0.212-1.5826-0.528-3.1495-0.946-4.6906l3.176-0.8229c0.457 1.6819 0.803 3.3916 1.037 5.1185zm-71.716-4.4684-3.1846-0.8229c0.4402-1.68 0.99-3.3293 1.6458-4.9374l3.0447 1.2508c-0.5997 1.4687-1.1028 2.9751-1.5059 4.5095zm69.206-4.7481c-0.616-1.4715-1.3277-2.9009-2.1309-4.2791l2.8469-1.6458c0.877 1.5028 1.655 3.0614 2.329 4.6658zm-65.568-4.1145-2.8801-1.58c0.8701-1.5097 1.8377-2.961 2.8966-4.3449l2.6168 1.9996c-0.9592 1.2587-1.8361 2.5781-2.625 3.95zm60.755-4.1557c-0.9804-1.2631-2.0414-2.4616-3.1764-3.5878l2.3206-2.3371c1.2352 1.227 2.3897 2.5326 3.4562 3.9088zm-54.945-3.415-2.3288-2.3206c1.2296-1.2329 2.5381-2.3847 3.917-3.448l2.0161 2.6086c-1.2687 0.974-2.4727 2.0295-3.6043 3.16zm48.164-3.2916c-1.2713-0.9691-2.6045-1.8543-3.9911-2.6498l1.6458-2.8554c1.5095 0.8674 2.9609 1.8323 4.345 2.8883zm-40.602-2.551-1.6458-2.8473c1.503-0.8743 3.0616-1.6495 4.6658-2.3205l1.3002 3.0118c-1.4859 0.6229-2.9291 1.3431-4.3202 2.156zm32.299-2.2219c-1.4792-0.6062-2.9966-1.1147-4.5424-1.5223l0.8229-3.1847c1.6799 0.4406 3.3292 0.9903 4.9374 1.6459zm-23.486-1.4647-0.8229-3.1764c1.6706-0.4611 3.3693-0.8129 5.0856-1.0533l0.4361 3.2916c-1.5851 0.2095-3.1547 0.5229-4.6988 0.9381zm14.261-0.9381c-1.5475-0.1967-3.1059-0.2956-4.6658-0.2963h-0.0988v-3.2916h0.1235c1.6887-7e-3 3.3762 0.092 5.0526 0.2963z" fill="#2977ff"/>
   <path d="m64.939 88.946-14.557-13.068c-0.3274-0.2924-0.5252-0.703-0.5499-1.1412-0.0247-0.4383 0.1258-0.8685 0.4182-1.1958 0.2925-0.3274 0.703-0.5252 1.1413-0.5499 0.4382-0.0247 0.8684 0.1258 1.1957 0.4182l11.126 10.039 17.281-40.684c0.0785-0.2072 0.198-0.3963 0.3513-0.5562 0.1533-0.1598 0.3373-0.2871 0.541-0.3741s0.4229-0.132 0.6444-0.1324c0.2215-3e-4 0.4407 0.0441 0.6447 0.1306 0.2039 0.0864 0.3883 0.2131 0.5421 0.3725 0.1537 0.1594 0.2738 0.3483 0.3529 0.5551 0.079 0.2069 0.1155 0.4277 0.1073 0.649-0.0083 0.2214-0.0611 0.4388-0.1554 0.6392z" fill="#65c8d0"/>
  </g>
 </g>
 <defs>
  <clipPath id="clip0">
   <rect width="133" height="131.34" fill="#fff"/>
  </clipPath>
  <clipPath id="clip1">
   <rect transform="translate(20,19)" width="94" height="94" fill="#fff"/>
  </clipPath>
 </defs>
</svg>
