<?xml version="1.0" encoding="UTF-8"?>
<svg fill="none" version="1.1" viewBox="0 0 256 256" xmlns="http://www.w3.org/2000/svg">
 <g transform="matrix(1.8678 0 0 1.8678 3.7924 5.3389)" clip-path="url(#clip0)">
  <path d="m66.5 131.34c36.727 0 66.5-29.402 66.5-65.672 0-36.27-29.773-65.672-66.5-65.672-36.727 0-66.5 29.402-66.5 65.672 0 36.27 29.773 65.672 66.5 65.672z" fill="#65c8cf" opacity=".2"/>
  <path d="m67.986 109c-0.7365-2e-3 -1.4577-0.211-2.0808-0.603-0.3466-0.214-0.6558-0.483-0.9156-0.797-1.3872-0.659-7.1442-3.188-9.9048-4.069-1.5051-0.478-2.171-0.277-3.4681 0.118-1.423 0.46-2.898 0.739-4.3905 0.832-3.3363 0.215-4.5848-1.074-5.4865-2.017-0.3698-0.49-0.8919-0.844-1.4843-1.005-0.6397-0.093-1.2504-0.327-1.787-0.687-0.5367-0.36-0.9855-0.8359-1.3135-1.3925-0.3133-0.5277-0.7704-0.9556-1.3178-1.2337-0.3202-0.1618-0.5999-0.3934-0.8184-0.6777-0.2185-0.2844-0.3703-0.6142-0.444-0.965-0.2705-1.3863 0.7491-2.6616 1.9282-4.1587 1.0613-1.3308 2.2543-2.8418 2.5387-4.3459 0.1776-0.9367 0.4092-1.8624 0.6936-2.7724-0.2968-0.1705-0.5378-0.4233-0.6936-0.7278-0.548-1.0328-0.3399-2.6061 2.3582-7.6243l0.118-0.2149c0.0337-0.062 0.0707-0.1222 0.1109-0.1802-0.8531-1.005-0.86-2.0239-0.8739-3.4656 0-0.4782 0-1.0466-0.0416-1.7397-0.0486-1.0258-0.1804-1.1159-1.0613-1.7467-1.6378-1.1196-2.9973-2.5991-3.9744-4.325-1.4704-2.4259-1.6508-3.6527-1.7548-4.3944v-0.201c-0.486-0.3347-1.0014-0.6247-1.5398-0.8664-2.2265-1.1159-2.7745-1.8991-3.1143-2.6685-0.0205-0.0531-0.0461-0.1042-0.0763-0.1525-0.3446-0.2555-0.7357-0.4415-1.1514-0.5475l-1.6994-0.61c-1.5426-0.4906-3.0395-1.1144-4.4738-1.8645-1.2554-0.6931-1.9143-1.7258-1.8034-2.8487 0.0555-0.5915 0.3069-1.1477 0.7145-1.5803-0.5166-0.2103-1.002-0.4901-1.4428-0.8317-1.3872-1.1021-1.4427-2.1556-1.2623-2.8418 0.3398-1.2823 1.7479-2.0794 4.3073-2.5022 2.9409-0.4644 5.6737-0.7624 8.4482-1.0535 2.5525-0.2703 3.3779 0.1594 4.1617 2.1833 0.1877 0.4968 0.403 0.9828 0.645 1.4556l0.111 0.201 0.2913-0.1664c1.0439-0.6287 2.2505-0.935 3.4681-0.8802-0.1942-0.3258-0.4231-0.6932-0.6173-0.9843-0.3399-0.5267-0.6936-1.0951-1.0405-1.6842-1.0473-1.816-0.9225-2.8141-0.6936-3.8399 0.2021-0.6774 0.1376-1.4063-0.1803-2.0378-0.5896-1.5387-0.8809-2.3081 0-2.9943 0.2816-0.213 0.6284-0.3218 0.9812-0.3079 0.3529 0.0139 0.6901 0.1497 0.954 0.3842 0.1833 0.1699 0.4063 0.2913 0.6486 0.353 0.2423 0.0618 0.4962 0.0619 0.7386 5e-4 1.0265-0.3189 2.1918-0.6169 3.149-0.0693 0.9572 0.5475 1.1514 1.4902 1.3872 2.5922l0.0624 0.2773c0.0486 0.201 0.0902 0.395 0.1318 0.5891 0.2006-0.1162 0.4222-0.1916 0.652-0.2218 0.3563-0.0155 0.7113 0.0537 1.0356 0.2019 0.3244 0.1482 0.6089 0.3712 0.8302 0.6507 0.5516 0.5473 1.2041 0.9828 1.9214 1.2822 0.1862 0.0805 0.3787 0.1454 0.5756 0.1941-0.3751-0.5639-0.5687-1.229-0.5548-1.9061 0-1.504 1.4357-2.0793 3.4195-2.8833 0.8809-0.3535 1.9837-0.7971 3.1906-1.3863 0.7221-0.3269 1.4178-0.7092 2.0808-1.1436v-0.5614c-0.0229-0.3512-0.067-0.7007-0.1318-1.0467-0.4258-1.9374-0.3615-3.9505 0.1873-5.8568 1.2416-3.722 7.1512-2.4744 8.032-2.2665 1.1321 0.217 2.195 0.7041 3.0983 1.4197s1.6202 1.6386 2.0899 2.6905c0.4925 1.1644 0.6937 1.2129 1.7618 1.5179 1.0996 0.2807 2.1597 0.6975 3.156 1.2407 0.6936 0.3743 1.2831 0.6931 1.8034 0.9288 2.0253 1.005 3.7732 1.8714 3.3917 4.4845 0 0.0762 0 0.194 0.1665 0.3881 0.5826 0.5822 2.2681 1.0466 4.2518 0.7624 3.5583-0.506 4.4808-0.2148 6.6032 2.0794 1.0682 1.1506 2.3375 1.3377 5.3616 1.6773 0.6936 0.0763 1.4774 0.1664 2.3307 0.2773 1.63 0.2148 3.128 0.5129 3.593 1.7536 0.465 1.2406-0.423 2.2179-1.533 3.4655-0.52 0.5892-1.117 1.2477-1.727 2.0794-1.4984 1.9962-1.2279 3.3547-0.8533 5.233 0.2304 1.0034 0.3583 2.0275 0.3813 3.0567 0 1.1783-0.118 2.3705-0.964 3.0566-0.3703 0.2475-0.7939 0.4041-1.2362 0.4571s-0.891 9e-4 -1.3093-0.1521c-0.4095-0.0997-0.8276-0.1601-1.2485-0.1802-0.065 0.3527-0.1067 0.7092-0.1249 1.0674 0.0252 1.3094-0.3712 2.5923-1.1306 3.6597 0.2535 0.2069 0.4613 0.4639 0.6105 0.755 0.1493 0.291 0.2366 0.6098 0.2565 0.9362 0.0494 0.5402 0.233 1.0596 0.5341 1.511 1.5815 2.0793 1.6508 2.8972 1.6369 5.4895v0.7347c-0.0281 0.7315 0.0874 1.4614 0.3399 2.1486 0.4104 1.1086 0.4922 2.3118 0.2358 3.4656-0.0987 0.6582-0.2589 1.3056-0.4785 1.9338l0.2219 0.1664c0.3649 0.167 0.6805 0.4252 0.9166 0.7495s0.3846 0.7039 0.4313 1.1022-0.0101 0.802-0.1647 1.172c-0.1547 0.3701-0.4021 0.6941-0.7185 0.9409-0.3314 0.4001-0.6394 0.8189-0.9225 1.2545 0.525-0.1131 1.0399-0.2684 1.5398-0.4643 0.5538-0.241 1.1651-0.3182 1.7614-0.2224 0.596 0.0959 1.152 0.3607 1.603 0.763 1.075 1.005 1.387 2.7725 0.811 4.6092-0.742 2.3843-2.323 3.7359-4.3279 5.4479l-1.1653 1.005c-0.5094 0.3602-0.8578 0.9048-0.9711 1.518-0.2913 1.3169-0.8601 2.0792-3.1282 2.7722-2.7744 0.846-6.0066-1.012-8.136-2.2454-0.3815-0.2218-0.8324-0.4852-1.1376-0.6377-0.7768 0.2634-1.8242 0.0901-3.3987-0.1594-1.761-0.3049-3.5367-0.5178-5.32-0.6377-1.7062-0.104-2.0808 0.0901-2.0808 0.1178 0 0.0278-0.0694 0.2357-0.1179 0.3951-0.2742 1.0774-0.8721 2.0449-1.7132 2.7723-0.2497 0.222-0.3191 0.277 0.3537 1.511s1.8658 3.396-0.3468 5.358c-0.8716 0.865-2.039 1.368-3.2669 1.407zm-0.6936-3.029c0.17 0.14 0.3775 0.227 0.5965 0.25 0.5771-0.034 1.1209-0.281 1.5259-0.694 0.4648-0.408 0.5341-0.547-0.2427-1.954-0.6104-1.109-1.7479-3.182 0.2497-4.9282 0.4518-0.384 0.7659-0.9047 0.8947-1.4832 0.6381-2.0447 1.8589-2.6408 5.0426-2.4468 1.8743 0.1334 3.7404 0.3648 5.5905 0.6932 0.6583 0.1235 1.3228 0.2115 1.9907 0.2633 0.9155-0.6238 2.0184 0 3.468 0.8734 1.6092 0.9288 4.3074 2.4883 5.9443 1.9962 0.4229-0.0845 0.8241-0.2543 1.1791-0.4991 0 0 0-0.1525 0.0555-0.2495 0.2364-1.1867 0.8911-2.2491 1.845-2.9943 0.4162-0.3673 0.8185-0.6931 1.193-1.0327 1.8589-1.5873 2.9756-2.5507 3.4685-4.1587 0.298-0.9635 0.124-1.5873-0.056-1.7606-0.1802-0.1732-0.3953 0-0.5132 0-2.6149 1.0051-4.3836 0.9843-5.2575-0.0485-0.4648-0.5475-0.8185-1.5387 0.1248-3.1467 0.411-0.6778 0.8749-1.322 1.3872-1.9269-1.1583-0.8456-1.8311-1.4625-1.2415-3.0636 0.2069-0.5413 0.3534-1.1039 0.4369-1.6773 0.1799-0.7051 0.1363-1.4486-0.1248-2.1279-0.3542-0.9743-0.5213-2.0066-0.4925-3.0428v-0.804c0-2.2596 0-2.3913-1.0612-3.7844-0.3586-0.4706-0.631-1.001-0.8046-1.5665-0.7491 0.6931-1.8936 1.615-2.9062 0.6516-0.5965-0.5684-1.3387-1.2684 2.3999-5.7529 0.3492-0.6359 0.5193-1.3545 0.4924-2.0794 0.0902-1.1783 0.2705-3.6388 2.8161-3.6388 0.6378 0.0108 1.2726 0.0898 1.8936 0.2356h0.1387v-0.6931c-0.0239-0.8475-0.1331-1.6904-0.326-2.516-0.4162-2.0794-0.8878-4.4498 1.3872-7.4372 0.6936-0.908 1.3456-1.6496 1.8797-2.2457l0.444-0.5059c-0.208-0.0416-0.472-0.0832-0.7977-0.1248-0.8324-0.1109-1.5884-0.1941-2.2751-0.2703-3.1837-0.3604-5.2853-0.5961-7.0887-2.5507-1.4774-1.5942-1.4774-1.5942-4.1617-1.213-2.6843 0.3813-5.2645-0.194-6.6517-1.5179-0.3684-0.3525-0.6465-0.7885-0.8107-1.271-0.1642-0.4826-0.2097-0.9976-0.1326-1.5015 0.0832-0.5822 0.0901-0.6238-1.8797-1.608-0.548-0.2703-1.1861-0.5891-1.9005-0.9773-0.8116-0.4429-1.6763-0.7806-2.5733-1.005-1.5468-0.4297-2.6357-0.8803-3.5791-3.1121-0.2886-0.6287-0.7229-1.1798-1.2668-1.6076-0.544-0.4279-1.182-0.7202-1.8613-0.853h-0.111c-1.7965-0.4297-4.4877-0.4713-4.7929 0.4367-0.4 1.4739-0.4309 3.0235-0.0902 4.5122 0.0924 0.4873 0.1481 0.9807 0.1665 1.4763v0.3327c0.1526 1.8437-0.8184 2.4883-3.6414 3.8607-1.2971 0.6377-2.4485 1.0951-3.371 1.4694-0.548 0.2218-1.1999 0.4852-1.5884 0.6931 0.0644 0.0636 0.1428 0.111 0.2289 0.1386 0.2882 0.1139 0.5409 0.3023 0.7323 0.5459 0.1913 0.2435 0.3144 0.5336 0.3567 0.8404 0.0467 0.4118-0.0152 0.8286-0.1794 1.2092-0.1643 0.3805-0.4252 0.7116-0.757 0.9602-0.5063 0.3882-1.9421 1.1922-4.2865 0.208-0.8523-0.3536-1.6417-0.8428-2.3375-1.4486-0.1999 0.2958-0.4786 0.5298-0.8047 0.6755-0.326 0.1458-0.6864 0.1975-1.0403 0.1493-1.2624-0.2288-1.5329-1.518-1.8519-3.0012-0.0555-0.2496-0.111-0.5129-0.1734-0.7833l-0.0694-0.2911c-0.0555-0.2356-0.1179-0.5129-0.1734-0.6931-0.2839 0.0571-0.5642 0.1312-0.8393 0.2218-0.3682 0.1156-0.7515 0.1764-1.1375 0.1802 0.1706 0.8107 0.1396 1.6508-0.0902 2.4467-0.1387 0.5407-0.1942 0.7902 0.3746 1.7883 0.319 0.5475 0.6589 1.0812 0.978 1.5734 1.1375 1.7743 2.0323 3.1744 1.2346 4.4151-0.7976 1.2407-2.2681 0.9219-2.8577 0.8387-0.789-0.0937-1.5861 0.0901-2.2542 0.5198-0.351 0.2429-0.7486 0.4102-1.1677 0.4914-0.4191 0.0811-0.8506 0.0743-1.2669-0.0201-0.388-0.1542-0.7416-0.3836-1.0404-0.6751-0.2988-0.2914-0.5369-0.6391-0.7006-1.023-0.2857-0.5585-0.5404-1.1324-0.7629-1.7189-0.0694-0.1664-0.1457-0.3674-0.2012-0.4921-0.3662-0.0095-0.7325 9e-3 -1.0959 0.0554-2.7398 0.2911-5.431 0.5822-8.3233 1.0397-0.5981 0.0787-1.1848 0.2276-1.7479 0.4436 0.7286 0.4584 1.5348 0.7802 2.3791 0.9496 0.9086 0.2425 2.0322 0.5475 2.0808 1.7328 0.0485 1.1852-1.1722 1.608-1.7479 1.7882-0.3231 0.0903-0.6281 0.2357-0.9017 0.4297 0.0826 0.0653 0.1708 0.1233 0.2636 0.1733 1.3056 0.6766 2.668 1.2378 4.0715 1.6774l1.7132 0.6168c1.8103 0.6585 2.3583 1.2268 2.7744 2.0794 0.1249 0.2564 0.2914 0.6099 1.852 1.3862 2.2473 1.1229 2.8438 1.608 3.0727 3.1468 0.0832 0.5614 0.2081 1.3862 1.3872 3.3547 0.7807 1.4043 1.8807 2.6057 3.2114 3.5071 0.6975 0.3865 1.2744 0.9581 1.6673 1.6516s0.5865 1.482 0.5592 2.2784c0 0.7347 0.0347 1.3377 0.0416 1.8437 0 1.6566 0 1.6566 0.7353 2.1764 1.949 1.3862 2.9339 4.2488 3.0449 4.5676l3.4681 10.397-5.9512-9.2115c-0.4183-0.6619-0.8818-1.2941-1.3872-1.8922-0.6837 1.2195-1.2571 2.4976-1.7132 3.819 0.3449 0.1169 0.6406 0.3464 0.8392 0.6516 0.4578 0.6931 0.2359 1.3862 0 2.1348-0.2947 0.9377-0.5264 1.894-0.6936 2.8626-0.4023 2.1833-1.8935 4.0616-3.0935 5.5449-0.4754 0.5612-0.9089 1.1566-1.2971 1.7813 0.8468 0.4819 1.5616 1.1652 2.0809 1.9893 0.3399 0.5059 0.4508 0.6931 1.3872 0.8871 1.1307 0.2671 2.1435 0.8948 2.8854 1.7884 0.7561 0.79 1.2555 1.31 3.3016 1.171 1.2662-0.08 2.5174-0.317 3.7247-0.707 1.6428-0.638 3.4584-0.674 5.1258-0.104 1.8936 0.603 4.9385 1.879 6.5893 2.579 1.1167 0.478 2.1294 0.922 2.8646 1.254 1.0266 0.43 1.6647 0.735 1.8659 1.227z" fill="#2977ff"/>
 </g>
 <defs>
  <clipPath id="clip0">
   <rect width="133" height="131.34" fill="#fff"/>
  </clipPath>
 </defs>
</svg>
